%TF.GenerationSoftware,KiCad,Pcbnew,7.0.7*%
%TF.CreationDate,2023-09-20T12:31:10+02:00*%
%TF.ProjectId,Window_EMP_monitor_59_4x23_5x1.6mm,57696e64-6f77-45f4-954d-505f6d6f6e69,rev?*%
%TF.SameCoordinates,Original*%
%TF.FileFunction,Legend,Bot*%
%TF.FilePolarity,Positive*%
%FSLAX46Y46*%
G04 Gerber Fmt 4.6, Leading zero omitted, Abs format (unit mm)*
G04 Created by KiCad (PCBNEW 7.0.7) date 2023-09-20 12:31:10*
%MOMM*%
%LPD*%
G01*
G04 APERTURE LIST*
%ADD10C,0.150000*%
%ADD11C,0.200000*%
%ADD12C,0.010000*%
G04 APERTURE END LIST*
D10*
X148473409Y-102400000D02*
G75*
G03*
X148473409Y-102400000I-726705J0D01*
G01*
X148119924Y-102398866D02*
X147358020Y-102398866D01*
X147738972Y-102779819D02*
X147738972Y-102017914D01*
D11*
X194408571Y-92662980D02*
X194199047Y-92662980D01*
X194199047Y-92662980D02*
X194094285Y-92715361D01*
X194094285Y-92715361D02*
X193989523Y-92820123D01*
X193989523Y-92820123D02*
X193937142Y-93029647D01*
X193937142Y-93029647D02*
X193937142Y-93396314D01*
X193937142Y-93396314D02*
X193989523Y-93605838D01*
X193989523Y-93605838D02*
X194094285Y-93710600D01*
X194094285Y-93710600D02*
X194199047Y-93762980D01*
X194199047Y-93762980D02*
X194408571Y-93762980D01*
X194408571Y-93762980D02*
X194513333Y-93710600D01*
X194513333Y-93710600D02*
X194618095Y-93605838D01*
X194618095Y-93605838D02*
X194670476Y-93396314D01*
X194670476Y-93396314D02*
X194670476Y-93029647D01*
X194670476Y-93029647D02*
X194618095Y-92820123D01*
X194618095Y-92820123D02*
X194513333Y-92715361D01*
X194513333Y-92715361D02*
X194408571Y-92662980D01*
X193465714Y-93762980D02*
X193465714Y-92662980D01*
X193465714Y-92662980D02*
X193046666Y-92662980D01*
X193046666Y-92662980D02*
X192941904Y-92715361D01*
X192941904Y-92715361D02*
X192889523Y-92767742D01*
X192889523Y-92767742D02*
X192837142Y-92872504D01*
X192837142Y-92872504D02*
X192837142Y-93029647D01*
X192837142Y-93029647D02*
X192889523Y-93134409D01*
X192889523Y-93134409D02*
X192941904Y-93186790D01*
X192941904Y-93186790D02*
X193046666Y-93239171D01*
X193046666Y-93239171D02*
X193465714Y-93239171D01*
X192365714Y-93186790D02*
X191999047Y-93186790D01*
X191841904Y-93762980D02*
X192365714Y-93762980D01*
X192365714Y-93762980D02*
X192365714Y-92662980D01*
X192365714Y-92662980D02*
X191841904Y-92662980D01*
X191370476Y-93762980D02*
X191370476Y-92662980D01*
X191370476Y-92662980D02*
X190741904Y-93762980D01*
X190741904Y-93762980D02*
X190741904Y-92662980D01*
X196110952Y-94957790D02*
X196477619Y-94957790D01*
X196477619Y-95533980D02*
X196477619Y-94433980D01*
X196477619Y-94433980D02*
X195953809Y-94433980D01*
X195534762Y-95533980D02*
X195534762Y-94433980D01*
X194382380Y-95533980D02*
X194749047Y-95010171D01*
X195010952Y-95533980D02*
X195010952Y-94433980D01*
X195010952Y-94433980D02*
X194591904Y-94433980D01*
X194591904Y-94433980D02*
X194487142Y-94486361D01*
X194487142Y-94486361D02*
X194434761Y-94538742D01*
X194434761Y-94538742D02*
X194382380Y-94643504D01*
X194382380Y-94643504D02*
X194382380Y-94800647D01*
X194382380Y-94800647D02*
X194434761Y-94905409D01*
X194434761Y-94905409D02*
X194487142Y-94957790D01*
X194487142Y-94957790D02*
X194591904Y-95010171D01*
X194591904Y-95010171D02*
X195010952Y-95010171D01*
X193910952Y-95533980D02*
X193910952Y-94433980D01*
X193910952Y-94433980D02*
X193544285Y-95219695D01*
X193544285Y-95219695D02*
X193177618Y-94433980D01*
X193177618Y-94433980D02*
X193177618Y-95533980D01*
X192758571Y-94433980D02*
X192496666Y-95533980D01*
X192496666Y-95533980D02*
X192287142Y-94748266D01*
X192287142Y-94748266D02*
X192077618Y-95533980D01*
X192077618Y-95533980D02*
X191815714Y-94433980D01*
X191449047Y-95219695D02*
X190925237Y-95219695D01*
X191553809Y-95533980D02*
X191187142Y-94433980D01*
X191187142Y-94433980D02*
X190820475Y-95533980D01*
X189825237Y-95533980D02*
X190191904Y-95010171D01*
X190453809Y-95533980D02*
X190453809Y-94433980D01*
X190453809Y-94433980D02*
X190034761Y-94433980D01*
X190034761Y-94433980D02*
X189929999Y-94486361D01*
X189929999Y-94486361D02*
X189877618Y-94538742D01*
X189877618Y-94538742D02*
X189825237Y-94643504D01*
X189825237Y-94643504D02*
X189825237Y-94800647D01*
X189825237Y-94800647D02*
X189877618Y-94905409D01*
X189877618Y-94905409D02*
X189929999Y-94957790D01*
X189929999Y-94957790D02*
X190034761Y-95010171D01*
X190034761Y-95010171D02*
X190453809Y-95010171D01*
X189353809Y-94957790D02*
X188987142Y-94957790D01*
X188829999Y-95533980D02*
X189353809Y-95533980D01*
X189353809Y-95533980D02*
X189353809Y-94433980D01*
X189353809Y-94433980D02*
X188829999Y-94433980D01*
D10*
X148899411Y-99287438D02*
X148994649Y-99239819D01*
X148994649Y-99239819D02*
X149137506Y-99239819D01*
X149137506Y-99239819D02*
X149280363Y-99287438D01*
X149280363Y-99287438D02*
X149375601Y-99382676D01*
X149375601Y-99382676D02*
X149423220Y-99477914D01*
X149423220Y-99477914D02*
X149470839Y-99668390D01*
X149470839Y-99668390D02*
X149470839Y-99811247D01*
X149470839Y-99811247D02*
X149423220Y-100001723D01*
X149423220Y-100001723D02*
X149375601Y-100096961D01*
X149375601Y-100096961D02*
X149280363Y-100192200D01*
X149280363Y-100192200D02*
X149137506Y-100239819D01*
X149137506Y-100239819D02*
X149042268Y-100239819D01*
X149042268Y-100239819D02*
X148899411Y-100192200D01*
X148899411Y-100192200D02*
X148851792Y-100144580D01*
X148851792Y-100144580D02*
X148851792Y-99811247D01*
X148851792Y-99811247D02*
X149042268Y-99811247D01*
X148423220Y-100239819D02*
X148423220Y-99239819D01*
X148423220Y-99239819D02*
X147851792Y-100239819D01*
X147851792Y-100239819D02*
X147851792Y-99239819D01*
X147375601Y-100239819D02*
X147375601Y-99239819D01*
X147375601Y-99239819D02*
X147137506Y-99239819D01*
X147137506Y-99239819D02*
X146994649Y-99287438D01*
X146994649Y-99287438D02*
X146899411Y-99382676D01*
X146899411Y-99382676D02*
X146851792Y-99477914D01*
X146851792Y-99477914D02*
X146804173Y-99668390D01*
X146804173Y-99668390D02*
X146804173Y-99811247D01*
X146804173Y-99811247D02*
X146851792Y-100001723D01*
X146851792Y-100001723D02*
X146899411Y-100096961D01*
X146899411Y-100096961D02*
X146994649Y-100192200D01*
X146994649Y-100192200D02*
X147137506Y-100239819D01*
X147137506Y-100239819D02*
X147375601Y-100239819D01*
D11*
X174538898Y-86886980D02*
X174586517Y-86934600D01*
X174586517Y-86934600D02*
X174729374Y-86982219D01*
X174729374Y-86982219D02*
X174824612Y-86982219D01*
X174824612Y-86982219D02*
X174967469Y-86934600D01*
X174967469Y-86934600D02*
X175062707Y-86839361D01*
X175062707Y-86839361D02*
X175110326Y-86744123D01*
X175110326Y-86744123D02*
X175157945Y-86553647D01*
X175157945Y-86553647D02*
X175157945Y-86410790D01*
X175157945Y-86410790D02*
X175110326Y-86220314D01*
X175110326Y-86220314D02*
X175062707Y-86125076D01*
X175062707Y-86125076D02*
X174967469Y-86029838D01*
X174967469Y-86029838D02*
X174824612Y-85982219D01*
X174824612Y-85982219D02*
X174729374Y-85982219D01*
X174729374Y-85982219D02*
X174586517Y-86029838D01*
X174586517Y-86029838D02*
X174538898Y-86077457D01*
X173967469Y-86982219D02*
X174062707Y-86934600D01*
X174062707Y-86934600D02*
X174110326Y-86886980D01*
X174110326Y-86886980D02*
X174157945Y-86791742D01*
X174157945Y-86791742D02*
X174157945Y-86506028D01*
X174157945Y-86506028D02*
X174110326Y-86410790D01*
X174110326Y-86410790D02*
X174062707Y-86363171D01*
X174062707Y-86363171D02*
X173967469Y-86315552D01*
X173967469Y-86315552D02*
X173824612Y-86315552D01*
X173824612Y-86315552D02*
X173729374Y-86363171D01*
X173729374Y-86363171D02*
X173681755Y-86410790D01*
X173681755Y-86410790D02*
X173634136Y-86506028D01*
X173634136Y-86506028D02*
X173634136Y-86791742D01*
X173634136Y-86791742D02*
X173681755Y-86886980D01*
X173681755Y-86886980D02*
X173729374Y-86934600D01*
X173729374Y-86934600D02*
X173824612Y-86982219D01*
X173824612Y-86982219D02*
X173967469Y-86982219D01*
X173205564Y-86315552D02*
X173205564Y-86982219D01*
X173205564Y-86410790D02*
X173157945Y-86363171D01*
X173157945Y-86363171D02*
X173062707Y-86315552D01*
X173062707Y-86315552D02*
X172919850Y-86315552D01*
X172919850Y-86315552D02*
X172824612Y-86363171D01*
X172824612Y-86363171D02*
X172776993Y-86458409D01*
X172776993Y-86458409D02*
X172776993Y-86982219D01*
X172443659Y-86315552D02*
X172062707Y-86315552D01*
X172300802Y-85982219D02*
X172300802Y-86839361D01*
X172300802Y-86839361D02*
X172253183Y-86934600D01*
X172253183Y-86934600D02*
X172157945Y-86982219D01*
X172157945Y-86982219D02*
X172062707Y-86982219D01*
X171300802Y-86982219D02*
X171300802Y-86458409D01*
X171300802Y-86458409D02*
X171348421Y-86363171D01*
X171348421Y-86363171D02*
X171443659Y-86315552D01*
X171443659Y-86315552D02*
X171634135Y-86315552D01*
X171634135Y-86315552D02*
X171729373Y-86363171D01*
X171300802Y-86934600D02*
X171396040Y-86982219D01*
X171396040Y-86982219D02*
X171634135Y-86982219D01*
X171634135Y-86982219D02*
X171729373Y-86934600D01*
X171729373Y-86934600D02*
X171776992Y-86839361D01*
X171776992Y-86839361D02*
X171776992Y-86744123D01*
X171776992Y-86744123D02*
X171729373Y-86648885D01*
X171729373Y-86648885D02*
X171634135Y-86601266D01*
X171634135Y-86601266D02*
X171396040Y-86601266D01*
X171396040Y-86601266D02*
X171300802Y-86553647D01*
X170396040Y-86934600D02*
X170491278Y-86982219D01*
X170491278Y-86982219D02*
X170681754Y-86982219D01*
X170681754Y-86982219D02*
X170776992Y-86934600D01*
X170776992Y-86934600D02*
X170824611Y-86886980D01*
X170824611Y-86886980D02*
X170872230Y-86791742D01*
X170872230Y-86791742D02*
X170872230Y-86506028D01*
X170872230Y-86506028D02*
X170824611Y-86410790D01*
X170824611Y-86410790D02*
X170776992Y-86363171D01*
X170776992Y-86363171D02*
X170681754Y-86315552D01*
X170681754Y-86315552D02*
X170491278Y-86315552D01*
X170491278Y-86315552D02*
X170396040Y-86363171D01*
X170110325Y-86315552D02*
X169729373Y-86315552D01*
X169967468Y-85982219D02*
X169967468Y-86839361D01*
X169967468Y-86839361D02*
X169919849Y-86934600D01*
X169919849Y-86934600D02*
X169824611Y-86982219D01*
X169824611Y-86982219D02*
X169729373Y-86982219D01*
X168681753Y-86696504D02*
X168205563Y-86696504D01*
X168776991Y-86982219D02*
X168443658Y-85982219D01*
X168443658Y-85982219D02*
X168110325Y-86982219D01*
X167396039Y-86934600D02*
X167491277Y-86982219D01*
X167491277Y-86982219D02*
X167681753Y-86982219D01*
X167681753Y-86982219D02*
X167776991Y-86934600D01*
X167776991Y-86934600D02*
X167824610Y-86839361D01*
X167824610Y-86839361D02*
X167824610Y-86458409D01*
X167824610Y-86458409D02*
X167776991Y-86363171D01*
X167776991Y-86363171D02*
X167681753Y-86315552D01*
X167681753Y-86315552D02*
X167491277Y-86315552D01*
X167491277Y-86315552D02*
X167396039Y-86363171D01*
X167396039Y-86363171D02*
X167348420Y-86458409D01*
X167348420Y-86458409D02*
X167348420Y-86553647D01*
X167348420Y-86553647D02*
X167824610Y-86648885D01*
X166776991Y-86982219D02*
X166872229Y-86934600D01*
X166872229Y-86934600D02*
X166919848Y-86886980D01*
X166919848Y-86886980D02*
X166967467Y-86791742D01*
X166967467Y-86791742D02*
X166967467Y-86506028D01*
X166967467Y-86506028D02*
X166919848Y-86410790D01*
X166919848Y-86410790D02*
X166872229Y-86363171D01*
X166872229Y-86363171D02*
X166776991Y-86315552D01*
X166776991Y-86315552D02*
X166634134Y-86315552D01*
X166634134Y-86315552D02*
X166538896Y-86363171D01*
X166538896Y-86363171D02*
X166491277Y-86410790D01*
X166491277Y-86410790D02*
X166443658Y-86506028D01*
X166443658Y-86506028D02*
X166443658Y-86791742D01*
X166443658Y-86791742D02*
X166491277Y-86886980D01*
X166491277Y-86886980D02*
X166538896Y-86934600D01*
X166538896Y-86934600D02*
X166634134Y-86982219D01*
X166634134Y-86982219D02*
X166776991Y-86982219D01*
X166015086Y-86315552D02*
X166015086Y-86982219D01*
X166015086Y-86410790D02*
X165967467Y-86363171D01*
X165967467Y-86363171D02*
X165872229Y-86315552D01*
X165872229Y-86315552D02*
X165729372Y-86315552D01*
X165729372Y-86315552D02*
X165634134Y-86363171D01*
X165634134Y-86363171D02*
X165586515Y-86458409D01*
X165586515Y-86458409D02*
X165586515Y-86982219D01*
X164634134Y-86982219D02*
X165110324Y-86982219D01*
X165110324Y-86982219D02*
X165110324Y-85982219D01*
X163872229Y-86982219D02*
X163872229Y-86458409D01*
X163872229Y-86458409D02*
X163919848Y-86363171D01*
X163919848Y-86363171D02*
X164015086Y-86315552D01*
X164015086Y-86315552D02*
X164205562Y-86315552D01*
X164205562Y-86315552D02*
X164300800Y-86363171D01*
X163872229Y-86934600D02*
X163967467Y-86982219D01*
X163967467Y-86982219D02*
X164205562Y-86982219D01*
X164205562Y-86982219D02*
X164300800Y-86934600D01*
X164300800Y-86934600D02*
X164348419Y-86839361D01*
X164348419Y-86839361D02*
X164348419Y-86744123D01*
X164348419Y-86744123D02*
X164300800Y-86648885D01*
X164300800Y-86648885D02*
X164205562Y-86601266D01*
X164205562Y-86601266D02*
X163967467Y-86601266D01*
X163967467Y-86601266D02*
X163872229Y-86553647D01*
X163396038Y-86982219D02*
X163396038Y-85982219D01*
X163396038Y-86363171D02*
X163300800Y-86315552D01*
X163300800Y-86315552D02*
X163110324Y-86315552D01*
X163110324Y-86315552D02*
X163015086Y-86363171D01*
X163015086Y-86363171D02*
X162967467Y-86410790D01*
X162967467Y-86410790D02*
X162919848Y-86506028D01*
X162919848Y-86506028D02*
X162919848Y-86791742D01*
X162919848Y-86791742D02*
X162967467Y-86886980D01*
X162967467Y-86886980D02*
X163015086Y-86934600D01*
X163015086Y-86934600D02*
X163110324Y-86982219D01*
X163110324Y-86982219D02*
X163300800Y-86982219D01*
X163300800Y-86982219D02*
X163396038Y-86934600D01*
X162538895Y-86934600D02*
X162443657Y-86982219D01*
X162443657Y-86982219D02*
X162253181Y-86982219D01*
X162253181Y-86982219D02*
X162157943Y-86934600D01*
X162157943Y-86934600D02*
X162110324Y-86839361D01*
X162110324Y-86839361D02*
X162110324Y-86791742D01*
X162110324Y-86791742D02*
X162157943Y-86696504D01*
X162157943Y-86696504D02*
X162253181Y-86648885D01*
X162253181Y-86648885D02*
X162396038Y-86648885D01*
X162396038Y-86648885D02*
X162491276Y-86601266D01*
X162491276Y-86601266D02*
X162538895Y-86506028D01*
X162538895Y-86506028D02*
X162538895Y-86458409D01*
X162538895Y-86458409D02*
X162491276Y-86363171D01*
X162491276Y-86363171D02*
X162396038Y-86315552D01*
X162396038Y-86315552D02*
X162253181Y-86315552D01*
X162253181Y-86315552D02*
X162157943Y-86363171D01*
X175253183Y-87925552D02*
X174872231Y-87925552D01*
X175110326Y-88592219D02*
X175110326Y-87735076D01*
X175110326Y-87735076D02*
X175062707Y-87639838D01*
X175062707Y-87639838D02*
X174967469Y-87592219D01*
X174967469Y-87592219D02*
X174872231Y-87592219D01*
X174396040Y-88592219D02*
X174491278Y-88544600D01*
X174491278Y-88544600D02*
X174538897Y-88496980D01*
X174538897Y-88496980D02*
X174586516Y-88401742D01*
X174586516Y-88401742D02*
X174586516Y-88116028D01*
X174586516Y-88116028D02*
X174538897Y-88020790D01*
X174538897Y-88020790D02*
X174491278Y-87973171D01*
X174491278Y-87973171D02*
X174396040Y-87925552D01*
X174396040Y-87925552D02*
X174253183Y-87925552D01*
X174253183Y-87925552D02*
X174157945Y-87973171D01*
X174157945Y-87973171D02*
X174110326Y-88020790D01*
X174110326Y-88020790D02*
X174062707Y-88116028D01*
X174062707Y-88116028D02*
X174062707Y-88401742D01*
X174062707Y-88401742D02*
X174110326Y-88496980D01*
X174110326Y-88496980D02*
X174157945Y-88544600D01*
X174157945Y-88544600D02*
X174253183Y-88592219D01*
X174253183Y-88592219D02*
X174396040Y-88592219D01*
X173634135Y-88592219D02*
X173634135Y-87925552D01*
X173634135Y-88116028D02*
X173586516Y-88020790D01*
X173586516Y-88020790D02*
X173538897Y-87973171D01*
X173538897Y-87973171D02*
X173443659Y-87925552D01*
X173443659Y-87925552D02*
X173348421Y-87925552D01*
X171824611Y-88592219D02*
X171824611Y-88068409D01*
X171824611Y-88068409D02*
X171872230Y-87973171D01*
X171872230Y-87973171D02*
X171967468Y-87925552D01*
X171967468Y-87925552D02*
X172157944Y-87925552D01*
X172157944Y-87925552D02*
X172253182Y-87973171D01*
X171824611Y-88544600D02*
X171919849Y-88592219D01*
X171919849Y-88592219D02*
X172157944Y-88592219D01*
X172157944Y-88592219D02*
X172253182Y-88544600D01*
X172253182Y-88544600D02*
X172300801Y-88449361D01*
X172300801Y-88449361D02*
X172300801Y-88354123D01*
X172300801Y-88354123D02*
X172253182Y-88258885D01*
X172253182Y-88258885D02*
X172157944Y-88211266D01*
X172157944Y-88211266D02*
X171919849Y-88211266D01*
X171919849Y-88211266D02*
X171824611Y-88163647D01*
X170015087Y-88496980D02*
X170062706Y-88544600D01*
X170062706Y-88544600D02*
X170205563Y-88592219D01*
X170205563Y-88592219D02*
X170300801Y-88592219D01*
X170300801Y-88592219D02*
X170443658Y-88544600D01*
X170443658Y-88544600D02*
X170538896Y-88449361D01*
X170538896Y-88449361D02*
X170586515Y-88354123D01*
X170586515Y-88354123D02*
X170634134Y-88163647D01*
X170634134Y-88163647D02*
X170634134Y-88020790D01*
X170634134Y-88020790D02*
X170586515Y-87830314D01*
X170586515Y-87830314D02*
X170538896Y-87735076D01*
X170538896Y-87735076D02*
X170443658Y-87639838D01*
X170443658Y-87639838D02*
X170300801Y-87592219D01*
X170300801Y-87592219D02*
X170205563Y-87592219D01*
X170205563Y-87592219D02*
X170062706Y-87639838D01*
X170062706Y-87639838D02*
X170015087Y-87687457D01*
X169443658Y-88592219D02*
X169538896Y-88544600D01*
X169538896Y-88544600D02*
X169586515Y-88496980D01*
X169586515Y-88496980D02*
X169634134Y-88401742D01*
X169634134Y-88401742D02*
X169634134Y-88116028D01*
X169634134Y-88116028D02*
X169586515Y-88020790D01*
X169586515Y-88020790D02*
X169538896Y-87973171D01*
X169538896Y-87973171D02*
X169443658Y-87925552D01*
X169443658Y-87925552D02*
X169300801Y-87925552D01*
X169300801Y-87925552D02*
X169205563Y-87973171D01*
X169205563Y-87973171D02*
X169157944Y-88020790D01*
X169157944Y-88020790D02*
X169110325Y-88116028D01*
X169110325Y-88116028D02*
X169110325Y-88401742D01*
X169110325Y-88401742D02*
X169157944Y-88496980D01*
X169157944Y-88496980D02*
X169205563Y-88544600D01*
X169205563Y-88544600D02*
X169300801Y-88592219D01*
X169300801Y-88592219D02*
X169443658Y-88592219D01*
X168681753Y-88592219D02*
X168681753Y-87925552D01*
X168681753Y-88020790D02*
X168634134Y-87973171D01*
X168634134Y-87973171D02*
X168538896Y-87925552D01*
X168538896Y-87925552D02*
X168396039Y-87925552D01*
X168396039Y-87925552D02*
X168300801Y-87973171D01*
X168300801Y-87973171D02*
X168253182Y-88068409D01*
X168253182Y-88068409D02*
X168253182Y-88592219D01*
X168253182Y-88068409D02*
X168205563Y-87973171D01*
X168205563Y-87973171D02*
X168110325Y-87925552D01*
X168110325Y-87925552D02*
X167967468Y-87925552D01*
X167967468Y-87925552D02*
X167872229Y-87973171D01*
X167872229Y-87973171D02*
X167824610Y-88068409D01*
X167824610Y-88068409D02*
X167824610Y-88592219D01*
X167348420Y-88592219D02*
X167348420Y-87925552D01*
X167348420Y-88020790D02*
X167300801Y-87973171D01*
X167300801Y-87973171D02*
X167205563Y-87925552D01*
X167205563Y-87925552D02*
X167062706Y-87925552D01*
X167062706Y-87925552D02*
X166967468Y-87973171D01*
X166967468Y-87973171D02*
X166919849Y-88068409D01*
X166919849Y-88068409D02*
X166919849Y-88592219D01*
X166919849Y-88068409D02*
X166872230Y-87973171D01*
X166872230Y-87973171D02*
X166776992Y-87925552D01*
X166776992Y-87925552D02*
X166634135Y-87925552D01*
X166634135Y-87925552D02*
X166538896Y-87973171D01*
X166538896Y-87973171D02*
X166491277Y-88068409D01*
X166491277Y-88068409D02*
X166491277Y-88592219D01*
X165634135Y-88544600D02*
X165729373Y-88592219D01*
X165729373Y-88592219D02*
X165919849Y-88592219D01*
X165919849Y-88592219D02*
X166015087Y-88544600D01*
X166015087Y-88544600D02*
X166062706Y-88449361D01*
X166062706Y-88449361D02*
X166062706Y-88068409D01*
X166062706Y-88068409D02*
X166015087Y-87973171D01*
X166015087Y-87973171D02*
X165919849Y-87925552D01*
X165919849Y-87925552D02*
X165729373Y-87925552D01*
X165729373Y-87925552D02*
X165634135Y-87973171D01*
X165634135Y-87973171D02*
X165586516Y-88068409D01*
X165586516Y-88068409D02*
X165586516Y-88163647D01*
X165586516Y-88163647D02*
X166062706Y-88258885D01*
X165157944Y-88592219D02*
X165157944Y-87925552D01*
X165157944Y-88116028D02*
X165110325Y-88020790D01*
X165110325Y-88020790D02*
X165062706Y-87973171D01*
X165062706Y-87973171D02*
X164967468Y-87925552D01*
X164967468Y-87925552D02*
X164872230Y-87925552D01*
X164110325Y-88544600D02*
X164205563Y-88592219D01*
X164205563Y-88592219D02*
X164396039Y-88592219D01*
X164396039Y-88592219D02*
X164491277Y-88544600D01*
X164491277Y-88544600D02*
X164538896Y-88496980D01*
X164538896Y-88496980D02*
X164586515Y-88401742D01*
X164586515Y-88401742D02*
X164586515Y-88116028D01*
X164586515Y-88116028D02*
X164538896Y-88020790D01*
X164538896Y-88020790D02*
X164491277Y-87973171D01*
X164491277Y-87973171D02*
X164396039Y-87925552D01*
X164396039Y-87925552D02*
X164205563Y-87925552D01*
X164205563Y-87925552D02*
X164110325Y-87973171D01*
X163681753Y-88592219D02*
X163681753Y-87925552D01*
X163681753Y-87592219D02*
X163729372Y-87639838D01*
X163729372Y-87639838D02*
X163681753Y-87687457D01*
X163681753Y-87687457D02*
X163634134Y-87639838D01*
X163634134Y-87639838D02*
X163681753Y-87592219D01*
X163681753Y-87592219D02*
X163681753Y-87687457D01*
X162776992Y-88592219D02*
X162776992Y-88068409D01*
X162776992Y-88068409D02*
X162824611Y-87973171D01*
X162824611Y-87973171D02*
X162919849Y-87925552D01*
X162919849Y-87925552D02*
X163110325Y-87925552D01*
X163110325Y-87925552D02*
X163205563Y-87973171D01*
X162776992Y-88544600D02*
X162872230Y-88592219D01*
X162872230Y-88592219D02*
X163110325Y-88592219D01*
X163110325Y-88592219D02*
X163205563Y-88544600D01*
X163205563Y-88544600D02*
X163253182Y-88449361D01*
X163253182Y-88449361D02*
X163253182Y-88354123D01*
X163253182Y-88354123D02*
X163205563Y-88258885D01*
X163205563Y-88258885D02*
X163110325Y-88211266D01*
X163110325Y-88211266D02*
X162872230Y-88211266D01*
X162872230Y-88211266D02*
X162776992Y-88163647D01*
X162157944Y-88592219D02*
X162253182Y-88544600D01*
X162253182Y-88544600D02*
X162300801Y-88449361D01*
X162300801Y-88449361D02*
X162300801Y-87592219D01*
X174634136Y-90202219D02*
X175110326Y-90202219D01*
X175110326Y-90202219D02*
X175110326Y-89202219D01*
X174300802Y-90202219D02*
X174300802Y-89535552D01*
X174300802Y-89202219D02*
X174348421Y-89249838D01*
X174348421Y-89249838D02*
X174300802Y-89297457D01*
X174300802Y-89297457D02*
X174253183Y-89249838D01*
X174253183Y-89249838D02*
X174300802Y-89202219D01*
X174300802Y-89202219D02*
X174300802Y-89297457D01*
X173396041Y-90154600D02*
X173491279Y-90202219D01*
X173491279Y-90202219D02*
X173681755Y-90202219D01*
X173681755Y-90202219D02*
X173776993Y-90154600D01*
X173776993Y-90154600D02*
X173824612Y-90106980D01*
X173824612Y-90106980D02*
X173872231Y-90011742D01*
X173872231Y-90011742D02*
X173872231Y-89726028D01*
X173872231Y-89726028D02*
X173824612Y-89630790D01*
X173824612Y-89630790D02*
X173776993Y-89583171D01*
X173776993Y-89583171D02*
X173681755Y-89535552D01*
X173681755Y-89535552D02*
X173491279Y-89535552D01*
X173491279Y-89535552D02*
X173396041Y-89583171D01*
X172586517Y-90154600D02*
X172681755Y-90202219D01*
X172681755Y-90202219D02*
X172872231Y-90202219D01*
X172872231Y-90202219D02*
X172967469Y-90154600D01*
X172967469Y-90154600D02*
X173015088Y-90059361D01*
X173015088Y-90059361D02*
X173015088Y-89678409D01*
X173015088Y-89678409D02*
X172967469Y-89583171D01*
X172967469Y-89583171D02*
X172872231Y-89535552D01*
X172872231Y-89535552D02*
X172681755Y-89535552D01*
X172681755Y-89535552D02*
X172586517Y-89583171D01*
X172586517Y-89583171D02*
X172538898Y-89678409D01*
X172538898Y-89678409D02*
X172538898Y-89773647D01*
X172538898Y-89773647D02*
X173015088Y-89868885D01*
X172110326Y-89535552D02*
X172110326Y-90202219D01*
X172110326Y-89630790D02*
X172062707Y-89583171D01*
X172062707Y-89583171D02*
X171967469Y-89535552D01*
X171967469Y-89535552D02*
X171824612Y-89535552D01*
X171824612Y-89535552D02*
X171729374Y-89583171D01*
X171729374Y-89583171D02*
X171681755Y-89678409D01*
X171681755Y-89678409D02*
X171681755Y-90202219D01*
X171253183Y-90154600D02*
X171157945Y-90202219D01*
X171157945Y-90202219D02*
X170967469Y-90202219D01*
X170967469Y-90202219D02*
X170872231Y-90154600D01*
X170872231Y-90154600D02*
X170824612Y-90059361D01*
X170824612Y-90059361D02*
X170824612Y-90011742D01*
X170824612Y-90011742D02*
X170872231Y-89916504D01*
X170872231Y-89916504D02*
X170967469Y-89868885D01*
X170967469Y-89868885D02*
X171110326Y-89868885D01*
X171110326Y-89868885D02*
X171205564Y-89821266D01*
X171205564Y-89821266D02*
X171253183Y-89726028D01*
X171253183Y-89726028D02*
X171253183Y-89678409D01*
X171253183Y-89678409D02*
X171205564Y-89583171D01*
X171205564Y-89583171D02*
X171110326Y-89535552D01*
X171110326Y-89535552D02*
X170967469Y-89535552D01*
X170967469Y-89535552D02*
X170872231Y-89583171D01*
X170015088Y-90154600D02*
X170110326Y-90202219D01*
X170110326Y-90202219D02*
X170300802Y-90202219D01*
X170300802Y-90202219D02*
X170396040Y-90154600D01*
X170396040Y-90154600D02*
X170443659Y-90059361D01*
X170443659Y-90059361D02*
X170443659Y-89678409D01*
X170443659Y-89678409D02*
X170396040Y-89583171D01*
X170396040Y-89583171D02*
X170300802Y-89535552D01*
X170300802Y-89535552D02*
X170110326Y-89535552D01*
X170110326Y-89535552D02*
X170015088Y-89583171D01*
X170015088Y-89583171D02*
X169967469Y-89678409D01*
X169967469Y-89678409D02*
X169967469Y-89773647D01*
X169967469Y-89773647D02*
X170443659Y-89868885D01*
%TO.C,G\u002A\u002A\u002A*%
G36*
X193486730Y-98985000D02*
G01*
X193210437Y-98985000D01*
X193216011Y-98270625D01*
X193221584Y-97556250D01*
X193475584Y-97556250D01*
X193486730Y-98985000D01*
G37*
G36*
X186374167Y-98032500D02*
G01*
X186264709Y-98032500D01*
X186209544Y-98029626D01*
X186134178Y-98008046D01*
X186091372Y-97963269D01*
X186077834Y-97892836D01*
X186080457Y-97862554D01*
X186110364Y-97803717D01*
X186174285Y-97768834D01*
X186273044Y-97757333D01*
X186374167Y-97757333D01*
X186374167Y-98032500D01*
G37*
G36*
X186374167Y-98524421D02*
G01*
X186244019Y-98515007D01*
X186177707Y-98506395D01*
X186096965Y-98476609D01*
X186050432Y-98425707D01*
X186035500Y-98351646D01*
X186040590Y-98307879D01*
X186075557Y-98248573D01*
X186144414Y-98213420D01*
X186247992Y-98201833D01*
X186374167Y-98201833D01*
X186374167Y-98524421D01*
G37*
G36*
X183060072Y-99272262D02*
G01*
X183076145Y-99297218D01*
X183091101Y-99359969D01*
X183089852Y-99432057D01*
X183071422Y-99494391D01*
X183046936Y-99520308D01*
X182987500Y-99535333D01*
X182980609Y-99535184D01*
X182924633Y-99516626D01*
X182892157Y-99465469D01*
X182881667Y-99379487D01*
X182884739Y-99344133D01*
X182909956Y-99282176D01*
X182953407Y-99246045D01*
X183006358Y-99240990D01*
X183060072Y-99272262D01*
G37*
G36*
X188594686Y-98287943D02*
G01*
X188656480Y-98303048D01*
X188714404Y-98328484D01*
X188749371Y-98356616D01*
X188758375Y-98378025D01*
X188765243Y-98435407D01*
X188758964Y-98495402D01*
X188740600Y-98536267D01*
X188725759Y-98548543D01*
X188675189Y-98562009D01*
X188623609Y-98542711D01*
X188578054Y-98496930D01*
X188545562Y-98430949D01*
X188533167Y-98351051D01*
X188533568Y-98335105D01*
X188544172Y-98296921D01*
X188574123Y-98286500D01*
X188594686Y-98287943D01*
G37*
G36*
X183069404Y-99919204D02*
G01*
X183123353Y-99929181D01*
X183146614Y-99952208D01*
X183156453Y-99998848D01*
X183147370Y-100048928D01*
X183119792Y-100083971D01*
X183099424Y-100092977D01*
X183030126Y-100105528D01*
X182948152Y-100105016D01*
X182871414Y-100092360D01*
X182817823Y-100068478D01*
X182793969Y-100043111D01*
X182781424Y-99995955D01*
X182805706Y-99954995D01*
X182863773Y-99929437D01*
X182908452Y-99922526D01*
X182991789Y-99916991D01*
X183069404Y-99919204D01*
G37*
G36*
X185018658Y-99262096D02*
G01*
X185069006Y-99290325D01*
X185109023Y-99340559D01*
X185125334Y-99397750D01*
X185125331Y-99399605D01*
X185122277Y-99428157D01*
X185106720Y-99443424D01*
X185068719Y-99449546D01*
X184998334Y-99450667D01*
X184979226Y-99450655D01*
X184917056Y-99449102D01*
X184885003Y-99441466D01*
X184873088Y-99422852D01*
X184871334Y-99388367D01*
X184871334Y-99388056D01*
X184890443Y-99325461D01*
X184938690Y-99278604D01*
X185003044Y-99260167D01*
X185018658Y-99262096D01*
G37*
G36*
X185913115Y-99283185D02*
G01*
X185960864Y-99303862D01*
X185992110Y-99351333D01*
X186009163Y-99430413D01*
X186014334Y-99545917D01*
X186011721Y-99637854D01*
X186001098Y-99715582D01*
X185981384Y-99763457D01*
X185975569Y-99770990D01*
X185922984Y-99804574D01*
X185858957Y-99806409D01*
X185799042Y-99775469D01*
X185779905Y-99751056D01*
X185767885Y-99712807D01*
X185761935Y-99651657D01*
X185760334Y-99557929D01*
X185762043Y-99479851D01*
X185772928Y-99385388D01*
X185795885Y-99324197D01*
X185833244Y-99291203D01*
X185887334Y-99281333D01*
X185913115Y-99283185D01*
G37*
G36*
X183584782Y-98013185D02*
G01*
X183632531Y-98033862D01*
X183663777Y-98081333D01*
X183680830Y-98160413D01*
X183686000Y-98275917D01*
X183683387Y-98367854D01*
X183672765Y-98445582D01*
X183653050Y-98493457D01*
X183647236Y-98500990D01*
X183594651Y-98534574D01*
X183530623Y-98536409D01*
X183470709Y-98505469D01*
X183451572Y-98481056D01*
X183439551Y-98442807D01*
X183433601Y-98381657D01*
X183432000Y-98287929D01*
X183433709Y-98209851D01*
X183444595Y-98115388D01*
X183467552Y-98054197D01*
X183504911Y-98021203D01*
X183559000Y-98011333D01*
X183584782Y-98013185D01*
G37*
G36*
X195500349Y-98529369D02*
G01*
X195551605Y-98666197D01*
X195595070Y-98782243D01*
X195628978Y-98872792D01*
X195651563Y-98933130D01*
X195661059Y-98958542D01*
X195661651Y-98960483D01*
X195651930Y-98974835D01*
X195610742Y-98982642D01*
X195532766Y-98985000D01*
X195394668Y-98985000D01*
X195361111Y-98895042D01*
X195355757Y-98880594D01*
X195325915Y-98797859D01*
X195299022Y-98720417D01*
X195270490Y-98635750D01*
X194724417Y-98635750D01*
X194603205Y-98985000D01*
X194468019Y-98985000D01*
X194402530Y-98982999D01*
X194352164Y-98977272D01*
X194332918Y-98969125D01*
X194338477Y-98950974D01*
X194357285Y-98897054D01*
X194387769Y-98812143D01*
X194428254Y-98700849D01*
X194477061Y-98567780D01*
X194532514Y-98417544D01*
X194534015Y-98413500D01*
X194800288Y-98413500D01*
X195002241Y-98413500D01*
X195091449Y-98412399D01*
X195155881Y-98408122D01*
X195188156Y-98399915D01*
X195193606Y-98387042D01*
X195192874Y-98385149D01*
X195180668Y-98350979D01*
X195158231Y-98286400D01*
X195128496Y-98199899D01*
X195094396Y-98099960D01*
X195087566Y-98079953D01*
X195054886Y-97986458D01*
X195027438Y-97911500D01*
X195007929Y-97862292D01*
X194999066Y-97846045D01*
X194997473Y-97849084D01*
X194984619Y-97882182D01*
X194961709Y-97945493D01*
X194931394Y-98031610D01*
X194896323Y-98133126D01*
X194800288Y-98413500D01*
X194534015Y-98413500D01*
X194592935Y-98254750D01*
X194852867Y-97556250D01*
X194991981Y-97550060D01*
X195131095Y-97543871D01*
X195391175Y-98237977D01*
X195443067Y-98376475D01*
X195447026Y-98387042D01*
X195500349Y-98529369D01*
G37*
G36*
X196638760Y-100318500D02*
G01*
X181400000Y-100318500D01*
X181400000Y-100019446D01*
X182601865Y-100019446D01*
X182630029Y-100102597D01*
X182694637Y-100168051D01*
X182793403Y-100212021D01*
X182860351Y-100224209D01*
X182953074Y-100230916D01*
X183050867Y-100230742D01*
X183138102Y-100223762D01*
X183199156Y-100210053D01*
X183258729Y-100177765D01*
X183317395Y-100118450D01*
X183346329Y-100049737D01*
X183342456Y-99980280D01*
X183321658Y-99948083D01*
X183548417Y-99948083D01*
X183638569Y-99954601D01*
X183644317Y-99954988D01*
X183710713Y-99952130D01*
X183739618Y-99932723D01*
X183742499Y-99908534D01*
X183744800Y-99847712D01*
X183745998Y-99758446D01*
X183745999Y-99718499D01*
X183919398Y-99718499D01*
X183940024Y-99800711D01*
X183986335Y-99873004D01*
X184055487Y-99923874D01*
X184071557Y-99930858D01*
X184186712Y-99962428D01*
X184298660Y-99964181D01*
X184399155Y-99938082D01*
X184479949Y-99886095D01*
X184532798Y-99810185D01*
X184545564Y-99776189D01*
X184548693Y-99743781D01*
X184530753Y-99724202D01*
X184484889Y-99706860D01*
X184416097Y-99717504D01*
X184345424Y-99768167D01*
X184333603Y-99779242D01*
X184278914Y-99816758D01*
X184230659Y-99831667D01*
X184220833Y-99830998D01*
X184169886Y-99811248D01*
X184127221Y-99774012D01*
X184109334Y-99732739D01*
X184110084Y-99725859D01*
X184137517Y-99687389D01*
X184200428Y-99647839D01*
X184293345Y-99610833D01*
X184346281Y-99591889D01*
X184373829Y-99577667D01*
X184653771Y-99577667D01*
X184900136Y-99577667D01*
X184929976Y-99577658D01*
X185029507Y-99578327D01*
X185094196Y-99582709D01*
X185130076Y-99594255D01*
X185143182Y-99616416D01*
X185139547Y-99652643D01*
X185125207Y-99706386D01*
X185123185Y-99713179D01*
X185085608Y-99779895D01*
X185029005Y-99821018D01*
X184964358Y-99828227D01*
X184958811Y-99826647D01*
X184920307Y-99799565D01*
X184882200Y-99752872D01*
X184843144Y-99708923D01*
X184775717Y-99682572D01*
X184694816Y-99695708D01*
X184676241Y-99720390D01*
X184679611Y-99743781D01*
X184682834Y-99766152D01*
X184712342Y-99822747D01*
X184761245Y-99880386D01*
X184804110Y-99912814D01*
X184899951Y-99950938D01*
X185007903Y-99962364D01*
X185114088Y-99946403D01*
X185204627Y-99902367D01*
X185220028Y-99890114D01*
X185287900Y-99807584D01*
X185327730Y-99697530D01*
X185340736Y-99556857D01*
X185340707Y-99549624D01*
X185325216Y-99403345D01*
X185282132Y-99286735D01*
X185212653Y-99201295D01*
X185117981Y-99148526D01*
X184999317Y-99129930D01*
X184939543Y-99133458D01*
X184833908Y-99166254D01*
X184753080Y-99233267D01*
X184697253Y-99334296D01*
X184666624Y-99469142D01*
X184653771Y-99577667D01*
X184373829Y-99577667D01*
X184438555Y-99544251D01*
X184496153Y-99486636D01*
X184524287Y-99414615D01*
X184528013Y-99375946D01*
X184510045Y-99287314D01*
X184459618Y-99211712D01*
X184383698Y-99157485D01*
X184289250Y-99132979D01*
X184227266Y-99130242D01*
X184151331Y-99135704D01*
X184093222Y-99156629D01*
X184038447Y-99196699D01*
X183999091Y-99235029D01*
X183960653Y-99289741D01*
X183955292Y-99331089D01*
X183984508Y-99354680D01*
X184007959Y-99361285D01*
X184063464Y-99376887D01*
X184095938Y-99374208D01*
X184126245Y-99335138D01*
X184133269Y-99322235D01*
X184175182Y-99284135D01*
X184229513Y-99267947D01*
X184283776Y-99273093D01*
X184325489Y-99298999D01*
X184342167Y-99345090D01*
X184336826Y-99369943D01*
X184303708Y-99407604D01*
X184236741Y-99444403D01*
X184131804Y-99483044D01*
X184085937Y-99500199D01*
X184015920Y-99534816D01*
X183967763Y-99569147D01*
X183966584Y-99570339D01*
X183927303Y-99637873D01*
X183926300Y-99648100D01*
X183919398Y-99718499D01*
X183745999Y-99718499D01*
X183746001Y-99648100D01*
X183744716Y-99524038D01*
X183738917Y-99143750D01*
X183548417Y-99143750D01*
X183548417Y-99948083D01*
X183321658Y-99948083D01*
X183302698Y-99918731D01*
X183277685Y-99893045D01*
X183270615Y-99866047D01*
X183292115Y-99828530D01*
X183295104Y-99824193D01*
X183322391Y-99764651D01*
X183315128Y-99708386D01*
X183272033Y-99643580D01*
X183217899Y-99579245D01*
X183264420Y-99516322D01*
X183281707Y-99490550D01*
X183301407Y-99435467D01*
X183299085Y-99365005D01*
X183279849Y-99294570D01*
X183224426Y-99213458D01*
X183141446Y-99157343D01*
X183037007Y-99129903D01*
X182917209Y-99134814D01*
X182916642Y-99134914D01*
X182862749Y-99141171D01*
X182834561Y-99130840D01*
X182817047Y-99098469D01*
X182788560Y-99059083D01*
X183548417Y-99059083D01*
X183638569Y-99065601D01*
X183689150Y-99066297D01*
X183730829Y-99051656D01*
X183747472Y-99011952D01*
X185559250Y-99011952D01*
X185559250Y-99556857D01*
X185559250Y-99948083D01*
X185640248Y-99954749D01*
X185683500Y-99956296D01*
X185717341Y-99946491D01*
X185732587Y-99918044D01*
X185733658Y-99913958D01*
X185743280Y-99888213D01*
X185760168Y-99889209D01*
X185797319Y-99916670D01*
X185828986Y-99935437D01*
X185909861Y-99955688D01*
X185999856Y-99952912D01*
X186081034Y-99926489D01*
X186090708Y-99920750D01*
X186150126Y-99860171D01*
X186194446Y-99770496D01*
X186205725Y-99725833D01*
X186435455Y-99725833D01*
X186441853Y-99836958D01*
X186448250Y-99948083D01*
X186548792Y-99954535D01*
X186649334Y-99960986D01*
X186649334Y-99725833D01*
X186435455Y-99725833D01*
X186205725Y-99725833D01*
X186221981Y-99661465D01*
X186231040Y-99542818D01*
X186219934Y-99424293D01*
X186186975Y-99315631D01*
X186163098Y-99270469D01*
X186093877Y-99191832D01*
X186008505Y-99145688D01*
X185914506Y-99135153D01*
X185819402Y-99163346D01*
X185762053Y-99193264D01*
X185755902Y-99030924D01*
X185749750Y-98868583D01*
X185559250Y-98868583D01*
X185559250Y-99011952D01*
X183747472Y-99011952D01*
X183745700Y-98939390D01*
X183742472Y-98911439D01*
X183731258Y-98881912D01*
X183702444Y-98870486D01*
X183643667Y-98868583D01*
X183548417Y-98868583D01*
X183548417Y-99059083D01*
X182788560Y-99059083D01*
X182786777Y-99056618D01*
X182724369Y-99020120D01*
X182647456Y-99006167D01*
X182630097Y-99008364D01*
X182611394Y-99028956D01*
X182606500Y-99080250D01*
X182607561Y-99109626D01*
X182618596Y-99144917D01*
X182646242Y-99154333D01*
X182655898Y-99154677D01*
X182704029Y-99173570D01*
X182720685Y-99216964D01*
X182703080Y-99278762D01*
X182684838Y-99321160D01*
X182672445Y-99417978D01*
X182702109Y-99514859D01*
X182707806Y-99525167D01*
X182772205Y-99593257D01*
X182869310Y-99635419D01*
X182972952Y-99648100D01*
X182998084Y-99651175D01*
X183050528Y-99652760D01*
X183099259Y-99658818D01*
X183122829Y-99672454D01*
X183131462Y-99697195D01*
X183131004Y-99721221D01*
X183110327Y-99741418D01*
X183057378Y-99754404D01*
X183043129Y-99756556D01*
X182963002Y-99764582D01*
X182881667Y-99767966D01*
X182836804Y-99770259D01*
X182734848Y-99795218D01*
X182658642Y-99844821D01*
X182614561Y-99915544D01*
X182612432Y-99922391D01*
X182601865Y-100019446D01*
X181400000Y-100019446D01*
X181400000Y-99497104D01*
X181848557Y-99497104D01*
X181849190Y-99656249D01*
X181855084Y-99948083D01*
X182045584Y-99948083D01*
X182066750Y-99291917D01*
X182132053Y-99285544D01*
X182153567Y-99284148D01*
X182192312Y-99288905D01*
X182220481Y-99308897D01*
X182240097Y-99349545D01*
X182253181Y-99416267D01*
X182261752Y-99514481D01*
X182267834Y-99649608D01*
X182278417Y-99948083D01*
X182368569Y-99954601D01*
X182374317Y-99954988D01*
X182440713Y-99952130D01*
X182469618Y-99932723D01*
X182472499Y-99908534D01*
X182474800Y-99847712D01*
X182475998Y-99758446D01*
X182476001Y-99648100D01*
X182474716Y-99524038D01*
X182468917Y-99143750D01*
X182378959Y-99137241D01*
X182369373Y-99136577D01*
X182317212Y-99136180D01*
X182294176Y-99147387D01*
X182289000Y-99174916D01*
X182289000Y-99219101D01*
X182227473Y-99173611D01*
X182194670Y-99154455D01*
X182108536Y-99131589D01*
X182016917Y-99134402D01*
X181938855Y-99163557D01*
X181921369Y-99177219D01*
X181889992Y-99219969D01*
X181868022Y-99284105D01*
X181854522Y-99374769D01*
X181848557Y-99497104D01*
X181400000Y-99497104D01*
X181400000Y-98678083D01*
X183230917Y-98678083D01*
X183311914Y-98684749D01*
X183355167Y-98686296D01*
X183389008Y-98676491D01*
X183404253Y-98648044D01*
X183405324Y-98643958D01*
X183414946Y-98618213D01*
X183431834Y-98619209D01*
X183468986Y-98646670D01*
X183500653Y-98665437D01*
X183581527Y-98685688D01*
X183671522Y-98682912D01*
X183752701Y-98656489D01*
X183762375Y-98650750D01*
X183821792Y-98590171D01*
X183866113Y-98500496D01*
X183893647Y-98391465D01*
X183902706Y-98272818D01*
X184119917Y-98272818D01*
X184119917Y-98678083D01*
X184210069Y-98684601D01*
X184213303Y-98684826D01*
X184281350Y-98682303D01*
X184310998Y-98663035D01*
X184313048Y-98646810D01*
X184315304Y-98592083D01*
X184316794Y-98505568D01*
X184317461Y-98393412D01*
X184564417Y-98393412D01*
X184564417Y-98678083D01*
X184654569Y-98684601D01*
X184660317Y-98684988D01*
X184726713Y-98682130D01*
X184755618Y-98662723D01*
X184758499Y-98638534D01*
X184760800Y-98577712D01*
X184761998Y-98488446D01*
X184762001Y-98378100D01*
X184987750Y-98378100D01*
X184987750Y-98678083D01*
X185077709Y-98684592D01*
X185088933Y-98685363D01*
X185140221Y-98685596D01*
X185162692Y-98674098D01*
X185167667Y-98646014D01*
X185167667Y-98600927D01*
X185223438Y-98644797D01*
X185227945Y-98648212D01*
X185301958Y-98681526D01*
X185388877Y-98690871D01*
X185472565Y-98676551D01*
X185536886Y-98638872D01*
X185561202Y-98608959D01*
X185579311Y-98567036D01*
X185591517Y-98504836D01*
X185600924Y-98411330D01*
X185604453Y-98346860D01*
X185820224Y-98346860D01*
X185829743Y-98455833D01*
X185849958Y-98513389D01*
X185904238Y-98587766D01*
X185990613Y-98640099D01*
X186026215Y-98650483D01*
X186103882Y-98663713D01*
X186206472Y-98674887D01*
X186323988Y-98682728D01*
X186585834Y-98695100D01*
X186585834Y-98568200D01*
X187096396Y-98568200D01*
X187097880Y-98610326D01*
X187104862Y-98649416D01*
X187127505Y-98676129D01*
X187178500Y-98689408D01*
X187273263Y-98692939D01*
X187281457Y-98691101D01*
X188321500Y-98691101D01*
X188411459Y-98684592D01*
X188467365Y-98677344D01*
X188497186Y-98660865D01*
X188508450Y-98628404D01*
X188515483Y-98578726D01*
X188563269Y-98623618D01*
X188608796Y-98657871D01*
X188695450Y-98690218D01*
X188785073Y-98691588D01*
X188867920Y-98664160D01*
X188934246Y-98610117D01*
X188974305Y-98531638D01*
X188979374Y-98508825D01*
X188978914Y-98407126D01*
X188969231Y-98383059D01*
X189170489Y-98383059D01*
X189171959Y-98498167D01*
X189172361Y-98508825D01*
X189178750Y-98678083D01*
X189369250Y-98678083D01*
X189375147Y-98372607D01*
X189375958Y-98333774D01*
X189380068Y-98211394D01*
X189387000Y-98124104D01*
X189398325Y-98066179D01*
X189415617Y-98031892D01*
X189440450Y-98015519D01*
X189474395Y-98011333D01*
X189480356Y-98011403D01*
X189520671Y-98018062D01*
X189550172Y-98039465D01*
X189570665Y-98081123D01*
X189583957Y-98148545D01*
X189591856Y-98247243D01*
X189596167Y-98382725D01*
X189602084Y-98678083D01*
X189792584Y-98678083D01*
X189797743Y-98392333D01*
X189800594Y-98258129D01*
X189804498Y-98158814D01*
X189810745Y-98090421D01*
X189820660Y-98047214D01*
X189835566Y-98023455D01*
X189856786Y-98013408D01*
X189885645Y-98011333D01*
X189902084Y-98011765D01*
X189940291Y-98019374D01*
X189968073Y-98040879D01*
X189987423Y-98081968D01*
X190000336Y-98148329D01*
X190008809Y-98245646D01*
X190014834Y-98379608D01*
X190025417Y-98678083D01*
X190115569Y-98684601D01*
X190121317Y-98684988D01*
X190187713Y-98682130D01*
X190216618Y-98662723D01*
X190219499Y-98638534D01*
X190221800Y-98577712D01*
X190222998Y-98488446D01*
X190223001Y-98378100D01*
X190222594Y-98338836D01*
X190397462Y-98338836D01*
X190401127Y-98378100D01*
X190406399Y-98434584D01*
X190423197Y-98481716D01*
X190473879Y-98559259D01*
X190541872Y-98625020D01*
X190613850Y-98664245D01*
X190618046Y-98665504D01*
X190769126Y-98694468D01*
X190904328Y-98687896D01*
X191020412Y-98646394D01*
X191114137Y-98570569D01*
X191149678Y-98523628D01*
X191183015Y-98463764D01*
X191200443Y-98412391D01*
X191196623Y-98381733D01*
X191192545Y-98379467D01*
X191157924Y-98369908D01*
X191102290Y-98359400D01*
X191080782Y-98356113D01*
X191034955Y-98354197D01*
X191009470Y-98370922D01*
X190988313Y-98413951D01*
X190987264Y-98416427D01*
X190943985Y-98475579D01*
X190881084Y-98513613D01*
X190808138Y-98530891D01*
X190734728Y-98527772D01*
X190670432Y-98504617D01*
X190624830Y-98461784D01*
X190607500Y-98399636D01*
X190607519Y-98397405D01*
X190620376Y-98347402D01*
X190660374Y-98302452D01*
X190732398Y-98258636D01*
X190841335Y-98212034D01*
X190844989Y-98210627D01*
X190932339Y-98171437D01*
X191013692Y-98125929D01*
X191071872Y-98083665D01*
X191109973Y-98046332D01*
X191134855Y-98008608D01*
X191145194Y-97961143D01*
X191147250Y-97887665D01*
X191147022Y-97860838D01*
X191141599Y-97792066D01*
X191125542Y-97745047D01*
X191094334Y-97704111D01*
X191015209Y-97637011D01*
X190918150Y-97596290D01*
X190797522Y-97583767D01*
X190738704Y-97586773D01*
X190616621Y-97618151D01*
X190519212Y-97683833D01*
X190446059Y-97784057D01*
X190428653Y-97821951D01*
X190432075Y-97844718D01*
X190463945Y-97860605D01*
X190478308Y-97865956D01*
X190545909Y-97889317D01*
X190585381Y-97896715D01*
X190606146Y-97888396D01*
X190617628Y-97864603D01*
X190623410Y-97850358D01*
X190667180Y-97795504D01*
X190730725Y-97753147D01*
X190796145Y-97736167D01*
X190804569Y-97736357D01*
X190876611Y-97755465D01*
X190927122Y-97800044D01*
X190946167Y-97861775D01*
X190945621Y-97880983D01*
X190938770Y-97912688D01*
X190918771Y-97939502D01*
X190879057Y-97966510D01*
X190813064Y-97998798D01*
X190714224Y-98041454D01*
X190688996Y-98052307D01*
X190561001Y-98117157D01*
X190471753Y-98183966D01*
X190418243Y-98256578D01*
X190397462Y-98338836D01*
X190222594Y-98338836D01*
X190221716Y-98254038D01*
X190215917Y-97873750D01*
X190125959Y-97867241D01*
X190116373Y-97866577D01*
X190064212Y-97866180D01*
X190041176Y-97877387D01*
X190036000Y-97904916D01*
X190036000Y-97949101D01*
X189974473Y-97903611D01*
X189928986Y-97877761D01*
X189840458Y-97858183D01*
X189752215Y-97870319D01*
X189678670Y-97913677D01*
X189623250Y-97966765D01*
X189575731Y-97917383D01*
X189572043Y-97913668D01*
X189499214Y-97869361D01*
X189411105Y-97854612D01*
X189321993Y-97869552D01*
X189246157Y-97914316D01*
X189242785Y-97917490D01*
X189216826Y-97948506D01*
X189199785Y-97988658D01*
X189188397Y-98049009D01*
X189179401Y-98140621D01*
X189173172Y-98254467D01*
X189170489Y-98383059D01*
X188969231Y-98383059D01*
X188942774Y-98317296D01*
X188876243Y-98245500D01*
X188784609Y-98197902D01*
X188673162Y-98180667D01*
X188655029Y-98180458D01*
X188583141Y-98171822D01*
X188544614Y-98148065D01*
X188533167Y-98105830D01*
X188545108Y-98056039D01*
X188584991Y-98008963D01*
X188640512Y-97990167D01*
X188642604Y-97990214D01*
X188690768Y-98008148D01*
X188739084Y-98048328D01*
X188769516Y-98095962D01*
X188773746Y-98103273D01*
X188804580Y-98113289D01*
X188868205Y-98107196D01*
X188880842Y-98105005D01*
X188930012Y-98092893D01*
X188948020Y-98075844D01*
X188944207Y-98046380D01*
X188915523Y-97985883D01*
X188846086Y-97917975D01*
X188747845Y-97875088D01*
X188625797Y-97860143D01*
X188586145Y-97861522D01*
X188476534Y-97884572D01*
X188396898Y-97935209D01*
X188349154Y-98012378D01*
X188348871Y-98013211D01*
X188338727Y-98065608D01*
X188330575Y-98151385D01*
X188325027Y-98261838D01*
X188322882Y-98378100D01*
X188322695Y-98388259D01*
X188321500Y-98691101D01*
X187281457Y-98691101D01*
X187368556Y-98671565D01*
X187440345Y-98626790D01*
X187450751Y-98615545D01*
X187466472Y-98590724D01*
X187477200Y-98555440D01*
X187484230Y-98501726D01*
X187488862Y-98421615D01*
X187492391Y-98307139D01*
X187493159Y-98277005D01*
X187496173Y-98174037D01*
X187499894Y-98104998D01*
X187505760Y-98063107D01*
X187515207Y-98041582D01*
X187529675Y-98033640D01*
X187550599Y-98032500D01*
X187553648Y-98032485D01*
X187585191Y-98026732D01*
X187598867Y-98002459D01*
X187601142Y-97960571D01*
X187669161Y-97960571D01*
X187669733Y-97967342D01*
X187678190Y-98018069D01*
X187698787Y-98041036D01*
X187742492Y-98049551D01*
X187793942Y-98059034D01*
X187833639Y-98080907D01*
X187861305Y-98120937D01*
X187879545Y-98185160D01*
X187890964Y-98279611D01*
X187898167Y-98410329D01*
X187908750Y-98678083D01*
X187998902Y-98684601D01*
X188004650Y-98684988D01*
X188071047Y-98682130D01*
X188099951Y-98662723D01*
X188102832Y-98638534D01*
X188105134Y-98577712D01*
X188106331Y-98488446D01*
X188106334Y-98378100D01*
X188105049Y-98254038D01*
X188099250Y-97873750D01*
X188014584Y-97873750D01*
X188006848Y-97873772D01*
X187955588Y-97877742D01*
X187932063Y-97894354D01*
X187923224Y-97931916D01*
X187916530Y-97990082D01*
X187865247Y-97929136D01*
X187857615Y-97920521D01*
X187799131Y-97875016D01*
X187737517Y-97854243D01*
X187686404Y-97863226D01*
X187682309Y-97867052D01*
X187670441Y-97903601D01*
X187669447Y-97947833D01*
X187669161Y-97960571D01*
X187601142Y-97960571D01*
X187601834Y-97947833D01*
X187601823Y-97942240D01*
X187598302Y-97890411D01*
X187583507Y-97868003D01*
X187550214Y-97863167D01*
X187545643Y-97863119D01*
X187514293Y-97855923D01*
X187496592Y-97828713D01*
X187484676Y-97770355D01*
X187480679Y-97745316D01*
X187467619Y-97698839D01*
X187442941Y-97676581D01*
X187395407Y-97665316D01*
X187344059Y-97659236D01*
X187305018Y-97667482D01*
X187288040Y-97701386D01*
X187284334Y-97769166D01*
X187283917Y-97809578D01*
X187277492Y-97847080D01*
X187255983Y-97861078D01*
X187210250Y-97863167D01*
X187188390Y-97863356D01*
X187152258Y-97869533D01*
X187138410Y-97893624D01*
X187136167Y-97947833D01*
X187136336Y-97973164D01*
X187141792Y-98014267D01*
X187163061Y-98029976D01*
X187210922Y-98032500D01*
X187285677Y-98032500D01*
X187279714Y-98281208D01*
X187273750Y-98529917D01*
X187182546Y-98536486D01*
X187149793Y-98539140D01*
X187110080Y-98547629D01*
X187096396Y-98568200D01*
X186585834Y-98568200D01*
X186585834Y-97581461D01*
X186305742Y-97594858D01*
X186276478Y-97596308D01*
X186151794Y-97604675D01*
X186060499Y-97616960D01*
X185995125Y-97636145D01*
X185948204Y-97665210D01*
X185912272Y-97707139D01*
X185892740Y-97741952D01*
X185879859Y-97764911D01*
X185874618Y-97776045D01*
X185851934Y-97874484D01*
X185869739Y-97969735D01*
X185926774Y-98054030D01*
X185984268Y-98111523D01*
X185917175Y-98168802D01*
X185912781Y-98172553D01*
X185849929Y-98249367D01*
X185820224Y-98346860D01*
X185604453Y-98346860D01*
X185607157Y-98297448D01*
X185609844Y-98168802D01*
X185608376Y-98053667D01*
X185601584Y-97873750D01*
X185411084Y-97873750D01*
X185405925Y-98159500D01*
X185403073Y-98293704D01*
X185399170Y-98393019D01*
X185392922Y-98461412D01*
X185383008Y-98504619D01*
X185368102Y-98528378D01*
X185346881Y-98538425D01*
X185318022Y-98540500D01*
X185301620Y-98540069D01*
X185263404Y-98532462D01*
X185235614Y-98510955D01*
X185216257Y-98469860D01*
X185203337Y-98403493D01*
X185194861Y-98306166D01*
X185188834Y-98172195D01*
X185178250Y-97873750D01*
X184987750Y-97873750D01*
X184987750Y-98378100D01*
X184762001Y-98378100D01*
X184760716Y-98254038D01*
X184754917Y-97873750D01*
X184564417Y-97873750D01*
X184564417Y-98393412D01*
X184317461Y-98393412D01*
X184317248Y-98261763D01*
X184316096Y-98116767D01*
X184312505Y-97789083D01*
X184564417Y-97789083D01*
X184654569Y-97795601D01*
X184705150Y-97796297D01*
X184746829Y-97781656D01*
X184763472Y-97741952D01*
X184761700Y-97669390D01*
X184758472Y-97641439D01*
X184747258Y-97611912D01*
X184718444Y-97600486D01*
X184659667Y-97598583D01*
X184564417Y-97598583D01*
X184564417Y-97789083D01*
X184312505Y-97789083D01*
X184310417Y-97598583D01*
X184119917Y-97598583D01*
X184119917Y-98272818D01*
X183902706Y-98272818D01*
X183891601Y-98154293D01*
X183858641Y-98045631D01*
X183834764Y-98000469D01*
X183765544Y-97921832D01*
X183680172Y-97875688D01*
X183586172Y-97865153D01*
X183491069Y-97893346D01*
X183433720Y-97923264D01*
X183427569Y-97760924D01*
X183421417Y-97598583D01*
X183230917Y-97598583D01*
X183230917Y-98678083D01*
X181400000Y-98678083D01*
X181400000Y-97386917D01*
X188437917Y-97386917D01*
X188533955Y-97393184D01*
X188561919Y-97394342D01*
X188616500Y-97392177D01*
X188645080Y-97384365D01*
X188650026Y-97373676D01*
X188657305Y-97329151D01*
X188660167Y-97265866D01*
X188660167Y-97162454D01*
X188437917Y-97175250D01*
X188437917Y-97386917D01*
X181400000Y-97386917D01*
X181400000Y-96598665D01*
X188766000Y-96598665D01*
X188766162Y-96600929D01*
X188773343Y-96636351D01*
X188789843Y-96704338D01*
X188813816Y-96797885D01*
X188843416Y-96909988D01*
X188876798Y-97033644D01*
X188912116Y-97161848D01*
X188912287Y-97162454D01*
X188947526Y-97287596D01*
X188948628Y-97291460D01*
X188967861Y-97353825D01*
X188985935Y-97385319D01*
X189012695Y-97395376D01*
X189057989Y-97393429D01*
X189136417Y-97386917D01*
X189260847Y-96878917D01*
X189300879Y-97058833D01*
X189306138Y-97082374D01*
X189327421Y-97175997D01*
X189346995Y-97259843D01*
X189361188Y-97318125D01*
X189362596Y-97323583D01*
X189379820Y-97372783D01*
X189405926Y-97393354D01*
X189455397Y-97397500D01*
X189511610Y-97389783D01*
X189543185Y-97361393D01*
X189554262Y-97329120D01*
X189575147Y-97260522D01*
X189600963Y-97170299D01*
X189629654Y-97066247D01*
X189659166Y-96956161D01*
X189687442Y-96847835D01*
X189712428Y-96749066D01*
X189732069Y-96667649D01*
X189744308Y-96611380D01*
X189745824Y-96598665D01*
X189803167Y-96598665D01*
X189803329Y-96600929D01*
X189810510Y-96636351D01*
X189827010Y-96704338D01*
X189850982Y-96797885D01*
X189880582Y-96909988D01*
X189913964Y-97033644D01*
X189949283Y-97161848D01*
X189984692Y-97287596D01*
X189985794Y-97291460D01*
X190005028Y-97353825D01*
X190023101Y-97385319D01*
X190049862Y-97395376D01*
X190095155Y-97393429D01*
X190173584Y-97386917D01*
X190298014Y-96878917D01*
X190338046Y-97058833D01*
X190343305Y-97082374D01*
X190364588Y-97175997D01*
X190384162Y-97259843D01*
X190398355Y-97318125D01*
X190399763Y-97323583D01*
X190416986Y-97372783D01*
X190443092Y-97393354D01*
X190492564Y-97397500D01*
X190548777Y-97389783D01*
X190580351Y-97361393D01*
X190591429Y-97329120D01*
X190612314Y-97260522D01*
X190638129Y-97170299D01*
X190666821Y-97066247D01*
X190696332Y-96956161D01*
X190724609Y-96847835D01*
X190749595Y-96749066D01*
X190769235Y-96667649D01*
X190781474Y-96611380D01*
X190782991Y-96598665D01*
X190840334Y-96598665D01*
X190840495Y-96600929D01*
X190847677Y-96636351D01*
X190864176Y-96704338D01*
X190888149Y-96797885D01*
X190917749Y-96909988D01*
X190951131Y-97033644D01*
X190986450Y-97161848D01*
X191021859Y-97287596D01*
X191022961Y-97291460D01*
X191042194Y-97353825D01*
X191060268Y-97385319D01*
X191087028Y-97395376D01*
X191132322Y-97393429D01*
X191210750Y-97386917D01*
X191272966Y-97132917D01*
X191335181Y-96878917D01*
X191375213Y-97058833D01*
X191380472Y-97082374D01*
X191401754Y-97175997D01*
X191421328Y-97259843D01*
X191435522Y-97318125D01*
X191436929Y-97323583D01*
X191454153Y-97372783D01*
X191480259Y-97393354D01*
X191529731Y-97397500D01*
X191585944Y-97389783D01*
X191617518Y-97361393D01*
X191628596Y-97329120D01*
X191649480Y-97260522D01*
X191675296Y-97170299D01*
X191703987Y-97066247D01*
X191733499Y-96956161D01*
X191761776Y-96847835D01*
X191786762Y-96749066D01*
X191806402Y-96667649D01*
X191818641Y-96611380D01*
X191821423Y-96588053D01*
X191817966Y-96584967D01*
X191783786Y-96575721D01*
X191728488Y-96572000D01*
X191675021Y-96575435D01*
X191645961Y-96591958D01*
X191630699Y-96630208D01*
X191626943Y-96645183D01*
X191612233Y-96704877D01*
X191592158Y-96787168D01*
X191569929Y-96878917D01*
X191557455Y-96927730D01*
X191537603Y-96993733D01*
X191521568Y-97032777D01*
X191511978Y-97037667D01*
X191506507Y-97019779D01*
X191492069Y-96965082D01*
X191472568Y-96886426D01*
X191450636Y-96794250D01*
X191401250Y-96582583D01*
X191322589Y-96576056D01*
X191277119Y-96574703D01*
X191246311Y-96586174D01*
X191231673Y-96618390D01*
X191226662Y-96639039D01*
X191212437Y-96699457D01*
X191193150Y-96782565D01*
X191171498Y-96876777D01*
X191123578Y-97086305D01*
X191073928Y-96897944D01*
X191055363Y-96827244D01*
X191028279Y-96724572D01*
X191008245Y-96653679D01*
X190992393Y-96608739D01*
X190977853Y-96583927D01*
X190961757Y-96573417D01*
X190945343Y-96571790D01*
X192321764Y-96571790D01*
X192321812Y-96588053D01*
X192324773Y-97581461D01*
X192327174Y-98386937D01*
X192327250Y-98412391D01*
X192330619Y-99542818D01*
X192331865Y-99960986D01*
X192332130Y-100049737D01*
X192332584Y-100202083D01*
X194381083Y-100207480D01*
X194405962Y-100207545D01*
X194756079Y-100208353D01*
X195066129Y-100208835D01*
X195338237Y-100208967D01*
X195574526Y-100208729D01*
X195777120Y-100208099D01*
X195948143Y-100207055D01*
X196089719Y-100205574D01*
X196203971Y-100203636D01*
X196293023Y-100201218D01*
X196359000Y-100198299D01*
X196404025Y-100194856D01*
X196430222Y-100190868D01*
X196439715Y-100186314D01*
X196440714Y-100174437D01*
X196442063Y-100123350D01*
X196443215Y-100035160D01*
X196444163Y-99913009D01*
X196444898Y-99760042D01*
X196445411Y-99579402D01*
X196445696Y-99374235D01*
X196445744Y-99147684D01*
X196445546Y-98902892D01*
X196445095Y-98643005D01*
X196444383Y-98371167D01*
X196438917Y-96582583D01*
X194380341Y-96577187D01*
X192321764Y-96571790D01*
X190945343Y-96571790D01*
X190941237Y-96571383D01*
X190913422Y-96572000D01*
X190911539Y-96572006D01*
X190859595Y-96579420D01*
X190850955Y-96588053D01*
X190840334Y-96598665D01*
X190782991Y-96598665D01*
X190784257Y-96588053D01*
X190780800Y-96584967D01*
X190746619Y-96575721D01*
X190691321Y-96572000D01*
X190637854Y-96575435D01*
X190608794Y-96591958D01*
X190593532Y-96630208D01*
X190589776Y-96645183D01*
X190575066Y-96704877D01*
X190554991Y-96787168D01*
X190532762Y-96878917D01*
X190520288Y-96927730D01*
X190500436Y-96993733D01*
X190484402Y-97032777D01*
X190474811Y-97037667D01*
X190469340Y-97019779D01*
X190454902Y-96965082D01*
X190435402Y-96886426D01*
X190413469Y-96794250D01*
X190364084Y-96582583D01*
X190285422Y-96576056D01*
X190239952Y-96574703D01*
X190209144Y-96586174D01*
X190194506Y-96618390D01*
X190189496Y-96639039D01*
X190175270Y-96699457D01*
X190155983Y-96782565D01*
X190134332Y-96876777D01*
X190086411Y-97086305D01*
X190036762Y-96897944D01*
X190018197Y-96827244D01*
X189991113Y-96724572D01*
X189971079Y-96653679D01*
X189955226Y-96608739D01*
X189940687Y-96583927D01*
X189924591Y-96573417D01*
X189904070Y-96571383D01*
X189876256Y-96572000D01*
X189874372Y-96572006D01*
X189822429Y-96579420D01*
X189813788Y-96588053D01*
X189803167Y-96598665D01*
X189745824Y-96598665D01*
X189747090Y-96588053D01*
X189743633Y-96584967D01*
X189709453Y-96575721D01*
X189654155Y-96572000D01*
X189600687Y-96575435D01*
X189571628Y-96591958D01*
X189556365Y-96630208D01*
X189552609Y-96645183D01*
X189537899Y-96704877D01*
X189517825Y-96787168D01*
X189495595Y-96878917D01*
X189483122Y-96927730D01*
X189463270Y-96993733D01*
X189447235Y-97032777D01*
X189437644Y-97037667D01*
X189432173Y-97019779D01*
X189417735Y-96965082D01*
X189398235Y-96886426D01*
X189376303Y-96794250D01*
X189326917Y-96582583D01*
X189248255Y-96576056D01*
X189202786Y-96574703D01*
X189171978Y-96586174D01*
X189157340Y-96618390D01*
X189152329Y-96639039D01*
X189138103Y-96699457D01*
X189118816Y-96782565D01*
X189097165Y-96876777D01*
X189049245Y-97086305D01*
X188999595Y-96897944D01*
X188981030Y-96827244D01*
X188953946Y-96724572D01*
X188933912Y-96653679D01*
X188918060Y-96608739D01*
X188903520Y-96583927D01*
X188887424Y-96573417D01*
X188866903Y-96571383D01*
X188839089Y-96572000D01*
X188837206Y-96572006D01*
X188785262Y-96579420D01*
X188766000Y-96598665D01*
X181400000Y-96598665D01*
X181400000Y-96402667D01*
X196640583Y-96402667D01*
X196639672Y-98360583D01*
X196639305Y-99147684D01*
X196638760Y-100318500D01*
G37*
%TO.C,REF\u002A\u002A*%
D12*
X181582829Y-95061097D02*
X181642753Y-95083355D01*
X181667673Y-95100080D01*
X181692910Y-95124043D01*
X181710912Y-95154526D01*
X181722858Y-95196023D01*
X181729930Y-95253032D01*
X181733308Y-95330047D01*
X181734171Y-95431565D01*
X181734002Y-95484027D01*
X181733153Y-95555715D01*
X181731711Y-95612925D01*
X181729814Y-95650809D01*
X181727597Y-95664514D01*
X181713172Y-95659981D01*
X181684054Y-95647670D01*
X181683181Y-95647272D01*
X181668060Y-95639356D01*
X181657891Y-95628495D01*
X181651691Y-95609471D01*
X181648478Y-95577069D01*
X181647270Y-95526071D01*
X181647086Y-95451261D01*
X181646714Y-95403804D01*
X181642750Y-95314615D01*
X181633673Y-95249287D01*
X181618524Y-95204393D01*
X181596345Y-95176507D01*
X181566175Y-95162203D01*
X181561990Y-95161206D01*
X181505480Y-95160427D01*
X181461410Y-95185744D01*
X181430972Y-95236502D01*
X181425544Y-95251175D01*
X181413171Y-95283649D01*
X181406905Y-95298572D01*
X181394036Y-95296516D01*
X181365933Y-95285357D01*
X181339721Y-95266927D01*
X181327771Y-95232098D01*
X181331336Y-95207151D01*
X181353235Y-95156547D01*
X181388644Y-95109128D01*
X181430052Y-95076334D01*
X181447400Y-95068752D01*
X181513089Y-95056076D01*
X181582829Y-95061097D01*
G36*
X181582829Y-95061097D02*
G01*
X181642753Y-95083355D01*
X181667673Y-95100080D01*
X181692910Y-95124043D01*
X181710912Y-95154526D01*
X181722858Y-95196023D01*
X181729930Y-95253032D01*
X181733308Y-95330047D01*
X181734171Y-95431565D01*
X181734002Y-95484027D01*
X181733153Y-95555715D01*
X181731711Y-95612925D01*
X181729814Y-95650809D01*
X181727597Y-95664514D01*
X181713172Y-95659981D01*
X181684054Y-95647670D01*
X181683181Y-95647272D01*
X181668060Y-95639356D01*
X181657891Y-95628495D01*
X181651691Y-95609471D01*
X181648478Y-95577069D01*
X181647270Y-95526071D01*
X181647086Y-95451261D01*
X181646714Y-95403804D01*
X181642750Y-95314615D01*
X181633673Y-95249287D01*
X181618524Y-95204393D01*
X181596345Y-95176507D01*
X181566175Y-95162203D01*
X181561990Y-95161206D01*
X181505480Y-95160427D01*
X181461410Y-95185744D01*
X181430972Y-95236502D01*
X181425544Y-95251175D01*
X181413171Y-95283649D01*
X181406905Y-95298572D01*
X181394036Y-95296516D01*
X181365933Y-95285357D01*
X181339721Y-95266927D01*
X181327771Y-95232098D01*
X181331336Y-95207151D01*
X181353235Y-95156547D01*
X181388644Y-95109128D01*
X181430052Y-95076334D01*
X181447400Y-95068752D01*
X181513089Y-95056076D01*
X181582829Y-95061097D01*
G37*
X185531020Y-95027822D02*
X185598810Y-95059680D01*
X185654366Y-95114770D01*
X185665881Y-95132016D01*
X185675432Y-95151562D01*
X185682206Y-95176198D01*
X185686819Y-95210711D01*
X185689888Y-95259889D01*
X185692029Y-95328519D01*
X185693859Y-95421389D01*
X185698404Y-95679007D01*
X185660225Y-95664491D01*
X185625268Y-95651156D01*
X185599097Y-95638323D01*
X185582013Y-95621780D01*
X185572086Y-95596465D01*
X185567386Y-95557316D01*
X185565982Y-95499268D01*
X185565943Y-95417261D01*
X185565744Y-95351895D01*
X185564559Y-95289173D01*
X185561729Y-95246334D01*
X185556609Y-95218220D01*
X185548553Y-95199675D01*
X185536914Y-95185543D01*
X185508303Y-95165600D01*
X185460239Y-95158083D01*
X185412688Y-95177079D01*
X185409550Y-95179511D01*
X185399769Y-95190748D01*
X185392553Y-95208770D01*
X185387299Y-95238026D01*
X185383402Y-95282962D01*
X185380256Y-95348028D01*
X185377257Y-95437670D01*
X185370000Y-95677697D01*
X185308314Y-95650044D01*
X185246629Y-95622391D01*
X185246629Y-95403246D01*
X185246884Y-95343711D01*
X185249086Y-95260892D01*
X185254661Y-95199227D01*
X185264941Y-95153748D01*
X185281258Y-95119484D01*
X185304943Y-95091466D01*
X185337328Y-95064723D01*
X185383907Y-95037780D01*
X185457287Y-95020191D01*
X185531020Y-95027822D01*
G36*
X185531020Y-95027822D02*
G01*
X185598810Y-95059680D01*
X185654366Y-95114770D01*
X185665881Y-95132016D01*
X185675432Y-95151562D01*
X185682206Y-95176198D01*
X185686819Y-95210711D01*
X185689888Y-95259889D01*
X185692029Y-95328519D01*
X185693859Y-95421389D01*
X185698404Y-95679007D01*
X185660225Y-95664491D01*
X185625268Y-95651156D01*
X185599097Y-95638323D01*
X185582013Y-95621780D01*
X185572086Y-95596465D01*
X185567386Y-95557316D01*
X185565982Y-95499268D01*
X185565943Y-95417261D01*
X185565744Y-95351895D01*
X185564559Y-95289173D01*
X185561729Y-95246334D01*
X185556609Y-95218220D01*
X185548553Y-95199675D01*
X185536914Y-95185543D01*
X185508303Y-95165600D01*
X185460239Y-95158083D01*
X185412688Y-95177079D01*
X185409550Y-95179511D01*
X185399769Y-95190748D01*
X185392553Y-95208770D01*
X185387299Y-95238026D01*
X185383402Y-95282962D01*
X185380256Y-95348028D01*
X185377257Y-95437670D01*
X185370000Y-95677697D01*
X185308314Y-95650044D01*
X185246629Y-95622391D01*
X185246629Y-95403246D01*
X185246884Y-95343711D01*
X185249086Y-95260892D01*
X185254661Y-95199227D01*
X185264941Y-95153748D01*
X185281258Y-95119484D01*
X185304943Y-95091466D01*
X185337328Y-95064723D01*
X185383907Y-95037780D01*
X185457287Y-95020191D01*
X185531020Y-95027822D01*
G37*
X183707691Y-95076467D02*
X183712273Y-95079003D01*
X183749704Y-95108057D01*
X183783170Y-95145410D01*
X183789007Y-95153852D01*
X183800165Y-95173553D01*
X183808136Y-95196935D01*
X183813618Y-95229067D01*
X183817307Y-95275019D01*
X183819899Y-95339859D01*
X183822092Y-95428657D01*
X183822402Y-95443669D01*
X183823400Y-95540999D01*
X183821994Y-95609934D01*
X183818164Y-95650948D01*
X183811889Y-95664514D01*
X183792898Y-95660452D01*
X183760638Y-95648144D01*
X183753041Y-95644545D01*
X183741176Y-95636398D01*
X183732994Y-95623004D01*
X183727643Y-95599608D01*
X183724269Y-95561455D01*
X183722019Y-95503790D01*
X183720040Y-95421857D01*
X183719498Y-95397907D01*
X183717403Y-95322266D01*
X183714683Y-95269328D01*
X183710515Y-95234075D01*
X183704079Y-95211487D01*
X183694550Y-95196544D01*
X183681106Y-95184227D01*
X183641305Y-95162634D01*
X183592341Y-95158476D01*
X183548529Y-95174999D01*
X183517008Y-95209210D01*
X183504914Y-95258114D01*
X183504578Y-95271407D01*
X183497972Y-95295472D01*
X183478470Y-95299144D01*
X183440283Y-95284813D01*
X183431438Y-95280217D01*
X183407534Y-95253186D01*
X183407061Y-95212994D01*
X183429836Y-95157409D01*
X183450727Y-95127117D01*
X183504142Y-95084084D01*
X183570074Y-95059755D01*
X183640574Y-95056443D01*
X183707691Y-95076467D01*
G36*
X183707691Y-95076467D02*
G01*
X183712273Y-95079003D01*
X183749704Y-95108057D01*
X183783170Y-95145410D01*
X183789007Y-95153852D01*
X183800165Y-95173553D01*
X183808136Y-95196935D01*
X183813618Y-95229067D01*
X183817307Y-95275019D01*
X183819899Y-95339859D01*
X183822092Y-95428657D01*
X183822402Y-95443669D01*
X183823400Y-95540999D01*
X183821994Y-95609934D01*
X183818164Y-95650948D01*
X183811889Y-95664514D01*
X183792898Y-95660452D01*
X183760638Y-95648144D01*
X183753041Y-95644545D01*
X183741176Y-95636398D01*
X183732994Y-95623004D01*
X183727643Y-95599608D01*
X183724269Y-95561455D01*
X183722019Y-95503790D01*
X183720040Y-95421857D01*
X183719498Y-95397907D01*
X183717403Y-95322266D01*
X183714683Y-95269328D01*
X183710515Y-95234075D01*
X183704079Y-95211487D01*
X183694550Y-95196544D01*
X183681106Y-95184227D01*
X183641305Y-95162634D01*
X183592341Y-95158476D01*
X183548529Y-95174999D01*
X183517008Y-95209210D01*
X183504914Y-95258114D01*
X183504578Y-95271407D01*
X183497972Y-95295472D01*
X183478470Y-95299144D01*
X183440283Y-95284813D01*
X183431438Y-95280217D01*
X183407534Y-95253186D01*
X183407061Y-95212994D01*
X183429836Y-95157409D01*
X183450727Y-95127117D01*
X183504142Y-95084084D01*
X183570074Y-95059755D01*
X183640574Y-95056443D01*
X183707691Y-95076467D01*
G37*
X184778543Y-94859444D02*
X184825714Y-94879342D01*
X184825714Y-95276509D01*
X184825519Y-95379498D01*
X184824998Y-95472141D01*
X184824199Y-95550700D01*
X184823172Y-95611439D01*
X184821963Y-95650623D01*
X184820623Y-95664514D01*
X184820099Y-95664468D01*
X184802287Y-95659420D01*
X184769823Y-95648580D01*
X184724114Y-95632646D01*
X184724114Y-95428173D01*
X184723824Y-95347832D01*
X184722474Y-95289562D01*
X184719369Y-95249909D01*
X184713812Y-95223618D01*
X184705107Y-95205436D01*
X184692556Y-95190107D01*
X184683999Y-95181955D01*
X184637728Y-95159375D01*
X184586728Y-95161375D01*
X184539993Y-95188073D01*
X184533189Y-95194698D01*
X184522293Y-95208456D01*
X184514836Y-95226642D01*
X184510169Y-95254177D01*
X184507642Y-95295981D01*
X184506602Y-95356973D01*
X184506400Y-95442073D01*
X184506303Y-95485234D01*
X184505674Y-95556224D01*
X184504556Y-95613076D01*
X184503063Y-95650828D01*
X184501309Y-95664514D01*
X184500785Y-95664468D01*
X184482973Y-95659420D01*
X184450509Y-95648580D01*
X184404800Y-95632646D01*
X184404823Y-95427237D01*
X184404857Y-95408951D01*
X184406778Y-95313626D01*
X184412678Y-95241543D01*
X184424001Y-95187813D01*
X184442187Y-95147549D01*
X184468679Y-95115861D01*
X184504918Y-95087861D01*
X184540263Y-95070333D01*
X184596773Y-95056785D01*
X184652356Y-95056015D01*
X184695086Y-95069195D01*
X184698298Y-95071015D01*
X184708205Y-95070820D01*
X184714975Y-95055572D01*
X184719861Y-95020613D01*
X184724114Y-94961289D01*
X184731371Y-94839547D01*
X184778543Y-94859444D01*
G36*
X184778543Y-94859444D02*
G01*
X184825714Y-94879342D01*
X184825714Y-95276509D01*
X184825519Y-95379498D01*
X184824998Y-95472141D01*
X184824199Y-95550700D01*
X184823172Y-95611439D01*
X184821963Y-95650623D01*
X184820623Y-95664514D01*
X184820099Y-95664468D01*
X184802287Y-95659420D01*
X184769823Y-95648580D01*
X184724114Y-95632646D01*
X184724114Y-95428173D01*
X184723824Y-95347832D01*
X184722474Y-95289562D01*
X184719369Y-95249909D01*
X184713812Y-95223618D01*
X184705107Y-95205436D01*
X184692556Y-95190107D01*
X184683999Y-95181955D01*
X184637728Y-95159375D01*
X184586728Y-95161375D01*
X184539993Y-95188073D01*
X184533189Y-95194698D01*
X184522293Y-95208456D01*
X184514836Y-95226642D01*
X184510169Y-95254177D01*
X184507642Y-95295981D01*
X184506602Y-95356973D01*
X184506400Y-95442073D01*
X184506303Y-95485234D01*
X184505674Y-95556224D01*
X184504556Y-95613076D01*
X184503063Y-95650828D01*
X184501309Y-95664514D01*
X184500785Y-95664468D01*
X184482973Y-95659420D01*
X184450509Y-95648580D01*
X184404800Y-95632646D01*
X184404823Y-95427237D01*
X184404857Y-95408951D01*
X184406778Y-95313626D01*
X184412678Y-95241543D01*
X184424001Y-95187813D01*
X184442187Y-95147549D01*
X184468679Y-95115861D01*
X184504918Y-95087861D01*
X184540263Y-95070333D01*
X184596773Y-95056785D01*
X184652356Y-95056015D01*
X184695086Y-95069195D01*
X184698298Y-95071015D01*
X184708205Y-95070820D01*
X184714975Y-95055572D01*
X184719861Y-95020613D01*
X184724114Y-94961289D01*
X184731371Y-94839547D01*
X184778543Y-94859444D01*
G37*
X182753941Y-95059282D02*
X182785774Y-95071758D01*
X182822743Y-95088602D01*
X182822743Y-95575196D01*
X182776812Y-95621127D01*
X182766320Y-95631427D01*
X182737255Y-95654320D01*
X182707943Y-95661735D01*
X182664326Y-95658321D01*
X182646568Y-95656114D01*
X182600767Y-95651445D01*
X182568743Y-95649585D01*
X182559244Y-95649869D01*
X182520274Y-95652948D01*
X182473160Y-95658321D01*
X182458085Y-95660168D01*
X182420110Y-95660893D01*
X182392325Y-95649429D01*
X182360674Y-95621127D01*
X182314743Y-95575196D01*
X182314743Y-95315055D01*
X182315101Y-95238180D01*
X182316216Y-95164886D01*
X182317952Y-95106850D01*
X182320167Y-95068663D01*
X182322721Y-95054914D01*
X182323256Y-95054951D01*
X182341808Y-95061793D01*
X182373153Y-95076868D01*
X182415608Y-95098822D01*
X182419604Y-95327240D01*
X182423600Y-95555657D01*
X182510686Y-95555657D01*
X182514657Y-95305286D01*
X182515916Y-95237227D01*
X182517718Y-95164482D01*
X182519671Y-95106730D01*
X182521612Y-95068648D01*
X182523377Y-95054914D01*
X182523885Y-95054962D01*
X182541482Y-95060015D01*
X182573834Y-95070849D01*
X182619543Y-95086783D01*
X182619765Y-95306706D01*
X182619988Y-95344909D01*
X182621531Y-95419146D01*
X182624292Y-95481145D01*
X182627977Y-95525308D01*
X182632292Y-95546041D01*
X182647732Y-95557131D01*
X182679241Y-95560556D01*
X182713886Y-95555657D01*
X182717857Y-95305286D01*
X182719278Y-95241663D01*
X182722225Y-95166356D01*
X182726079Y-95107286D01*
X182730542Y-95068718D01*
X182735317Y-95054914D01*
X182753941Y-95059282D01*
G36*
X182753941Y-95059282D02*
G01*
X182785774Y-95071758D01*
X182822743Y-95088602D01*
X182822743Y-95575196D01*
X182776812Y-95621127D01*
X182766320Y-95631427D01*
X182737255Y-95654320D01*
X182707943Y-95661735D01*
X182664326Y-95658321D01*
X182646568Y-95656114D01*
X182600767Y-95651445D01*
X182568743Y-95649585D01*
X182559244Y-95649869D01*
X182520274Y-95652948D01*
X182473160Y-95658321D01*
X182458085Y-95660168D01*
X182420110Y-95660893D01*
X182392325Y-95649429D01*
X182360674Y-95621127D01*
X182314743Y-95575196D01*
X182314743Y-95315055D01*
X182315101Y-95238180D01*
X182316216Y-95164886D01*
X182317952Y-95106850D01*
X182320167Y-95068663D01*
X182322721Y-95054914D01*
X182323256Y-95054951D01*
X182341808Y-95061793D01*
X182373153Y-95076868D01*
X182415608Y-95098822D01*
X182419604Y-95327240D01*
X182423600Y-95555657D01*
X182510686Y-95555657D01*
X182514657Y-95305286D01*
X182515916Y-95237227D01*
X182517718Y-95164482D01*
X182519671Y-95106730D01*
X182521612Y-95068648D01*
X182523377Y-95054914D01*
X182523885Y-95054962D01*
X182541482Y-95060015D01*
X182573834Y-95070849D01*
X182619543Y-95086783D01*
X182619765Y-95306706D01*
X182619988Y-95344909D01*
X182621531Y-95419146D01*
X182624292Y-95481145D01*
X182627977Y-95525308D01*
X182632292Y-95546041D01*
X182647732Y-95557131D01*
X182679241Y-95560556D01*
X182713886Y-95555657D01*
X182717857Y-95305286D01*
X182719278Y-95241663D01*
X182722225Y-95166356D01*
X182726079Y-95107286D01*
X182730542Y-95068718D01*
X182735317Y-95054914D01*
X182753941Y-95059282D01*
G37*
X187365714Y-95345200D02*
X187365701Y-95360935D01*
X187364914Y-95431119D01*
X187362210Y-95480022D01*
X187356606Y-95514178D01*
X187347119Y-95540124D01*
X187332768Y-95564397D01*
X187329237Y-95569433D01*
X187291878Y-95609143D01*
X187249311Y-95639092D01*
X187227452Y-95648810D01*
X187148908Y-95665020D01*
X187071231Y-95654535D01*
X186999645Y-95618707D01*
X186939374Y-95558887D01*
X186934286Y-95550873D01*
X186917730Y-95504342D01*
X186906573Y-95439552D01*
X186901160Y-95364727D01*
X186901768Y-95295513D01*
X187048248Y-95295513D01*
X187049402Y-95391399D01*
X187049866Y-95397569D01*
X187056629Y-95450478D01*
X187068671Y-95484029D01*
X187089005Y-95507016D01*
X187123097Y-95528548D01*
X187156814Y-95529680D01*
X187191543Y-95504857D01*
X187197584Y-95498325D01*
X187209417Y-95478779D01*
X187216404Y-95450386D01*
X187219727Y-95406430D01*
X187220571Y-95340192D01*
X187219125Y-95278150D01*
X187211907Y-95219042D01*
X187197006Y-95181686D01*
X187172636Y-95162152D01*
X187137008Y-95156514D01*
X187123440Y-95157635D01*
X187085430Y-95178194D01*
X187060312Y-95224299D01*
X187048248Y-95295513D01*
X186901768Y-95295513D01*
X186901833Y-95288096D01*
X186908937Y-95217882D01*
X186922815Y-95162312D01*
X186940649Y-95125301D01*
X186990855Y-95067733D01*
X187058885Y-95031962D01*
X187142158Y-95019665D01*
X187164398Y-95020331D01*
X187229891Y-95033947D01*
X187283687Y-95068249D01*
X187333057Y-95127338D01*
X187335995Y-95131722D01*
X187349287Y-95155299D01*
X187357932Y-95181949D01*
X187362904Y-95218159D01*
X187365174Y-95270413D01*
X187365678Y-95340192D01*
X187365714Y-95345200D01*
G36*
X187365714Y-95345200D02*
G01*
X187365701Y-95360935D01*
X187364914Y-95431119D01*
X187362210Y-95480022D01*
X187356606Y-95514178D01*
X187347119Y-95540124D01*
X187332768Y-95564397D01*
X187329237Y-95569433D01*
X187291878Y-95609143D01*
X187249311Y-95639092D01*
X187227452Y-95648810D01*
X187148908Y-95665020D01*
X187071231Y-95654535D01*
X186999645Y-95618707D01*
X186939374Y-95558887D01*
X186934286Y-95550873D01*
X186917730Y-95504342D01*
X186906573Y-95439552D01*
X186901160Y-95364727D01*
X186901768Y-95295513D01*
X187048248Y-95295513D01*
X187049402Y-95391399D01*
X187049866Y-95397569D01*
X187056629Y-95450478D01*
X187068671Y-95484029D01*
X187089005Y-95507016D01*
X187123097Y-95528548D01*
X187156814Y-95529680D01*
X187191543Y-95504857D01*
X187197584Y-95498325D01*
X187209417Y-95478779D01*
X187216404Y-95450386D01*
X187219727Y-95406430D01*
X187220571Y-95340192D01*
X187219125Y-95278150D01*
X187211907Y-95219042D01*
X187197006Y-95181686D01*
X187172636Y-95162152D01*
X187137008Y-95156514D01*
X187123440Y-95157635D01*
X187085430Y-95178194D01*
X187060312Y-95224299D01*
X187048248Y-95295513D01*
X186901768Y-95295513D01*
X186901833Y-95288096D01*
X186908937Y-95217882D01*
X186922815Y-95162312D01*
X186940649Y-95125301D01*
X186990855Y-95067733D01*
X187058885Y-95031962D01*
X187142158Y-95019665D01*
X187164398Y-95020331D01*
X187229891Y-95033947D01*
X187283687Y-95068249D01*
X187333057Y-95127338D01*
X187335995Y-95131722D01*
X187349287Y-95155299D01*
X187357932Y-95181949D01*
X187362904Y-95218159D01*
X187365174Y-95270413D01*
X187365678Y-95340192D01*
X187365714Y-95345200D01*
G37*
X181240590Y-95362622D02*
X181240307Y-95401305D01*
X181236762Y-95477521D01*
X181227483Y-95533294D01*
X181210375Y-95574613D01*
X181183344Y-95607467D01*
X181144292Y-95637846D01*
X181119445Y-95651660D01*
X181079615Y-95660965D01*
X181023665Y-95660230D01*
X180992385Y-95657283D01*
X180954653Y-95648283D01*
X180924494Y-95628720D01*
X180889408Y-95592267D01*
X180884720Y-95586943D01*
X180853177Y-95545969D01*
X180838128Y-95510283D01*
X180834286Y-95467966D01*
X180834286Y-95405779D01*
X180877742Y-95422182D01*
X180909424Y-95441356D01*
X180936962Y-95486347D01*
X180942711Y-95500752D01*
X180974855Y-95541546D01*
X181018611Y-95562081D01*
X181066254Y-95560235D01*
X181110057Y-95533886D01*
X181125111Y-95517455D01*
X181138763Y-95492667D01*
X181134493Y-95470144D01*
X181109916Y-95446964D01*
X181062651Y-95420202D01*
X180990314Y-95386934D01*
X180841543Y-95321816D01*
X180837595Y-95257308D01*
X180839079Y-95216220D01*
X180936010Y-95216220D01*
X180943368Y-95241657D01*
X180976848Y-95268814D01*
X181037614Y-95299714D01*
X181047669Y-95304190D01*
X181095751Y-95325017D01*
X181131726Y-95339665D01*
X181148444Y-95345200D01*
X181150977Y-95341126D01*
X181151993Y-95316247D01*
X181148369Y-95276257D01*
X181139242Y-95237152D01*
X181110773Y-95187884D01*
X181069678Y-95160122D01*
X181020590Y-95156364D01*
X180968144Y-95179109D01*
X180953609Y-95190481D01*
X180936010Y-95216220D01*
X180839079Y-95216220D01*
X180839338Y-95209064D01*
X180861281Y-95148096D01*
X180888979Y-95114497D01*
X180946405Y-95076966D01*
X181014527Y-95058006D01*
X181084947Y-95059507D01*
X181149267Y-95083355D01*
X181163426Y-95092513D01*
X181195904Y-95120849D01*
X181218116Y-95156695D01*
X181231804Y-95205384D01*
X181238715Y-95272249D01*
X181239628Y-95316247D01*
X181240590Y-95362622D01*
G36*
X181240590Y-95362622D02*
G01*
X181240307Y-95401305D01*
X181236762Y-95477521D01*
X181227483Y-95533294D01*
X181210375Y-95574613D01*
X181183344Y-95607467D01*
X181144292Y-95637846D01*
X181119445Y-95651660D01*
X181079615Y-95660965D01*
X181023665Y-95660230D01*
X180992385Y-95657283D01*
X180954653Y-95648283D01*
X180924494Y-95628720D01*
X180889408Y-95592267D01*
X180884720Y-95586943D01*
X180853177Y-95545969D01*
X180838128Y-95510283D01*
X180834286Y-95467966D01*
X180834286Y-95405779D01*
X180877742Y-95422182D01*
X180909424Y-95441356D01*
X180936962Y-95486347D01*
X180942711Y-95500752D01*
X180974855Y-95541546D01*
X181018611Y-95562081D01*
X181066254Y-95560235D01*
X181110057Y-95533886D01*
X181125111Y-95517455D01*
X181138763Y-95492667D01*
X181134493Y-95470144D01*
X181109916Y-95446964D01*
X181062651Y-95420202D01*
X180990314Y-95386934D01*
X180841543Y-95321816D01*
X180837595Y-95257308D01*
X180839079Y-95216220D01*
X180936010Y-95216220D01*
X180943368Y-95241657D01*
X180976848Y-95268814D01*
X181037614Y-95299714D01*
X181047669Y-95304190D01*
X181095751Y-95325017D01*
X181131726Y-95339665D01*
X181148444Y-95345200D01*
X181150977Y-95341126D01*
X181151993Y-95316247D01*
X181148369Y-95276257D01*
X181139242Y-95237152D01*
X181110773Y-95187884D01*
X181069678Y-95160122D01*
X181020590Y-95156364D01*
X180968144Y-95179109D01*
X180953609Y-95190481D01*
X180936010Y-95216220D01*
X180839079Y-95216220D01*
X180839338Y-95209064D01*
X180861281Y-95148096D01*
X180888979Y-95114497D01*
X180946405Y-95076966D01*
X181014527Y-95058006D01*
X181084947Y-95059507D01*
X181149267Y-95083355D01*
X181163426Y-95092513D01*
X181195904Y-95120849D01*
X181218116Y-95156695D01*
X181231804Y-95205384D01*
X181238715Y-95272249D01*
X181239628Y-95316247D01*
X181240590Y-95362622D01*
G37*
X183330698Y-95359714D02*
X183329537Y-95416313D01*
X183321345Y-95493462D01*
X183303519Y-95551276D01*
X183273975Y-95595422D01*
X183230625Y-95631568D01*
X183189332Y-95652463D01*
X183119987Y-95664090D01*
X183050736Y-95651377D01*
X182988145Y-95615945D01*
X182938779Y-95559418D01*
X182932818Y-95548995D01*
X182924945Y-95530733D01*
X182919106Y-95507429D01*
X182914999Y-95475085D01*
X182912325Y-95429704D01*
X182910781Y-95367287D01*
X182910734Y-95361748D01*
X183011429Y-95361748D01*
X183011772Y-95414577D01*
X183013942Y-95462362D01*
X183019307Y-95493209D01*
X183029217Y-95513935D01*
X183045021Y-95531356D01*
X183048724Y-95534705D01*
X183096299Y-95559419D01*
X183146635Y-95556890D01*
X183193517Y-95527288D01*
X183207477Y-95511953D01*
X183219160Y-95491622D01*
X183225686Y-95463514D01*
X183228524Y-95420550D01*
X183229143Y-95355647D01*
X183228837Y-95306122D01*
X183226722Y-95257782D01*
X183221390Y-95226587D01*
X183211460Y-95205647D01*
X183195550Y-95188073D01*
X183186204Y-95180159D01*
X183137776Y-95158843D01*
X183087040Y-95162198D01*
X183042987Y-95190107D01*
X183033504Y-95201173D01*
X183021939Y-95222009D01*
X183015252Y-95251106D01*
X183012173Y-95295381D01*
X183011429Y-95361748D01*
X182910734Y-95361748D01*
X182910067Y-95283837D01*
X182909883Y-95175358D01*
X182909829Y-94838601D01*
X182957000Y-94858362D01*
X182969472Y-94863770D01*
X182989324Y-94875985D01*
X183000687Y-94894482D01*
X183006933Y-94926829D01*
X183011429Y-94980593D01*
X183015535Y-95028866D01*
X183020963Y-95060557D01*
X183028739Y-95072383D01*
X183040457Y-95069212D01*
X183070318Y-95058067D01*
X183123684Y-95055304D01*
X183181093Y-95065625D01*
X183230625Y-95087861D01*
X183257876Y-95108443D01*
X183292865Y-95148600D01*
X183315274Y-95200086D01*
X183327190Y-95268568D01*
X183330542Y-95355647D01*
X183330698Y-95359714D01*
G36*
X183330698Y-95359714D02*
G01*
X183329537Y-95416313D01*
X183321345Y-95493462D01*
X183303519Y-95551276D01*
X183273975Y-95595422D01*
X183230625Y-95631568D01*
X183189332Y-95652463D01*
X183119987Y-95664090D01*
X183050736Y-95651377D01*
X182988145Y-95615945D01*
X182938779Y-95559418D01*
X182932818Y-95548995D01*
X182924945Y-95530733D01*
X182919106Y-95507429D01*
X182914999Y-95475085D01*
X182912325Y-95429704D01*
X182910781Y-95367287D01*
X182910734Y-95361748D01*
X183011429Y-95361748D01*
X183011772Y-95414577D01*
X183013942Y-95462362D01*
X183019307Y-95493209D01*
X183029217Y-95513935D01*
X183045021Y-95531356D01*
X183048724Y-95534705D01*
X183096299Y-95559419D01*
X183146635Y-95556890D01*
X183193517Y-95527288D01*
X183207477Y-95511953D01*
X183219160Y-95491622D01*
X183225686Y-95463514D01*
X183228524Y-95420550D01*
X183229143Y-95355647D01*
X183228837Y-95306122D01*
X183226722Y-95257782D01*
X183221390Y-95226587D01*
X183211460Y-95205647D01*
X183195550Y-95188073D01*
X183186204Y-95180159D01*
X183137776Y-95158843D01*
X183087040Y-95162198D01*
X183042987Y-95190107D01*
X183033504Y-95201173D01*
X183021939Y-95222009D01*
X183015252Y-95251106D01*
X183012173Y-95295381D01*
X183011429Y-95361748D01*
X182910734Y-95361748D01*
X182910067Y-95283837D01*
X182909883Y-95175358D01*
X182909829Y-94838601D01*
X182957000Y-94858362D01*
X182969472Y-94863770D01*
X182989324Y-94875985D01*
X183000687Y-94894482D01*
X183006933Y-94926829D01*
X183011429Y-94980593D01*
X183015535Y-95028866D01*
X183020963Y-95060557D01*
X183028739Y-95072383D01*
X183040457Y-95069212D01*
X183070318Y-95058067D01*
X183123684Y-95055304D01*
X183181093Y-95065625D01*
X183230625Y-95087861D01*
X183257876Y-95108443D01*
X183292865Y-95148600D01*
X183315274Y-95200086D01*
X183327190Y-95268568D01*
X183330542Y-95355647D01*
X183330698Y-95359714D01*
G37*
X186262299Y-95304055D02*
X186257684Y-95414078D01*
X186255078Y-95437387D01*
X186235660Y-95520352D01*
X186200573Y-95583448D01*
X186147212Y-95631808D01*
X186144196Y-95633804D01*
X186076362Y-95662185D01*
X186005535Y-95664711D01*
X185937289Y-95643097D01*
X185877196Y-95599062D01*
X185830829Y-95534322D01*
X185830050Y-95532761D01*
X185814643Y-95492558D01*
X185803357Y-95446866D01*
X185797370Y-95403972D01*
X185797861Y-95372160D01*
X185806007Y-95359714D01*
X185813244Y-95360471D01*
X185847851Y-95374235D01*
X185887078Y-95399546D01*
X185920448Y-95428845D01*
X185937483Y-95454572D01*
X185955192Y-95489471D01*
X185991485Y-95521212D01*
X186033630Y-95533886D01*
X186049077Y-95530221D01*
X186079569Y-95511774D01*
X186106128Y-95486166D01*
X186117486Y-95462934D01*
X186117482Y-95462848D01*
X186104596Y-95452179D01*
X186070241Y-95432933D01*
X186019593Y-95407813D01*
X185957829Y-95379524D01*
X185957489Y-95379374D01*
X185890388Y-95349498D01*
X185845411Y-95327973D01*
X185818145Y-95311437D01*
X185804178Y-95296531D01*
X185799097Y-95279893D01*
X185798490Y-95258162D01*
X185802712Y-95217013D01*
X185946000Y-95217013D01*
X185960791Y-95229949D01*
X185997644Y-95249333D01*
X185998725Y-95249881D01*
X186042205Y-95270587D01*
X186081102Y-95287105D01*
X186105778Y-95294093D01*
X186115676Y-95284753D01*
X186117486Y-95252748D01*
X186109966Y-95212915D01*
X186083897Y-95176717D01*
X186046154Y-95157950D01*
X186004077Y-95159845D01*
X185965005Y-95185632D01*
X185949647Y-95203451D01*
X185946000Y-95217013D01*
X185802712Y-95217013D01*
X185803833Y-95206086D01*
X185830251Y-95135335D01*
X185874473Y-95079735D01*
X185931697Y-95041239D01*
X185997120Y-95021797D01*
X186065937Y-95023359D01*
X186133347Y-95047878D01*
X186194544Y-95097302D01*
X186228450Y-95146212D01*
X186252806Y-95216027D01*
X186256767Y-95252748D01*
X186262299Y-95304055D01*
G36*
X186262299Y-95304055D02*
G01*
X186257684Y-95414078D01*
X186255078Y-95437387D01*
X186235660Y-95520352D01*
X186200573Y-95583448D01*
X186147212Y-95631808D01*
X186144196Y-95633804D01*
X186076362Y-95662185D01*
X186005535Y-95664711D01*
X185937289Y-95643097D01*
X185877196Y-95599062D01*
X185830829Y-95534322D01*
X185830050Y-95532761D01*
X185814643Y-95492558D01*
X185803357Y-95446866D01*
X185797370Y-95403972D01*
X185797861Y-95372160D01*
X185806007Y-95359714D01*
X185813244Y-95360471D01*
X185847851Y-95374235D01*
X185887078Y-95399546D01*
X185920448Y-95428845D01*
X185937483Y-95454572D01*
X185955192Y-95489471D01*
X185991485Y-95521212D01*
X186033630Y-95533886D01*
X186049077Y-95530221D01*
X186079569Y-95511774D01*
X186106128Y-95486166D01*
X186117486Y-95462934D01*
X186117482Y-95462848D01*
X186104596Y-95452179D01*
X186070241Y-95432933D01*
X186019593Y-95407813D01*
X185957829Y-95379524D01*
X185957489Y-95379374D01*
X185890388Y-95349498D01*
X185845411Y-95327973D01*
X185818145Y-95311437D01*
X185804178Y-95296531D01*
X185799097Y-95279893D01*
X185798490Y-95258162D01*
X185802712Y-95217013D01*
X185946000Y-95217013D01*
X185960791Y-95229949D01*
X185997644Y-95249333D01*
X185998725Y-95249881D01*
X186042205Y-95270587D01*
X186081102Y-95287105D01*
X186105778Y-95294093D01*
X186115676Y-95284753D01*
X186117486Y-95252748D01*
X186109966Y-95212915D01*
X186083897Y-95176717D01*
X186046154Y-95157950D01*
X186004077Y-95159845D01*
X185965005Y-95185632D01*
X185949647Y-95203451D01*
X185946000Y-95217013D01*
X185802712Y-95217013D01*
X185803833Y-95206086D01*
X185830251Y-95135335D01*
X185874473Y-95079735D01*
X185931697Y-95041239D01*
X185997120Y-95021797D01*
X186065937Y-95023359D01*
X186133347Y-95047878D01*
X186194544Y-95097302D01*
X186228450Y-95146212D01*
X186252806Y-95216027D01*
X186256767Y-95252748D01*
X186262299Y-95304055D01*
G37*
X184189483Y-95070569D02*
X184239376Y-95099661D01*
X184261325Y-95122327D01*
X184303504Y-95190082D01*
X184317714Y-95263950D01*
X184317714Y-95314770D01*
X184270999Y-95295128D01*
X184238692Y-95275308D01*
X184213231Y-95234160D01*
X184210616Y-95225675D01*
X184182478Y-95182451D01*
X184140067Y-95159103D01*
X184091370Y-95158100D01*
X184044373Y-95181914D01*
X184037357Y-95188056D01*
X184013893Y-95214745D01*
X184010019Y-95238014D01*
X184027768Y-95260862D01*
X184069179Y-95286287D01*
X184136286Y-95317288D01*
X184140824Y-95319252D01*
X184215322Y-95353990D01*
X184266203Y-95384763D01*
X184297525Y-95415488D01*
X184313343Y-95450082D01*
X184317714Y-95492462D01*
X184311986Y-95539446D01*
X184283062Y-95599585D01*
X184232178Y-95642788D01*
X184195374Y-95655759D01*
X184143434Y-95662856D01*
X184092999Y-95661340D01*
X184056983Y-95650632D01*
X184053158Y-95647966D01*
X184042998Y-95629337D01*
X184050048Y-95596505D01*
X184062297Y-95570735D01*
X184081939Y-95560006D01*
X184119191Y-95560539D01*
X184170908Y-95557462D01*
X184204701Y-95536212D01*
X184216114Y-95496877D01*
X184216104Y-95495747D01*
X184209187Y-95472913D01*
X184185659Y-95451963D01*
X184139914Y-95427815D01*
X184077704Y-95398741D01*
X184036499Y-95382925D01*
X184012712Y-95383944D01*
X184001597Y-95404837D01*
X183998408Y-95448641D01*
X183998400Y-95518393D01*
X183998044Y-95561452D01*
X183996413Y-95614626D01*
X183993761Y-95651022D01*
X183990422Y-95664514D01*
X183989530Y-95664423D01*
X183970237Y-95657110D01*
X183938284Y-95641678D01*
X183894124Y-95618842D01*
X183899371Y-95413078D01*
X183899736Y-95399432D01*
X183903904Y-95303651D01*
X183911268Y-95231462D01*
X183923330Y-95178058D01*
X183941593Y-95138633D01*
X183967560Y-95108380D01*
X184002733Y-95082493D01*
X184003384Y-95082087D01*
X184060256Y-95060968D01*
X184126033Y-95057400D01*
X184189483Y-95070569D01*
G36*
X184189483Y-95070569D02*
G01*
X184239376Y-95099661D01*
X184261325Y-95122327D01*
X184303504Y-95190082D01*
X184317714Y-95263950D01*
X184317714Y-95314770D01*
X184270999Y-95295128D01*
X184238692Y-95275308D01*
X184213231Y-95234160D01*
X184210616Y-95225675D01*
X184182478Y-95182451D01*
X184140067Y-95159103D01*
X184091370Y-95158100D01*
X184044373Y-95181914D01*
X184037357Y-95188056D01*
X184013893Y-95214745D01*
X184010019Y-95238014D01*
X184027768Y-95260862D01*
X184069179Y-95286287D01*
X184136286Y-95317288D01*
X184140824Y-95319252D01*
X184215322Y-95353990D01*
X184266203Y-95384763D01*
X184297525Y-95415488D01*
X184313343Y-95450082D01*
X184317714Y-95492462D01*
X184311986Y-95539446D01*
X184283062Y-95599585D01*
X184232178Y-95642788D01*
X184195374Y-95655759D01*
X184143434Y-95662856D01*
X184092999Y-95661340D01*
X184056983Y-95650632D01*
X184053158Y-95647966D01*
X184042998Y-95629337D01*
X184050048Y-95596505D01*
X184062297Y-95570735D01*
X184081939Y-95560006D01*
X184119191Y-95560539D01*
X184170908Y-95557462D01*
X184204701Y-95536212D01*
X184216114Y-95496877D01*
X184216104Y-95495747D01*
X184209187Y-95472913D01*
X184185659Y-95451963D01*
X184139914Y-95427815D01*
X184077704Y-95398741D01*
X184036499Y-95382925D01*
X184012712Y-95383944D01*
X184001597Y-95404837D01*
X183998408Y-95448641D01*
X183998400Y-95518393D01*
X183998044Y-95561452D01*
X183996413Y-95614626D01*
X183993761Y-95651022D01*
X183990422Y-95664514D01*
X183989530Y-95664423D01*
X183970237Y-95657110D01*
X183938284Y-95641678D01*
X183894124Y-95618842D01*
X183899371Y-95413078D01*
X183899736Y-95399432D01*
X183903904Y-95303651D01*
X183911268Y-95231462D01*
X183923330Y-95178058D01*
X183941593Y-95138633D01*
X183967560Y-95108380D01*
X184002733Y-95082493D01*
X184003384Y-95082087D01*
X184060256Y-95060968D01*
X184126033Y-95057400D01*
X184189483Y-95070569D01*
G37*
X186809815Y-95411524D02*
X186811252Y-95523000D01*
X186811651Y-95555339D01*
X186812929Y-95663455D01*
X186813185Y-95746186D01*
X186811634Y-95806426D01*
X186807490Y-95847073D01*
X186799964Y-95871023D01*
X186788271Y-95881171D01*
X186771624Y-95880414D01*
X186749236Y-95871648D01*
X186720321Y-95857769D01*
X186714142Y-95854808D01*
X186688413Y-95840311D01*
X186674976Y-95823065D01*
X186669834Y-95794308D01*
X186668990Y-95745283D01*
X186668952Y-95657257D01*
X186578276Y-95657257D01*
X186522498Y-95654815D01*
X186478640Y-95644908D01*
X186442218Y-95624886D01*
X186439503Y-95622929D01*
X186402546Y-95589869D01*
X186376826Y-95549931D01*
X186360606Y-95497657D01*
X186352148Y-95427588D01*
X186350083Y-95348430D01*
X186494857Y-95348430D01*
X186494882Y-95361697D01*
X186496261Y-95421584D01*
X186500687Y-95460732D01*
X186509461Y-95486153D01*
X186523886Y-95504857D01*
X186524784Y-95505750D01*
X186560237Y-95529952D01*
X186594596Y-95527567D01*
X186633403Y-95498260D01*
X186642895Y-95488244D01*
X186656876Y-95467708D01*
X186664760Y-95440997D01*
X186668245Y-95400499D01*
X186669029Y-95338603D01*
X186668350Y-95301130D01*
X186660983Y-95232980D01*
X186644168Y-95188330D01*
X186616234Y-95163926D01*
X186575509Y-95156514D01*
X186558350Y-95158094D01*
X186528660Y-95173766D01*
X186509031Y-95208691D01*
X186498188Y-95265901D01*
X186494857Y-95348430D01*
X186350083Y-95348430D01*
X186349714Y-95334267D01*
X186350253Y-95266169D01*
X186352707Y-95214587D01*
X186358158Y-95178816D01*
X186367686Y-95152015D01*
X186382371Y-95127338D01*
X186395852Y-95108480D01*
X186444799Y-95057568D01*
X186500256Y-95029918D01*
X186569928Y-95021165D01*
X186649664Y-95029890D01*
X186718595Y-95061185D01*
X186773113Y-95116381D01*
X186777223Y-95122224D01*
X186786808Y-95137753D01*
X186794151Y-95155498D01*
X186799612Y-95179290D01*
X186803550Y-95212958D01*
X186806323Y-95260333D01*
X186808292Y-95325245D01*
X186808528Y-95338603D01*
X186809815Y-95411524D01*
G36*
X186809815Y-95411524D02*
G01*
X186811252Y-95523000D01*
X186811651Y-95555339D01*
X186812929Y-95663455D01*
X186813185Y-95746186D01*
X186811634Y-95806426D01*
X186807490Y-95847073D01*
X186799964Y-95871023D01*
X186788271Y-95881171D01*
X186771624Y-95880414D01*
X186749236Y-95871648D01*
X186720321Y-95857769D01*
X186714142Y-95854808D01*
X186688413Y-95840311D01*
X186674976Y-95823065D01*
X186669834Y-95794308D01*
X186668990Y-95745283D01*
X186668952Y-95657257D01*
X186578276Y-95657257D01*
X186522498Y-95654815D01*
X186478640Y-95644908D01*
X186442218Y-95624886D01*
X186439503Y-95622929D01*
X186402546Y-95589869D01*
X186376826Y-95549931D01*
X186360606Y-95497657D01*
X186352148Y-95427588D01*
X186350083Y-95348430D01*
X186494857Y-95348430D01*
X186494882Y-95361697D01*
X186496261Y-95421584D01*
X186500687Y-95460732D01*
X186509461Y-95486153D01*
X186523886Y-95504857D01*
X186524784Y-95505750D01*
X186560237Y-95529952D01*
X186594596Y-95527567D01*
X186633403Y-95498260D01*
X186642895Y-95488244D01*
X186656876Y-95467708D01*
X186664760Y-95440997D01*
X186668245Y-95400499D01*
X186669029Y-95338603D01*
X186668350Y-95301130D01*
X186660983Y-95232980D01*
X186644168Y-95188330D01*
X186616234Y-95163926D01*
X186575509Y-95156514D01*
X186558350Y-95158094D01*
X186528660Y-95173766D01*
X186509031Y-95208691D01*
X186498188Y-95265901D01*
X186494857Y-95348430D01*
X186350083Y-95348430D01*
X186349714Y-95334267D01*
X186350253Y-95266169D01*
X186352707Y-95214587D01*
X186358158Y-95178816D01*
X186367686Y-95152015D01*
X186382371Y-95127338D01*
X186395852Y-95108480D01*
X186444799Y-95057568D01*
X186500256Y-95029918D01*
X186569928Y-95021165D01*
X186649664Y-95029890D01*
X186718595Y-95061185D01*
X186773113Y-95116381D01*
X186777223Y-95122224D01*
X186786808Y-95137753D01*
X186794151Y-95155498D01*
X186799612Y-95179290D01*
X186803550Y-95212958D01*
X186806323Y-95260333D01*
X186808292Y-95325245D01*
X186808528Y-95338603D01*
X186809815Y-95411524D01*
G37*
X182067495Y-95056220D02*
X182098599Y-95064121D01*
X182127559Y-95083817D01*
X182164831Y-95120484D01*
X182188801Y-95146378D01*
X182213770Y-95179997D01*
X182225031Y-95211506D01*
X182227657Y-95251485D01*
X182227657Y-95316917D01*
X182183035Y-95293842D01*
X182147673Y-95265724D01*
X182123451Y-95227848D01*
X182119291Y-95217551D01*
X182087594Y-95177637D01*
X182043554Y-95157624D01*
X181995531Y-95159572D01*
X181951886Y-95185543D01*
X181933420Y-95206635D01*
X181922663Y-95233619D01*
X181934178Y-95257634D01*
X181969981Y-95281791D01*
X182032090Y-95309199D01*
X182041515Y-95312985D01*
X182098058Y-95337759D01*
X182146580Y-95362189D01*
X182177451Y-95381486D01*
X182208371Y-95415953D01*
X182228927Y-95470957D01*
X182226744Y-95529983D01*
X182202424Y-95585845D01*
X182156568Y-95631355D01*
X182119438Y-95650727D01*
X182047711Y-95664292D01*
X182007852Y-95662462D01*
X181970953Y-95652568D01*
X181956797Y-95631806D01*
X181962091Y-95597613D01*
X181963631Y-95593092D01*
X181975842Y-95569116D01*
X181996174Y-95560042D01*
X182034908Y-95560649D01*
X182062257Y-95561474D01*
X182094257Y-95554392D01*
X182116182Y-95533219D01*
X182128670Y-95507152D01*
X182130062Y-95479845D01*
X182129998Y-95479685D01*
X182113807Y-95464930D01*
X182079155Y-95443457D01*
X182034321Y-95419458D01*
X181987582Y-95397125D01*
X181947217Y-95380652D01*
X181921504Y-95374229D01*
X181917679Y-95380518D01*
X181912864Y-95410115D01*
X181909566Y-95458447D01*
X181908343Y-95519372D01*
X181908058Y-95561542D01*
X181906718Y-95614653D01*
X181904528Y-95651025D01*
X181901769Y-95664514D01*
X181887344Y-95659981D01*
X181858226Y-95647670D01*
X181821257Y-95630826D01*
X181821257Y-95414721D01*
X181821493Y-95359327D01*
X181823729Y-95275207D01*
X181829423Y-95212800D01*
X181839903Y-95167358D01*
X181856497Y-95134133D01*
X181880531Y-95108378D01*
X181913333Y-95085344D01*
X181955124Y-95066335D01*
X182032287Y-95054914D01*
X182067495Y-95056220D01*
G36*
X182067495Y-95056220D02*
G01*
X182098599Y-95064121D01*
X182127559Y-95083817D01*
X182164831Y-95120484D01*
X182188801Y-95146378D01*
X182213770Y-95179997D01*
X182225031Y-95211506D01*
X182227657Y-95251485D01*
X182227657Y-95316917D01*
X182183035Y-95293842D01*
X182147673Y-95265724D01*
X182123451Y-95227848D01*
X182119291Y-95217551D01*
X182087594Y-95177637D01*
X182043554Y-95157624D01*
X181995531Y-95159572D01*
X181951886Y-95185543D01*
X181933420Y-95206635D01*
X181922663Y-95233619D01*
X181934178Y-95257634D01*
X181969981Y-95281791D01*
X182032090Y-95309199D01*
X182041515Y-95312985D01*
X182098058Y-95337759D01*
X182146580Y-95362189D01*
X182177451Y-95381486D01*
X182208371Y-95415953D01*
X182228927Y-95470957D01*
X182226744Y-95529983D01*
X182202424Y-95585845D01*
X182156568Y-95631355D01*
X182119438Y-95650727D01*
X182047711Y-95664292D01*
X182007852Y-95662462D01*
X181970953Y-95652568D01*
X181956797Y-95631806D01*
X181962091Y-95597613D01*
X181963631Y-95593092D01*
X181975842Y-95569116D01*
X181996174Y-95560042D01*
X182034908Y-95560649D01*
X182062257Y-95561474D01*
X182094257Y-95554392D01*
X182116182Y-95533219D01*
X182128670Y-95507152D01*
X182130062Y-95479845D01*
X182129998Y-95479685D01*
X182113807Y-95464930D01*
X182079155Y-95443457D01*
X182034321Y-95419458D01*
X181987582Y-95397125D01*
X181947217Y-95380652D01*
X181921504Y-95374229D01*
X181917679Y-95380518D01*
X181912864Y-95410115D01*
X181909566Y-95458447D01*
X181908343Y-95519372D01*
X181908058Y-95561542D01*
X181906718Y-95614653D01*
X181904528Y-95651025D01*
X181901769Y-95664514D01*
X181887344Y-95659981D01*
X181858226Y-95647670D01*
X181821257Y-95630826D01*
X181821257Y-95414721D01*
X181821493Y-95359327D01*
X181823729Y-95275207D01*
X181829423Y-95212800D01*
X181839903Y-95167358D01*
X181856497Y-95134133D01*
X181880531Y-95108378D01*
X181913333Y-95085344D01*
X181955124Y-95066335D01*
X182032287Y-95054914D01*
X182067495Y-95056220D01*
G37*
X184213933Y-90352371D02*
X184289856Y-90352865D01*
X184344491Y-90354135D01*
X184381500Y-90356547D01*
X184404547Y-90360467D01*
X184417296Y-90366262D01*
X184423411Y-90374299D01*
X184426556Y-90384943D01*
X184426646Y-90385325D01*
X184431814Y-90410347D01*
X184441209Y-90458681D01*
X184453867Y-90525260D01*
X184468825Y-90605014D01*
X184485119Y-90692875D01*
X184486448Y-90700064D01*
X184502691Y-90785340D01*
X184517805Y-90860242D01*
X184530808Y-90920219D01*
X184540715Y-90960717D01*
X184546544Y-90977184D01*
X184546575Y-90977210D01*
X184564943Y-90986320D01*
X184602640Y-91001457D01*
X184651543Y-91019358D01*
X184654297Y-91020330D01*
X184716817Y-91043959D01*
X184789543Y-91073595D01*
X184857294Y-91103062D01*
X184968703Y-91153626D01*
X185215399Y-90985160D01*
X185232775Y-90973311D01*
X185307202Y-90922947D01*
X185373614Y-90878612D01*
X185428039Y-90842916D01*
X185466506Y-90818471D01*
X185485042Y-90807889D01*
X185497743Y-90810315D01*
X185526579Y-90829110D01*
X185571143Y-90866330D01*
X185632670Y-90923020D01*
X185712398Y-91000227D01*
X185719532Y-91007255D01*
X185782796Y-91070222D01*
X185838990Y-91127268D01*
X185884677Y-91174817D01*
X185916414Y-91209297D01*
X185930764Y-91227131D01*
X185930810Y-91227217D01*
X185932633Y-91240795D01*
X185925910Y-91262820D01*
X185908946Y-91296304D01*
X185880044Y-91344261D01*
X185837508Y-91409704D01*
X185779644Y-91495645D01*
X185769783Y-91510151D01*
X185719913Y-91583635D01*
X185675905Y-91648687D01*
X185640380Y-91701417D01*
X185615959Y-91737936D01*
X185605264Y-91754356D01*
X185604458Y-91757834D01*
X185609518Y-91783785D01*
X185624677Y-91826159D01*
X185647463Y-91877728D01*
X185678429Y-91945170D01*
X185713004Y-92025195D01*
X185742366Y-92097629D01*
X185749645Y-92116377D01*
X185768710Y-92164246D01*
X185782715Y-92197596D01*
X185789041Y-92210114D01*
X185796025Y-92211050D01*
X185827413Y-92216461D01*
X185878787Y-92225806D01*
X185944802Y-92238069D01*
X186020113Y-92252232D01*
X186099375Y-92267280D01*
X186177243Y-92282195D01*
X186248370Y-92295961D01*
X186307412Y-92307562D01*
X186349022Y-92315980D01*
X186367857Y-92320199D01*
X186370980Y-92321389D01*
X186378591Y-92327805D01*
X186384254Y-92341465D01*
X186388251Y-92365999D01*
X186390866Y-92405038D01*
X186392384Y-92462213D01*
X186393086Y-92541154D01*
X186393257Y-92645492D01*
X186393257Y-92962799D01*
X186317057Y-92977839D01*
X186307840Y-92979642D01*
X186258891Y-92988980D01*
X186191205Y-93001669D01*
X186112478Y-93016273D01*
X186030400Y-93031355D01*
X185998078Y-93037422D01*
X185925855Y-93052181D01*
X185865666Y-93066137D01*
X185823040Y-93077952D01*
X185803510Y-93086287D01*
X185794660Y-93099905D01*
X185778548Y-93135938D01*
X185762065Y-93182572D01*
X185756263Y-93200034D01*
X185734906Y-93257358D01*
X185707359Y-93325201D01*
X185678107Y-93392355D01*
X185662463Y-93427430D01*
X185640174Y-93479822D01*
X185624857Y-93519058D01*
X185619162Y-93538563D01*
X185619478Y-93540036D01*
X185630281Y-93560729D01*
X185654638Y-93600665D01*
X185690081Y-93655972D01*
X185734136Y-93722781D01*
X185784332Y-93797220D01*
X185949501Y-94039623D01*
X185732503Y-94256983D01*
X185711516Y-94277899D01*
X185647342Y-94340505D01*
X185589990Y-94394495D01*
X185542820Y-94436826D01*
X185509192Y-94464457D01*
X185492467Y-94474343D01*
X185474303Y-94466821D01*
X185436265Y-94445227D01*
X185382726Y-94412151D01*
X185317884Y-94370191D01*
X185245940Y-94321943D01*
X185175275Y-94274291D01*
X185111526Y-94232328D01*
X185059513Y-94199165D01*
X185023279Y-94177378D01*
X185006867Y-94169543D01*
X185005905Y-94169614D01*
X184984103Y-94177338D01*
X184945440Y-94195323D01*
X184897612Y-94220013D01*
X184897110Y-94220284D01*
X184833587Y-94252099D01*
X184790060Y-94267642D01*
X184763052Y-94267685D01*
X184749090Y-94253000D01*
X184743180Y-94238544D01*
X184727229Y-94199831D01*
X184702660Y-94140316D01*
X184670779Y-94063165D01*
X184632893Y-93971541D01*
X184590310Y-93868607D01*
X184544337Y-93757526D01*
X184502667Y-93656472D01*
X184460268Y-93552780D01*
X184422756Y-93460119D01*
X184391388Y-93381642D01*
X184367425Y-93320500D01*
X184352123Y-93279843D01*
X184346743Y-93262825D01*
X184357018Y-93247219D01*
X184385563Y-93221162D01*
X184425971Y-93190887D01*
X184522979Y-93111684D01*
X184609793Y-93010475D01*
X184673322Y-92899116D01*
X184713177Y-92780893D01*
X184728965Y-92659095D01*
X184720296Y-92537010D01*
X184686778Y-92417925D01*
X184628021Y-92305129D01*
X184543632Y-92201911D01*
X184499631Y-92161713D01*
X184394211Y-92090638D01*
X184281410Y-92044301D01*
X184164525Y-92021599D01*
X184046853Y-92021428D01*
X183931690Y-92042687D01*
X183822335Y-92084270D01*
X183722083Y-92145076D01*
X183634233Y-92224001D01*
X183562080Y-92319941D01*
X183508922Y-92431795D01*
X183478057Y-92558457D01*
X183472392Y-92619507D01*
X183480185Y-92751776D01*
X183515284Y-92877266D01*
X183576649Y-92993759D01*
X183663243Y-93099039D01*
X183774029Y-93190887D01*
X183812931Y-93219930D01*
X183842104Y-93246272D01*
X183853257Y-93262800D01*
X183848810Y-93277209D01*
X183834378Y-93315815D01*
X183811173Y-93375201D01*
X183780452Y-93452215D01*
X183743474Y-93543703D01*
X183701496Y-93646516D01*
X183655778Y-93757502D01*
X183614178Y-93858072D01*
X183571222Y-93961947D01*
X183532829Y-94054819D01*
X183500305Y-94133525D01*
X183474958Y-94194899D01*
X183458095Y-94235779D01*
X183451025Y-94253000D01*
X183450943Y-94253204D01*
X183436798Y-94267745D01*
X183409659Y-94267579D01*
X183366023Y-94251927D01*
X183302388Y-94220013D01*
X183297379Y-94217326D01*
X183250125Y-94193150D01*
X183212811Y-94176037D01*
X183193133Y-94169543D01*
X183177005Y-94177218D01*
X183140959Y-94198871D01*
X183089092Y-94231928D01*
X183025445Y-94273810D01*
X182954060Y-94321943D01*
X182883724Y-94369131D01*
X182818670Y-94411267D01*
X182764820Y-94444578D01*
X182726374Y-94466469D01*
X182707534Y-94474343D01*
X182704325Y-94473343D01*
X182681954Y-94457584D01*
X182643733Y-94425033D01*
X182593021Y-94378733D01*
X182533181Y-94321726D01*
X182467571Y-94257058D01*
X182250648Y-94039772D01*
X182419601Y-93791253D01*
X182588553Y-93542733D01*
X182537183Y-93431595D01*
X182537031Y-93431266D01*
X182506183Y-93360418D01*
X182474661Y-93281523D01*
X182449266Y-93211600D01*
X182445423Y-93200322D01*
X182426047Y-93147967D01*
X182408574Y-93107283D01*
X182396388Y-93086287D01*
X182391426Y-93083322D01*
X182361634Y-93073375D01*
X182311047Y-93060505D01*
X182245194Y-93046053D01*
X182169600Y-93031355D01*
X182146957Y-93027210D01*
X182065038Y-93012116D01*
X181988600Y-92997899D01*
X181925337Y-92985995D01*
X181882943Y-92977839D01*
X181806743Y-92962799D01*
X181806743Y-92645492D01*
X181806760Y-92606476D01*
X181807082Y-92511292D01*
X181808033Y-92440255D01*
X181809896Y-92389734D01*
X181812955Y-92356098D01*
X181817494Y-92335718D01*
X181823795Y-92324962D01*
X181832143Y-92320199D01*
X181840224Y-92318270D01*
X181873172Y-92311445D01*
X181925736Y-92301022D01*
X181992569Y-92288018D01*
X182068328Y-92273449D01*
X182147665Y-92258333D01*
X182225237Y-92243685D01*
X182295698Y-92230523D01*
X182353702Y-92219863D01*
X182393904Y-92212721D01*
X182410959Y-92210114D01*
X182412112Y-92208541D01*
X182421385Y-92188119D01*
X182437432Y-92149045D01*
X182457635Y-92097629D01*
X182485672Y-92028353D01*
X182520186Y-91948290D01*
X182552538Y-91877728D01*
X182559952Y-91861889D01*
X182580755Y-91812293D01*
X182593219Y-91774038D01*
X182594863Y-91754356D01*
X182594015Y-91752962D01*
X182580548Y-91732420D01*
X182553850Y-91692516D01*
X182516539Y-91637140D01*
X182471234Y-91570177D01*
X182420552Y-91495517D01*
X182363445Y-91410692D01*
X182320607Y-91344800D01*
X182291460Y-91296478D01*
X182274317Y-91262733D01*
X182267495Y-91240572D01*
X182269306Y-91227002D01*
X182269915Y-91225984D01*
X182286297Y-91206210D01*
X182319695Y-91170175D01*
X182366671Y-91121451D01*
X182423786Y-91063612D01*
X182487603Y-91000227D01*
X182553802Y-90935905D01*
X182618648Y-90875447D01*
X182666299Y-90834655D01*
X182697990Y-90812484D01*
X182714958Y-90807889D01*
X182717175Y-90808921D01*
X182740524Y-90822837D01*
X182782912Y-90850030D01*
X182840369Y-90887889D01*
X182908923Y-90933803D01*
X182984601Y-90985160D01*
X183231298Y-91153626D01*
X183342706Y-91103062D01*
X183345943Y-91101597D01*
X183414343Y-91071965D01*
X183486907Y-91042493D01*
X183548457Y-91019358D01*
X183548729Y-91019262D01*
X183597595Y-91001367D01*
X183635212Y-90986253D01*
X183653457Y-90977184D01*
X183653752Y-90976855D01*
X183659946Y-90958282D01*
X183670139Y-90916045D01*
X183683348Y-90854696D01*
X183698590Y-90778789D01*
X183714881Y-90692875D01*
X183715449Y-90689796D01*
X183731713Y-90602128D01*
X183746608Y-90522741D01*
X183759171Y-90456701D01*
X183768438Y-90409079D01*
X183773444Y-90384943D01*
X183773764Y-90383605D01*
X183777060Y-90373273D01*
X183783738Y-90365506D01*
X183797462Y-90359940D01*
X183821895Y-90356207D01*
X183860702Y-90353942D01*
X183917546Y-90352778D01*
X183996090Y-90352348D01*
X184100000Y-90352286D01*
X184113056Y-90352286D01*
X184213933Y-90352371D01*
G36*
X184213933Y-90352371D02*
G01*
X184289856Y-90352865D01*
X184344491Y-90354135D01*
X184381500Y-90356547D01*
X184404547Y-90360467D01*
X184417296Y-90366262D01*
X184423411Y-90374299D01*
X184426556Y-90384943D01*
X184426646Y-90385325D01*
X184431814Y-90410347D01*
X184441209Y-90458681D01*
X184453867Y-90525260D01*
X184468825Y-90605014D01*
X184485119Y-90692875D01*
X184486448Y-90700064D01*
X184502691Y-90785340D01*
X184517805Y-90860242D01*
X184530808Y-90920219D01*
X184540715Y-90960717D01*
X184546544Y-90977184D01*
X184546575Y-90977210D01*
X184564943Y-90986320D01*
X184602640Y-91001457D01*
X184651543Y-91019358D01*
X184654297Y-91020330D01*
X184716817Y-91043959D01*
X184789543Y-91073595D01*
X184857294Y-91103062D01*
X184968703Y-91153626D01*
X185215399Y-90985160D01*
X185232775Y-90973311D01*
X185307202Y-90922947D01*
X185373614Y-90878612D01*
X185428039Y-90842916D01*
X185466506Y-90818471D01*
X185485042Y-90807889D01*
X185497743Y-90810315D01*
X185526579Y-90829110D01*
X185571143Y-90866330D01*
X185632670Y-90923020D01*
X185712398Y-91000227D01*
X185719532Y-91007255D01*
X185782796Y-91070222D01*
X185838990Y-91127268D01*
X185884677Y-91174817D01*
X185916414Y-91209297D01*
X185930764Y-91227131D01*
X185930810Y-91227217D01*
X185932633Y-91240795D01*
X185925910Y-91262820D01*
X185908946Y-91296304D01*
X185880044Y-91344261D01*
X185837508Y-91409704D01*
X185779644Y-91495645D01*
X185769783Y-91510151D01*
X185719913Y-91583635D01*
X185675905Y-91648687D01*
X185640380Y-91701417D01*
X185615959Y-91737936D01*
X185605264Y-91754356D01*
X185604458Y-91757834D01*
X185609518Y-91783785D01*
X185624677Y-91826159D01*
X185647463Y-91877728D01*
X185678429Y-91945170D01*
X185713004Y-92025195D01*
X185742366Y-92097629D01*
X185749645Y-92116377D01*
X185768710Y-92164246D01*
X185782715Y-92197596D01*
X185789041Y-92210114D01*
X185796025Y-92211050D01*
X185827413Y-92216461D01*
X185878787Y-92225806D01*
X185944802Y-92238069D01*
X186020113Y-92252232D01*
X186099375Y-92267280D01*
X186177243Y-92282195D01*
X186248370Y-92295961D01*
X186307412Y-92307562D01*
X186349022Y-92315980D01*
X186367857Y-92320199D01*
X186370980Y-92321389D01*
X186378591Y-92327805D01*
X186384254Y-92341465D01*
X186388251Y-92365999D01*
X186390866Y-92405038D01*
X186392384Y-92462213D01*
X186393086Y-92541154D01*
X186393257Y-92645492D01*
X186393257Y-92962799D01*
X186317057Y-92977839D01*
X186307840Y-92979642D01*
X186258891Y-92988980D01*
X186191205Y-93001669D01*
X186112478Y-93016273D01*
X186030400Y-93031355D01*
X185998078Y-93037422D01*
X185925855Y-93052181D01*
X185865666Y-93066137D01*
X185823040Y-93077952D01*
X185803510Y-93086287D01*
X185794660Y-93099905D01*
X185778548Y-93135938D01*
X185762065Y-93182572D01*
X185756263Y-93200034D01*
X185734906Y-93257358D01*
X185707359Y-93325201D01*
X185678107Y-93392355D01*
X185662463Y-93427430D01*
X185640174Y-93479822D01*
X185624857Y-93519058D01*
X185619162Y-93538563D01*
X185619478Y-93540036D01*
X185630281Y-93560729D01*
X185654638Y-93600665D01*
X185690081Y-93655972D01*
X185734136Y-93722781D01*
X185784332Y-93797220D01*
X185949501Y-94039623D01*
X185732503Y-94256983D01*
X185711516Y-94277899D01*
X185647342Y-94340505D01*
X185589990Y-94394495D01*
X185542820Y-94436826D01*
X185509192Y-94464457D01*
X185492467Y-94474343D01*
X185474303Y-94466821D01*
X185436265Y-94445227D01*
X185382726Y-94412151D01*
X185317884Y-94370191D01*
X185245940Y-94321943D01*
X185175275Y-94274291D01*
X185111526Y-94232328D01*
X185059513Y-94199165D01*
X185023279Y-94177378D01*
X185006867Y-94169543D01*
X185005905Y-94169614D01*
X184984103Y-94177338D01*
X184945440Y-94195323D01*
X184897612Y-94220013D01*
X184897110Y-94220284D01*
X184833587Y-94252099D01*
X184790060Y-94267642D01*
X184763052Y-94267685D01*
X184749090Y-94253000D01*
X184743180Y-94238544D01*
X184727229Y-94199831D01*
X184702660Y-94140316D01*
X184670779Y-94063165D01*
X184632893Y-93971541D01*
X184590310Y-93868607D01*
X184544337Y-93757526D01*
X184502667Y-93656472D01*
X184460268Y-93552780D01*
X184422756Y-93460119D01*
X184391388Y-93381642D01*
X184367425Y-93320500D01*
X184352123Y-93279843D01*
X184346743Y-93262825D01*
X184357018Y-93247219D01*
X184385563Y-93221162D01*
X184425971Y-93190887D01*
X184522979Y-93111684D01*
X184609793Y-93010475D01*
X184673322Y-92899116D01*
X184713177Y-92780893D01*
X184728965Y-92659095D01*
X184720296Y-92537010D01*
X184686778Y-92417925D01*
X184628021Y-92305129D01*
X184543632Y-92201911D01*
X184499631Y-92161713D01*
X184394211Y-92090638D01*
X184281410Y-92044301D01*
X184164525Y-92021599D01*
X184046853Y-92021428D01*
X183931690Y-92042687D01*
X183822335Y-92084270D01*
X183722083Y-92145076D01*
X183634233Y-92224001D01*
X183562080Y-92319941D01*
X183508922Y-92431795D01*
X183478057Y-92558457D01*
X183472392Y-92619507D01*
X183480185Y-92751776D01*
X183515284Y-92877266D01*
X183576649Y-92993759D01*
X183663243Y-93099039D01*
X183774029Y-93190887D01*
X183812931Y-93219930D01*
X183842104Y-93246272D01*
X183853257Y-93262800D01*
X183848810Y-93277209D01*
X183834378Y-93315815D01*
X183811173Y-93375201D01*
X183780452Y-93452215D01*
X183743474Y-93543703D01*
X183701496Y-93646516D01*
X183655778Y-93757502D01*
X183614178Y-93858072D01*
X183571222Y-93961947D01*
X183532829Y-94054819D01*
X183500305Y-94133525D01*
X183474958Y-94194899D01*
X183458095Y-94235779D01*
X183451025Y-94253000D01*
X183450943Y-94253204D01*
X183436798Y-94267745D01*
X183409659Y-94267579D01*
X183366023Y-94251927D01*
X183302388Y-94220013D01*
X183297379Y-94217326D01*
X183250125Y-94193150D01*
X183212811Y-94176037D01*
X183193133Y-94169543D01*
X183177005Y-94177218D01*
X183140959Y-94198871D01*
X183089092Y-94231928D01*
X183025445Y-94273810D01*
X182954060Y-94321943D01*
X182883724Y-94369131D01*
X182818670Y-94411267D01*
X182764820Y-94444578D01*
X182726374Y-94466469D01*
X182707534Y-94474343D01*
X182704325Y-94473343D01*
X182681954Y-94457584D01*
X182643733Y-94425033D01*
X182593021Y-94378733D01*
X182533181Y-94321726D01*
X182467571Y-94257058D01*
X182250648Y-94039772D01*
X182419601Y-93791253D01*
X182588553Y-93542733D01*
X182537183Y-93431595D01*
X182537031Y-93431266D01*
X182506183Y-93360418D01*
X182474661Y-93281523D01*
X182449266Y-93211600D01*
X182445423Y-93200322D01*
X182426047Y-93147967D01*
X182408574Y-93107283D01*
X182396388Y-93086287D01*
X182391426Y-93083322D01*
X182361634Y-93073375D01*
X182311047Y-93060505D01*
X182245194Y-93046053D01*
X182169600Y-93031355D01*
X182146957Y-93027210D01*
X182065038Y-93012116D01*
X181988600Y-92997899D01*
X181925337Y-92985995D01*
X181882943Y-92977839D01*
X181806743Y-92962799D01*
X181806743Y-92645492D01*
X181806760Y-92606476D01*
X181807082Y-92511292D01*
X181808033Y-92440255D01*
X181809896Y-92389734D01*
X181812955Y-92356098D01*
X181817494Y-92335718D01*
X181823795Y-92324962D01*
X181832143Y-92320199D01*
X181840224Y-92318270D01*
X181873172Y-92311445D01*
X181925736Y-92301022D01*
X181992569Y-92288018D01*
X182068328Y-92273449D01*
X182147665Y-92258333D01*
X182225237Y-92243685D01*
X182295698Y-92230523D01*
X182353702Y-92219863D01*
X182393904Y-92212721D01*
X182410959Y-92210114D01*
X182412112Y-92208541D01*
X182421385Y-92188119D01*
X182437432Y-92149045D01*
X182457635Y-92097629D01*
X182485672Y-92028353D01*
X182520186Y-91948290D01*
X182552538Y-91877728D01*
X182559952Y-91861889D01*
X182580755Y-91812293D01*
X182593219Y-91774038D01*
X182594863Y-91754356D01*
X182594015Y-91752962D01*
X182580548Y-91732420D01*
X182553850Y-91692516D01*
X182516539Y-91637140D01*
X182471234Y-91570177D01*
X182420552Y-91495517D01*
X182363445Y-91410692D01*
X182320607Y-91344800D01*
X182291460Y-91296478D01*
X182274317Y-91262733D01*
X182267495Y-91240572D01*
X182269306Y-91227002D01*
X182269915Y-91225984D01*
X182286297Y-91206210D01*
X182319695Y-91170175D01*
X182366671Y-91121451D01*
X182423786Y-91063612D01*
X182487603Y-91000227D01*
X182553802Y-90935905D01*
X182618648Y-90875447D01*
X182666299Y-90834655D01*
X182697990Y-90812484D01*
X182714958Y-90807889D01*
X182717175Y-90808921D01*
X182740524Y-90822837D01*
X182782912Y-90850030D01*
X182840369Y-90887889D01*
X182908923Y-90933803D01*
X182984601Y-90985160D01*
X183231298Y-91153626D01*
X183342706Y-91103062D01*
X183345943Y-91101597D01*
X183414343Y-91071965D01*
X183486907Y-91042493D01*
X183548457Y-91019358D01*
X183548729Y-91019262D01*
X183597595Y-91001367D01*
X183635212Y-90986253D01*
X183653457Y-90977184D01*
X183653752Y-90976855D01*
X183659946Y-90958282D01*
X183670139Y-90916045D01*
X183683348Y-90854696D01*
X183698590Y-90778789D01*
X183714881Y-90692875D01*
X183715449Y-90689796D01*
X183731713Y-90602128D01*
X183746608Y-90522741D01*
X183759171Y-90456701D01*
X183768438Y-90409079D01*
X183773444Y-90384943D01*
X183773764Y-90383605D01*
X183777060Y-90373273D01*
X183783738Y-90365506D01*
X183797462Y-90359940D01*
X183821895Y-90356207D01*
X183860702Y-90353942D01*
X183917546Y-90352778D01*
X183996090Y-90352348D01*
X184100000Y-90352286D01*
X184113056Y-90352286D01*
X184213933Y-90352371D01*
G37*
%TO.C,G\u002A\u002A\u002A*%
G36*
X175325206Y-92887584D02*
G01*
X175332430Y-92911207D01*
X175344776Y-92948139D01*
X175361045Y-92994830D01*
X175380040Y-93047732D01*
X175392517Y-93082094D01*
X175409753Y-93129907D01*
X175423511Y-93168495D01*
X175432623Y-93194572D01*
X175435920Y-93204853D01*
X175427495Y-93206202D01*
X175402557Y-93207384D01*
X175365082Y-93208185D01*
X175319080Y-93208480D01*
X175275623Y-93207885D01*
X175237528Y-93206126D01*
X175211731Y-93203483D01*
X175202240Y-93200238D01*
X175202393Y-93198961D01*
X175206948Y-93183338D01*
X175216829Y-93154575D01*
X175230671Y-93116253D01*
X175247108Y-93071953D01*
X175264777Y-93025257D01*
X175282312Y-92979745D01*
X175298350Y-92939001D01*
X175311524Y-92906604D01*
X175320470Y-92886136D01*
X175323824Y-92881179D01*
X175325206Y-92887584D01*
G37*
G36*
X177311366Y-92944320D02*
G01*
X177311388Y-92987308D01*
X177310720Y-93027718D01*
X177309450Y-93056623D01*
X177307709Y-93069618D01*
X177301012Y-93071642D01*
X177276826Y-93073709D01*
X177238346Y-93074974D01*
X177189006Y-93075337D01*
X177132239Y-93074698D01*
X177117871Y-93074402D01*
X177050893Y-93072386D01*
X177000440Y-93068901D01*
X176963307Y-93062884D01*
X176936289Y-93053271D01*
X176916182Y-93038996D01*
X176899780Y-93018995D01*
X176883880Y-92992204D01*
X176879213Y-92983512D01*
X176870054Y-92961231D01*
X176870138Y-92941093D01*
X176878800Y-92912667D01*
X176883722Y-92899317D01*
X176895381Y-92874441D01*
X176910140Y-92856052D01*
X176930867Y-92843181D01*
X176960430Y-92834857D01*
X177001697Y-92830112D01*
X177057537Y-92827976D01*
X177130818Y-92827480D01*
X177310440Y-92827480D01*
X177311366Y-92944320D01*
G37*
G36*
X174602800Y-93144425D02*
G01*
X174602729Y-93188874D01*
X174602259Y-93264957D01*
X174601398Y-93333147D01*
X174600202Y-93390959D01*
X174598730Y-93435908D01*
X174597037Y-93465508D01*
X174595180Y-93477273D01*
X174593359Y-93478285D01*
X174575432Y-93480677D01*
X174543032Y-93481365D01*
X174500645Y-93480574D01*
X174452754Y-93478529D01*
X174403847Y-93475454D01*
X174358409Y-93471574D01*
X174320925Y-93467113D01*
X174295880Y-93462296D01*
X174279056Y-93456439D01*
X174232110Y-93426162D01*
X174193801Y-93378343D01*
X174164727Y-93313889D01*
X174145485Y-93233712D01*
X174142318Y-93211177D01*
X174138612Y-93123565D01*
X174148318Y-93040713D01*
X174170700Y-92966687D01*
X174205020Y-92905550D01*
X174227078Y-92879953D01*
X174253580Y-92859287D01*
X174286451Y-92844526D01*
X174329165Y-92834557D01*
X174385196Y-92828266D01*
X174458020Y-92824541D01*
X174602800Y-92819598D01*
X174602800Y-93144425D01*
G37*
G36*
X177436792Y-95195711D02*
G01*
X177478642Y-95196092D01*
X177543254Y-95197679D01*
X177597356Y-95200298D01*
X177637681Y-95203772D01*
X177660960Y-95207922D01*
X177674425Y-95211410D01*
X177709021Y-95217868D01*
X177753719Y-95224397D01*
X177802219Y-95230012D01*
X177834690Y-95233636D01*
X177875054Y-95239325D01*
X177904779Y-95244963D01*
X177919059Y-95249738D01*
X177925719Y-95253208D01*
X177949364Y-95260136D01*
X177981000Y-95265969D01*
X177988648Y-95267181D01*
X178029836Y-95276353D01*
X178082210Y-95290858D01*
X178139642Y-95308806D01*
X178196002Y-95328306D01*
X178245160Y-95347466D01*
X178284868Y-95365124D01*
X178333676Y-95388310D01*
X178385873Y-95414210D01*
X178437093Y-95440573D01*
X178482971Y-95465153D01*
X178519139Y-95485699D01*
X178541232Y-95499962D01*
X178548326Y-95505247D01*
X178569312Y-95519315D01*
X178581344Y-95524960D01*
X178583812Y-95525597D01*
X178599477Y-95534437D01*
X178621984Y-95550360D01*
X178629751Y-95556184D01*
X178649797Y-95570167D01*
X178660191Y-95575760D01*
X178663877Y-95577413D01*
X178681465Y-95587901D01*
X178709724Y-95605918D01*
X178744689Y-95628967D01*
X178747212Y-95630682D01*
X178778915Y-95654990D01*
X178821189Y-95690899D01*
X178870992Y-95735506D01*
X178925282Y-95785907D01*
X178981020Y-95839198D01*
X179035163Y-95892477D01*
X179084670Y-95942838D01*
X179126500Y-95987380D01*
X179157612Y-96023198D01*
X179163573Y-96030648D01*
X179185613Y-96059343D01*
X179210338Y-96092779D01*
X179234764Y-96126764D01*
X179255906Y-96157104D01*
X179270779Y-96179608D01*
X179276401Y-96190082D01*
X179280786Y-96199366D01*
X179293514Y-96221154D01*
X179311663Y-96250249D01*
X179355640Y-96324670D01*
X179406373Y-96423077D01*
X179455386Y-96530358D01*
X179500123Y-96640544D01*
X179538030Y-96747667D01*
X179566553Y-96845760D01*
X179570327Y-96860958D01*
X179594771Y-96970393D01*
X179612535Y-97074728D01*
X179624346Y-97180230D01*
X179630927Y-97293165D01*
X179633005Y-97419800D01*
X179632523Y-97474403D01*
X179629239Y-97572996D01*
X179623160Y-97668262D01*
X179614655Y-97755961D01*
X179604096Y-97831858D01*
X179591850Y-97891715D01*
X179585147Y-97918183D01*
X179575384Y-97957284D01*
X179565094Y-97998920D01*
X179560891Y-98015672D01*
X179526935Y-98132787D01*
X179486801Y-98244822D01*
X179443178Y-98344166D01*
X179430788Y-98369839D01*
X179414061Y-98406295D01*
X179402583Y-98433677D01*
X179398321Y-98447459D01*
X179397965Y-98451203D01*
X179390517Y-98462893D01*
X179389372Y-98463604D01*
X179377955Y-98476991D01*
X179360012Y-98503246D01*
X179338213Y-98538122D01*
X179315229Y-98577375D01*
X179293731Y-98616757D01*
X179283834Y-98634523D01*
X179255350Y-98679874D01*
X179219500Y-98732047D01*
X179180385Y-98785366D01*
X179142105Y-98834158D01*
X179108760Y-98872746D01*
X179092969Y-98889664D01*
X179062314Y-98922553D01*
X179036453Y-98950349D01*
X179001454Y-98987122D01*
X178878318Y-99104230D01*
X178746990Y-99212033D01*
X178611904Y-99307076D01*
X178477491Y-99385906D01*
X178461749Y-99393948D01*
X178415776Y-99415948D01*
X178361636Y-99440356D01*
X178303750Y-99465325D01*
X178246545Y-99489006D01*
X178194442Y-99509553D01*
X178151866Y-99525118D01*
X178123240Y-99533854D01*
X178099252Y-99540942D01*
X178082600Y-99548647D01*
X178080661Y-99549974D01*
X178057114Y-99560194D01*
X178017497Y-99572334D01*
X177965332Y-99585603D01*
X177904138Y-99599210D01*
X177837438Y-99612366D01*
X177768752Y-99624280D01*
X177701600Y-99634163D01*
X177695261Y-99634956D01*
X177652503Y-99638882D01*
X177599285Y-99642008D01*
X177539027Y-99644318D01*
X177475144Y-99645798D01*
X177411055Y-99646432D01*
X177350177Y-99646204D01*
X177295927Y-99645099D01*
X177251723Y-99643103D01*
X177220982Y-99640199D01*
X177207123Y-99636373D01*
X177205420Y-99628015D01*
X177203443Y-99601829D01*
X177201599Y-99560951D01*
X177199928Y-99508465D01*
X177198468Y-99447456D01*
X177197261Y-99381008D01*
X177196345Y-99312205D01*
X177195761Y-99244130D01*
X177195548Y-99179869D01*
X177195746Y-99122504D01*
X177196396Y-99075121D01*
X177197536Y-99040803D01*
X177199206Y-99022634D01*
X177201472Y-99014242D01*
X177206617Y-99007515D01*
X177217813Y-99003785D01*
X177238621Y-99002570D01*
X177272599Y-99003384D01*
X177323310Y-99005741D01*
X177369748Y-99007335D01*
X177547938Y-99000697D01*
X177725985Y-98973978D01*
X177902738Y-98927335D01*
X177955834Y-98909517D01*
X178053212Y-98871817D01*
X178131285Y-98833710D01*
X178190743Y-98794879D01*
X178202030Y-98786376D01*
X178223856Y-98771772D01*
X178236463Y-98765993D01*
X178237029Y-98765924D01*
X178250130Y-98758901D01*
X178273817Y-98742614D01*
X178303391Y-98720273D01*
X178306836Y-98717578D01*
X178335594Y-98695802D01*
X178357561Y-98680401D01*
X178368219Y-98674560D01*
X178368997Y-98674493D01*
X178384049Y-98666108D01*
X178409536Y-98645671D01*
X178442615Y-98616009D01*
X178480446Y-98579951D01*
X178520186Y-98540324D01*
X178558993Y-98499957D01*
X178594026Y-98461678D01*
X178622442Y-98428315D01*
X178641400Y-98402697D01*
X178648351Y-98392497D01*
X178665076Y-98370651D01*
X178673737Y-98360083D01*
X178727229Y-98285245D01*
X178779518Y-98196760D01*
X178827520Y-98100241D01*
X178868149Y-98001301D01*
X178876860Y-97977665D01*
X178894388Y-97930882D01*
X178910257Y-97889344D01*
X178918209Y-97867290D01*
X178927386Y-97836314D01*
X178930960Y-97815811D01*
X178930967Y-97815276D01*
X178934027Y-97795060D01*
X178941585Y-97762566D01*
X178952076Y-97724567D01*
X178955411Y-97712946D01*
X178962029Y-97685593D01*
X178966880Y-97656207D01*
X178970257Y-97621132D01*
X178972455Y-97576711D01*
X178973765Y-97519285D01*
X178974483Y-97445200D01*
X178974658Y-97408476D01*
X178974484Y-97341286D01*
X178973296Y-97287969D01*
X178970788Y-97244111D01*
X178966654Y-97205298D01*
X178960587Y-97167119D01*
X178952283Y-97125160D01*
X178943808Y-97086598D01*
X178933510Y-97043955D01*
X178924561Y-97011276D01*
X178918250Y-96993548D01*
X178915015Y-96986710D01*
X178904763Y-96959899D01*
X178894447Y-96927508D01*
X178881332Y-96886231D01*
X178851180Y-96807192D01*
X178814113Y-96723640D01*
X178773494Y-96642951D01*
X178732685Y-96572501D01*
X178722298Y-96556323D01*
X178702018Y-96525467D01*
X178680801Y-96493810D01*
X178662649Y-96467301D01*
X178651560Y-96451886D01*
X178650037Y-96450008D01*
X178631735Y-96429881D01*
X178602267Y-96399633D01*
X178564818Y-96362332D01*
X178522573Y-96321047D01*
X178478717Y-96278846D01*
X178436434Y-96238796D01*
X178398910Y-96203966D01*
X178369330Y-96177423D01*
X178350878Y-96162236D01*
X178343306Y-96156858D01*
X178309381Y-96133582D01*
X178269229Y-96106932D01*
X178227456Y-96079869D01*
X178188670Y-96055350D01*
X178157476Y-96036335D01*
X178138480Y-96025785D01*
X178086983Y-96002326D01*
X177998641Y-95965092D01*
X177911885Y-95931996D01*
X177830760Y-95904466D01*
X177759316Y-95883927D01*
X177701600Y-95871807D01*
X177659997Y-95865589D01*
X177581546Y-95854205D01*
X177518581Y-95845851D01*
X177467961Y-95840362D01*
X177426546Y-95837572D01*
X177391194Y-95837315D01*
X177358763Y-95839425D01*
X177326113Y-95843736D01*
X177290103Y-95850083D01*
X177282050Y-95851592D01*
X177248185Y-95857241D01*
X177227944Y-95858181D01*
X177216051Y-95854056D01*
X177207228Y-95844512D01*
X177203245Y-95835104D01*
X177199947Y-95816854D01*
X177197438Y-95788058D01*
X177195633Y-95746762D01*
X177194448Y-95691011D01*
X177193798Y-95618853D01*
X177193600Y-95528332D01*
X177193600Y-95230788D01*
X177220892Y-95212906D01*
X177224517Y-95210665D01*
X177237526Y-95204831D01*
X177255349Y-95200663D01*
X177281087Y-95197914D01*
X177317840Y-95196336D01*
X177368709Y-95195685D01*
X177436792Y-95195711D01*
G37*
G36*
X173577441Y-95203238D02*
G01*
X173648302Y-95204988D01*
X173723058Y-95208346D01*
X173798817Y-95213174D01*
X173872689Y-95219331D01*
X173941782Y-95226677D01*
X174003205Y-95235072D01*
X174054067Y-95244376D01*
X174091477Y-95254449D01*
X174102811Y-95258072D01*
X174141550Y-95267801D01*
X174181160Y-95274954D01*
X174195656Y-95277218D01*
X174235084Y-95285610D01*
X174267520Y-95295279D01*
X174308979Y-95310690D01*
X174360617Y-95329308D01*
X174425779Y-95352294D01*
X174433899Y-95355231D01*
X174487902Y-95377952D01*
X174553764Y-95409832D01*
X174627470Y-95448693D01*
X174705005Y-95492357D01*
X174782353Y-95538646D01*
X174855500Y-95585383D01*
X174878740Y-95600759D01*
X174914264Y-95624109D01*
X174942035Y-95642172D01*
X174957473Y-95651960D01*
X174959906Y-95653431D01*
X174970063Y-95659986D01*
X174981692Y-95668643D01*
X174998251Y-95682218D01*
X175023201Y-95703524D01*
X175060000Y-95735377D01*
X175079130Y-95752425D01*
X175115916Y-95786738D01*
X175158050Y-95827386D01*
X175202663Y-95871465D01*
X175246887Y-95916072D01*
X175287852Y-95958300D01*
X175322691Y-95995247D01*
X175348534Y-96024008D01*
X175362514Y-96041677D01*
X175366951Y-96048410D01*
X175384577Y-96073758D01*
X175408913Y-96107671D01*
X175436081Y-96144720D01*
X175444230Y-96155869D01*
X175474139Y-96199090D01*
X175501698Y-96242016D01*
X175521813Y-96276800D01*
X175535663Y-96302239D01*
X175554741Y-96334572D01*
X175569681Y-96356910D01*
X175582630Y-96376508D01*
X175588320Y-96390930D01*
X175589364Y-96395297D01*
X175597216Y-96415490D01*
X175611084Y-96446967D01*
X175628960Y-96485080D01*
X175637853Y-96503878D01*
X175654134Y-96540359D01*
X175665395Y-96568514D01*
X175669600Y-96583419D01*
X175672426Y-96595995D01*
X175683361Y-96617439D01*
X175685877Y-96621718D01*
X175697057Y-96647353D01*
X175713112Y-96690859D01*
X175733601Y-96750955D01*
X175758083Y-96826359D01*
X175786115Y-96915787D01*
X175789464Y-96927049D01*
X175807360Y-97003810D01*
X175821968Y-97095994D01*
X175832847Y-97199581D01*
X175839560Y-97310550D01*
X175841668Y-97424880D01*
X175841151Y-97478906D01*
X175839722Y-97540140D01*
X175837579Y-97594279D01*
X175834902Y-97636915D01*
X175831873Y-97663640D01*
X175828986Y-97680283D01*
X175822424Y-97720904D01*
X175814849Y-97770257D01*
X175807384Y-97821120D01*
X175806526Y-97827068D01*
X175797687Y-97882083D01*
X175787366Y-97932982D01*
X175774293Y-97984337D01*
X175757198Y-98040723D01*
X175734814Y-98106712D01*
X175705869Y-98186880D01*
X175689453Y-98231272D01*
X175669279Y-98284514D01*
X175652377Y-98326717D01*
X175636689Y-98362752D01*
X175620158Y-98397490D01*
X175600727Y-98435800D01*
X175583026Y-98469997D01*
X175556607Y-98520670D01*
X175536420Y-98558554D01*
X175520522Y-98587092D01*
X175506969Y-98609723D01*
X175493819Y-98629886D01*
X175479126Y-98651022D01*
X175474833Y-98657193D01*
X175461579Y-98677924D01*
X175456240Y-98689214D01*
X175451138Y-98698511D01*
X175436210Y-98720051D01*
X175414528Y-98749602D01*
X175389193Y-98783113D01*
X175363305Y-98816537D01*
X175339967Y-98845824D01*
X175322280Y-98866925D01*
X175313344Y-98875790D01*
X175308551Y-98879992D01*
X175292987Y-98897514D01*
X175270147Y-98925257D01*
X175243060Y-98959610D01*
X175224832Y-98982802D01*
X175200467Y-99012512D01*
X175182419Y-99032913D01*
X175173652Y-99040551D01*
X175166043Y-99045298D01*
X175146516Y-99060914D01*
X175119190Y-99084209D01*
X175087890Y-99111852D01*
X175056441Y-99140510D01*
X175028668Y-99166851D01*
X175017519Y-99176215D01*
X175004730Y-99182560D01*
X175004292Y-99182615D01*
X174992207Y-99189225D01*
X174970652Y-99203874D01*
X174945470Y-99222298D01*
X174922505Y-99240233D01*
X174907600Y-99253417D01*
X174891575Y-99266691D01*
X174861908Y-99287484D01*
X174824166Y-99312029D01*
X174783352Y-99337166D01*
X174744467Y-99359737D01*
X174712513Y-99376586D01*
X174678656Y-99393280D01*
X174643227Y-99411477D01*
X174618040Y-99425220D01*
X174614560Y-99427191D01*
X174583956Y-99442461D01*
X174540917Y-99461853D01*
X174491172Y-99482983D01*
X174440446Y-99503470D01*
X174394466Y-99520932D01*
X174358960Y-99532986D01*
X174328511Y-99542237D01*
X174285521Y-99555399D01*
X174242120Y-99568769D01*
X174204590Y-99579766D01*
X174110903Y-99603286D01*
X174010938Y-99623877D01*
X173913041Y-99639915D01*
X173825560Y-99649776D01*
X173817676Y-99650374D01*
X173755099Y-99653864D01*
X173688908Y-99655681D01*
X173622518Y-99655927D01*
X173559346Y-99654705D01*
X173502808Y-99652116D01*
X173456319Y-99648266D01*
X173423295Y-99643255D01*
X173407153Y-99637187D01*
X173406439Y-99636382D01*
X173402365Y-99627066D01*
X173399055Y-99609118D01*
X173396406Y-99580592D01*
X173394313Y-99539539D01*
X173392672Y-99484010D01*
X173391380Y-99412059D01*
X173390334Y-99321736D01*
X173390130Y-99297504D01*
X173389865Y-99222824D01*
X173390164Y-99155501D01*
X173390981Y-99098126D01*
X173392266Y-99053291D01*
X173393972Y-99023590D01*
X173396051Y-99011613D01*
X173400161Y-99010130D01*
X173421681Y-99007880D01*
X173457862Y-99006619D01*
X173504960Y-99006441D01*
X173559228Y-99007444D01*
X173585200Y-99008130D01*
X173646587Y-99008868D01*
X173697902Y-99007450D01*
X173746622Y-99003323D01*
X173800229Y-98995932D01*
X173866200Y-98984725D01*
X173883208Y-98981620D01*
X173944085Y-98969428D01*
X174002769Y-98956199D01*
X174053301Y-98943334D01*
X174089720Y-98932231D01*
X174129832Y-98917924D01*
X174172465Y-98902693D01*
X174205549Y-98890848D01*
X174217765Y-98886146D01*
X174263252Y-98865370D01*
X174316492Y-98837604D01*
X174370931Y-98806536D01*
X174420015Y-98775853D01*
X174457190Y-98749244D01*
X174474011Y-98736119D01*
X174495043Y-98721062D01*
X174505884Y-98715200D01*
X174521287Y-98708951D01*
X174548448Y-98690302D01*
X174583978Y-98661789D01*
X174625041Y-98625971D01*
X174668800Y-98585405D01*
X174712418Y-98542652D01*
X174753060Y-98500269D01*
X174787888Y-98460815D01*
X174793840Y-98453596D01*
X174819577Y-98421188D01*
X174849308Y-98382406D01*
X174879720Y-98341719D01*
X174907503Y-98303597D01*
X174929345Y-98272507D01*
X174941935Y-98252920D01*
X174950233Y-98238234D01*
X174968899Y-98205928D01*
X174989073Y-98171640D01*
X175001891Y-98149577D01*
X175016827Y-98122374D01*
X175024930Y-98105600D01*
X175026736Y-98100990D01*
X175036342Y-98078418D01*
X175049189Y-98049720D01*
X175058239Y-98029232D01*
X175085041Y-97958837D01*
X175105302Y-97890095D01*
X175116672Y-97830641D01*
X175118576Y-97816784D01*
X175121066Y-97800171D01*
X175122099Y-97786112D01*
X175120224Y-97774398D01*
X175113990Y-97764816D01*
X175101946Y-97757155D01*
X175082641Y-97751205D01*
X175054625Y-97746754D01*
X175016445Y-97743591D01*
X174966652Y-97741506D01*
X174903795Y-97740286D01*
X174826422Y-97739721D01*
X174733083Y-97739599D01*
X174622326Y-97739710D01*
X174492701Y-97739842D01*
X174399478Y-97739889D01*
X174295067Y-97739935D01*
X174197755Y-97739974D01*
X174109432Y-97740003D01*
X174031985Y-97740022D01*
X173967304Y-97740032D01*
X173917277Y-97740031D01*
X173883793Y-97740019D01*
X173868740Y-97739996D01*
X173840800Y-97739840D01*
X173840800Y-97119577D01*
X173863660Y-97110886D01*
X173876741Y-97109393D01*
X173908533Y-97107935D01*
X173957031Y-97106603D01*
X174020389Y-97105422D01*
X174096762Y-97104416D01*
X174184302Y-97103610D01*
X174281165Y-97103026D01*
X174385504Y-97102690D01*
X174495473Y-97102626D01*
X174624975Y-97102801D01*
X174737129Y-97102987D01*
X174831770Y-97102956D01*
X174910308Y-97102480D01*
X174974153Y-97101335D01*
X175024715Y-97099294D01*
X175063406Y-97096130D01*
X175091635Y-97091616D01*
X175110813Y-97085528D01*
X175122351Y-97077638D01*
X175127658Y-97067719D01*
X175128145Y-97055547D01*
X175125223Y-97040894D01*
X175120302Y-97023533D01*
X175114793Y-97003240D01*
X175107289Y-96975579D01*
X175095597Y-96940031D01*
X175085031Y-96915312D01*
X175074897Y-96892390D01*
X175070160Y-96871503D01*
X175069978Y-96869291D01*
X175064389Y-96849202D01*
X175052899Y-96818388D01*
X175038092Y-96783074D01*
X175022551Y-96749483D01*
X175008861Y-96723840D01*
X175008253Y-96722829D01*
X174996955Y-96702522D01*
X174983145Y-96676047D01*
X174982010Y-96673838D01*
X174966637Y-96648588D01*
X174952385Y-96631623D01*
X174945124Y-96624008D01*
X174938037Y-96608295D01*
X174932857Y-96595920D01*
X174918201Y-96572354D01*
X174897397Y-96543293D01*
X174877552Y-96515904D01*
X174862541Y-96492699D01*
X174856800Y-96480298D01*
X174855582Y-96475543D01*
X174843857Y-96462724D01*
X174829765Y-96449129D01*
X174813471Y-96427162D01*
X174805861Y-96416819D01*
X174784590Y-96392310D01*
X174755184Y-96361147D01*
X174720800Y-96326386D01*
X174684598Y-96291088D01*
X174649735Y-96258309D01*
X174619369Y-96231110D01*
X174596659Y-96212547D01*
X174584763Y-96205680D01*
X174579008Y-96204503D01*
X174566455Y-96192057D01*
X174559917Y-96181906D01*
X174535908Y-96159335D01*
X174498217Y-96131452D01*
X174449906Y-96100111D01*
X174394032Y-96067164D01*
X174333657Y-96034463D01*
X174271840Y-96003862D01*
X174211640Y-95977213D01*
X174206417Y-95975052D01*
X174171397Y-95960116D01*
X174144208Y-95947783D01*
X174130360Y-95940540D01*
X174116909Y-95934795D01*
X174089349Y-95926054D01*
X174054160Y-95916480D01*
X174021325Y-95907812D01*
X173979674Y-95895954D01*
X173947480Y-95885850D01*
X173945939Y-95885340D01*
X173918801Y-95878567D01*
X173877317Y-95870535D01*
X173826855Y-95862208D01*
X173772779Y-95854546D01*
X173765930Y-95853668D01*
X173680474Y-95844952D01*
X173604146Y-95842441D01*
X173527471Y-95846185D01*
X173440970Y-95856230D01*
X173418196Y-95858703D01*
X173394617Y-95857360D01*
X173382706Y-95848979D01*
X173380151Y-95835214D01*
X173378011Y-95804161D01*
X173376320Y-95759008D01*
X173375075Y-95702881D01*
X173374273Y-95638911D01*
X173373909Y-95570225D01*
X173373982Y-95499951D01*
X173374486Y-95431219D01*
X173375420Y-95367155D01*
X173376780Y-95310889D01*
X173378561Y-95265549D01*
X173380762Y-95234263D01*
X173383379Y-95220160D01*
X173390766Y-95215129D01*
X173417137Y-95209043D01*
X173458967Y-95205126D01*
X173513366Y-95203237D01*
X173577441Y-95203238D01*
G37*
G36*
X180466331Y-93181914D02*
G01*
X180480878Y-93245841D01*
X180482963Y-93258496D01*
X180491711Y-93297179D01*
X180501931Y-93329100D01*
X180502772Y-93334355D01*
X180504212Y-93359056D01*
X180505579Y-93402588D01*
X180506872Y-93463998D01*
X180508093Y-93542332D01*
X180509240Y-93636637D01*
X180510314Y-93745958D01*
X180511315Y-93869343D01*
X180512244Y-94005838D01*
X180513099Y-94154490D01*
X180513883Y-94314343D01*
X180514593Y-94484446D01*
X180515231Y-94663845D01*
X180515797Y-94851585D01*
X180516290Y-95046714D01*
X180516711Y-95248277D01*
X180517061Y-95455321D01*
X180517338Y-95666893D01*
X180517544Y-95882039D01*
X180517679Y-96099805D01*
X180517741Y-96319238D01*
X180517733Y-96539385D01*
X180517685Y-96668966D01*
X180517652Y-96759291D01*
X180517501Y-96978002D01*
X180517279Y-97194567D01*
X180516985Y-97408030D01*
X180516621Y-97617438D01*
X180516185Y-97821838D01*
X180515680Y-98020276D01*
X180515104Y-98211799D01*
X180514457Y-98395452D01*
X180513739Y-98570283D01*
X180512951Y-98735337D01*
X180512094Y-98889662D01*
X180511165Y-99032303D01*
X180510167Y-99162307D01*
X180509100Y-99278720D01*
X180507962Y-99380589D01*
X180506755Y-99466961D01*
X180505478Y-99536881D01*
X180504132Y-99589395D01*
X180502716Y-99623552D01*
X180501231Y-99638396D01*
X180500845Y-99639644D01*
X180491194Y-99674264D01*
X180480071Y-99719019D01*
X180469806Y-99764553D01*
X180468545Y-99770416D01*
X180458572Y-99811934D01*
X180448294Y-99847951D01*
X180439750Y-99871233D01*
X180434090Y-99883302D01*
X180419903Y-99914849D01*
X180404788Y-99949640D01*
X180396232Y-99969231D01*
X180382896Y-99997951D01*
X180373615Y-100015680D01*
X180372185Y-100018030D01*
X180360464Y-100039186D01*
X180346407Y-100066480D01*
X180335164Y-100086796D01*
X180310038Y-100126462D01*
X180278108Y-100172806D01*
X180243084Y-100220501D01*
X180208675Y-100264219D01*
X180158488Y-100318646D01*
X180078457Y-100388967D01*
X179986163Y-100455973D01*
X179886137Y-100516959D01*
X179782911Y-100569217D01*
X179681016Y-100610041D01*
X179584984Y-100636724D01*
X179558171Y-100642417D01*
X179517449Y-100651944D01*
X179486321Y-100660334D01*
X179469972Y-100666257D01*
X179468836Y-100666488D01*
X179451904Y-100667313D01*
X179415345Y-100668088D01*
X179359705Y-100668814D01*
X179285530Y-100669488D01*
X179193366Y-100670110D01*
X179083758Y-100670678D01*
X178957253Y-100671192D01*
X178814396Y-100671649D01*
X178655732Y-100672051D01*
X178481809Y-100672394D01*
X178293170Y-100672678D01*
X178090364Y-100672901D01*
X177873934Y-100673064D01*
X177644427Y-100673164D01*
X177402389Y-100673201D01*
X177148366Y-100673172D01*
X176882903Y-100673079D01*
X176606546Y-100672918D01*
X176319840Y-100672689D01*
X173185480Y-100669862D01*
X173094040Y-100648648D01*
X173058117Y-100639567D01*
X173003131Y-100623387D01*
X172947280Y-100604738D01*
X172893962Y-100584969D01*
X172846577Y-100565427D01*
X172808522Y-100547462D01*
X172783197Y-100532421D01*
X172774000Y-100521655D01*
X172772754Y-100518297D01*
X172760104Y-100513520D01*
X172751666Y-100510546D01*
X172728881Y-100498409D01*
X172697037Y-100479474D01*
X172660515Y-100456510D01*
X172623699Y-100432292D01*
X172590970Y-100409590D01*
X172566709Y-100391177D01*
X172524835Y-100353722D01*
X172479843Y-100308675D01*
X172435635Y-100260398D01*
X172395847Y-100213031D01*
X172364117Y-100170717D01*
X172344079Y-100137600D01*
X172339465Y-100129048D01*
X172325366Y-100105479D01*
X172307116Y-100076640D01*
X172299814Y-100065151D01*
X172255451Y-99984988D01*
X172216149Y-99896836D01*
X172184955Y-99808202D01*
X172164919Y-99726590D01*
X172159187Y-99699096D01*
X172151149Y-99670874D01*
X172144043Y-99655978D01*
X172144015Y-99655943D01*
X172143005Y-99644370D01*
X172142046Y-99613447D01*
X172141138Y-99564116D01*
X172140281Y-99497321D01*
X172139475Y-99414005D01*
X172138719Y-99315113D01*
X172138014Y-99201588D01*
X172137359Y-99074373D01*
X172136754Y-98934411D01*
X172136199Y-98782647D01*
X172135694Y-98620024D01*
X172135239Y-98447485D01*
X172134833Y-98265975D01*
X172134477Y-98076435D01*
X172134170Y-97879811D01*
X172133912Y-97677046D01*
X172133703Y-97469083D01*
X172133543Y-97256865D01*
X172133432Y-97041337D01*
X172133369Y-96823442D01*
X172133368Y-96804883D01*
X172387180Y-96804883D01*
X172387182Y-97012466D01*
X172387240Y-97218969D01*
X172387353Y-97423392D01*
X172387523Y-97624734D01*
X172387749Y-97821996D01*
X172388031Y-98014178D01*
X172388370Y-98200279D01*
X172388766Y-98379300D01*
X172389218Y-98550241D01*
X172389728Y-98712100D01*
X172390295Y-98863880D01*
X172390919Y-99004579D01*
X172391601Y-99133197D01*
X172392341Y-99248734D01*
X172393139Y-99350191D01*
X172393994Y-99436567D01*
X172394909Y-99506863D01*
X172395882Y-99560077D01*
X172396913Y-99595211D01*
X172398003Y-99611264D01*
X172402812Y-99635182D01*
X172425191Y-99717852D01*
X172456282Y-99805517D01*
X172493447Y-99891868D01*
X172534047Y-99970600D01*
X172575442Y-100035402D01*
X172579226Y-100040414D01*
X172604237Y-100070032D01*
X172637427Y-100105623D01*
X172675157Y-100143681D01*
X172713789Y-100180703D01*
X172749686Y-100213183D01*
X172779210Y-100237618D01*
X172798724Y-100250503D01*
X172808347Y-100255232D01*
X172834882Y-100269787D01*
X172865440Y-100287797D01*
X172950433Y-100332568D01*
X173065127Y-100376002D01*
X173190560Y-100407202D01*
X173192370Y-100407525D01*
X173203006Y-100408924D01*
X173218194Y-100410228D01*
X173238592Y-100411440D01*
X173264857Y-100412563D01*
X173297645Y-100413599D01*
X173337613Y-100414552D01*
X173385419Y-100415423D01*
X173441720Y-100416217D01*
X173507172Y-100416935D01*
X173582432Y-100417580D01*
X173668157Y-100418156D01*
X173765005Y-100418664D01*
X173873632Y-100419108D01*
X173994695Y-100419491D01*
X174128852Y-100419814D01*
X174276759Y-100420082D01*
X174439073Y-100420296D01*
X174616451Y-100420460D01*
X174809550Y-100420575D01*
X175019027Y-100420646D01*
X175245540Y-100420675D01*
X175489745Y-100420664D01*
X175752298Y-100420616D01*
X176033858Y-100420534D01*
X176335080Y-100420421D01*
X176575224Y-100420319D01*
X176860331Y-100420181D01*
X177126324Y-100420030D01*
X177373874Y-100419857D01*
X177603655Y-100419657D01*
X177816338Y-100419423D01*
X178012596Y-100419149D01*
X178193101Y-100418829D01*
X178358525Y-100418456D01*
X178509541Y-100418024D01*
X178646822Y-100417526D01*
X178771038Y-100416956D01*
X178882864Y-100416308D01*
X178982971Y-100415575D01*
X179072031Y-100414752D01*
X179150716Y-100413830D01*
X179219700Y-100412805D01*
X179279654Y-100411670D01*
X179331251Y-100410418D01*
X179375163Y-100409044D01*
X179412063Y-100407540D01*
X179442622Y-100405900D01*
X179467513Y-100404118D01*
X179487408Y-100402188D01*
X179502980Y-100400103D01*
X179514901Y-100397858D01*
X179523843Y-100395444D01*
X179530479Y-100392857D01*
X179535480Y-100390089D01*
X179540277Y-100387708D01*
X179561772Y-100380017D01*
X179591360Y-100371389D01*
X179609638Y-100366129D01*
X179684354Y-100337788D01*
X179763290Y-100298745D01*
X179839378Y-100252772D01*
X179905556Y-100203640D01*
X179924493Y-100186782D01*
X179954623Y-100158166D01*
X179988190Y-100125018D01*
X180020623Y-100091938D01*
X180047351Y-100063527D01*
X180063800Y-100044386D01*
X180071897Y-100033440D01*
X180100801Y-99991131D01*
X180127581Y-99947472D01*
X180149767Y-99906900D01*
X180164891Y-99873851D01*
X180170481Y-99852762D01*
X180171413Y-99845492D01*
X180181665Y-99825679D01*
X180181879Y-99825456D01*
X180190250Y-99809976D01*
X180201298Y-99781104D01*
X180212690Y-99744907D01*
X180215445Y-99735384D01*
X180220183Y-99719462D01*
X180224587Y-99704684D01*
X180228670Y-99690309D01*
X180232443Y-99675596D01*
X180235920Y-99659807D01*
X180239112Y-99642200D01*
X180242032Y-99622036D01*
X180244691Y-99598574D01*
X180247102Y-99571075D01*
X180249277Y-99538798D01*
X180251229Y-99501003D01*
X180252969Y-99456951D01*
X180254509Y-99405900D01*
X180255862Y-99347111D01*
X180257040Y-99279844D01*
X180258056Y-99203359D01*
X180258920Y-99116915D01*
X180259646Y-99019772D01*
X180260246Y-98911191D01*
X180260732Y-98790431D01*
X180261116Y-98656752D01*
X180261410Y-98509414D01*
X180261626Y-98347677D01*
X180261778Y-98170801D01*
X180261875Y-97978045D01*
X180261932Y-97768670D01*
X180261961Y-97541935D01*
X180261972Y-97297101D01*
X180261979Y-97033427D01*
X180261994Y-96750173D01*
X180261999Y-96668966D01*
X180261996Y-96383748D01*
X180261958Y-96118065D01*
X180261881Y-95871303D01*
X180261762Y-95642845D01*
X180261599Y-95432076D01*
X180261389Y-95238380D01*
X180261130Y-95061141D01*
X180260817Y-94899743D01*
X180260450Y-94753571D01*
X180260024Y-94622008D01*
X180259537Y-94504439D01*
X180258987Y-94400247D01*
X180258370Y-94308817D01*
X180257684Y-94229534D01*
X180256925Y-94161781D01*
X180256092Y-94104942D01*
X180255181Y-94058402D01*
X180254190Y-94021544D01*
X180253116Y-93993753D01*
X180251955Y-93974414D01*
X180250706Y-93962909D01*
X180249365Y-93958624D01*
X180242288Y-93958158D01*
X180215686Y-93957581D01*
X180170013Y-93957014D01*
X180105964Y-93956460D01*
X180024236Y-93955921D01*
X179925525Y-93955397D01*
X179810527Y-93954890D01*
X179679939Y-93954402D01*
X179534456Y-93953934D01*
X179374775Y-93953487D01*
X179201592Y-93953064D01*
X179015602Y-93952665D01*
X178817503Y-93952292D01*
X178607990Y-93951946D01*
X178387760Y-93951630D01*
X178157508Y-93951343D01*
X177917931Y-93951089D01*
X177669725Y-93950868D01*
X177413586Y-93950682D01*
X177150210Y-93950532D01*
X176880294Y-93950420D01*
X176604533Y-93950347D01*
X176323625Y-93950315D01*
X176163546Y-93950310D01*
X175831921Y-93950313D01*
X175519791Y-93950336D01*
X175226593Y-93950379D01*
X174951760Y-93950446D01*
X174694731Y-93950538D01*
X174454940Y-93950658D01*
X174231823Y-93950807D01*
X174024816Y-93950988D01*
X173833355Y-93951202D01*
X173656876Y-93951451D01*
X173494814Y-93951738D01*
X173346606Y-93952064D01*
X173211687Y-93952432D01*
X173089494Y-93952843D01*
X172979461Y-93953300D01*
X172881026Y-93953804D01*
X172793623Y-93954358D01*
X172716688Y-93954963D01*
X172649658Y-93955621D01*
X172591969Y-93956336D01*
X172543055Y-93957107D01*
X172502354Y-93957939D01*
X172469300Y-93958831D01*
X172443330Y-93959788D01*
X172423879Y-93960809D01*
X172410384Y-93961899D01*
X172402280Y-93963058D01*
X172399003Y-93964288D01*
X172398559Y-93966437D01*
X172397485Y-93985617D01*
X172396462Y-94023716D01*
X172395492Y-94079737D01*
X172394575Y-94152677D01*
X172393710Y-94241539D01*
X172392898Y-94345320D01*
X172392139Y-94463022D01*
X172391434Y-94593644D01*
X172390781Y-94736187D01*
X172390183Y-94889650D01*
X172389638Y-95053033D01*
X172389146Y-95225336D01*
X172388709Y-95405559D01*
X172388327Y-95592703D01*
X172387998Y-95785766D01*
X172387725Y-95983750D01*
X172387506Y-96185653D01*
X172387342Y-96390477D01*
X172387233Y-96597220D01*
X172387180Y-96804883D01*
X172133368Y-96804883D01*
X172133355Y-96604123D01*
X172133389Y-96384324D01*
X172133471Y-96164989D01*
X172133601Y-95947060D01*
X172133779Y-95731482D01*
X172134004Y-95519199D01*
X172134278Y-95311153D01*
X172134598Y-95108288D01*
X172134966Y-94911548D01*
X172135381Y-94721877D01*
X172135843Y-94540217D01*
X172136352Y-94367513D01*
X172136908Y-94204707D01*
X172137510Y-94052745D01*
X172138158Y-93912568D01*
X172138853Y-93785121D01*
X172139594Y-93671347D01*
X172140381Y-93572190D01*
X172141214Y-93488593D01*
X172142092Y-93421500D01*
X172143017Y-93371855D01*
X172143986Y-93340600D01*
X172145001Y-93328680D01*
X172150352Y-93314678D01*
X172158137Y-93283985D01*
X172164620Y-93247565D01*
X172165689Y-93240562D01*
X172178030Y-93185165D01*
X172197216Y-93122561D01*
X172220733Y-93059568D01*
X172246071Y-93003005D01*
X172270714Y-92959689D01*
X172271606Y-92958372D01*
X172291021Y-92926844D01*
X172308970Y-92893649D01*
X172330687Y-92855769D01*
X172364482Y-92805972D01*
X172404994Y-92752078D01*
X172448124Y-92699298D01*
X172451540Y-92695488D01*
X173062360Y-92695488D01*
X173068329Y-92710060D01*
X173084793Y-92739085D01*
X173110621Y-92780773D01*
X173144680Y-92833336D01*
X173185836Y-92894984D01*
X173232958Y-92963928D01*
X173409000Y-93218805D01*
X173414080Y-93419382D01*
X173419160Y-93619960D01*
X173490724Y-93622902D01*
X173492745Y-93622982D01*
X173528904Y-93623381D01*
X173556416Y-93621839D01*
X173569464Y-93618669D01*
X173571718Y-93606797D01*
X173573690Y-93577889D01*
X173575249Y-93535269D01*
X173576272Y-93482248D01*
X173576640Y-93422138D01*
X173576640Y-93232783D01*
X173633579Y-93147520D01*
X173973233Y-93147520D01*
X173973372Y-93161889D01*
X173982597Y-93262689D01*
X174005533Y-93354658D01*
X174041150Y-93435876D01*
X174088418Y-93504424D01*
X174146307Y-93558383D01*
X174213787Y-93595833D01*
X174227782Y-93601169D01*
X174247472Y-93607441D01*
X174269124Y-93612197D01*
X174295799Y-93615714D01*
X174330556Y-93618269D01*
X174376453Y-93620137D01*
X174436552Y-93621594D01*
X174513910Y-93622916D01*
X174560462Y-93623575D01*
X174628954Y-93624170D01*
X174680503Y-93623945D01*
X174717265Y-93622816D01*
X174741397Y-93620697D01*
X174755056Y-93617502D01*
X174760399Y-93613145D01*
X174760675Y-93610350D01*
X174870846Y-93610350D01*
X174873147Y-93614035D01*
X174886282Y-93620540D01*
X174912833Y-93624012D01*
X174956210Y-93625040D01*
X175035938Y-93625040D01*
X175139354Y-93355800D01*
X175491800Y-93350322D01*
X175590800Y-93625040D01*
X175666079Y-93625040D01*
X175681551Y-93624934D01*
X175717728Y-93623055D01*
X175738390Y-93618322D01*
X175747100Y-93610077D01*
X175747148Y-93609908D01*
X175744411Y-93596830D01*
X175735010Y-93566816D01*
X175721146Y-93526207D01*
X175823876Y-93526207D01*
X175823989Y-93560059D01*
X175826561Y-93609908D01*
X175827080Y-93619960D01*
X176180409Y-93622631D01*
X176249936Y-93623088D01*
X176335289Y-93623354D01*
X176403150Y-93623106D01*
X176455192Y-93622294D01*
X176493089Y-93620873D01*
X176518517Y-93618793D01*
X176533148Y-93616009D01*
X176538658Y-93612471D01*
X176538898Y-93609934D01*
X176638526Y-93609934D01*
X176642905Y-93615649D01*
X176657634Y-93621260D01*
X176685475Y-93624193D01*
X176730005Y-93625040D01*
X176815687Y-93625040D01*
X176895276Y-93500944D01*
X176934886Y-93439922D01*
X176978770Y-93374852D01*
X177015106Y-93324572D01*
X177045193Y-93287390D01*
X177070332Y-93261619D01*
X177091824Y-93245568D01*
X177117649Y-93235682D01*
X177155239Y-93227708D01*
X177198022Y-93222391D01*
X177239764Y-93220276D01*
X177274235Y-93221906D01*
X177295200Y-93227824D01*
X177300027Y-93233586D01*
X177304610Y-93247445D01*
X177308191Y-93271355D01*
X177311031Y-93307885D01*
X177313387Y-93359600D01*
X177315520Y-93429068D01*
X177320600Y-93619960D01*
X177387071Y-93622916D01*
X177420239Y-93623441D01*
X177447575Y-93621948D01*
X177460731Y-93618682D01*
X177461990Y-93610221D01*
X177463377Y-93583187D01*
X177463890Y-93565419D01*
X178025299Y-93565419D01*
X178026297Y-93594803D01*
X178030563Y-93612878D01*
X178030829Y-93613186D01*
X178044346Y-93616508D01*
X178075044Y-93619333D01*
X178120039Y-93621656D01*
X178176447Y-93623476D01*
X178241384Y-93624790D01*
X178311965Y-93625596D01*
X178385307Y-93625891D01*
X178458524Y-93625674D01*
X178528734Y-93624941D01*
X178593052Y-93623690D01*
X178648593Y-93621920D01*
X178692473Y-93619627D01*
X178721809Y-93616808D01*
X178733716Y-93613463D01*
X178734095Y-93612370D01*
X178735657Y-93595765D01*
X178736912Y-93562010D01*
X178737871Y-93513605D01*
X178738548Y-93453046D01*
X178738955Y-93382832D01*
X178739057Y-93329536D01*
X178873331Y-93329536D01*
X178879587Y-93362728D01*
X178894804Y-93403131D01*
X178916953Y-93446722D01*
X178944004Y-93489476D01*
X178973927Y-93527371D01*
X179004693Y-93556383D01*
X179014575Y-93563698D01*
X179093308Y-93608368D01*
X179179529Y-93634275D01*
X179205978Y-93638411D01*
X179296665Y-93642178D01*
X179385403Y-93630881D01*
X179465681Y-93605182D01*
X179514345Y-93577558D01*
X179573348Y-93526136D01*
X179624624Y-93460514D01*
X179665694Y-93384004D01*
X179694080Y-93299920D01*
X179699749Y-93269707D01*
X179705287Y-93214227D01*
X179707463Y-93151764D01*
X179706282Y-93089074D01*
X179701748Y-93032913D01*
X179693867Y-92990040D01*
X179684776Y-92960803D01*
X179645014Y-92873042D01*
X179590873Y-92799335D01*
X179523091Y-92740369D01*
X179442405Y-92696831D01*
X179349553Y-92669408D01*
X179302975Y-92663103D01*
X179221374Y-92663708D01*
X179141827Y-92677744D01*
X179069524Y-92704107D01*
X179009652Y-92741693D01*
X179002745Y-92747617D01*
X178970319Y-92781096D01*
X178940219Y-92820388D01*
X178914774Y-92861380D01*
X178896314Y-92899960D01*
X178887171Y-92932015D01*
X178889673Y-92953432D01*
X178890338Y-92954305D01*
X178905464Y-92963295D01*
X178933017Y-92973940D01*
X178966307Y-92984160D01*
X178998642Y-92991873D01*
X179023332Y-92994999D01*
X179025176Y-92994845D01*
X179039357Y-92982913D01*
X179051788Y-92954120D01*
X179059825Y-92934904D01*
X179080745Y-92900698D01*
X179106736Y-92868869D01*
X179107025Y-92868570D01*
X179137947Y-92840288D01*
X179168042Y-92823535D01*
X179207297Y-92812737D01*
X179266607Y-92806672D01*
X179335985Y-92814841D01*
X179399442Y-92838575D01*
X179453292Y-92876405D01*
X179493847Y-92926864D01*
X179515590Y-92972776D01*
X179536794Y-93050635D01*
X179544815Y-93136441D01*
X179539332Y-93225453D01*
X179520022Y-93312931D01*
X179512362Y-93335543D01*
X179484145Y-93392228D01*
X179445550Y-93435004D01*
X179393166Y-93468041D01*
X179327646Y-93490727D01*
X179260096Y-93496148D01*
X179195613Y-93484344D01*
X179137305Y-93456337D01*
X179088281Y-93413148D01*
X179051650Y-93355800D01*
X179047271Y-93345801D01*
X179036997Y-93317734D01*
X179032784Y-93298467D01*
X179030290Y-93289053D01*
X179015596Y-93275264D01*
X179015125Y-93275091D01*
X178993254Y-93273583D01*
X178961021Y-93277752D01*
X178926085Y-93285836D01*
X178896105Y-93296076D01*
X178880782Y-93305461D01*
X178878739Y-93306712D01*
X178878066Y-93307579D01*
X178873331Y-93329536D01*
X178739057Y-93329536D01*
X178739103Y-93305461D01*
X178739006Y-93223431D01*
X178738676Y-93139239D01*
X178738126Y-93055383D01*
X178737367Y-92974362D01*
X178736412Y-92898673D01*
X178735273Y-92830814D01*
X178733963Y-92773284D01*
X178732494Y-92728579D01*
X178730878Y-92699198D01*
X178729129Y-92687638D01*
X178723681Y-92686443D01*
X178700090Y-92684853D01*
X178660215Y-92683591D01*
X178606500Y-92682695D01*
X178541388Y-92682200D01*
X178467324Y-92682142D01*
X178386751Y-92682558D01*
X178052120Y-92685240D01*
X178052120Y-92817320D01*
X178580440Y-92827480D01*
X178580440Y-93061160D01*
X178346882Y-93063147D01*
X178310941Y-93063508D01*
X178245953Y-93064449D01*
X178188714Y-93065649D01*
X178142366Y-93067022D01*
X178110052Y-93068483D01*
X178094916Y-93069948D01*
X178087671Y-93072972D01*
X178081025Y-93082813D01*
X178078675Y-93103248D01*
X178079554Y-93139081D01*
X178079873Y-93145826D01*
X178082600Y-93203400D01*
X178328353Y-93206119D01*
X178383211Y-93206773D01*
X178448073Y-93207811D01*
X178496662Y-93209117D01*
X178531384Y-93210886D01*
X178554645Y-93213314D01*
X178568849Y-93216595D01*
X178576402Y-93220925D01*
X178579710Y-93226498D01*
X178581053Y-93233608D01*
X178582703Y-93259637D01*
X178583111Y-93297020D01*
X178582440Y-93340481D01*
X178580852Y-93384738D01*
X178578511Y-93424514D01*
X178575578Y-93454530D01*
X178572217Y-93469506D01*
X178569067Y-93471541D01*
X178551096Y-93474972D01*
X178516788Y-93477495D01*
X178465152Y-93479149D01*
X178395194Y-93479973D01*
X178305923Y-93480006D01*
X178253537Y-93479997D01*
X178184603Y-93480586D01*
X178126042Y-93481817D01*
X178080341Y-93483610D01*
X178049986Y-93485887D01*
X178037462Y-93488567D01*
X178031351Y-93504360D01*
X178027130Y-93532634D01*
X178025299Y-93565419D01*
X177463890Y-93565419D01*
X177464635Y-93539633D01*
X177465735Y-93481608D01*
X177466644Y-93411165D01*
X177467332Y-93330353D01*
X177467768Y-93241223D01*
X177467920Y-93145826D01*
X177467920Y-92680160D01*
X177200525Y-92680159D01*
X177191596Y-92680161D01*
X177098589Y-92680540D01*
X177023206Y-92681887D01*
X176962970Y-92684653D01*
X176915406Y-92689284D01*
X176878036Y-92696231D01*
X176848383Y-92705940D01*
X176823972Y-92718860D01*
X176802326Y-92735441D01*
X176780968Y-92756130D01*
X176771356Y-92766679D01*
X176732619Y-92826402D01*
X176710941Y-92894048D01*
X176707099Y-92965915D01*
X176721867Y-93038300D01*
X176725327Y-93047307D01*
X176751496Y-93091097D01*
X176789611Y-93133232D01*
X176833594Y-93167822D01*
X176877368Y-93188979D01*
X176919300Y-93201542D01*
X176865728Y-93258351D01*
X176857585Y-93267335D01*
X176830913Y-93300015D01*
X176811638Y-93325871D01*
X176800108Y-93341337D01*
X176767192Y-93388176D01*
X176734186Y-93437404D01*
X176703111Y-93485894D01*
X176675986Y-93530519D01*
X176654833Y-93568152D01*
X176641673Y-93595666D01*
X176638526Y-93609934D01*
X176538898Y-93609934D01*
X176539412Y-93604509D01*
X176540236Y-93577763D01*
X176540874Y-93534422D01*
X176541317Y-93476590D01*
X176541554Y-93406372D01*
X176541576Y-93325871D01*
X176541371Y-93237192D01*
X176540930Y-93142440D01*
X176538280Y-92685240D01*
X175847400Y-92685240D01*
X175847400Y-92817320D01*
X176381442Y-92822738D01*
X176375720Y-93061160D01*
X176152200Y-93063165D01*
X176125888Y-93063403D01*
X176061087Y-93064010D01*
X176003372Y-93064578D01*
X175956050Y-93065072D01*
X175922430Y-93065459D01*
X175905820Y-93065705D01*
X175901659Y-93065883D01*
X175891354Y-93068816D01*
X175885747Y-93078747D01*
X175883421Y-93100115D01*
X175882960Y-93137360D01*
X175882960Y-93208480D01*
X176381390Y-93208480D01*
X176375720Y-93477720D01*
X176108084Y-93479164D01*
X176052198Y-93479648D01*
X175980911Y-93480875D01*
X175920839Y-93482654D01*
X175874257Y-93484893D01*
X175843443Y-93487500D01*
X175830673Y-93490383D01*
X175826773Y-93500440D01*
X175823876Y-93526207D01*
X175721146Y-93526207D01*
X175719631Y-93521768D01*
X175698957Y-93463590D01*
X175673675Y-93394184D01*
X175644470Y-93315454D01*
X175612026Y-93229304D01*
X175577029Y-93137637D01*
X175401217Y-92680160D01*
X175319509Y-92680409D01*
X175237800Y-92680659D01*
X175051505Y-93138160D01*
X175048440Y-93145691D01*
X175011681Y-93236624D01*
X174977644Y-93321929D01*
X174976060Y-93325956D01*
X174947048Y-93399728D01*
X174920611Y-93468141D01*
X174899054Y-93525289D01*
X174883095Y-93569292D01*
X174873452Y-93598272D01*
X174870846Y-93610350D01*
X174760675Y-93610350D01*
X174761194Y-93605096D01*
X174762069Y-93578232D01*
X174762753Y-93534778D01*
X174763237Y-93476842D01*
X174763507Y-93406532D01*
X174763554Y-93325956D01*
X174763365Y-93237222D01*
X174762930Y-93142440D01*
X174760280Y-92685240D01*
X174532426Y-92682500D01*
X174480398Y-92682024D01*
X174402525Y-92682269D01*
X174340221Y-92684268D01*
X174290470Y-92688448D01*
X174250256Y-92695233D01*
X174247925Y-92695912D01*
X174216561Y-92705048D01*
X174186369Y-92718318D01*
X174156663Y-92735470D01*
X174138720Y-92747746D01*
X174081721Y-92801946D01*
X174035707Y-92871194D01*
X174001643Y-92953319D01*
X173980497Y-93046151D01*
X173973233Y-93147520D01*
X173633579Y-93147520D01*
X173750644Y-92972223D01*
X173790769Y-92911697D01*
X173837093Y-92840355D01*
X173873527Y-92782299D01*
X173899584Y-92738337D01*
X173914772Y-92709272D01*
X173918603Y-92695912D01*
X173913494Y-92689238D01*
X173898988Y-92683832D01*
X173871913Y-92681197D01*
X173828419Y-92680683D01*
X173744280Y-92681206D01*
X173627440Y-92863740D01*
X173616117Y-92881427D01*
X173581716Y-92935122D01*
X173551140Y-92982787D01*
X173526172Y-93021651D01*
X173508590Y-93048941D01*
X173500176Y-93061885D01*
X173497812Y-93063879D01*
X173490446Y-93061696D01*
X173478423Y-93050156D01*
X173460527Y-93027679D01*
X173435546Y-92992685D01*
X173402263Y-92943595D01*
X173359466Y-92878828D01*
X173229180Y-92680160D01*
X173148591Y-92680160D01*
X173129545Y-92680305D01*
X173092552Y-92682226D01*
X173071278Y-92686810D01*
X173062459Y-92694605D01*
X173062360Y-92695488D01*
X172451540Y-92695488D01*
X172489774Y-92652844D01*
X172525844Y-92617926D01*
X172540601Y-92605194D01*
X172560747Y-92587590D01*
X172570800Y-92578482D01*
X172576310Y-92574132D01*
X172595150Y-92560864D01*
X172621600Y-92543060D01*
X172666511Y-92513947D01*
X172781201Y-92445642D01*
X172885079Y-92393305D01*
X172978935Y-92356562D01*
X173063560Y-92335042D01*
X173101876Y-92327299D01*
X173140630Y-92317480D01*
X173168045Y-92308344D01*
X173169557Y-92307824D01*
X173176732Y-92306468D01*
X173188875Y-92305201D01*
X173206626Y-92304021D01*
X173230626Y-92302924D01*
X173261513Y-92301908D01*
X173299927Y-92300970D01*
X173346508Y-92300107D01*
X173401896Y-92299316D01*
X173466730Y-92298594D01*
X173541649Y-92297939D01*
X173627294Y-92297347D01*
X173724304Y-92296815D01*
X173833319Y-92296340D01*
X173954979Y-92295921D01*
X174089922Y-92295553D01*
X174238789Y-92295234D01*
X174402219Y-92294960D01*
X174580852Y-92294730D01*
X174775327Y-92294540D01*
X174986285Y-92294387D01*
X175214364Y-92294269D01*
X175460205Y-92294182D01*
X175724447Y-92294123D01*
X176007730Y-92294090D01*
X176310693Y-92294080D01*
X176340837Y-92294080D01*
X176662221Y-92294118D01*
X176967301Y-92294220D01*
X177255840Y-92294386D01*
X177527602Y-92294614D01*
X177782352Y-92294904D01*
X178019853Y-92295255D01*
X178239868Y-92295667D01*
X178442161Y-92296138D01*
X178626497Y-92296668D01*
X178792639Y-92297256D01*
X178940351Y-92297902D01*
X179069396Y-92298604D01*
X179179539Y-92299362D01*
X179270543Y-92300175D01*
X179342172Y-92301042D01*
X179394189Y-92301964D01*
X179426359Y-92302938D01*
X179438445Y-92303964D01*
X179439270Y-92304380D01*
X179459415Y-92310793D01*
X179492486Y-92318063D01*
X179531757Y-92324695D01*
X179557306Y-92329131D01*
X179618791Y-92343877D01*
X179685734Y-92364179D01*
X179751756Y-92387836D01*
X179810478Y-92412647D01*
X179855520Y-92436410D01*
X179857843Y-92437818D01*
X179879002Y-92449474D01*
X179906320Y-92463430D01*
X179911890Y-92466284D01*
X179936028Y-92481272D01*
X179950005Y-92494191D01*
X179954504Y-92499875D01*
X179968543Y-92507440D01*
X179975200Y-92510112D01*
X179995719Y-92522779D01*
X180025206Y-92543145D01*
X180059542Y-92568183D01*
X180094606Y-92594866D01*
X180126278Y-92620168D01*
X180150438Y-92641063D01*
X180166220Y-92658081D01*
X180190854Y-92687508D01*
X180220795Y-92725042D01*
X180252653Y-92766520D01*
X180265453Y-92783890D01*
X180315848Y-92859527D01*
X180363193Y-92941474D01*
X180405429Y-93025405D01*
X180440495Y-93106993D01*
X180455934Y-93151764D01*
X180466331Y-93181914D01*
G37*
G36*
X195858116Y-86479314D02*
G01*
X195916172Y-86536273D01*
X195929133Y-86621198D01*
X195880705Y-86711006D01*
X195840303Y-86745243D01*
X195777642Y-86753603D01*
X195699806Y-86693392D01*
X195663961Y-86649141D01*
X195653625Y-86568003D01*
X195727188Y-86493510D01*
X195771260Y-86473406D01*
X195858116Y-86479314D01*
G37*
G36*
X195416157Y-86493510D02*
G01*
X195463040Y-86529837D01*
X195495050Y-86606920D01*
X195443538Y-86693392D01*
X195395631Y-86736228D01*
X195330127Y-86757067D01*
X195262639Y-86711006D01*
X195232243Y-86671526D01*
X195213414Y-86581056D01*
X195248652Y-86505841D01*
X195321665Y-86468964D01*
X195416157Y-86493510D01*
G37*
G36*
X194969116Y-86479314D02*
G01*
X195027172Y-86536273D01*
X195040133Y-86621198D01*
X194991705Y-86711006D01*
X194951303Y-86745243D01*
X194888642Y-86753603D01*
X194810806Y-86693392D01*
X194774961Y-86649141D01*
X194764625Y-86568003D01*
X194838188Y-86493510D01*
X194882260Y-86473406D01*
X194969116Y-86479314D01*
G37*
G36*
X192432021Y-87886817D02*
G01*
X192437213Y-87892479D01*
X192468321Y-87959590D01*
X192519381Y-88093101D01*
X192586830Y-88281979D01*
X192667106Y-88515191D01*
X192756645Y-88781703D01*
X192851885Y-89070481D01*
X192949263Y-89370492D01*
X193045216Y-89670703D01*
X193136182Y-89960079D01*
X193218598Y-90227588D01*
X193288901Y-90462195D01*
X193343528Y-90652868D01*
X193378917Y-90788572D01*
X193391505Y-90858275D01*
X193381861Y-90912364D01*
X193338589Y-90967103D01*
X193317476Y-90975398D01*
X193252598Y-90988997D01*
X193194873Y-90962741D01*
X193190571Y-90957311D01*
X193160988Y-90890051D01*
X193111376Y-90756120D01*
X193045291Y-90566650D01*
X192966291Y-90332774D01*
X192877933Y-90065625D01*
X192783773Y-89776335D01*
X192687369Y-89476037D01*
X192592279Y-89175863D01*
X192502058Y-88886947D01*
X192420265Y-88620422D01*
X192350456Y-88387419D01*
X192296188Y-88199072D01*
X192261019Y-88066513D01*
X192248505Y-88000876D01*
X192263112Y-87940713D01*
X192332221Y-87883102D01*
X192432021Y-87886817D01*
G37*
G36*
X194187390Y-88348967D02*
G01*
X194263753Y-88400957D01*
X194372966Y-88498917D01*
X194522136Y-88649214D01*
X194718368Y-88858216D01*
X194848410Y-89000417D01*
X194993304Y-89162688D01*
X195108443Y-89296078D01*
X195184422Y-89389644D01*
X195211839Y-89432441D01*
X195194650Y-89461370D01*
X195128058Y-89544740D01*
X195020166Y-89670094D01*
X194880431Y-89826500D01*
X194718309Y-90003023D01*
X194524552Y-90207982D01*
X194374054Y-90358631D01*
X194263881Y-90456816D01*
X194186962Y-90508827D01*
X194136226Y-90520956D01*
X194077830Y-90505081D01*
X194037684Y-90459885D01*
X194049736Y-90382614D01*
X194116792Y-90267265D01*
X194241658Y-90107832D01*
X194427139Y-89898312D01*
X194479827Y-89840573D01*
X194617942Y-89686857D01*
X194729350Y-89559410D01*
X194803750Y-89470156D01*
X194830839Y-89431020D01*
X194827360Y-89423731D01*
X194782481Y-89365632D01*
X194693908Y-89261595D01*
X194571939Y-89123539D01*
X194426869Y-88963385D01*
X194287939Y-88808142D01*
X194145463Y-88634092D01*
X194061810Y-88505849D01*
X194034230Y-88417482D01*
X194059971Y-88363059D01*
X194136284Y-88336648D01*
X194136772Y-88336581D01*
X194187390Y-88348967D01*
G37*
G36*
X191563163Y-88352860D02*
G01*
X191603722Y-88398624D01*
X191591750Y-88476627D01*
X191524496Y-88592800D01*
X191399210Y-88753076D01*
X191213142Y-88963385D01*
X191160202Y-89021407D01*
X191022073Y-89175158D01*
X190910660Y-89302624D01*
X190836260Y-89391884D01*
X190809172Y-89431020D01*
X190812462Y-89438013D01*
X190856854Y-89495612D01*
X190945011Y-89599225D01*
X191066613Y-89736900D01*
X191211339Y-89896686D01*
X191283154Y-89975673D01*
X191439973Y-90155389D01*
X191543069Y-90288871D01*
X191597969Y-90385053D01*
X191610198Y-90452867D01*
X191585283Y-90501250D01*
X191543461Y-90525272D01*
X191480941Y-90517194D01*
X191394861Y-90466398D01*
X191277673Y-90367209D01*
X191121828Y-90213954D01*
X190919780Y-90000957D01*
X190792597Y-89862859D01*
X190647374Y-89701352D01*
X190531912Y-89568475D01*
X190455686Y-89475185D01*
X190428172Y-89432441D01*
X190445671Y-89402957D01*
X190512427Y-89318943D01*
X190620277Y-89192853D01*
X190759817Y-89035629D01*
X190921643Y-88858216D01*
X190924347Y-88855290D01*
X191119962Y-88647042D01*
X191268602Y-88497421D01*
X191377372Y-88400059D01*
X191453378Y-88348591D01*
X191503727Y-88336648D01*
X191563163Y-88352860D01*
G37*
G36*
X196386871Y-86931611D02*
G01*
X196392109Y-87212005D01*
X196395174Y-87552170D01*
X196396643Y-87958330D01*
X196397094Y-88436708D01*
X196397106Y-88993529D01*
X196397088Y-89177984D01*
X196396979Y-89378006D01*
X196396810Y-89685866D01*
X196396059Y-90117848D01*
X196394656Y-90480527D01*
X196392421Y-90780502D01*
X196389173Y-91024373D01*
X196384735Y-91218737D01*
X196378925Y-91370193D01*
X196371565Y-91485340D01*
X196362474Y-91570776D01*
X196351473Y-91633100D01*
X196338383Y-91678910D01*
X196323023Y-91714806D01*
X196246809Y-91823913D01*
X196100839Y-91913500D01*
X196075470Y-91918587D01*
X195964831Y-91928153D01*
X195781860Y-91936686D01*
X195534820Y-91944186D01*
X195231973Y-91950651D01*
X194881583Y-91956082D01*
X194491913Y-91960480D01*
X194071224Y-91963844D01*
X193627780Y-91966174D01*
X193169843Y-91967471D01*
X192705676Y-91967733D01*
X192243542Y-91966962D01*
X191791704Y-91965157D01*
X191358425Y-91962318D01*
X190951966Y-91958445D01*
X190580591Y-91953539D01*
X190252563Y-91947599D01*
X189976145Y-91940625D01*
X189759598Y-91932617D01*
X189611186Y-91923575D01*
X189539172Y-91913500D01*
X189425916Y-91853169D01*
X189316988Y-91714806D01*
X189311683Y-91703706D01*
X189297088Y-91665282D01*
X189284704Y-91614776D01*
X189274350Y-91545590D01*
X189265847Y-91451125D01*
X189259016Y-91324783D01*
X189253676Y-91159964D01*
X189249649Y-90950070D01*
X189246754Y-90688503D01*
X189244811Y-90368664D01*
X189243642Y-89983955D01*
X189243066Y-89527776D01*
X189243021Y-89378006D01*
X189539172Y-89378006D01*
X189539494Y-89801253D01*
X189540865Y-90257831D01*
X189543418Y-90638856D01*
X189547267Y-90949387D01*
X189552528Y-91194481D01*
X189559314Y-91379198D01*
X189567740Y-91508596D01*
X189577922Y-91587735D01*
X189589972Y-91621673D01*
X189590305Y-91621971D01*
X189644079Y-91631934D01*
X189774232Y-91640900D01*
X189972712Y-91648867D01*
X190231467Y-91655837D01*
X190542446Y-91661810D01*
X190897596Y-91666784D01*
X191288865Y-91670761D01*
X191708202Y-91673740D01*
X192147554Y-91675721D01*
X192598869Y-91676705D01*
X193054095Y-91676690D01*
X193505181Y-91675679D01*
X193944074Y-91673669D01*
X194362722Y-91670661D01*
X194753074Y-91666656D01*
X195107077Y-91661653D01*
X195416679Y-91655653D01*
X195673828Y-91648654D01*
X195870472Y-91640658D01*
X195998560Y-91631664D01*
X196050039Y-91621673D01*
X196059836Y-91597961D01*
X196070382Y-91528252D01*
X196079149Y-91409293D01*
X196086254Y-91236026D01*
X196091810Y-91003391D01*
X196095932Y-90706331D01*
X196098734Y-90339786D01*
X196100332Y-89898697D01*
X196100839Y-89378006D01*
X196100839Y-87185139D01*
X189539172Y-87185139D01*
X189539172Y-89378006D01*
X189243021Y-89378006D01*
X189242905Y-88993529D01*
X189242894Y-88769099D01*
X189243007Y-88243267D01*
X189243782Y-87793478D01*
X189245798Y-87413507D01*
X189249633Y-87097130D01*
X189254644Y-86888806D01*
X189539172Y-86888806D01*
X196100839Y-86888806D01*
X196100839Y-86643272D01*
X196096234Y-86536807D01*
X196077782Y-86414803D01*
X196050039Y-86346939D01*
X196049706Y-86346641D01*
X195995932Y-86336677D01*
X195865779Y-86327712D01*
X195667299Y-86319744D01*
X195408544Y-86312774D01*
X195097565Y-86306802D01*
X194742415Y-86301828D01*
X194351146Y-86297851D01*
X193931809Y-86294872D01*
X193492457Y-86292890D01*
X193041142Y-86291907D01*
X192585916Y-86291921D01*
X192134830Y-86292933D01*
X191695937Y-86294943D01*
X191277289Y-86297950D01*
X190886937Y-86301955D01*
X190532934Y-86306958D01*
X190223332Y-86312959D01*
X189966183Y-86319957D01*
X189769539Y-86327954D01*
X189641451Y-86336948D01*
X189589972Y-86346939D01*
X189568898Y-86390273D01*
X189547473Y-86500880D01*
X189539172Y-86643272D01*
X189539172Y-86888806D01*
X189254644Y-86888806D01*
X189255863Y-86838123D01*
X189265068Y-86630263D01*
X189277824Y-86467326D01*
X189294711Y-86343087D01*
X189316306Y-86251323D01*
X189343186Y-86185809D01*
X189375930Y-86140322D01*
X189415115Y-86108638D01*
X189461320Y-86084533D01*
X189515122Y-86061782D01*
X189543610Y-86054850D01*
X189658137Y-86042647D01*
X189844742Y-86031765D01*
X190095176Y-86022205D01*
X190401189Y-86013965D01*
X190754533Y-86007046D01*
X191146957Y-86001449D01*
X191570214Y-85997172D01*
X192016053Y-85994216D01*
X192476226Y-85992581D01*
X192942484Y-85992268D01*
X193406577Y-85993275D01*
X193860256Y-85995603D01*
X194295272Y-85999252D01*
X194703375Y-86004222D01*
X195076318Y-86010513D01*
X195405850Y-86018125D01*
X195683722Y-86027058D01*
X195901685Y-86037312D01*
X196051491Y-86048886D01*
X196124889Y-86061782D01*
X196146575Y-86070792D01*
X196197379Y-86093328D01*
X196240808Y-86119619D01*
X196277441Y-86155889D01*
X196307855Y-86208362D01*
X196332628Y-86283262D01*
X196352338Y-86386813D01*
X196367564Y-86525239D01*
X196378882Y-86704763D01*
X196385364Y-86888806D01*
X196386871Y-86931611D01*
G37*
%TD*%
M02*
