%TF.GenerationSoftware,KiCad,Pcbnew,7.0.7*%
%TF.CreationDate,2023-09-20T12:31:10+02:00*%
%TF.ProjectId,Window_EMP_monitor_59_4x23_5x1.6mm,57696e64-6f77-45f4-954d-505f6d6f6e69,rev?*%
%TF.SameCoordinates,Original*%
%TF.FileFunction,Copper,L2,Bot*%
%TF.FilePolarity,Positive*%
%FSLAX46Y46*%
G04 Gerber Fmt 4.6, Leading zero omitted, Abs format (unit mm)*
G04 Created by KiCad (PCBNEW 7.0.7) date 2023-09-20 12:31:10*
%MOMM*%
%LPD*%
G01*
G04 APERTURE LIST*
G04 Aperture macros list*
%AMRoundRect*
0 Rectangle with rounded corners*
0 $1 Rounding radius*
0 $2 $3 $4 $5 $6 $7 $8 $9 X,Y pos of 4 corners*
0 Add a 4 corners polygon primitive as box body*
4,1,4,$2,$3,$4,$5,$6,$7,$8,$9,$2,$3,0*
0 Add four circle primitives for the rounded corners*
1,1,$1+$1,$2,$3*
1,1,$1+$1,$4,$5*
1,1,$1+$1,$6,$7*
1,1,$1+$1,$8,$9*
0 Add four rect primitives between the rounded corners*
20,1,$1+$1,$2,$3,$4,$5,0*
20,1,$1+$1,$4,$5,$6,$7,0*
20,1,$1+$1,$6,$7,$8,$9,0*
20,1,$1+$1,$8,$9,$2,$3,0*%
G04 Aperture macros list end*
%TA.AperFunction,ComponentPad*%
%ADD10R,1.600000X1.600000*%
%TD*%
%TA.AperFunction,ComponentPad*%
%ADD11C,1.600000*%
%TD*%
%TA.AperFunction,ComponentPad*%
%ADD12RoundRect,0.250000X0.750000X-0.600000X0.750000X0.600000X-0.750000X0.600000X-0.750000X-0.600000X0*%
%TD*%
%TA.AperFunction,ComponentPad*%
%ADD13O,2.000000X1.700000*%
%TD*%
%TA.AperFunction,SMDPad,CuDef*%
%ADD14O,0.800000X1.500000*%
%TD*%
%TA.AperFunction,ViaPad*%
%ADD15C,0.600000*%
%TD*%
%TA.AperFunction,ViaPad*%
%ADD16C,0.800000*%
%TD*%
%TA.AperFunction,ViaPad*%
%ADD17C,0.700000*%
%TD*%
%TA.AperFunction,Conductor*%
%ADD18C,0.150000*%
%TD*%
%TA.AperFunction,Conductor*%
%ADD19C,0.400000*%
%TD*%
%TA.AperFunction,Conductor*%
%ADD20C,0.500000*%
%TD*%
%TA.AperFunction,Conductor*%
%ADD21C,0.510000*%
%TD*%
%TA.AperFunction,Conductor*%
%ADD22C,0.320000*%
%TD*%
%TA.AperFunction,Conductor*%
%ADD23C,0.300000*%
%TD*%
%TA.AperFunction,Conductor*%
%ADD24C,0.200000*%
%TD*%
G04 APERTURE END LIST*
D10*
%TO.P,probeC4,1*%
%TO.N,Net-(probeSS12_1-K)*%
X186555791Y-84730000D03*
D11*
%TO.P,probeC4,2*%
%TO.N,IN_KTS1_ADS2_A-*%
X184055791Y-84730000D03*
%TD*%
D12*
%TO.P,PWR_PLUG1,1,Pin_1*%
%TO.N,VIN_BATF*%
X145122500Y-102310000D03*
D13*
%TO.P,PWR_PLUG1,2,Pin_2*%
%TO.N,GND*%
X145122500Y-99810000D03*
%TD*%
D14*
%TO.P,J2,5,Pin_5*%
%TO.N,RXD0*%
X169465000Y-102785000D03*
%TO.P,J2,6,Pin_6*%
%TO.N,ESP_GPIO0_BOOT-DTR*%
X170735000Y-102785000D03*
%TO.P,J2,7,Pin_7*%
%TO.N,CHIP_EN*%
X172005000Y-102785000D03*
%TO.P,J2,8*%
%TO.N,N/C*%
X173275000Y-102785000D03*
%TD*%
D10*
%TO.P,probeC3,1*%
%TO.N,IN_KTS1_ADS2_A+*%
X180510000Y-101930000D03*
D11*
%TO.P,probeC3,2*%
%TO.N,Net-(probeSS12_1-K)*%
X178010000Y-101930000D03*
%TD*%
D15*
%TO.N,GNDD*%
X166330000Y-94030000D03*
X180470000Y-91920000D03*
X179350000Y-94690000D03*
X169820000Y-93310000D03*
X169830000Y-91870000D03*
%TO.N,3V3*%
X166800000Y-98430000D03*
X161590000Y-99680000D03*
D16*
X150850000Y-104360000D03*
X161802500Y-90160000D03*
D17*
X155407000Y-88900000D03*
D16*
X144700000Y-87140000D03*
D15*
X166700000Y-95060000D03*
X152463000Y-93000000D03*
D16*
X152375821Y-89078750D03*
X166570000Y-91360000D03*
%TO.N,GND*%
X161550000Y-82420000D03*
X151790000Y-87170000D03*
X138780000Y-87080000D03*
X161580000Y-83700000D03*
X163390000Y-83950000D03*
X138740000Y-92340000D03*
X150440000Y-87170000D03*
X146380000Y-85380000D03*
X154330000Y-87170000D03*
X155670000Y-87100000D03*
X149780000Y-91480000D03*
D15*
X158130000Y-92080000D03*
X166230000Y-92800000D03*
D16*
X138810000Y-89940000D03*
X157050000Y-87140000D03*
X158690000Y-96870000D03*
D15*
X159520000Y-89720000D03*
X165210000Y-99160000D03*
X160010355Y-95010000D03*
D16*
X169430000Y-82900000D03*
X146430000Y-82320000D03*
D15*
X150560000Y-95040000D03*
D16*
X142710000Y-93570000D03*
X147700000Y-87140000D03*
X156690000Y-99240000D03*
X146350000Y-86970000D03*
X146400000Y-83780000D03*
X149120000Y-87170000D03*
X158270000Y-87100000D03*
X153080000Y-87190000D03*
X139640000Y-83050000D03*
X138740000Y-85030000D03*
D15*
%TO.N,CHIP_EN*%
X157917000Y-94050000D03*
X169640000Y-100510000D03*
X163050000Y-100900000D03*
%TO.N,Net-(ESP32S1-U0TXD{slash}PROG{slash}GPIO43)*%
X161660000Y-100910000D03*
X161631233Y-98751233D03*
%TO.N,ESP_GPIO0_BOOT-DTR*%
X163930000Y-101080000D03*
X157275119Y-93399822D03*
X170930000Y-100110000D03*
X162551526Y-96831526D03*
%TO.N,GPIO8_I2C_SDA*%
X152740000Y-94780000D03*
X175120000Y-92480000D03*
X170710000Y-96690000D03*
X177410000Y-92720000D03*
%TO.N,GPIO9_I2C_SCL*%
X170530000Y-97740000D03*
X152350000Y-95720000D03*
%TO.N,RXD0*%
X167700000Y-102530000D03*
X162280000Y-101420000D03*
X162440000Y-98160000D03*
%TO.N,IN_KTS1_ADS2_A-*%
X178210000Y-93790000D03*
X175080000Y-93770000D03*
%TO.N,BAT_SENSE_IO07*%
X149050000Y-103470000D03*
X153460000Y-94170000D03*
%TO.N,LED_B_IO02*%
X155540000Y-93050000D03*
X166890000Y-88900000D03*
%TO.N,LED_G_IO04*%
X154726233Y-92393767D03*
X165080000Y-84940000D03*
%TO.N,LED_R_IO05*%
X153790000Y-92410000D03*
X164890000Y-83660000D03*
%TO.N,PERIPHERALS_PWR_EN_IO06*%
X153662000Y-93350000D03*
X172000000Y-85030000D03*
%TO.N,ADS1155_ALERT_IO10*%
X170780000Y-98735500D03*
X151520000Y-96430000D03*
%TD*%
D18*
%TO.N,GNDD*%
X169000000Y-94130000D02*
X166430000Y-94130000D01*
X179350000Y-94690000D02*
X179350000Y-93040000D01*
X166430000Y-94130000D02*
X166330000Y-94030000D01*
X169830000Y-93300000D02*
X169820000Y-93310000D01*
X169820000Y-93310000D02*
X169000000Y-94130000D01*
X169830000Y-91870000D02*
X169830000Y-93300000D01*
X179350000Y-93040000D02*
X180470000Y-91920000D01*
D19*
%TO.N,3V3*%
X143440000Y-104360000D02*
X150850000Y-104360000D01*
X145290000Y-96020000D02*
X142290000Y-99020000D01*
D20*
X156395000Y-88955000D02*
X156395000Y-96125000D01*
D21*
X152463000Y-93000000D02*
X152463000Y-89165929D01*
D20*
X156450000Y-88900000D02*
X156395000Y-88955000D01*
D19*
X145290000Y-87730000D02*
X145290000Y-96020000D01*
D18*
X166780000Y-98410000D02*
X166780000Y-95140000D01*
D22*
X165370000Y-90160000D02*
X161802500Y-90160000D01*
D23*
X156452500Y-88897500D02*
X156452500Y-88837500D01*
X156450000Y-88900000D02*
X156452500Y-88897500D01*
D19*
X142290000Y-99020000D02*
X142290000Y-103210000D01*
X144700000Y-87140000D02*
X145290000Y-87730000D01*
D21*
X152463000Y-89165929D02*
X152375821Y-89078750D01*
X161802500Y-90142500D02*
X161802500Y-90160000D01*
D20*
X156395000Y-96125000D02*
X159950000Y-99680000D01*
X159950000Y-99680000D02*
X161590000Y-99680000D01*
D23*
X156452500Y-88837500D02*
X156410000Y-88795000D01*
D21*
X155407000Y-88900000D02*
X155512000Y-88795000D01*
D19*
X142290000Y-103210000D02*
X143440000Y-104360000D01*
D21*
X155512000Y-88795000D02*
X160455000Y-88795000D01*
X160455000Y-88795000D02*
X161802500Y-90142500D01*
D24*
X155407000Y-88900000D02*
X156072500Y-88900000D01*
D18*
X166800000Y-98430000D02*
X166780000Y-98410000D01*
D22*
X166570000Y-91360000D02*
X165370000Y-90160000D01*
D18*
X166780000Y-95140000D02*
X166700000Y-95060000D01*
D22*
%TO.N,GND*%
X163390000Y-83950000D02*
X163300000Y-83950000D01*
D23*
X149780000Y-91480000D02*
X149780000Y-87830000D01*
D22*
X163390000Y-83860000D02*
X163390000Y-83950000D01*
D18*
X159552500Y-89865026D02*
X159552500Y-89550000D01*
D19*
X160010355Y-95010000D02*
X160010355Y-95644216D01*
D22*
X169400000Y-82870000D02*
X164380000Y-82870000D01*
D19*
X160010355Y-95644216D02*
X158784572Y-96870000D01*
D18*
X150560000Y-95040000D02*
X150480000Y-95040000D01*
X165210000Y-93860000D02*
X166180000Y-92890000D01*
X150480000Y-95040000D02*
X149170000Y-93730000D01*
X158130000Y-92080000D02*
X158130000Y-91287526D01*
D19*
X149170000Y-93730000D02*
X149780000Y-93120000D01*
X158784572Y-96870000D02*
X158690000Y-96870000D01*
X149780000Y-93120000D02*
X149780000Y-91480000D01*
D23*
X149780000Y-87830000D02*
X150440000Y-87170000D01*
D22*
X169430000Y-82900000D02*
X169400000Y-82870000D01*
X163300000Y-83950000D02*
X163390000Y-83860000D01*
D19*
X145122500Y-99810000D02*
X145122500Y-97777500D01*
D18*
X158130000Y-91287526D02*
X159552500Y-89865026D01*
D19*
X145122500Y-97777500D02*
X149170000Y-93730000D01*
D18*
X165210000Y-99160000D02*
X165210000Y-93860000D01*
D22*
X164380000Y-82870000D02*
X163390000Y-83860000D01*
D18*
%TO.N,CHIP_EN*%
X172680000Y-104620000D02*
X174770000Y-104620000D01*
X163164500Y-100785500D02*
X163164500Y-97834500D01*
X175230000Y-104160000D02*
X175230000Y-101440000D01*
X174520000Y-100730000D02*
X169950000Y-100730000D01*
X163164500Y-97834500D02*
X162820000Y-97490000D01*
X162125000Y-97490000D02*
X160980000Y-96345000D01*
X172005000Y-102785000D02*
X172005000Y-103945000D01*
X172005000Y-103945000D02*
X172680000Y-104620000D01*
X160980000Y-94810000D02*
X160220000Y-94050000D01*
X160980000Y-96345000D02*
X160980000Y-94810000D01*
X160220000Y-94050000D02*
X157917000Y-94050000D01*
X163050000Y-100900000D02*
X163164500Y-100785500D01*
X174770000Y-104620000D02*
X175230000Y-104160000D01*
X169950000Y-100730000D02*
X169720000Y-100500000D01*
X175230000Y-101440000D02*
X174520000Y-100730000D01*
X162820000Y-97490000D02*
X162125000Y-97490000D01*
%TO.N,TXD0*%
X173275000Y-102785000D02*
X173275000Y-103275000D01*
%TO.N,Net-(ESP32S1-U0TXD{slash}PROG{slash}GPIO43)*%
X161660000Y-100840000D02*
X162240000Y-100260000D01*
X161660000Y-100910000D02*
X161660000Y-100840000D01*
X162240000Y-99360000D02*
X161631233Y-98751233D01*
X162240000Y-100260000D02*
X162240000Y-99360000D01*
%TO.N,ESP_GPIO0_BOOT-DTR*%
X160064796Y-93399822D02*
X162551526Y-95886552D01*
X162751526Y-96831526D02*
X162551526Y-96831526D01*
X171200000Y-100380000D02*
X170930000Y-100110000D01*
X163930000Y-101080000D02*
X163930000Y-98010000D01*
X175580000Y-101295026D02*
X174664974Y-100380000D01*
X157275119Y-93399822D02*
X160064796Y-93399822D01*
X175020000Y-104970000D02*
X175580000Y-104410000D01*
X162551526Y-95886552D02*
X162551526Y-96831526D01*
X174664974Y-100380000D02*
X171200000Y-100380000D01*
X163930000Y-98010000D02*
X162751526Y-96831526D01*
X170735000Y-103875000D02*
X171830000Y-104970000D01*
X175580000Y-104410000D02*
X175580000Y-101295026D01*
X170735000Y-102785000D02*
X170735000Y-103875000D01*
X171830000Y-104970000D02*
X175020000Y-104970000D01*
%TO.N,GPIO8_I2C_SDA*%
X169630000Y-98660052D02*
X164280052Y-104010000D01*
X152645026Y-104010000D02*
X150780000Y-102144974D01*
X170340000Y-96690000D02*
X169630000Y-97400000D01*
X150780000Y-102144974D02*
X150780000Y-98704974D01*
X150780000Y-98704974D02*
X153230000Y-96254974D01*
X170710000Y-96690000D02*
X170340000Y-96690000D01*
X175360000Y-92720000D02*
X175120000Y-92480000D01*
X153230000Y-96254974D02*
X153230000Y-95270000D01*
X177410000Y-92720000D02*
X175360000Y-92720000D01*
X164280052Y-104010000D02*
X152645026Y-104010000D01*
X153230000Y-95270000D02*
X152740000Y-94780000D01*
X169630000Y-97400000D02*
X169630000Y-98660052D01*
%TO.N,GPIO9_I2C_SCL*%
X170520000Y-97740000D02*
X169980000Y-98280000D01*
X169980000Y-98280000D02*
X169980000Y-98805026D01*
X150430000Y-102289948D02*
X150430000Y-98560000D01*
X169980000Y-98805026D02*
X164425026Y-104360000D01*
X170530000Y-97740000D02*
X170520000Y-97740000D01*
X152500052Y-104360000D02*
X150430000Y-102289948D01*
X164425026Y-104360000D02*
X152500052Y-104360000D01*
X150430000Y-98560000D02*
X152350000Y-96640000D01*
X152350000Y-96640000D02*
X152350000Y-95720000D01*
%TO.N,RXD0*%
X162590000Y-98310000D02*
X162440000Y-98160000D01*
X162280000Y-101420000D02*
X162330000Y-101370000D01*
X167955000Y-102785000D02*
X169465000Y-102785000D01*
X162330000Y-100664974D02*
X162590000Y-100404974D01*
X162330000Y-101370000D02*
X162330000Y-100664974D01*
X167700000Y-102530000D02*
X167955000Y-102785000D01*
X162590000Y-100404974D02*
X162590000Y-98310000D01*
%TO.N,IN_KTS1_ADS2_A-*%
X178190000Y-93770000D02*
X175080000Y-93770000D01*
X178210000Y-93790000D02*
X178190000Y-93770000D01*
%TO.N,BAT_SENSE_IO07*%
X153320000Y-94030000D02*
X153460000Y-94170000D01*
X149730000Y-102790000D02*
X149730000Y-96750000D01*
X149730000Y-96750000D02*
X152450000Y-94030000D01*
X152450000Y-94030000D02*
X153320000Y-94030000D01*
X149050000Y-103470000D02*
X149730000Y-102790000D01*
%TO.N,LED_B_IO02*%
X170760000Y-91190000D02*
X170760000Y-93970000D01*
X167025000Y-99005000D02*
X163420000Y-102610000D01*
X163420000Y-102610000D02*
X153224922Y-102610000D01*
X168010000Y-98033173D02*
X167038173Y-99005000D01*
X168010000Y-96720000D02*
X168010000Y-98033173D01*
X167038173Y-99005000D02*
X167025000Y-99005000D01*
X152190000Y-99274870D02*
X155540000Y-95924870D01*
X152190000Y-101575078D02*
X152190000Y-99274870D01*
X168470000Y-88900000D02*
X170760000Y-91190000D01*
X170760000Y-93970000D02*
X168010000Y-96720000D01*
X166890000Y-88900000D02*
X168470000Y-88900000D01*
X153224922Y-102610000D02*
X152190000Y-101575078D01*
X155540000Y-95924870D02*
X155540000Y-93050000D01*
%TO.N,LED_G_IO04*%
X154820000Y-92487534D02*
X154726233Y-92393767D01*
X165080000Y-84940000D02*
X165130000Y-84940000D01*
X163564974Y-102960000D02*
X153079948Y-102960000D01*
X167183147Y-99355000D02*
X167169974Y-99355000D01*
X171110000Y-94114974D02*
X168360000Y-96864974D01*
X168360000Y-98178147D02*
X167183147Y-99355000D01*
X151830000Y-99139896D02*
X154820000Y-96149897D01*
X151830000Y-99760000D02*
X151830000Y-99670000D01*
X154820000Y-96149897D02*
X154820000Y-92487534D01*
X151830000Y-101710052D02*
X151830000Y-99760000D01*
X165130000Y-84940000D02*
X171110000Y-90920000D01*
X167169974Y-99355000D02*
X163564974Y-102960000D01*
X151830000Y-99760000D02*
X151830000Y-99139896D01*
X171110000Y-90920000D02*
X171110000Y-94114974D01*
X168360000Y-96864974D02*
X168360000Y-98178147D01*
X153079948Y-102960000D02*
X151830000Y-101710052D01*
%TO.N,LED_R_IO05*%
X167328121Y-99705000D02*
X167314948Y-99705000D01*
X168710000Y-97009948D02*
X168710000Y-98323121D01*
X164890000Y-83660000D02*
X165320000Y-83660000D01*
X163709948Y-103310000D02*
X152934974Y-103310000D01*
X167314948Y-99705000D02*
X163709948Y-103310000D01*
X152934974Y-103310000D02*
X151480000Y-101855026D01*
X168710000Y-98323121D02*
X167328121Y-99705000D01*
X151480000Y-101855026D02*
X151480000Y-98994922D01*
X166150000Y-85465026D02*
X171460000Y-90775026D01*
X171460000Y-90775026D02*
X171460000Y-94259948D01*
X165320000Y-83660000D02*
X166150000Y-84490000D01*
X166150000Y-84490000D02*
X166150000Y-85465026D01*
X171460000Y-94259948D02*
X168710000Y-97009948D01*
X154470000Y-93090000D02*
X153790000Y-92410000D01*
X154470000Y-96004922D02*
X154470000Y-93090000D01*
X151480000Y-98994922D02*
X154470000Y-96004922D01*
%TO.N,PERIPHERALS_PWR_EN_IO06*%
X172000000Y-94270000D02*
X169280000Y-96990000D01*
X164135078Y-103660000D02*
X152790000Y-103660000D01*
X169280000Y-98515078D02*
X164135078Y-103660000D01*
X169280000Y-96990000D02*
X169280000Y-98515078D01*
X151130000Y-98849948D02*
X154120000Y-95859948D01*
X151130000Y-102000000D02*
X151130000Y-98849948D01*
X152790000Y-103660000D02*
X151130000Y-102000000D01*
X154120000Y-93710000D02*
X153760000Y-93350000D01*
X172000000Y-85030000D02*
X172000000Y-94270000D01*
X153760000Y-93350000D02*
X153662000Y-93350000D01*
X153662000Y-93350000D02*
X153662000Y-93193000D01*
X154120000Y-95859948D02*
X154120000Y-93710000D01*
%TO.N,ADS1155_ALERT_IO10*%
X170780000Y-98735500D02*
X170544500Y-98735500D01*
X164570000Y-104710000D02*
X152355078Y-104710000D01*
X150080000Y-97870000D02*
X151520000Y-96430000D01*
X170544500Y-98735500D02*
X164570000Y-104710000D01*
X150080000Y-102434922D02*
X150080000Y-97870000D01*
X152355078Y-104710000D02*
X150080000Y-102434922D01*
%TD*%
%TA.AperFunction,Conductor*%
%TO.N,GND*%
G36*
X163887319Y-81613537D02*
G01*
X164063093Y-81630922D01*
X164087049Y-81635710D01*
X164127547Y-81648056D01*
X164252027Y-81686007D01*
X164274573Y-81695396D01*
X164408372Y-81767325D01*
X164426481Y-81777060D01*
X164446755Y-81790691D01*
X164579713Y-81900561D01*
X164596921Y-81917903D01*
X164705749Y-82051698D01*
X164719223Y-82072077D01*
X164799708Y-82224615D01*
X164808925Y-82247240D01*
X164857941Y-82412599D01*
X164862543Y-82436593D01*
X164879022Y-82617531D01*
X164879276Y-82623644D01*
X164878318Y-82745909D01*
X164858109Y-82812792D01*
X164804948Y-82858131D01*
X164768206Y-82868157D01*
X164710750Y-82874630D01*
X164540478Y-82934210D01*
X164387737Y-83030184D01*
X164260184Y-83157737D01*
X164164211Y-83310476D01*
X164104631Y-83480745D01*
X164104630Y-83480750D01*
X164084435Y-83659996D01*
X164084435Y-83660003D01*
X164104630Y-83839249D01*
X164104631Y-83839254D01*
X164164211Y-84009523D01*
X164260184Y-84162262D01*
X164387737Y-84289815D01*
X164387742Y-84289819D01*
X164394152Y-84293847D01*
X164440442Y-84346182D01*
X164451089Y-84415236D01*
X164433172Y-84464811D01*
X164354211Y-84590476D01*
X164294631Y-84760745D01*
X164294630Y-84760750D01*
X164274435Y-84939996D01*
X164274435Y-84940003D01*
X164294630Y-85119249D01*
X164294631Y-85119254D01*
X164354211Y-85289523D01*
X164450183Y-85442262D01*
X164450184Y-85442262D01*
X164577738Y-85569816D01*
X164657924Y-85620200D01*
X164730478Y-85665789D01*
X164771350Y-85680091D01*
X164828127Y-85720813D01*
X164853874Y-85785766D01*
X164854392Y-85798105D01*
X164837923Y-87899063D01*
X164837574Y-87905172D01*
X164818261Y-88085815D01*
X164813284Y-88109733D01*
X164761684Y-88274301D01*
X164752115Y-88296778D01*
X164669257Y-88448028D01*
X164655466Y-88468193D01*
X164544555Y-88600271D01*
X164527078Y-88617341D01*
X164392429Y-88725107D01*
X164371945Y-88738419D01*
X164218781Y-88817695D01*
X164196084Y-88826733D01*
X164030352Y-88874441D01*
X164006325Y-88878854D01*
X163825269Y-88893908D01*
X163819158Y-88894113D01*
X162412812Y-88872013D01*
X161637699Y-88859832D01*
X161570977Y-88839096D01*
X161551966Y-88823528D01*
X161034528Y-88306090D01*
X161022746Y-88292457D01*
X161008275Y-88273019D01*
X161008274Y-88273018D01*
X161008272Y-88273015D01*
X161007401Y-88272284D01*
X160967958Y-88239186D01*
X160963969Y-88235531D01*
X160958103Y-88229665D01*
X160932211Y-88209192D01*
X160872981Y-88159493D01*
X160872980Y-88159492D01*
X160872977Y-88159490D01*
X160866948Y-88155525D01*
X160866976Y-88155480D01*
X160860496Y-88151351D01*
X160860469Y-88151396D01*
X160854323Y-88147605D01*
X160822012Y-88132538D01*
X160784247Y-88114928D01*
X160749547Y-88097501D01*
X160715154Y-88080228D01*
X160708368Y-88077758D01*
X160708385Y-88077709D01*
X160701122Y-88075185D01*
X160701106Y-88075235D01*
X160694254Y-88072964D01*
X160618550Y-88057333D01*
X160618549Y-88057332D01*
X160543305Y-88039500D01*
X160543303Y-88039500D01*
X160543299Y-88039499D01*
X160536130Y-88038661D01*
X160536136Y-88038609D01*
X160528492Y-88037828D01*
X160528488Y-88037881D01*
X160521298Y-88037251D01*
X160446490Y-88039428D01*
X160444026Y-88039500D01*
X155576070Y-88039500D01*
X155558101Y-88038191D01*
X155534119Y-88034678D01*
X155486559Y-88038840D01*
X155481715Y-88039264D01*
X155476312Y-88039500D01*
X155467994Y-88039500D01*
X155441750Y-88042567D01*
X155435189Y-88043334D01*
X155367418Y-88049264D01*
X155362013Y-88049500D01*
X155317609Y-88049500D01*
X155286954Y-88056015D01*
X155142733Y-88086670D01*
X155142728Y-88086672D01*
X154979408Y-88159387D01*
X154834768Y-88264475D01*
X154715140Y-88397336D01*
X154625750Y-88552164D01*
X154625748Y-88552168D01*
X154590214Y-88661530D01*
X154550776Y-88719205D01*
X154486417Y-88746403D01*
X154470335Y-88747196D01*
X153493979Y-88731853D01*
X153283085Y-88728538D01*
X153216364Y-88707803D01*
X153177647Y-88666553D01*
X153108357Y-88546538D01*
X153108355Y-88546535D01*
X152981691Y-88405861D01*
X152828555Y-88294601D01*
X152828550Y-88294598D01*
X152655628Y-88217607D01*
X152655623Y-88217605D01*
X152509822Y-88186615D01*
X152470467Y-88178250D01*
X152281175Y-88178250D01*
X152248718Y-88185148D01*
X152096018Y-88217605D01*
X152096013Y-88217607D01*
X151923091Y-88294598D01*
X151923086Y-88294601D01*
X151769950Y-88405861D01*
X151643288Y-88546533D01*
X151590344Y-88638235D01*
X151539777Y-88686450D01*
X151481009Y-88700219D01*
X146728449Y-88625532D01*
X146722430Y-88625144D01*
X146544474Y-88604953D01*
X146520920Y-88599927D01*
X146358871Y-88548463D01*
X146336733Y-88538978D01*
X146187684Y-88457156D01*
X146167798Y-88443572D01*
X146037383Y-88334487D01*
X146020500Y-88317317D01*
X146018060Y-88314298D01*
X145991230Y-88249785D01*
X145990500Y-88236354D01*
X145990500Y-87753047D01*
X145990613Y-87749302D01*
X145991026Y-87742468D01*
X145994358Y-87687394D01*
X145983175Y-87626370D01*
X145982613Y-87622673D01*
X145975140Y-87561127D01*
X145971548Y-87551656D01*
X145965522Y-87530042D01*
X145963695Y-87520068D01*
X145938234Y-87463496D01*
X145936806Y-87460049D01*
X145914818Y-87402071D01*
X145914818Y-87402070D01*
X145909063Y-87393733D01*
X145898036Y-87374182D01*
X145893879Y-87364946D01*
X145893878Y-87364943D01*
X145876287Y-87342490D01*
X145855630Y-87316122D01*
X145853410Y-87313106D01*
X145818180Y-87262067D01*
X145783491Y-87231336D01*
X145746364Y-87172147D01*
X145741718Y-87138382D01*
X145743481Y-85630000D01*
X145747306Y-82354486D01*
X145747704Y-82347561D01*
X145747719Y-82347428D01*
X145764389Y-82200906D01*
X145770586Y-82173876D01*
X145815996Y-82044475D01*
X145828046Y-82019504D01*
X145901089Y-81903444D01*
X145918398Y-81881768D01*
X146015410Y-81784860D01*
X146037103Y-81767575D01*
X146153248Y-81694654D01*
X146178232Y-81682632D01*
X146307682Y-81637361D01*
X146334714Y-81631194D01*
X146471015Y-81615837D01*
X146498684Y-81615829D01*
X146635410Y-81631150D01*
X146662355Y-81637269D01*
X146792299Y-81682500D01*
X146817219Y-81694434D01*
X146933918Y-81767326D01*
X146955581Y-81784489D01*
X147053233Y-81881420D01*
X147070556Y-81902956D01*
X147144308Y-82019103D01*
X147156431Y-82043943D01*
X147161302Y-82057610D01*
X147202621Y-82173543D01*
X147208941Y-82200449D01*
X147226516Y-82347428D01*
X147226953Y-82354341D01*
X147242796Y-84516841D01*
X147242797Y-84516854D01*
X147250000Y-85500000D01*
X149391875Y-85520640D01*
X159723142Y-85620201D01*
X159723147Y-85620201D01*
X159723147Y-85620200D01*
X159723151Y-85620201D01*
X159723151Y-85620200D01*
X159723157Y-85620200D01*
X160740000Y-85630000D01*
X160718598Y-82623087D01*
X160718854Y-82617017D01*
X160735447Y-82436176D01*
X160740061Y-82412202D01*
X160759261Y-82347561D01*
X160789141Y-82246962D01*
X160798359Y-82224365D01*
X160878875Y-82071929D01*
X160892338Y-82051584D01*
X161001162Y-81917881D01*
X161018354Y-81900566D01*
X161151265Y-81790784D01*
X161171512Y-81777175D01*
X161323368Y-81695559D01*
X161345884Y-81686184D01*
X161510789Y-81635908D01*
X161534716Y-81631125D01*
X161710377Y-81613730D01*
X161716440Y-81613430D01*
X163881257Y-81613239D01*
X163887319Y-81613537D01*
G37*
%TD.AperFunction*%
%TD*%
%TA.AperFunction,Conductor*%
%TO.N,GND*%
G36*
X143982732Y-81615296D02*
G01*
X144157248Y-81632438D01*
X144181047Y-81637161D01*
X144345008Y-81686787D01*
X144367427Y-81696052D01*
X144376971Y-81701142D01*
X144518583Y-81776659D01*
X144538771Y-81790114D01*
X144671343Y-81898620D01*
X144688518Y-81915745D01*
X144693550Y-81921856D01*
X144797410Y-82047977D01*
X144810929Y-82068127D01*
X144891989Y-82219043D01*
X144901324Y-82241441D01*
X144951440Y-82405248D01*
X144956234Y-82429034D01*
X144974412Y-82608567D01*
X144974727Y-82614633D01*
X144974835Y-82651419D01*
X144984948Y-86126462D01*
X144965459Y-86193559D01*
X144912789Y-86239467D01*
X144843659Y-86249612D01*
X144835186Y-86248117D01*
X144794646Y-86239500D01*
X144605354Y-86239500D01*
X144572897Y-86246398D01*
X144420197Y-86278855D01*
X144420192Y-86278857D01*
X144247270Y-86355848D01*
X144247265Y-86355851D01*
X144094129Y-86467111D01*
X143967466Y-86607785D01*
X143872821Y-86771715D01*
X143872818Y-86771722D01*
X143814327Y-86951740D01*
X143814326Y-86951744D01*
X143794540Y-87140000D01*
X143814326Y-87328256D01*
X143814327Y-87328259D01*
X143872818Y-87508277D01*
X143872821Y-87508284D01*
X143967467Y-87672216D01*
X144038556Y-87751168D01*
X144094129Y-87812888D01*
X144247265Y-87924148D01*
X144247270Y-87924151D01*
X144420192Y-88001142D01*
X144420193Y-88001142D01*
X144420197Y-88001144D01*
X144485651Y-88015056D01*
X144491280Y-88016253D01*
X144552762Y-88049445D01*
X144586539Y-88110608D01*
X144589500Y-88137543D01*
X144589500Y-95678480D01*
X144569815Y-95745519D01*
X144553181Y-95766161D01*
X142185662Y-98133681D01*
X142124339Y-98167166D01*
X142097981Y-98170000D01*
X139108195Y-98170000D01*
X139102113Y-98169701D01*
X138922193Y-98151979D01*
X138898350Y-98147236D01*
X138734118Y-98097412D01*
X138711658Y-98088108D01*
X138560300Y-98007197D01*
X138540090Y-97993691D01*
X138407430Y-97884806D01*
X138390242Y-97867616D01*
X138281374Y-97734938D01*
X138267870Y-97714724D01*
X138186981Y-97563357D01*
X138177680Y-97540895D01*
X138127879Y-97376653D01*
X138123140Y-97352811D01*
X138105940Y-97177948D01*
X138105644Y-97171912D01*
X138107426Y-84547119D01*
X138109055Y-84541575D01*
X138107499Y-84498348D01*
X138107473Y-84494813D01*
X138109782Y-84386573D01*
X138114229Y-84214874D01*
X138114562Y-84208998D01*
X138117622Y-84155128D01*
X138117951Y-84151382D01*
X138118752Y-84144655D01*
X138135530Y-84022155D01*
X138157751Y-83874490D01*
X138166088Y-83828738D01*
X138167022Y-83824477D01*
X138201602Y-83689554D01*
X138242911Y-83542002D01*
X138252157Y-83512516D01*
X138253406Y-83508926D01*
X138305893Y-83371848D01*
X138348284Y-83270620D01*
X138368411Y-83222561D01*
X138370117Y-83218812D01*
X138374260Y-83209719D01*
X138375650Y-83206869D01*
X138446817Y-83070324D01*
X138530221Y-82924722D01*
X138532655Y-82920821D01*
X138621483Y-82789645D01*
X138623183Y-82787262D01*
X138722765Y-82654570D01*
X138725263Y-82651462D01*
X138828814Y-82530993D01*
X138831123Y-82528457D01*
X138946121Y-82409247D01*
X138948593Y-82406827D01*
X139065269Y-82299001D01*
X139068305Y-82296377D01*
X139197298Y-82192114D01*
X139199583Y-82190358D01*
X139327552Y-82096816D01*
X139331307Y-82094281D01*
X139473827Y-82005687D01*
X139607720Y-81929658D01*
X139610556Y-81928146D01*
X139623144Y-81921856D01*
X139770074Y-81854015D01*
X139905219Y-81796614D01*
X139908747Y-81795242D01*
X139937873Y-81784945D01*
X140083801Y-81738369D01*
X140217431Y-81698947D01*
X140221629Y-81697868D01*
X140267082Y-81687884D01*
X140413885Y-81660359D01*
X140535408Y-81639238D01*
X140542344Y-81638159D01*
X140546085Y-81637694D01*
X140597320Y-81632934D01*
X140605751Y-81632152D01*
X140642184Y-81629900D01*
X140784568Y-81621100D01*
X140884330Y-81615376D01*
X140887868Y-81615275D01*
X140938751Y-81615275D01*
X140938787Y-81615269D01*
X143976686Y-81615000D01*
X143982732Y-81615296D01*
G37*
%TD.AperFunction*%
%TD*%
%TA.AperFunction,Conductor*%
%TO.N,GND*%
G36*
X151493724Y-89369124D02*
G01*
X151539578Y-89421842D01*
X151544809Y-89435242D01*
X151548637Y-89447022D01*
X151548642Y-89447034D01*
X151643287Y-89610965D01*
X151675649Y-89646906D01*
X151705879Y-89709898D01*
X151707500Y-89729879D01*
X151707500Y-92714316D01*
X151700542Y-92755270D01*
X151677632Y-92820742D01*
X151677630Y-92820750D01*
X151657435Y-92999996D01*
X151657435Y-93000003D01*
X151677630Y-93179249D01*
X151677631Y-93179254D01*
X151737211Y-93349523D01*
X151833184Y-93502262D01*
X151910839Y-93579917D01*
X151944324Y-93641240D01*
X151939340Y-93710932D01*
X151910839Y-93755279D01*
X149352608Y-96313510D01*
X149346507Y-96318861D01*
X149319550Y-96339548D01*
X149295549Y-96370824D01*
X149295533Y-96370845D01*
X149252009Y-96427568D01*
X149227300Y-96459768D01*
X149169313Y-96599763D01*
X149169313Y-96599764D01*
X149153957Y-96716406D01*
X149153955Y-96716419D01*
X149149535Y-96750000D01*
X149153680Y-96781489D01*
X149153969Y-96783678D01*
X149154500Y-96791780D01*
X149154500Y-102500257D01*
X149134815Y-102567296D01*
X149118180Y-102587939D01*
X149071308Y-102634810D01*
X149009985Y-102668294D01*
X148997512Y-102670348D01*
X148870750Y-102684630D01*
X148700478Y-102744210D01*
X148547737Y-102840184D01*
X148420184Y-102967737D01*
X148324211Y-103120476D01*
X148264631Y-103290745D01*
X148264630Y-103290750D01*
X148244435Y-103469996D01*
X148244435Y-103470004D01*
X148250250Y-103521617D01*
X148238195Y-103590439D01*
X148190846Y-103641818D01*
X148127030Y-103659500D01*
X146483730Y-103659500D01*
X146416691Y-103639815D01*
X146370936Y-103587011D01*
X146360992Y-103517853D01*
X146390017Y-103454297D01*
X146396049Y-103447819D01*
X146396048Y-103447818D01*
X146465212Y-103378656D01*
X146557314Y-103229334D01*
X146612499Y-103062797D01*
X146623000Y-102960009D01*
X146622999Y-101659992D01*
X146612499Y-101557203D01*
X146557314Y-101390666D01*
X146465212Y-101241344D01*
X146341156Y-101117288D01*
X146191834Y-101025186D01*
X146025297Y-100970001D01*
X146025293Y-100970000D01*
X146025287Y-100969999D01*
X146018857Y-100969342D01*
X145954166Y-100942944D01*
X145914017Y-100885761D01*
X145907465Y-100846497D01*
X145906147Y-100527439D01*
X145889191Y-96424205D01*
X145908597Y-96357090D01*
X145911113Y-96353296D01*
X145914818Y-96347930D01*
X145936810Y-96289939D01*
X145938232Y-96286503D01*
X145963695Y-96229931D01*
X145965522Y-96219959D01*
X145971546Y-96198347D01*
X145975140Y-96188872D01*
X145982613Y-96127324D01*
X145983177Y-96123619D01*
X145990874Y-96081616D01*
X145994358Y-96062606D01*
X145990613Y-96000696D01*
X145990500Y-95996951D01*
X145990500Y-89912220D01*
X146004942Y-89854143D01*
X146025116Y-89816085D01*
X146038566Y-89795812D01*
X146147178Y-89662616D01*
X146164336Y-89645356D01*
X146296871Y-89535950D01*
X146317068Y-89522374D01*
X146468428Y-89440967D01*
X146490884Y-89431601D01*
X146655238Y-89381332D01*
X146679096Y-89376533D01*
X146859224Y-89358425D01*
X146865301Y-89358115D01*
X151426649Y-89349565D01*
X151493724Y-89369124D01*
G37*
%TD.AperFunction*%
%TA.AperFunction,Conductor*%
G36*
X155785804Y-96595458D02*
G01*
X155827562Y-96621444D01*
X155842178Y-96635233D01*
X155872018Y-96663387D01*
X159374267Y-100165634D01*
X159386048Y-100179266D01*
X159400390Y-100198530D01*
X159440420Y-100232119D01*
X159444392Y-100235759D01*
X159450223Y-100241590D01*
X159450222Y-100241590D01*
X159475944Y-100261926D01*
X159475944Y-100261927D01*
X159534786Y-100311302D01*
X159534794Y-100311306D01*
X159540824Y-100315273D01*
X159540790Y-100315323D01*
X159547137Y-100319366D01*
X159547169Y-100319316D01*
X159553318Y-100323108D01*
X159553320Y-100323109D01*
X159553323Y-100323111D01*
X159622930Y-100355569D01*
X159691567Y-100390040D01*
X159691576Y-100390042D01*
X159698355Y-100392510D01*
X159698334Y-100392567D01*
X159705451Y-100395040D01*
X159705470Y-100394984D01*
X159712330Y-100397257D01*
X159780136Y-100411257D01*
X159787532Y-100412784D01*
X159862279Y-100430500D01*
X159862288Y-100430500D01*
X159869452Y-100431338D01*
X159869445Y-100431397D01*
X159876946Y-100432163D01*
X159876952Y-100432104D01*
X159884140Y-100432733D01*
X159884143Y-100432732D01*
X159884144Y-100432733D01*
X159960898Y-100430500D01*
X160804930Y-100430500D01*
X160871969Y-100450185D01*
X160917724Y-100502989D01*
X160927668Y-100572147D01*
X160921972Y-100595455D01*
X160874631Y-100730745D01*
X160874630Y-100730750D01*
X160854435Y-100909996D01*
X160854435Y-100910003D01*
X160874630Y-101089249D01*
X160874631Y-101089254D01*
X160934211Y-101259523D01*
X161030183Y-101412262D01*
X161030184Y-101412262D01*
X161157738Y-101539816D01*
X161310478Y-101635789D01*
X161478530Y-101694593D01*
X161535305Y-101735314D01*
X161550692Y-101763494D01*
X161551193Y-101763254D01*
X161554212Y-101769524D01*
X161601340Y-101844528D01*
X161620340Y-101911765D01*
X161599972Y-101978600D01*
X161546704Y-102023814D01*
X161496346Y-102034500D01*
X153514664Y-102034500D01*
X153447625Y-102014815D01*
X153426983Y-101998181D01*
X152801819Y-101373017D01*
X152768334Y-101311694D01*
X152765500Y-101285336D01*
X152765500Y-99564611D01*
X152785185Y-99497572D01*
X152801814Y-99476935D01*
X155654791Y-96623957D01*
X155716112Y-96590474D01*
X155785804Y-96595458D01*
G37*
%TD.AperFunction*%
%TA.AperFunction,Conductor*%
G36*
X160157739Y-89570185D02*
G01*
X160178381Y-89586819D01*
X160884709Y-90293147D01*
X160914959Y-90342510D01*
X160975318Y-90528277D01*
X160975321Y-90528284D01*
X161069967Y-90692216D01*
X161144530Y-90775026D01*
X161196629Y-90832888D01*
X161349765Y-90944148D01*
X161349770Y-90944151D01*
X161522692Y-91021142D01*
X161522697Y-91021144D01*
X161707854Y-91060500D01*
X161707855Y-91060500D01*
X161897144Y-91060500D01*
X161897146Y-91060500D01*
X162082303Y-91021144D01*
X162255230Y-90944151D01*
X162392826Y-90844181D01*
X162458632Y-90820702D01*
X162465711Y-90820500D01*
X165045050Y-90820500D01*
X165112089Y-90840185D01*
X165132731Y-90856819D01*
X165636852Y-91360940D01*
X165670337Y-91422263D01*
X165672491Y-91435654D01*
X165684326Y-91548256D01*
X165684327Y-91548259D01*
X165742818Y-91728277D01*
X165742821Y-91728284D01*
X165837467Y-91892216D01*
X165922028Y-91986130D01*
X165964129Y-92032888D01*
X166117265Y-92144148D01*
X166117270Y-92144151D01*
X166290192Y-92221142D01*
X166290197Y-92221144D01*
X166475354Y-92260500D01*
X166475355Y-92260500D01*
X166664644Y-92260500D01*
X166664646Y-92260500D01*
X166849803Y-92221144D01*
X167022730Y-92144151D01*
X167030527Y-92138485D01*
X167096332Y-92115004D01*
X167164387Y-92130826D01*
X167213083Y-92180930D01*
X167227411Y-92237636D01*
X167230952Y-92614453D01*
X167236872Y-93244631D01*
X167238608Y-93429335D01*
X167219554Y-93496556D01*
X167167182Y-93542805D01*
X167114613Y-93554500D01*
X167037940Y-93554500D01*
X166970901Y-93534815D01*
X166950259Y-93518181D01*
X166832262Y-93400184D01*
X166679523Y-93304211D01*
X166509254Y-93244631D01*
X166509249Y-93244630D01*
X166330004Y-93224435D01*
X166329996Y-93224435D01*
X166150750Y-93244630D01*
X166150745Y-93244631D01*
X165980476Y-93304211D01*
X165827737Y-93400184D01*
X165700184Y-93527737D01*
X165604211Y-93680476D01*
X165544631Y-93850745D01*
X165544630Y-93850750D01*
X165524435Y-94029996D01*
X165524435Y-94030003D01*
X165544630Y-94209249D01*
X165544631Y-94209254D01*
X165604211Y-94379523D01*
X165700184Y-94532262D01*
X165827740Y-94659818D01*
X165878612Y-94691782D01*
X165924904Y-94744116D01*
X165935553Y-94813169D01*
X165929683Y-94837729D01*
X165914631Y-94880745D01*
X165914631Y-94880746D01*
X165894435Y-95059996D01*
X165894435Y-95060003D01*
X165914630Y-95239249D01*
X165914631Y-95239254D01*
X165974211Y-95409523D01*
X166044500Y-95521386D01*
X166070184Y-95562262D01*
X166168183Y-95660261D01*
X166201666Y-95721580D01*
X166204500Y-95747939D01*
X166204500Y-97842059D01*
X166184815Y-97909098D01*
X166174316Y-97922128D01*
X166174525Y-97922295D01*
X166170184Y-97927737D01*
X166074211Y-98080476D01*
X166014631Y-98250745D01*
X166014630Y-98250750D01*
X165994435Y-98429996D01*
X165994435Y-98430003D01*
X166014630Y-98609249D01*
X166014631Y-98609254D01*
X166074211Y-98779523D01*
X166161437Y-98918342D01*
X166180437Y-98985579D01*
X166160069Y-99052414D01*
X166144124Y-99071995D01*
X164717181Y-100498938D01*
X164655858Y-100532423D01*
X164586166Y-100527439D01*
X164530233Y-100485567D01*
X164505816Y-100420103D01*
X164505500Y-100411257D01*
X164505500Y-98051780D01*
X164506031Y-98043678D01*
X164510465Y-98009999D01*
X164509797Y-98004929D01*
X164505766Y-97974313D01*
X164505765Y-97974294D01*
X164504655Y-97965863D01*
X164490687Y-97859764D01*
X164470272Y-97810478D01*
X164432699Y-97719767D01*
X164432698Y-97719766D01*
X164432698Y-97719765D01*
X164361141Y-97626512D01*
X164340449Y-97599547D01*
X164328342Y-97590257D01*
X164313490Y-97578861D01*
X164307400Y-97573520D01*
X163330393Y-96596512D01*
X163301032Y-96549785D01*
X163277315Y-96482004D01*
X163277315Y-96482003D01*
X163196413Y-96353249D01*
X163181342Y-96329264D01*
X163163344Y-96311266D01*
X163129860Y-96249944D01*
X163127026Y-96223586D01*
X163127026Y-95928332D01*
X163127557Y-95920230D01*
X163131991Y-95886551D01*
X163131264Y-95881029D01*
X163127292Y-95850865D01*
X163127291Y-95850846D01*
X163127026Y-95848832D01*
X163112213Y-95736316D01*
X163080708Y-95660257D01*
X163054225Y-95596320D01*
X163033593Y-95569432D01*
X162984186Y-95505043D01*
X162984182Y-95505038D01*
X162961975Y-95476099D01*
X162949868Y-95466809D01*
X162935016Y-95455413D01*
X162928926Y-95450072D01*
X160501284Y-93022430D01*
X160495932Y-93016328D01*
X160483403Y-93000000D01*
X160475247Y-92989371D01*
X160475245Y-92989369D01*
X160475244Y-92989368D01*
X160446759Y-92967511D01*
X160446748Y-92967502D01*
X160355030Y-92897124D01*
X160308688Y-92877929D01*
X160215032Y-92839135D01*
X160161702Y-92832113D01*
X160098894Y-92823845D01*
X160098879Y-92823843D01*
X160071992Y-92820304D01*
X160064796Y-92819357D01*
X160064795Y-92819357D01*
X160064794Y-92819357D01*
X160045761Y-92821862D01*
X160031113Y-92823791D01*
X160023015Y-92824322D01*
X157883059Y-92824322D01*
X157816020Y-92804637D01*
X157795378Y-92788003D01*
X157777381Y-92770006D01*
X157624642Y-92674033D01*
X157454373Y-92614453D01*
X157454368Y-92614452D01*
X157275123Y-92594257D01*
X157269500Y-92594257D01*
X157202461Y-92574572D01*
X157156706Y-92521768D01*
X157145500Y-92470257D01*
X157145500Y-89674500D01*
X157165185Y-89607461D01*
X157217989Y-89561706D01*
X157269500Y-89550500D01*
X160090700Y-89550500D01*
X160157739Y-89570185D01*
G37*
%TD.AperFunction*%
%TA.AperFunction,Conductor*%
G36*
X157350703Y-94616227D02*
G01*
X157357180Y-94622258D01*
X157414738Y-94679816D01*
X157567478Y-94775789D01*
X157674304Y-94813169D01*
X157737745Y-94835368D01*
X157737750Y-94835369D01*
X157916996Y-94855565D01*
X157917000Y-94855565D01*
X157917004Y-94855565D01*
X158096249Y-94835369D01*
X158096252Y-94835368D01*
X158096255Y-94835368D01*
X158266522Y-94775789D01*
X158419262Y-94679816D01*
X158437259Y-94661818D01*
X158498582Y-94628334D01*
X158524940Y-94625500D01*
X159930258Y-94625500D01*
X159997297Y-94645185D01*
X160017939Y-94661819D01*
X160368181Y-95012061D01*
X160401666Y-95073384D01*
X160404500Y-95099742D01*
X160404500Y-96303219D01*
X160403969Y-96311316D01*
X160402976Y-96318861D01*
X160399535Y-96344998D01*
X160404021Y-96379083D01*
X160404023Y-96379098D01*
X160419313Y-96495235D01*
X160419314Y-96495239D01*
X160467137Y-96610696D01*
X160477302Y-96635233D01*
X160547680Y-96726953D01*
X160547689Y-96726963D01*
X160569546Y-96755448D01*
X160569547Y-96755449D01*
X160569549Y-96755451D01*
X160593053Y-96773486D01*
X160596506Y-96776136D01*
X160602609Y-96781489D01*
X161570989Y-97749869D01*
X161604474Y-97811192D01*
X161599490Y-97880884D01*
X161557618Y-97936817D01*
X161497192Y-97960770D01*
X161451982Y-97965863D01*
X161451978Y-97965864D01*
X161281709Y-98025444D01*
X161128970Y-98121417D01*
X161001417Y-98248970D01*
X160905444Y-98401709D01*
X160845864Y-98571978D01*
X160845863Y-98571983D01*
X160825668Y-98751229D01*
X160825668Y-98751235D01*
X160830218Y-98791616D01*
X160818164Y-98860438D01*
X160770815Y-98911817D01*
X160706998Y-98929500D01*
X160312230Y-98929500D01*
X160245191Y-98909815D01*
X160224549Y-98893181D01*
X157181819Y-95850451D01*
X157148334Y-95789128D01*
X157145500Y-95762770D01*
X157145500Y-94709940D01*
X157165185Y-94642901D01*
X157217989Y-94597146D01*
X157287147Y-94587202D01*
X157350703Y-94616227D01*
G37*
%TD.AperFunction*%
%TD*%
M02*
