%TF.GenerationSoftware,KiCad,Pcbnew,7.0.7*%
%TF.CreationDate,2023-09-20T12:31:10+02:00*%
%TF.ProjectId,Window_EMP_monitor_59_4x23_5x1.6mm,57696e64-6f77-45f4-954d-505f6d6f6e69,rev?*%
%TF.SameCoordinates,Original*%
%TF.FileFunction,Profile,NP*%
%FSLAX46Y46*%
G04 Gerber Fmt 4.6, Leading zero omitted, Abs format (unit mm)*
G04 Created by KiCad (PCBNEW 7.0.7) date 2023-09-20 12:31:10*
%MOMM*%
%LPD*%
G01*
G04 APERTURE LIST*
%TA.AperFunction,Profile*%
%ADD10C,0.100000*%
%TD*%
G04 APERTURE END LIST*
D10*
X177378968Y-84506670D02*
G75*
G03*
X176968969Y-84937137I-268J-410230D01*
G01*
X140886934Y-81614775D02*
X194820000Y-81610000D01*
X140986212Y-105123151D02*
X194929726Y-105109999D01*
X182044315Y-84909970D02*
X182044758Y-85709968D01*
X138104455Y-102343152D02*
G75*
G03*
X140986212Y-105123150I2781845J52D01*
G01*
X176968969Y-84937137D02*
X176951285Y-90706145D01*
X177763958Y-89886545D02*
X177770001Y-85730487D01*
X182034113Y-90666787D02*
X182038716Y-89876544D01*
X176951370Y-90706145D02*
G75*
G03*
X177381772Y-91116144I410430J-55D01*
G01*
X181054446Y-90307031D02*
X178194445Y-90296544D01*
X182044325Y-84909970D02*
G75*
G03*
X181613828Y-84499971I-410325J170D01*
G01*
X181613828Y-84500489D02*
X177378968Y-84506650D01*
X181040000Y-85300487D02*
X178180000Y-85300000D01*
X181470488Y-85709968D02*
G75*
G03*
X182044758Y-85709968I287135J3D01*
G01*
X138104415Y-102343152D02*
X138106935Y-84496572D01*
X177763962Y-89886545D02*
G75*
G03*
X178194445Y-90296543I410338J-155D01*
G01*
X181624114Y-91097286D02*
G75*
G03*
X182034113Y-90666787I-314J410786D01*
G01*
X197701794Y-84389999D02*
G75*
G03*
X194820000Y-81610000I-2781894J-101D01*
G01*
X182038717Y-89876544D02*
G75*
G03*
X181464445Y-89876544I-287136J16D01*
G01*
X197709725Y-102228202D02*
X197701797Y-84389999D01*
X194929726Y-105110022D02*
G75*
G03*
X197709724Y-102228202I-26J2781822D01*
G01*
X181470518Y-85709968D02*
G75*
G03*
X181040000Y-85299969I-410518J-32D01*
G01*
X181054446Y-90307035D02*
G75*
G03*
X181464445Y-89876544I54J410435D01*
G01*
X140886934Y-81614728D02*
G75*
G03*
X138106936Y-84496572I-234J-2781572D01*
G01*
X177381772Y-91116144D02*
X181624114Y-91097274D01*
X178180000Y-85300010D02*
G75*
G03*
X177770002Y-85730487I-100J-410390D01*
G01*
M02*
