%TF.GenerationSoftware,KiCad,Pcbnew,7.0.7*%
%TF.CreationDate,2023-09-20T12:31:01+02:00*%
%TF.ProjectId,Window_EMP_monitor_59_4x23_5x1.6mm,57696e64-6f77-45f4-954d-505f6d6f6e69,rev?*%
%TF.SameCoordinates,Original*%
%TF.FileFunction,Drillmap*%
%TF.FilePolarity,Positive*%
%FSLAX45Y45*%
G04 Gerber Fmt 4.5, Leading zero omitted, Abs format (unit mm)*
G04 Created by KiCad (PCBNEW 7.0.7) date 2023-09-20 12:31:01*
%MOMM*%
%LPD*%
G01*
G04 APERTURE LIST*
%ADD10C,0.100000*%
%ADD11C,0.200000*%
%ADD12C,0.070000*%
G04 APERTURE END LIST*
D10*
X17737897Y-8450667D02*
G75*
G03*
X17696897Y-8493714I-27J-41023D01*
G01*
X14088693Y-8161477D02*
X19482000Y-8161000D01*
X14098621Y-10512315D02*
X19492973Y-10511000D01*
X18204432Y-8490997D02*
X18204476Y-8570997D01*
X13810445Y-10234315D02*
G75*
G03*
X14098621Y-10512315I278185J5D01*
G01*
X17696897Y-8493714D02*
X17695129Y-9070615D01*
X17776396Y-8988655D02*
X17777000Y-8573049D01*
X18203411Y-9066679D02*
X18203872Y-8987654D01*
X17695137Y-9070615D02*
G75*
G03*
X17738177Y-9111614I41043J-6D01*
G01*
X18105445Y-9030703D02*
X17819445Y-9029654D01*
X18204433Y-8490997D02*
G75*
G03*
X18161383Y-8449997I-41033J17D01*
G01*
X18161383Y-8450049D02*
X17737897Y-8450665D01*
X18104000Y-8530049D02*
X17818000Y-8530000D01*
X18147049Y-8570997D02*
G75*
G03*
X18204476Y-8570997I28714J0D01*
G01*
X13810441Y-10234315D02*
X13810693Y-8449657D01*
X17776396Y-8988655D02*
G75*
G03*
X17819445Y-9029654I41034J-16D01*
G01*
X18162411Y-9109729D02*
G75*
G03*
X18203411Y-9066679I-31J41079D01*
G01*
X19770179Y-8439000D02*
G75*
G03*
X19482000Y-8161000I-278189J-10D01*
G01*
X18203872Y-8987654D02*
G75*
G03*
X18146445Y-8987654I-28714J2D01*
G01*
X19770973Y-10222820D02*
X19770180Y-8439000D01*
X19492973Y-10511002D02*
G75*
G03*
X19770972Y-10222820I-3J278182D01*
G01*
X18147052Y-8570997D02*
G75*
G03*
X18104000Y-8529997I-41052J-3D01*
G01*
X18105445Y-9030704D02*
G75*
G03*
X18146445Y-8987654I5J41044D01*
G01*
X14088693Y-8161473D02*
G75*
G03*
X13810694Y-8449657I-23J-278157D01*
G01*
X17738177Y-9111614D02*
X18162411Y-9109727D01*
X17818000Y-8530001D02*
G75*
G03*
X17777000Y-8573049I-10J-41039D01*
G01*
D11*
D12*
X16848000Y-10128000D02*
X16918000Y-10198000D01*
X16918000Y-10128000D02*
X16848000Y-10198000D01*
X16975000Y-10128000D02*
X17045000Y-10198000D01*
X17045000Y-10128000D02*
X16975000Y-10198000D01*
X17102000Y-10128000D02*
X17172000Y-10198000D01*
X17172000Y-10128000D02*
X17102000Y-10198000D01*
X17229000Y-10128000D02*
X17299000Y-10198000D01*
X17299000Y-10128000D02*
X17229000Y-10198000D01*
X17356000Y-10128000D02*
X17426000Y-10198000D01*
X17426000Y-10128000D02*
X17356000Y-10198000D01*
D11*
X14066218Y-10828978D02*
X14066218Y-10628978D01*
X14066218Y-10628978D02*
X14113837Y-10628978D01*
X14113837Y-10628978D02*
X14142409Y-10638502D01*
X14142409Y-10638502D02*
X14161456Y-10657550D01*
X14161456Y-10657550D02*
X14170980Y-10676597D01*
X14170980Y-10676597D02*
X14180504Y-10714693D01*
X14180504Y-10714693D02*
X14180504Y-10743264D01*
X14180504Y-10743264D02*
X14170980Y-10781359D01*
X14170980Y-10781359D02*
X14161456Y-10800407D01*
X14161456Y-10800407D02*
X14142409Y-10819455D01*
X14142409Y-10819455D02*
X14113837Y-10828978D01*
X14113837Y-10828978D02*
X14066218Y-10828978D01*
X14266218Y-10828978D02*
X14266218Y-10695645D01*
X14266218Y-10733740D02*
X14275742Y-10714693D01*
X14275742Y-10714693D02*
X14285266Y-10705169D01*
X14285266Y-10705169D02*
X14304313Y-10695645D01*
X14304313Y-10695645D02*
X14323361Y-10695645D01*
X14390028Y-10828978D02*
X14390028Y-10695645D01*
X14390028Y-10628978D02*
X14380504Y-10638502D01*
X14380504Y-10638502D02*
X14390028Y-10648026D01*
X14390028Y-10648026D02*
X14399552Y-10638502D01*
X14399552Y-10638502D02*
X14390028Y-10628978D01*
X14390028Y-10628978D02*
X14390028Y-10648026D01*
X14513837Y-10828978D02*
X14494790Y-10819455D01*
X14494790Y-10819455D02*
X14485266Y-10800407D01*
X14485266Y-10800407D02*
X14485266Y-10628978D01*
X14618599Y-10828978D02*
X14599552Y-10819455D01*
X14599552Y-10819455D02*
X14590028Y-10800407D01*
X14590028Y-10800407D02*
X14590028Y-10628978D01*
X14847171Y-10828978D02*
X14847171Y-10628978D01*
X14847171Y-10628978D02*
X14913837Y-10771836D01*
X14913837Y-10771836D02*
X14980504Y-10628978D01*
X14980504Y-10628978D02*
X14980504Y-10828978D01*
X15161456Y-10828978D02*
X15161456Y-10724217D01*
X15161456Y-10724217D02*
X15151933Y-10705169D01*
X15151933Y-10705169D02*
X15132885Y-10695645D01*
X15132885Y-10695645D02*
X15094790Y-10695645D01*
X15094790Y-10695645D02*
X15075742Y-10705169D01*
X15161456Y-10819455D02*
X15142409Y-10828978D01*
X15142409Y-10828978D02*
X15094790Y-10828978D01*
X15094790Y-10828978D02*
X15075742Y-10819455D01*
X15075742Y-10819455D02*
X15066218Y-10800407D01*
X15066218Y-10800407D02*
X15066218Y-10781359D01*
X15066218Y-10781359D02*
X15075742Y-10762312D01*
X15075742Y-10762312D02*
X15094790Y-10752788D01*
X15094790Y-10752788D02*
X15142409Y-10752788D01*
X15142409Y-10752788D02*
X15161456Y-10743264D01*
X15256694Y-10695645D02*
X15256694Y-10895645D01*
X15256694Y-10705169D02*
X15275742Y-10695645D01*
X15275742Y-10695645D02*
X15313837Y-10695645D01*
X15313837Y-10695645D02*
X15332885Y-10705169D01*
X15332885Y-10705169D02*
X15342409Y-10714693D01*
X15342409Y-10714693D02*
X15351933Y-10733740D01*
X15351933Y-10733740D02*
X15351933Y-10790883D01*
X15351933Y-10790883D02*
X15342409Y-10809931D01*
X15342409Y-10809931D02*
X15332885Y-10819455D01*
X15332885Y-10819455D02*
X15313837Y-10828978D01*
X15313837Y-10828978D02*
X15275742Y-10828978D01*
X15275742Y-10828978D02*
X15256694Y-10819455D01*
X15437647Y-10809931D02*
X15447171Y-10819455D01*
X15447171Y-10819455D02*
X15437647Y-10828978D01*
X15437647Y-10828978D02*
X15428123Y-10819455D01*
X15428123Y-10819455D02*
X15437647Y-10809931D01*
X15437647Y-10809931D02*
X15437647Y-10828978D01*
X15437647Y-10705169D02*
X15447171Y-10714693D01*
X15447171Y-10714693D02*
X15437647Y-10724217D01*
X15437647Y-10724217D02*
X15428123Y-10714693D01*
X15428123Y-10714693D02*
X15437647Y-10705169D01*
X15437647Y-10705169D02*
X15437647Y-10724217D01*
D12*
X13735441Y-11122495D02*
X13805441Y-11192495D01*
X13805441Y-11122495D02*
X13735441Y-11192495D01*
D11*
X14104313Y-11048978D02*
X14123361Y-11048978D01*
X14123361Y-11048978D02*
X14142409Y-11058502D01*
X14142409Y-11058502D02*
X14151933Y-11068026D01*
X14151933Y-11068026D02*
X14161456Y-11087074D01*
X14161456Y-11087074D02*
X14170980Y-11125169D01*
X14170980Y-11125169D02*
X14170980Y-11172788D01*
X14170980Y-11172788D02*
X14161456Y-11210883D01*
X14161456Y-11210883D02*
X14151933Y-11229931D01*
X14151933Y-11229931D02*
X14142409Y-11239455D01*
X14142409Y-11239455D02*
X14123361Y-11248978D01*
X14123361Y-11248978D02*
X14104313Y-11248978D01*
X14104313Y-11248978D02*
X14085266Y-11239455D01*
X14085266Y-11239455D02*
X14075742Y-11229931D01*
X14075742Y-11229931D02*
X14066218Y-11210883D01*
X14066218Y-11210883D02*
X14056694Y-11172788D01*
X14056694Y-11172788D02*
X14056694Y-11125169D01*
X14056694Y-11125169D02*
X14066218Y-11087074D01*
X14066218Y-11087074D02*
X14075742Y-11068026D01*
X14075742Y-11068026D02*
X14085266Y-11058502D01*
X14085266Y-11058502D02*
X14104313Y-11048978D01*
X14256694Y-11229931D02*
X14266218Y-11239455D01*
X14266218Y-11239455D02*
X14256694Y-11248978D01*
X14256694Y-11248978D02*
X14247171Y-11239455D01*
X14247171Y-11239455D02*
X14256694Y-11229931D01*
X14256694Y-11229931D02*
X14256694Y-11248978D01*
X14332885Y-11048978D02*
X14466218Y-11048978D01*
X14466218Y-11048978D02*
X14380504Y-11248978D01*
X14580504Y-11048978D02*
X14599552Y-11048978D01*
X14599552Y-11048978D02*
X14618599Y-11058502D01*
X14618599Y-11058502D02*
X14628123Y-11068026D01*
X14628123Y-11068026D02*
X14637647Y-11087074D01*
X14637647Y-11087074D02*
X14647171Y-11125169D01*
X14647171Y-11125169D02*
X14647171Y-11172788D01*
X14647171Y-11172788D02*
X14637647Y-11210883D01*
X14637647Y-11210883D02*
X14628123Y-11229931D01*
X14628123Y-11229931D02*
X14618599Y-11239455D01*
X14618599Y-11239455D02*
X14599552Y-11248978D01*
X14599552Y-11248978D02*
X14580504Y-11248978D01*
X14580504Y-11248978D02*
X14561456Y-11239455D01*
X14561456Y-11239455D02*
X14551933Y-11229931D01*
X14551933Y-11229931D02*
X14542409Y-11210883D01*
X14542409Y-11210883D02*
X14532885Y-11172788D01*
X14532885Y-11172788D02*
X14532885Y-11125169D01*
X14532885Y-11125169D02*
X14542409Y-11087074D01*
X14542409Y-11087074D02*
X14551933Y-11068026D01*
X14551933Y-11068026D02*
X14561456Y-11058502D01*
X14561456Y-11058502D02*
X14580504Y-11048978D01*
X14770980Y-11048978D02*
X14790028Y-11048978D01*
X14790028Y-11048978D02*
X14809075Y-11058502D01*
X14809075Y-11058502D02*
X14818599Y-11068026D01*
X14818599Y-11068026D02*
X14828123Y-11087074D01*
X14828123Y-11087074D02*
X14837647Y-11125169D01*
X14837647Y-11125169D02*
X14837647Y-11172788D01*
X14837647Y-11172788D02*
X14828123Y-11210883D01*
X14828123Y-11210883D02*
X14818599Y-11229931D01*
X14818599Y-11229931D02*
X14809075Y-11239455D01*
X14809075Y-11239455D02*
X14790028Y-11248978D01*
X14790028Y-11248978D02*
X14770980Y-11248978D01*
X14770980Y-11248978D02*
X14751933Y-11239455D01*
X14751933Y-11239455D02*
X14742409Y-11229931D01*
X14742409Y-11229931D02*
X14732885Y-11210883D01*
X14732885Y-11210883D02*
X14723361Y-11172788D01*
X14723361Y-11172788D02*
X14723361Y-11125169D01*
X14723361Y-11125169D02*
X14732885Y-11087074D01*
X14732885Y-11087074D02*
X14742409Y-11068026D01*
X14742409Y-11068026D02*
X14751933Y-11058502D01*
X14751933Y-11058502D02*
X14770980Y-11048978D01*
X14923361Y-11248978D02*
X14923361Y-11115645D01*
X14923361Y-11134693D02*
X14932885Y-11125169D01*
X14932885Y-11125169D02*
X14951933Y-11115645D01*
X14951933Y-11115645D02*
X14980504Y-11115645D01*
X14980504Y-11115645D02*
X14999552Y-11125169D01*
X14999552Y-11125169D02*
X15009075Y-11144217D01*
X15009075Y-11144217D02*
X15009075Y-11248978D01*
X15009075Y-11144217D02*
X15018599Y-11125169D01*
X15018599Y-11125169D02*
X15037647Y-11115645D01*
X15037647Y-11115645D02*
X15066218Y-11115645D01*
X15066218Y-11115645D02*
X15085266Y-11125169D01*
X15085266Y-11125169D02*
X15094790Y-11144217D01*
X15094790Y-11144217D02*
X15094790Y-11248978D01*
X15190028Y-11248978D02*
X15190028Y-11115645D01*
X15190028Y-11134693D02*
X15199552Y-11125169D01*
X15199552Y-11125169D02*
X15218599Y-11115645D01*
X15218599Y-11115645D02*
X15247171Y-11115645D01*
X15247171Y-11115645D02*
X15266218Y-11125169D01*
X15266218Y-11125169D02*
X15275742Y-11144217D01*
X15275742Y-11144217D02*
X15275742Y-11248978D01*
X15275742Y-11144217D02*
X15285266Y-11125169D01*
X15285266Y-11125169D02*
X15304314Y-11115645D01*
X15304314Y-11115645D02*
X15332885Y-11115645D01*
X15332885Y-11115645D02*
X15351933Y-11125169D01*
X15351933Y-11125169D02*
X15361456Y-11144217D01*
X15361456Y-11144217D02*
X15361456Y-11248978D01*
X15751933Y-11039455D02*
X15580504Y-11296597D01*
X16009076Y-11048978D02*
X16028123Y-11048978D01*
X16028123Y-11048978D02*
X16047171Y-11058502D01*
X16047171Y-11058502D02*
X16056695Y-11068026D01*
X16056695Y-11068026D02*
X16066218Y-11087074D01*
X16066218Y-11087074D02*
X16075742Y-11125169D01*
X16075742Y-11125169D02*
X16075742Y-11172788D01*
X16075742Y-11172788D02*
X16066218Y-11210883D01*
X16066218Y-11210883D02*
X16056695Y-11229931D01*
X16056695Y-11229931D02*
X16047171Y-11239455D01*
X16047171Y-11239455D02*
X16028123Y-11248978D01*
X16028123Y-11248978D02*
X16009076Y-11248978D01*
X16009076Y-11248978D02*
X15990028Y-11239455D01*
X15990028Y-11239455D02*
X15980504Y-11229931D01*
X15980504Y-11229931D02*
X15970980Y-11210883D01*
X15970980Y-11210883D02*
X15961457Y-11172788D01*
X15961457Y-11172788D02*
X15961457Y-11125169D01*
X15961457Y-11125169D02*
X15970980Y-11087074D01*
X15970980Y-11087074D02*
X15980504Y-11068026D01*
X15980504Y-11068026D02*
X15990028Y-11058502D01*
X15990028Y-11058502D02*
X16009076Y-11048978D01*
X16161457Y-11229931D02*
X16170980Y-11239455D01*
X16170980Y-11239455D02*
X16161457Y-11248978D01*
X16161457Y-11248978D02*
X16151933Y-11239455D01*
X16151933Y-11239455D02*
X16161457Y-11229931D01*
X16161457Y-11229931D02*
X16161457Y-11248978D01*
X16294790Y-11048978D02*
X16313838Y-11048978D01*
X16313838Y-11048978D02*
X16332885Y-11058502D01*
X16332885Y-11058502D02*
X16342409Y-11068026D01*
X16342409Y-11068026D02*
X16351933Y-11087074D01*
X16351933Y-11087074D02*
X16361457Y-11125169D01*
X16361457Y-11125169D02*
X16361457Y-11172788D01*
X16361457Y-11172788D02*
X16351933Y-11210883D01*
X16351933Y-11210883D02*
X16342409Y-11229931D01*
X16342409Y-11229931D02*
X16332885Y-11239455D01*
X16332885Y-11239455D02*
X16313838Y-11248978D01*
X16313838Y-11248978D02*
X16294790Y-11248978D01*
X16294790Y-11248978D02*
X16275742Y-11239455D01*
X16275742Y-11239455D02*
X16266218Y-11229931D01*
X16266218Y-11229931D02*
X16256695Y-11210883D01*
X16256695Y-11210883D02*
X16247171Y-11172788D01*
X16247171Y-11172788D02*
X16247171Y-11125169D01*
X16247171Y-11125169D02*
X16256695Y-11087074D01*
X16256695Y-11087074D02*
X16266218Y-11068026D01*
X16266218Y-11068026D02*
X16275742Y-11058502D01*
X16275742Y-11058502D02*
X16294790Y-11048978D01*
X16437647Y-11068026D02*
X16447171Y-11058502D01*
X16447171Y-11058502D02*
X16466218Y-11048978D01*
X16466218Y-11048978D02*
X16513838Y-11048978D01*
X16513838Y-11048978D02*
X16532885Y-11058502D01*
X16532885Y-11058502D02*
X16542409Y-11068026D01*
X16542409Y-11068026D02*
X16551933Y-11087074D01*
X16551933Y-11087074D02*
X16551933Y-11106121D01*
X16551933Y-11106121D02*
X16542409Y-11134693D01*
X16542409Y-11134693D02*
X16428123Y-11248978D01*
X16428123Y-11248978D02*
X16551933Y-11248978D01*
X16618599Y-11048978D02*
X16751933Y-11048978D01*
X16751933Y-11048978D02*
X16666218Y-11248978D01*
X16913838Y-11048978D02*
X16875742Y-11048978D01*
X16875742Y-11048978D02*
X16856695Y-11058502D01*
X16856695Y-11058502D02*
X16847171Y-11068026D01*
X16847171Y-11068026D02*
X16828123Y-11096597D01*
X16828123Y-11096597D02*
X16818600Y-11134693D01*
X16818600Y-11134693D02*
X16818600Y-11210883D01*
X16818600Y-11210883D02*
X16828123Y-11229931D01*
X16828123Y-11229931D02*
X16837647Y-11239455D01*
X16837647Y-11239455D02*
X16856695Y-11248978D01*
X16856695Y-11248978D02*
X16894790Y-11248978D01*
X16894790Y-11248978D02*
X16913838Y-11239455D01*
X16913838Y-11239455D02*
X16923361Y-11229931D01*
X16923361Y-11229931D02*
X16932885Y-11210883D01*
X16932885Y-11210883D02*
X16932885Y-11163264D01*
X16932885Y-11163264D02*
X16923361Y-11144217D01*
X16923361Y-11144217D02*
X16913838Y-11134693D01*
X16913838Y-11134693D02*
X16894790Y-11125169D01*
X16894790Y-11125169D02*
X16856695Y-11125169D01*
X16856695Y-11125169D02*
X16837647Y-11134693D01*
X16837647Y-11134693D02*
X16828123Y-11144217D01*
X16828123Y-11144217D02*
X16818600Y-11163264D01*
X17009076Y-11048978D02*
X17009076Y-11087074D01*
X17085266Y-11048978D02*
X17085266Y-11087074D01*
X17380504Y-11325169D02*
X17370981Y-11315645D01*
X17370981Y-11315645D02*
X17351933Y-11287074D01*
X17351933Y-11287074D02*
X17342409Y-11268026D01*
X17342409Y-11268026D02*
X17332885Y-11239455D01*
X17332885Y-11239455D02*
X17323362Y-11191835D01*
X17323362Y-11191835D02*
X17323362Y-11153740D01*
X17323362Y-11153740D02*
X17332885Y-11106121D01*
X17332885Y-11106121D02*
X17342409Y-11077550D01*
X17342409Y-11077550D02*
X17351933Y-11058502D01*
X17351933Y-11058502D02*
X17370981Y-11029931D01*
X17370981Y-11029931D02*
X17380504Y-11020407D01*
X17551933Y-11048978D02*
X17456695Y-11048978D01*
X17456695Y-11048978D02*
X17447171Y-11144217D01*
X17447171Y-11144217D02*
X17456695Y-11134693D01*
X17456695Y-11134693D02*
X17475742Y-11125169D01*
X17475742Y-11125169D02*
X17523362Y-11125169D01*
X17523362Y-11125169D02*
X17542409Y-11134693D01*
X17542409Y-11134693D02*
X17551933Y-11144217D01*
X17551933Y-11144217D02*
X17561457Y-11163264D01*
X17561457Y-11163264D02*
X17561457Y-11210883D01*
X17561457Y-11210883D02*
X17551933Y-11229931D01*
X17551933Y-11229931D02*
X17542409Y-11239455D01*
X17542409Y-11239455D02*
X17523362Y-11248978D01*
X17523362Y-11248978D02*
X17475742Y-11248978D01*
X17475742Y-11248978D02*
X17456695Y-11239455D01*
X17456695Y-11239455D02*
X17447171Y-11229931D01*
X17799552Y-11248978D02*
X17799552Y-11048978D01*
X17885266Y-11248978D02*
X17885266Y-11144217D01*
X17885266Y-11144217D02*
X17875743Y-11125169D01*
X17875743Y-11125169D02*
X17856695Y-11115645D01*
X17856695Y-11115645D02*
X17828123Y-11115645D01*
X17828123Y-11115645D02*
X17809076Y-11125169D01*
X17809076Y-11125169D02*
X17799552Y-11134693D01*
X18009076Y-11248978D02*
X17990028Y-11239455D01*
X17990028Y-11239455D02*
X17980504Y-11229931D01*
X17980504Y-11229931D02*
X17970981Y-11210883D01*
X17970981Y-11210883D02*
X17970981Y-11153740D01*
X17970981Y-11153740D02*
X17980504Y-11134693D01*
X17980504Y-11134693D02*
X17990028Y-11125169D01*
X17990028Y-11125169D02*
X18009076Y-11115645D01*
X18009076Y-11115645D02*
X18037647Y-11115645D01*
X18037647Y-11115645D02*
X18056695Y-11125169D01*
X18056695Y-11125169D02*
X18066219Y-11134693D01*
X18066219Y-11134693D02*
X18075743Y-11153740D01*
X18075743Y-11153740D02*
X18075743Y-11210883D01*
X18075743Y-11210883D02*
X18066219Y-11229931D01*
X18066219Y-11229931D02*
X18056695Y-11239455D01*
X18056695Y-11239455D02*
X18037647Y-11248978D01*
X18037647Y-11248978D02*
X18009076Y-11248978D01*
X18190028Y-11248978D02*
X18170981Y-11239455D01*
X18170981Y-11239455D02*
X18161457Y-11220407D01*
X18161457Y-11220407D02*
X18161457Y-11048978D01*
X18342409Y-11239455D02*
X18323362Y-11248978D01*
X18323362Y-11248978D02*
X18285266Y-11248978D01*
X18285266Y-11248978D02*
X18266219Y-11239455D01*
X18266219Y-11239455D02*
X18256695Y-11220407D01*
X18256695Y-11220407D02*
X18256695Y-11144217D01*
X18256695Y-11144217D02*
X18266219Y-11125169D01*
X18266219Y-11125169D02*
X18285266Y-11115645D01*
X18285266Y-11115645D02*
X18323362Y-11115645D01*
X18323362Y-11115645D02*
X18342409Y-11125169D01*
X18342409Y-11125169D02*
X18351933Y-11144217D01*
X18351933Y-11144217D02*
X18351933Y-11163264D01*
X18351933Y-11163264D02*
X18256695Y-11182312D01*
X18428124Y-11239455D02*
X18447171Y-11248978D01*
X18447171Y-11248978D02*
X18485266Y-11248978D01*
X18485266Y-11248978D02*
X18504314Y-11239455D01*
X18504314Y-11239455D02*
X18513838Y-11220407D01*
X18513838Y-11220407D02*
X18513838Y-11210883D01*
X18513838Y-11210883D02*
X18504314Y-11191835D01*
X18504314Y-11191835D02*
X18485266Y-11182312D01*
X18485266Y-11182312D02*
X18456695Y-11182312D01*
X18456695Y-11182312D02*
X18437647Y-11172788D01*
X18437647Y-11172788D02*
X18428124Y-11153740D01*
X18428124Y-11153740D02*
X18428124Y-11144217D01*
X18428124Y-11144217D02*
X18437647Y-11125169D01*
X18437647Y-11125169D02*
X18456695Y-11115645D01*
X18456695Y-11115645D02*
X18485266Y-11115645D01*
X18485266Y-11115645D02*
X18504314Y-11125169D01*
X18580505Y-11325169D02*
X18590028Y-11315645D01*
X18590028Y-11315645D02*
X18609076Y-11287074D01*
X18609076Y-11287074D02*
X18618600Y-11268026D01*
X18618600Y-11268026D02*
X18628124Y-11239455D01*
X18628124Y-11239455D02*
X18637647Y-11191835D01*
X18637647Y-11191835D02*
X18637647Y-11153740D01*
X18637647Y-11153740D02*
X18628124Y-11106121D01*
X18628124Y-11106121D02*
X18618600Y-11077550D01*
X18618600Y-11077550D02*
X18609076Y-11058502D01*
X18609076Y-11058502D02*
X18590028Y-11029931D01*
X18590028Y-11029931D02*
X18580505Y-11020407D01*
X18942409Y-11325169D02*
X18932885Y-11315645D01*
X18932885Y-11315645D02*
X18913838Y-11287074D01*
X18913838Y-11287074D02*
X18904314Y-11268026D01*
X18904314Y-11268026D02*
X18894790Y-11239455D01*
X18894790Y-11239455D02*
X18885266Y-11191835D01*
X18885266Y-11191835D02*
X18885266Y-11153740D01*
X18885266Y-11153740D02*
X18894790Y-11106121D01*
X18894790Y-11106121D02*
X18904314Y-11077550D01*
X18904314Y-11077550D02*
X18913838Y-11058502D01*
X18913838Y-11058502D02*
X18932885Y-11029931D01*
X18932885Y-11029931D02*
X18942409Y-11020407D01*
X19018600Y-11115645D02*
X19018600Y-11248978D01*
X19018600Y-11134693D02*
X19028124Y-11125169D01*
X19028124Y-11125169D02*
X19047171Y-11115645D01*
X19047171Y-11115645D02*
X19075743Y-11115645D01*
X19075743Y-11115645D02*
X19094790Y-11125169D01*
X19094790Y-11125169D02*
X19104314Y-11144217D01*
X19104314Y-11144217D02*
X19104314Y-11248978D01*
X19228124Y-11248978D02*
X19209076Y-11239455D01*
X19209076Y-11239455D02*
X19199552Y-11229931D01*
X19199552Y-11229931D02*
X19190028Y-11210883D01*
X19190028Y-11210883D02*
X19190028Y-11153740D01*
X19190028Y-11153740D02*
X19199552Y-11134693D01*
X19199552Y-11134693D02*
X19209076Y-11125169D01*
X19209076Y-11125169D02*
X19228124Y-11115645D01*
X19228124Y-11115645D02*
X19256695Y-11115645D01*
X19256695Y-11115645D02*
X19275743Y-11125169D01*
X19275743Y-11125169D02*
X19285266Y-11134693D01*
X19285266Y-11134693D02*
X19294790Y-11153740D01*
X19294790Y-11153740D02*
X19294790Y-11210883D01*
X19294790Y-11210883D02*
X19285266Y-11229931D01*
X19285266Y-11229931D02*
X19275743Y-11239455D01*
X19275743Y-11239455D02*
X19256695Y-11248978D01*
X19256695Y-11248978D02*
X19228124Y-11248978D01*
X19351933Y-11115645D02*
X19428124Y-11115645D01*
X19380505Y-11048978D02*
X19380505Y-11220407D01*
X19380505Y-11220407D02*
X19390028Y-11239455D01*
X19390028Y-11239455D02*
X19409076Y-11248978D01*
X19409076Y-11248978D02*
X19428124Y-11248978D01*
X19647171Y-11115645D02*
X19647171Y-11315645D01*
X19647171Y-11125169D02*
X19666219Y-11115645D01*
X19666219Y-11115645D02*
X19704314Y-11115645D01*
X19704314Y-11115645D02*
X19723362Y-11125169D01*
X19723362Y-11125169D02*
X19732886Y-11134693D01*
X19732886Y-11134693D02*
X19742409Y-11153740D01*
X19742409Y-11153740D02*
X19742409Y-11210883D01*
X19742409Y-11210883D02*
X19732886Y-11229931D01*
X19732886Y-11229931D02*
X19723362Y-11239455D01*
X19723362Y-11239455D02*
X19704314Y-11248978D01*
X19704314Y-11248978D02*
X19666219Y-11248978D01*
X19666219Y-11248978D02*
X19647171Y-11239455D01*
X19856695Y-11248978D02*
X19837647Y-11239455D01*
X19837647Y-11239455D02*
X19828124Y-11220407D01*
X19828124Y-11220407D02*
X19828124Y-11048978D01*
X20018600Y-11248978D02*
X20018600Y-11144217D01*
X20018600Y-11144217D02*
X20009076Y-11125169D01*
X20009076Y-11125169D02*
X19990028Y-11115645D01*
X19990028Y-11115645D02*
X19951933Y-11115645D01*
X19951933Y-11115645D02*
X19932886Y-11125169D01*
X20018600Y-11239455D02*
X19999552Y-11248978D01*
X19999552Y-11248978D02*
X19951933Y-11248978D01*
X19951933Y-11248978D02*
X19932886Y-11239455D01*
X19932886Y-11239455D02*
X19923362Y-11220407D01*
X19923362Y-11220407D02*
X19923362Y-11201359D01*
X19923362Y-11201359D02*
X19932886Y-11182312D01*
X19932886Y-11182312D02*
X19951933Y-11172788D01*
X19951933Y-11172788D02*
X19999552Y-11172788D01*
X19999552Y-11172788D02*
X20018600Y-11163264D01*
X20085267Y-11115645D02*
X20161457Y-11115645D01*
X20113838Y-11048978D02*
X20113838Y-11220407D01*
X20113838Y-11220407D02*
X20123362Y-11239455D01*
X20123362Y-11239455D02*
X20142409Y-11248978D01*
X20142409Y-11248978D02*
X20161457Y-11248978D01*
X20304314Y-11239455D02*
X20285267Y-11248978D01*
X20285267Y-11248978D02*
X20247171Y-11248978D01*
X20247171Y-11248978D02*
X20228124Y-11239455D01*
X20228124Y-11239455D02*
X20218600Y-11220407D01*
X20218600Y-11220407D02*
X20218600Y-11144217D01*
X20218600Y-11144217D02*
X20228124Y-11125169D01*
X20228124Y-11125169D02*
X20247171Y-11115645D01*
X20247171Y-11115645D02*
X20285267Y-11115645D01*
X20285267Y-11115645D02*
X20304314Y-11125169D01*
X20304314Y-11125169D02*
X20313838Y-11144217D01*
X20313838Y-11144217D02*
X20313838Y-11163264D01*
X20313838Y-11163264D02*
X20218600Y-11182312D01*
X20485267Y-11248978D02*
X20485267Y-11048978D01*
X20485267Y-11239455D02*
X20466219Y-11248978D01*
X20466219Y-11248978D02*
X20428124Y-11248978D01*
X20428124Y-11248978D02*
X20409076Y-11239455D01*
X20409076Y-11239455D02*
X20399552Y-11229931D01*
X20399552Y-11229931D02*
X20390028Y-11210883D01*
X20390028Y-11210883D02*
X20390028Y-11153740D01*
X20390028Y-11153740D02*
X20399552Y-11134693D01*
X20399552Y-11134693D02*
X20409076Y-11125169D01*
X20409076Y-11125169D02*
X20428124Y-11115645D01*
X20428124Y-11115645D02*
X20466219Y-11115645D01*
X20466219Y-11115645D02*
X20485267Y-11125169D01*
X20561457Y-11325169D02*
X20570981Y-11315645D01*
X20570981Y-11315645D02*
X20590028Y-11287074D01*
X20590028Y-11287074D02*
X20599552Y-11268026D01*
X20599552Y-11268026D02*
X20609076Y-11239455D01*
X20609076Y-11239455D02*
X20618600Y-11191835D01*
X20618600Y-11191835D02*
X20618600Y-11153740D01*
X20618600Y-11153740D02*
X20609076Y-11106121D01*
X20609076Y-11106121D02*
X20599552Y-11077550D01*
X20599552Y-11077550D02*
X20590028Y-11058502D01*
X20590028Y-11058502D02*
X20570981Y-11029931D01*
X20570981Y-11029931D02*
X20561457Y-11020407D01*
M02*
