%TF.GenerationSoftware,KiCad,Pcbnew,7.0.7*%
%TF.CreationDate,2023-09-20T12:31:01+02:00*%
%TF.ProjectId,Window_EMP_monitor_59_4x23_5x1.6mm,57696e64-6f77-45f4-954d-505f6d6f6e69,rev?*%
%TF.SameCoordinates,Original*%
%TF.FileFunction,Drillmap*%
%TF.FilePolarity,Positive*%
%FSLAX45Y45*%
G04 Gerber Fmt 4.5, Leading zero omitted, Abs format (unit mm)*
G04 Created by KiCad (PCBNEW 7.0.7) date 2023-09-20 12:31:01*
%MOMM*%
%LPD*%
G01*
G04 APERTURE LIST*
%ADD10C,0.100000*%
%ADD11C,0.200000*%
%ADD12C,0.040000*%
%ADD13C,0.080000*%
G04 APERTURE END LIST*
D10*
X17737897Y-8450667D02*
G75*
G03*
X17696897Y-8493714I-27J-41023D01*
G01*
X14088693Y-8161477D02*
X19482000Y-8161000D01*
X14098621Y-10512315D02*
X19492973Y-10511000D01*
X18204432Y-8490997D02*
X18204476Y-8570997D01*
X13810445Y-10234315D02*
G75*
G03*
X14098621Y-10512315I278185J5D01*
G01*
X17696897Y-8493714D02*
X17695129Y-9070615D01*
X17776396Y-8988655D02*
X17777000Y-8573049D01*
X18203411Y-9066679D02*
X18203872Y-8987654D01*
X17695137Y-9070615D02*
G75*
G03*
X17738177Y-9111614I41043J-6D01*
G01*
X18105445Y-9030703D02*
X17819445Y-9029654D01*
X18204433Y-8490997D02*
G75*
G03*
X18161383Y-8449997I-41033J17D01*
G01*
X18161383Y-8450049D02*
X17737897Y-8450665D01*
X18104000Y-8530049D02*
X17818000Y-8530000D01*
X18147049Y-8570997D02*
G75*
G03*
X18204476Y-8570997I28714J0D01*
G01*
X13810441Y-10234315D02*
X13810693Y-8449657D01*
X17776396Y-8988655D02*
G75*
G03*
X17819445Y-9029654I41034J-16D01*
G01*
X18162411Y-9109729D02*
G75*
G03*
X18203411Y-9066679I-31J41079D01*
G01*
X19770179Y-8439000D02*
G75*
G03*
X19482000Y-8161000I-278189J-10D01*
G01*
X18203872Y-8987654D02*
G75*
G03*
X18146445Y-8987654I-28714J2D01*
G01*
X19770973Y-10222820D02*
X19770180Y-8439000D01*
X19492973Y-10511002D02*
G75*
G03*
X19770972Y-10222820I-3J278182D01*
G01*
X18147052Y-8570997D02*
G75*
G03*
X18104000Y-8529997I-41052J-3D01*
G01*
X18105445Y-9030704D02*
G75*
G03*
X18146445Y-8987654I5J41044D01*
G01*
X14088693Y-8161473D02*
G75*
G03*
X13810694Y-8449657I-23J-278157D01*
G01*
X17738177Y-9111614D02*
X18162411Y-9109727D01*
X17818000Y-8530001D02*
G75*
G03*
X17777000Y-8573049I-10J-41039D01*
G01*
D11*
D12*
X13854000Y-8483000D02*
X13894000Y-8523000D01*
X13894000Y-8483000D02*
X13854000Y-8523000D01*
X13854000Y-9214000D02*
X13894000Y-9254000D01*
X13894000Y-9214000D02*
X13854000Y-9254000D01*
X13858000Y-8688000D02*
X13898000Y-8728000D01*
X13898000Y-8688000D02*
X13858000Y-8728000D01*
X13861000Y-8974000D02*
X13901000Y-9014000D01*
X13901000Y-8974000D02*
X13861000Y-9014000D01*
X13944000Y-8285000D02*
X13984000Y-8325000D01*
X13984000Y-8285000D02*
X13944000Y-8325000D01*
X14251000Y-9337000D02*
X14291000Y-9377000D01*
X14291000Y-9337000D02*
X14251000Y-9377000D01*
X14450000Y-8694000D02*
X14490000Y-8734000D01*
X14490000Y-8694000D02*
X14450000Y-8734000D01*
X14615000Y-8677000D02*
X14655000Y-8717000D01*
X14655000Y-8677000D02*
X14615000Y-8717000D01*
X14618000Y-8518000D02*
X14658000Y-8558000D01*
X14658000Y-8518000D02*
X14618000Y-8558000D01*
X14620000Y-8358000D02*
X14660000Y-8398000D01*
X14660000Y-8358000D02*
X14620000Y-8398000D01*
X14623000Y-8212000D02*
X14663000Y-8252000D01*
X14663000Y-8212000D02*
X14623000Y-8252000D01*
X14750000Y-8694000D02*
X14790000Y-8734000D01*
X14790000Y-8694000D02*
X14750000Y-8734000D01*
X14885000Y-10327000D02*
X14925000Y-10367000D01*
X14925000Y-10327000D02*
X14885000Y-10367000D01*
X14892000Y-8697000D02*
X14932000Y-8737000D01*
X14932000Y-8697000D02*
X14892000Y-8737000D01*
X14958000Y-9128000D02*
X14998000Y-9168000D01*
X14998000Y-9128000D02*
X14958000Y-9168000D01*
X15024000Y-8697000D02*
X15064000Y-8737000D01*
X15064000Y-8697000D02*
X15024000Y-8737000D01*
X15036000Y-9484000D02*
X15076000Y-9524000D01*
X15076000Y-9484000D02*
X15036000Y-9524000D01*
X15065000Y-10416000D02*
X15105000Y-10456000D01*
X15105000Y-10416000D02*
X15065000Y-10456000D01*
X15132000Y-9623000D02*
X15172000Y-9663000D01*
X15172000Y-9623000D02*
X15132000Y-9663000D01*
X15159000Y-8697000D02*
X15199000Y-8737000D01*
X15199000Y-8697000D02*
X15159000Y-8737000D01*
X15215000Y-9552000D02*
X15255000Y-9592000D01*
X15255000Y-9552000D02*
X15215000Y-9592000D01*
X15217582Y-8887875D02*
X15257582Y-8927875D01*
X15257582Y-8887875D02*
X15217582Y-8927875D01*
X15226300Y-9280000D02*
X15266300Y-9320000D01*
X15266300Y-9280000D02*
X15226300Y-9320000D01*
X15254000Y-9458000D02*
X15294000Y-9498000D01*
X15294000Y-9458000D02*
X15254000Y-9498000D01*
X15288000Y-8699000D02*
X15328000Y-8739000D01*
X15328000Y-8699000D02*
X15288000Y-8739000D01*
X15326000Y-9397000D02*
X15366000Y-9437000D01*
X15366000Y-9397000D02*
X15326000Y-9437000D01*
X15346200Y-9315000D02*
X15386200Y-9355000D01*
X15386200Y-9315000D02*
X15346200Y-9355000D01*
X15359000Y-9221000D02*
X15399000Y-9261000D01*
X15399000Y-9221000D02*
X15359000Y-9261000D01*
X15413000Y-8697000D02*
X15453000Y-8737000D01*
X15453000Y-8697000D02*
X15413000Y-8737000D01*
X15452623Y-9219377D02*
X15492623Y-9259377D01*
X15492623Y-9219377D02*
X15452623Y-9259377D01*
X15520700Y-8870000D02*
X15560700Y-8910000D01*
X15560700Y-8870000D02*
X15520700Y-8910000D01*
X15534000Y-9285000D02*
X15574000Y-9325000D01*
X15574000Y-9285000D02*
X15534000Y-9325000D01*
X15547000Y-8690000D02*
X15587000Y-8730000D01*
X15587000Y-8690000D02*
X15547000Y-8730000D01*
X15649000Y-9904000D02*
X15689000Y-9944000D01*
X15689000Y-9904000D02*
X15649000Y-9944000D01*
X15685000Y-8694000D02*
X15725000Y-8734000D01*
X15725000Y-8694000D02*
X15685000Y-8734000D01*
X15707512Y-9319982D02*
X15747512Y-9359982D01*
X15747512Y-9319982D02*
X15707512Y-9359982D01*
X15771700Y-9385000D02*
X15811700Y-9425000D01*
X15811700Y-9385000D02*
X15771700Y-9425000D01*
X15793000Y-9188000D02*
X15833000Y-9228000D01*
X15833000Y-9188000D02*
X15793000Y-9228000D01*
X15807000Y-8690000D02*
X15847000Y-8730000D01*
X15847000Y-8690000D02*
X15807000Y-8730000D01*
X15849000Y-9667000D02*
X15889000Y-9707000D01*
X15889000Y-9667000D02*
X15849000Y-9707000D01*
X15932000Y-8952000D02*
X15972000Y-8992000D01*
X15972000Y-8952000D02*
X15932000Y-8992000D01*
X15981035Y-9481000D02*
X16021035Y-9521000D01*
X16021035Y-9481000D02*
X15981035Y-9521000D01*
X16135000Y-8222000D02*
X16175000Y-8262000D01*
X16175000Y-8222000D02*
X16135000Y-8262000D01*
X16138000Y-8350000D02*
X16178000Y-8390000D01*
X16178000Y-8350000D02*
X16138000Y-8390000D01*
X16139000Y-9948000D02*
X16179000Y-9988000D01*
X16179000Y-9948000D02*
X16139000Y-9988000D01*
X16143123Y-9855123D02*
X16183123Y-9895123D01*
X16183123Y-9855123D02*
X16143123Y-9895123D01*
X16146000Y-10071000D02*
X16186000Y-10111000D01*
X16186000Y-10071000D02*
X16146000Y-10111000D01*
X16160250Y-8996000D02*
X16200250Y-9036000D01*
X16200250Y-8996000D02*
X16160250Y-9036000D01*
X16208000Y-10122000D02*
X16248000Y-10162000D01*
X16248000Y-10122000D02*
X16208000Y-10162000D01*
X16224000Y-9796000D02*
X16264000Y-9836000D01*
X16264000Y-9796000D02*
X16224000Y-9836000D01*
X16235153Y-9663153D02*
X16275153Y-9703153D01*
X16275153Y-9663153D02*
X16235153Y-9703153D01*
X16285000Y-10070000D02*
X16325000Y-10110000D01*
X16325000Y-10070000D02*
X16285000Y-10110000D01*
X16319000Y-8375000D02*
X16359000Y-8415000D01*
X16359000Y-8375000D02*
X16319000Y-8415000D01*
X16373000Y-10088000D02*
X16413000Y-10128000D01*
X16413000Y-10088000D02*
X16373000Y-10128000D01*
X16469000Y-8346000D02*
X16509000Y-8386000D01*
X16509000Y-8346000D02*
X16469000Y-8386000D01*
X16488000Y-8474000D02*
X16528000Y-8514000D01*
X16528000Y-8474000D02*
X16488000Y-8514000D01*
X16501000Y-9896000D02*
X16541000Y-9936000D01*
X16541000Y-9896000D02*
X16501000Y-9936000D01*
X16603000Y-9260000D02*
X16643000Y-9300000D01*
X16643000Y-9260000D02*
X16603000Y-9300000D01*
X16613000Y-9383000D02*
X16653000Y-9423000D01*
X16653000Y-9383000D02*
X16613000Y-9423000D01*
X16637000Y-9116000D02*
X16677000Y-9156000D01*
X16677000Y-9116000D02*
X16637000Y-9156000D01*
X16650000Y-9486000D02*
X16690000Y-9526000D01*
X16690000Y-9486000D02*
X16650000Y-9526000D01*
X16660000Y-9823000D02*
X16700000Y-9863000D01*
X16700000Y-9823000D02*
X16660000Y-9863000D01*
X16669000Y-8870000D02*
X16709000Y-8910000D01*
X16709000Y-8870000D02*
X16669000Y-8910000D01*
X16750000Y-10233000D02*
X16790000Y-10273000D01*
X16790000Y-10233000D02*
X16750000Y-10273000D01*
X16923000Y-8270000D02*
X16963000Y-8310000D01*
X16963000Y-8270000D02*
X16923000Y-8310000D01*
X16944000Y-10031000D02*
X16984000Y-10071000D01*
X16984000Y-10031000D02*
X16944000Y-10071000D01*
X16962000Y-9311000D02*
X17002000Y-9351000D01*
X17002000Y-9311000D02*
X16962000Y-9351000D01*
X16963000Y-9167000D02*
X17003000Y-9207000D01*
X17003000Y-9167000D02*
X16963000Y-9207000D01*
X17033000Y-9754000D02*
X17073000Y-9794000D01*
X17073000Y-9754000D02*
X17033000Y-9794000D01*
X17051000Y-9649000D02*
X17091000Y-9689000D01*
X17091000Y-9649000D02*
X17051000Y-9689000D01*
X17058000Y-9853550D02*
X17098000Y-9893550D01*
X17098000Y-9853550D02*
X17058000Y-9893550D01*
X17073000Y-9991000D02*
X17113000Y-10031000D01*
X17113000Y-9991000D02*
X17073000Y-10031000D01*
X17180000Y-8483000D02*
X17220000Y-8523000D01*
X17220000Y-8483000D02*
X17180000Y-8523000D01*
X17488000Y-9357000D02*
X17528000Y-9397000D01*
X17528000Y-9357000D02*
X17488000Y-9397000D01*
X17492000Y-9228000D02*
X17532000Y-9268000D01*
X17532000Y-9228000D02*
X17492000Y-9268000D01*
X17721000Y-9252000D02*
X17761000Y-9292000D01*
X17761000Y-9252000D02*
X17721000Y-9292000D01*
X17801000Y-9359000D02*
X17841000Y-9399000D01*
X17841000Y-9359000D02*
X17801000Y-9399000D01*
X17915000Y-9449000D02*
X17955000Y-9489000D01*
X17955000Y-9449000D02*
X17915000Y-9489000D01*
X18027000Y-9172000D02*
X18067000Y-9212000D01*
X18067000Y-9172000D02*
X18027000Y-9212000D01*
D13*
X17841000Y-10193000D02*
G75*
G03*
X17841000Y-10193000I-40000J0D01*
G01*
X18091000Y-10193000D02*
G75*
G03*
X18091000Y-10193000I-40000J0D01*
G01*
X18445579Y-8473000D02*
G75*
G03*
X18445579Y-8473000I-40000J0D01*
G01*
X18695579Y-8473000D02*
G75*
G03*
X18695579Y-8473000I-40000J0D01*
G01*
D10*
X14512250Y-9931000D02*
X14512250Y-10031000D01*
X14462250Y-9981000D02*
X14562250Y-9981000D01*
X14512250Y-10181000D02*
X14512250Y-10281000D01*
X14462250Y-10231000D02*
X14562250Y-10231000D01*
D11*
X14066218Y-10828978D02*
X14066218Y-10628978D01*
X14066218Y-10628978D02*
X14113837Y-10628978D01*
X14113837Y-10628978D02*
X14142409Y-10638502D01*
X14142409Y-10638502D02*
X14161456Y-10657550D01*
X14161456Y-10657550D02*
X14170980Y-10676597D01*
X14170980Y-10676597D02*
X14180504Y-10714693D01*
X14180504Y-10714693D02*
X14180504Y-10743264D01*
X14180504Y-10743264D02*
X14170980Y-10781359D01*
X14170980Y-10781359D02*
X14161456Y-10800407D01*
X14161456Y-10800407D02*
X14142409Y-10819455D01*
X14142409Y-10819455D02*
X14113837Y-10828978D01*
X14113837Y-10828978D02*
X14066218Y-10828978D01*
X14266218Y-10828978D02*
X14266218Y-10695645D01*
X14266218Y-10733740D02*
X14275742Y-10714693D01*
X14275742Y-10714693D02*
X14285266Y-10705169D01*
X14285266Y-10705169D02*
X14304313Y-10695645D01*
X14304313Y-10695645D02*
X14323361Y-10695645D01*
X14390028Y-10828978D02*
X14390028Y-10695645D01*
X14390028Y-10628978D02*
X14380504Y-10638502D01*
X14380504Y-10638502D02*
X14390028Y-10648026D01*
X14390028Y-10648026D02*
X14399552Y-10638502D01*
X14399552Y-10638502D02*
X14390028Y-10628978D01*
X14390028Y-10628978D02*
X14390028Y-10648026D01*
X14513837Y-10828978D02*
X14494790Y-10819455D01*
X14494790Y-10819455D02*
X14485266Y-10800407D01*
X14485266Y-10800407D02*
X14485266Y-10628978D01*
X14618599Y-10828978D02*
X14599552Y-10819455D01*
X14599552Y-10819455D02*
X14590028Y-10800407D01*
X14590028Y-10800407D02*
X14590028Y-10628978D01*
X14847171Y-10828978D02*
X14847171Y-10628978D01*
X14847171Y-10628978D02*
X14913837Y-10771836D01*
X14913837Y-10771836D02*
X14980504Y-10628978D01*
X14980504Y-10628978D02*
X14980504Y-10828978D01*
X15161456Y-10828978D02*
X15161456Y-10724217D01*
X15161456Y-10724217D02*
X15151933Y-10705169D01*
X15151933Y-10705169D02*
X15132885Y-10695645D01*
X15132885Y-10695645D02*
X15094790Y-10695645D01*
X15094790Y-10695645D02*
X15075742Y-10705169D01*
X15161456Y-10819455D02*
X15142409Y-10828978D01*
X15142409Y-10828978D02*
X15094790Y-10828978D01*
X15094790Y-10828978D02*
X15075742Y-10819455D01*
X15075742Y-10819455D02*
X15066218Y-10800407D01*
X15066218Y-10800407D02*
X15066218Y-10781359D01*
X15066218Y-10781359D02*
X15075742Y-10762312D01*
X15075742Y-10762312D02*
X15094790Y-10752788D01*
X15094790Y-10752788D02*
X15142409Y-10752788D01*
X15142409Y-10752788D02*
X15161456Y-10743264D01*
X15256694Y-10695645D02*
X15256694Y-10895645D01*
X15256694Y-10705169D02*
X15275742Y-10695645D01*
X15275742Y-10695645D02*
X15313837Y-10695645D01*
X15313837Y-10695645D02*
X15332885Y-10705169D01*
X15332885Y-10705169D02*
X15342409Y-10714693D01*
X15342409Y-10714693D02*
X15351933Y-10733740D01*
X15351933Y-10733740D02*
X15351933Y-10790883D01*
X15351933Y-10790883D02*
X15342409Y-10809931D01*
X15342409Y-10809931D02*
X15332885Y-10819455D01*
X15332885Y-10819455D02*
X15313837Y-10828978D01*
X15313837Y-10828978D02*
X15275742Y-10828978D01*
X15275742Y-10828978D02*
X15256694Y-10819455D01*
X15437647Y-10809931D02*
X15447171Y-10819455D01*
X15447171Y-10819455D02*
X15437647Y-10828978D01*
X15437647Y-10828978D02*
X15428123Y-10819455D01*
X15428123Y-10819455D02*
X15437647Y-10809931D01*
X15437647Y-10809931D02*
X15437647Y-10828978D01*
X15437647Y-10705169D02*
X15447171Y-10714693D01*
X15447171Y-10714693D02*
X15437647Y-10724217D01*
X15437647Y-10724217D02*
X15428123Y-10714693D01*
X15428123Y-10714693D02*
X15437647Y-10705169D01*
X15437647Y-10705169D02*
X15437647Y-10724217D01*
D12*
X13765441Y-11137495D02*
X13805441Y-11177495D01*
X13805441Y-11137495D02*
X13765441Y-11177495D01*
D11*
X14104313Y-11048978D02*
X14123361Y-11048978D01*
X14123361Y-11048978D02*
X14142409Y-11058502D01*
X14142409Y-11058502D02*
X14151933Y-11068026D01*
X14151933Y-11068026D02*
X14161456Y-11087074D01*
X14161456Y-11087074D02*
X14170980Y-11125169D01*
X14170980Y-11125169D02*
X14170980Y-11172788D01*
X14170980Y-11172788D02*
X14161456Y-11210883D01*
X14161456Y-11210883D02*
X14151933Y-11229931D01*
X14151933Y-11229931D02*
X14142409Y-11239455D01*
X14142409Y-11239455D02*
X14123361Y-11248978D01*
X14123361Y-11248978D02*
X14104313Y-11248978D01*
X14104313Y-11248978D02*
X14085266Y-11239455D01*
X14085266Y-11239455D02*
X14075742Y-11229931D01*
X14075742Y-11229931D02*
X14066218Y-11210883D01*
X14066218Y-11210883D02*
X14056694Y-11172788D01*
X14056694Y-11172788D02*
X14056694Y-11125169D01*
X14056694Y-11125169D02*
X14066218Y-11087074D01*
X14066218Y-11087074D02*
X14075742Y-11068026D01*
X14075742Y-11068026D02*
X14085266Y-11058502D01*
X14085266Y-11058502D02*
X14104313Y-11048978D01*
X14256694Y-11229931D02*
X14266218Y-11239455D01*
X14266218Y-11239455D02*
X14256694Y-11248978D01*
X14256694Y-11248978D02*
X14247171Y-11239455D01*
X14247171Y-11239455D02*
X14256694Y-11229931D01*
X14256694Y-11229931D02*
X14256694Y-11248978D01*
X14437647Y-11115645D02*
X14437647Y-11248978D01*
X14390028Y-11039455D02*
X14342409Y-11182312D01*
X14342409Y-11182312D02*
X14466218Y-11182312D01*
X14580504Y-11048978D02*
X14599552Y-11048978D01*
X14599552Y-11048978D02*
X14618599Y-11058502D01*
X14618599Y-11058502D02*
X14628123Y-11068026D01*
X14628123Y-11068026D02*
X14637647Y-11087074D01*
X14637647Y-11087074D02*
X14647171Y-11125169D01*
X14647171Y-11125169D02*
X14647171Y-11172788D01*
X14647171Y-11172788D02*
X14637647Y-11210883D01*
X14637647Y-11210883D02*
X14628123Y-11229931D01*
X14628123Y-11229931D02*
X14618599Y-11239455D01*
X14618599Y-11239455D02*
X14599552Y-11248978D01*
X14599552Y-11248978D02*
X14580504Y-11248978D01*
X14580504Y-11248978D02*
X14561456Y-11239455D01*
X14561456Y-11239455D02*
X14551933Y-11229931D01*
X14551933Y-11229931D02*
X14542409Y-11210883D01*
X14542409Y-11210883D02*
X14532885Y-11172788D01*
X14532885Y-11172788D02*
X14532885Y-11125169D01*
X14532885Y-11125169D02*
X14542409Y-11087074D01*
X14542409Y-11087074D02*
X14551933Y-11068026D01*
X14551933Y-11068026D02*
X14561456Y-11058502D01*
X14561456Y-11058502D02*
X14580504Y-11048978D01*
X14770980Y-11048978D02*
X14790028Y-11048978D01*
X14790028Y-11048978D02*
X14809075Y-11058502D01*
X14809075Y-11058502D02*
X14818599Y-11068026D01*
X14818599Y-11068026D02*
X14828123Y-11087074D01*
X14828123Y-11087074D02*
X14837647Y-11125169D01*
X14837647Y-11125169D02*
X14837647Y-11172788D01*
X14837647Y-11172788D02*
X14828123Y-11210883D01*
X14828123Y-11210883D02*
X14818599Y-11229931D01*
X14818599Y-11229931D02*
X14809075Y-11239455D01*
X14809075Y-11239455D02*
X14790028Y-11248978D01*
X14790028Y-11248978D02*
X14770980Y-11248978D01*
X14770980Y-11248978D02*
X14751933Y-11239455D01*
X14751933Y-11239455D02*
X14742409Y-11229931D01*
X14742409Y-11229931D02*
X14732885Y-11210883D01*
X14732885Y-11210883D02*
X14723361Y-11172788D01*
X14723361Y-11172788D02*
X14723361Y-11125169D01*
X14723361Y-11125169D02*
X14732885Y-11087074D01*
X14732885Y-11087074D02*
X14742409Y-11068026D01*
X14742409Y-11068026D02*
X14751933Y-11058502D01*
X14751933Y-11058502D02*
X14770980Y-11048978D01*
X14923361Y-11248978D02*
X14923361Y-11115645D01*
X14923361Y-11134693D02*
X14932885Y-11125169D01*
X14932885Y-11125169D02*
X14951933Y-11115645D01*
X14951933Y-11115645D02*
X14980504Y-11115645D01*
X14980504Y-11115645D02*
X14999552Y-11125169D01*
X14999552Y-11125169D02*
X15009075Y-11144217D01*
X15009075Y-11144217D02*
X15009075Y-11248978D01*
X15009075Y-11144217D02*
X15018599Y-11125169D01*
X15018599Y-11125169D02*
X15037647Y-11115645D01*
X15037647Y-11115645D02*
X15066218Y-11115645D01*
X15066218Y-11115645D02*
X15085266Y-11125169D01*
X15085266Y-11125169D02*
X15094790Y-11144217D01*
X15094790Y-11144217D02*
X15094790Y-11248978D01*
X15190028Y-11248978D02*
X15190028Y-11115645D01*
X15190028Y-11134693D02*
X15199552Y-11125169D01*
X15199552Y-11125169D02*
X15218599Y-11115645D01*
X15218599Y-11115645D02*
X15247171Y-11115645D01*
X15247171Y-11115645D02*
X15266218Y-11125169D01*
X15266218Y-11125169D02*
X15275742Y-11144217D01*
X15275742Y-11144217D02*
X15275742Y-11248978D01*
X15275742Y-11144217D02*
X15285266Y-11125169D01*
X15285266Y-11125169D02*
X15304314Y-11115645D01*
X15304314Y-11115645D02*
X15332885Y-11115645D01*
X15332885Y-11115645D02*
X15351933Y-11125169D01*
X15351933Y-11125169D02*
X15361456Y-11144217D01*
X15361456Y-11144217D02*
X15361456Y-11248978D01*
X15751933Y-11039455D02*
X15580504Y-11296597D01*
X16009076Y-11048978D02*
X16028123Y-11048978D01*
X16028123Y-11048978D02*
X16047171Y-11058502D01*
X16047171Y-11058502D02*
X16056695Y-11068026D01*
X16056695Y-11068026D02*
X16066218Y-11087074D01*
X16066218Y-11087074D02*
X16075742Y-11125169D01*
X16075742Y-11125169D02*
X16075742Y-11172788D01*
X16075742Y-11172788D02*
X16066218Y-11210883D01*
X16066218Y-11210883D02*
X16056695Y-11229931D01*
X16056695Y-11229931D02*
X16047171Y-11239455D01*
X16047171Y-11239455D02*
X16028123Y-11248978D01*
X16028123Y-11248978D02*
X16009076Y-11248978D01*
X16009076Y-11248978D02*
X15990028Y-11239455D01*
X15990028Y-11239455D02*
X15980504Y-11229931D01*
X15980504Y-11229931D02*
X15970980Y-11210883D01*
X15970980Y-11210883D02*
X15961457Y-11172788D01*
X15961457Y-11172788D02*
X15961457Y-11125169D01*
X15961457Y-11125169D02*
X15970980Y-11087074D01*
X15970980Y-11087074D02*
X15980504Y-11068026D01*
X15980504Y-11068026D02*
X15990028Y-11058502D01*
X15990028Y-11058502D02*
X16009076Y-11048978D01*
X16161457Y-11229931D02*
X16170980Y-11239455D01*
X16170980Y-11239455D02*
X16161457Y-11248978D01*
X16161457Y-11248978D02*
X16151933Y-11239455D01*
X16151933Y-11239455D02*
X16161457Y-11229931D01*
X16161457Y-11229931D02*
X16161457Y-11248978D01*
X16294790Y-11048978D02*
X16313838Y-11048978D01*
X16313838Y-11048978D02*
X16332885Y-11058502D01*
X16332885Y-11058502D02*
X16342409Y-11068026D01*
X16342409Y-11068026D02*
X16351933Y-11087074D01*
X16351933Y-11087074D02*
X16361457Y-11125169D01*
X16361457Y-11125169D02*
X16361457Y-11172788D01*
X16361457Y-11172788D02*
X16351933Y-11210883D01*
X16351933Y-11210883D02*
X16342409Y-11229931D01*
X16342409Y-11229931D02*
X16332885Y-11239455D01*
X16332885Y-11239455D02*
X16313838Y-11248978D01*
X16313838Y-11248978D02*
X16294790Y-11248978D01*
X16294790Y-11248978D02*
X16275742Y-11239455D01*
X16275742Y-11239455D02*
X16266218Y-11229931D01*
X16266218Y-11229931D02*
X16256695Y-11210883D01*
X16256695Y-11210883D02*
X16247171Y-11172788D01*
X16247171Y-11172788D02*
X16247171Y-11125169D01*
X16247171Y-11125169D02*
X16256695Y-11087074D01*
X16256695Y-11087074D02*
X16266218Y-11068026D01*
X16266218Y-11068026D02*
X16275742Y-11058502D01*
X16275742Y-11058502D02*
X16294790Y-11048978D01*
X16551933Y-11248978D02*
X16437647Y-11248978D01*
X16494790Y-11248978D02*
X16494790Y-11048978D01*
X16494790Y-11048978D02*
X16475742Y-11077550D01*
X16475742Y-11077550D02*
X16456695Y-11096597D01*
X16456695Y-11096597D02*
X16437647Y-11106121D01*
X16732885Y-11048978D02*
X16637647Y-11048978D01*
X16637647Y-11048978D02*
X16628123Y-11144217D01*
X16628123Y-11144217D02*
X16637647Y-11134693D01*
X16637647Y-11134693D02*
X16656695Y-11125169D01*
X16656695Y-11125169D02*
X16704314Y-11125169D01*
X16704314Y-11125169D02*
X16723361Y-11134693D01*
X16723361Y-11134693D02*
X16732885Y-11144217D01*
X16732885Y-11144217D02*
X16742409Y-11163264D01*
X16742409Y-11163264D02*
X16742409Y-11210883D01*
X16742409Y-11210883D02*
X16732885Y-11229931D01*
X16732885Y-11229931D02*
X16723361Y-11239455D01*
X16723361Y-11239455D02*
X16704314Y-11248978D01*
X16704314Y-11248978D02*
X16656695Y-11248978D01*
X16656695Y-11248978D02*
X16637647Y-11239455D01*
X16637647Y-11239455D02*
X16628123Y-11229931D01*
X16809076Y-11048978D02*
X16942409Y-11048978D01*
X16942409Y-11048978D02*
X16856695Y-11248978D01*
X17009076Y-11048978D02*
X17009076Y-11087074D01*
X17085266Y-11048978D02*
X17085266Y-11087074D01*
X17380504Y-11325169D02*
X17370981Y-11315645D01*
X17370981Y-11315645D02*
X17351933Y-11287074D01*
X17351933Y-11287074D02*
X17342409Y-11268026D01*
X17342409Y-11268026D02*
X17332885Y-11239455D01*
X17332885Y-11239455D02*
X17323362Y-11191835D01*
X17323362Y-11191835D02*
X17323362Y-11153740D01*
X17323362Y-11153740D02*
X17332885Y-11106121D01*
X17332885Y-11106121D02*
X17342409Y-11077550D01*
X17342409Y-11077550D02*
X17351933Y-11058502D01*
X17351933Y-11058502D02*
X17370981Y-11029931D01*
X17370981Y-11029931D02*
X17380504Y-11020407D01*
X17437647Y-11048978D02*
X17570981Y-11048978D01*
X17570981Y-11048978D02*
X17485266Y-11248978D01*
X17656695Y-11248978D02*
X17694790Y-11248978D01*
X17694790Y-11248978D02*
X17713838Y-11239455D01*
X17713838Y-11239455D02*
X17723362Y-11229931D01*
X17723362Y-11229931D02*
X17742409Y-11201359D01*
X17742409Y-11201359D02*
X17751933Y-11163264D01*
X17751933Y-11163264D02*
X17751933Y-11087074D01*
X17751933Y-11087074D02*
X17742409Y-11068026D01*
X17742409Y-11068026D02*
X17732885Y-11058502D01*
X17732885Y-11058502D02*
X17713838Y-11048978D01*
X17713838Y-11048978D02*
X17675742Y-11048978D01*
X17675742Y-11048978D02*
X17656695Y-11058502D01*
X17656695Y-11058502D02*
X17647171Y-11068026D01*
X17647171Y-11068026D02*
X17637647Y-11087074D01*
X17637647Y-11087074D02*
X17637647Y-11134693D01*
X17637647Y-11134693D02*
X17647171Y-11153740D01*
X17647171Y-11153740D02*
X17656695Y-11163264D01*
X17656695Y-11163264D02*
X17675742Y-11172788D01*
X17675742Y-11172788D02*
X17713838Y-11172788D01*
X17713838Y-11172788D02*
X17732885Y-11163264D01*
X17732885Y-11163264D02*
X17742409Y-11153740D01*
X17742409Y-11153740D02*
X17751933Y-11134693D01*
X17990028Y-11248978D02*
X17990028Y-11048978D01*
X18075743Y-11248978D02*
X18075743Y-11144217D01*
X18075743Y-11144217D02*
X18066219Y-11125169D01*
X18066219Y-11125169D02*
X18047171Y-11115645D01*
X18047171Y-11115645D02*
X18018600Y-11115645D01*
X18018600Y-11115645D02*
X17999552Y-11125169D01*
X17999552Y-11125169D02*
X17990028Y-11134693D01*
X18199552Y-11248978D02*
X18180504Y-11239455D01*
X18180504Y-11239455D02*
X18170981Y-11229931D01*
X18170981Y-11229931D02*
X18161457Y-11210883D01*
X18161457Y-11210883D02*
X18161457Y-11153740D01*
X18161457Y-11153740D02*
X18170981Y-11134693D01*
X18170981Y-11134693D02*
X18180504Y-11125169D01*
X18180504Y-11125169D02*
X18199552Y-11115645D01*
X18199552Y-11115645D02*
X18228124Y-11115645D01*
X18228124Y-11115645D02*
X18247171Y-11125169D01*
X18247171Y-11125169D02*
X18256695Y-11134693D01*
X18256695Y-11134693D02*
X18266219Y-11153740D01*
X18266219Y-11153740D02*
X18266219Y-11210883D01*
X18266219Y-11210883D02*
X18256695Y-11229931D01*
X18256695Y-11229931D02*
X18247171Y-11239455D01*
X18247171Y-11239455D02*
X18228124Y-11248978D01*
X18228124Y-11248978D02*
X18199552Y-11248978D01*
X18380504Y-11248978D02*
X18361457Y-11239455D01*
X18361457Y-11239455D02*
X18351933Y-11220407D01*
X18351933Y-11220407D02*
X18351933Y-11048978D01*
X18532885Y-11239455D02*
X18513838Y-11248978D01*
X18513838Y-11248978D02*
X18475743Y-11248978D01*
X18475743Y-11248978D02*
X18456695Y-11239455D01*
X18456695Y-11239455D02*
X18447171Y-11220407D01*
X18447171Y-11220407D02*
X18447171Y-11144217D01*
X18447171Y-11144217D02*
X18456695Y-11125169D01*
X18456695Y-11125169D02*
X18475743Y-11115645D01*
X18475743Y-11115645D02*
X18513838Y-11115645D01*
X18513838Y-11115645D02*
X18532885Y-11125169D01*
X18532885Y-11125169D02*
X18542409Y-11144217D01*
X18542409Y-11144217D02*
X18542409Y-11163264D01*
X18542409Y-11163264D02*
X18447171Y-11182312D01*
X18618600Y-11239455D02*
X18637647Y-11248978D01*
X18637647Y-11248978D02*
X18675743Y-11248978D01*
X18675743Y-11248978D02*
X18694790Y-11239455D01*
X18694790Y-11239455D02*
X18704314Y-11220407D01*
X18704314Y-11220407D02*
X18704314Y-11210883D01*
X18704314Y-11210883D02*
X18694790Y-11191835D01*
X18694790Y-11191835D02*
X18675743Y-11182312D01*
X18675743Y-11182312D02*
X18647171Y-11182312D01*
X18647171Y-11182312D02*
X18628124Y-11172788D01*
X18628124Y-11172788D02*
X18618600Y-11153740D01*
X18618600Y-11153740D02*
X18618600Y-11144217D01*
X18618600Y-11144217D02*
X18628124Y-11125169D01*
X18628124Y-11125169D02*
X18647171Y-11115645D01*
X18647171Y-11115645D02*
X18675743Y-11115645D01*
X18675743Y-11115645D02*
X18694790Y-11125169D01*
X18770981Y-11325169D02*
X18780505Y-11315645D01*
X18780505Y-11315645D02*
X18799552Y-11287074D01*
X18799552Y-11287074D02*
X18809076Y-11268026D01*
X18809076Y-11268026D02*
X18818600Y-11239455D01*
X18818600Y-11239455D02*
X18828124Y-11191835D01*
X18828124Y-11191835D02*
X18828124Y-11153740D01*
X18828124Y-11153740D02*
X18818600Y-11106121D01*
X18818600Y-11106121D02*
X18809076Y-11077550D01*
X18809076Y-11077550D02*
X18799552Y-11058502D01*
X18799552Y-11058502D02*
X18780505Y-11029931D01*
X18780505Y-11029931D02*
X18770981Y-11020407D01*
D13*
X13805441Y-11421495D02*
G75*
G03*
X13805441Y-11421495I-40000J0D01*
G01*
D11*
X14104313Y-11312978D02*
X14123361Y-11312978D01*
X14123361Y-11312978D02*
X14142409Y-11322502D01*
X14142409Y-11322502D02*
X14151933Y-11332026D01*
X14151933Y-11332026D02*
X14161456Y-11351074D01*
X14161456Y-11351074D02*
X14170980Y-11389169D01*
X14170980Y-11389169D02*
X14170980Y-11436788D01*
X14170980Y-11436788D02*
X14161456Y-11474883D01*
X14161456Y-11474883D02*
X14151933Y-11493931D01*
X14151933Y-11493931D02*
X14142409Y-11503455D01*
X14142409Y-11503455D02*
X14123361Y-11512978D01*
X14123361Y-11512978D02*
X14104313Y-11512978D01*
X14104313Y-11512978D02*
X14085266Y-11503455D01*
X14085266Y-11503455D02*
X14075742Y-11493931D01*
X14075742Y-11493931D02*
X14066218Y-11474883D01*
X14066218Y-11474883D02*
X14056694Y-11436788D01*
X14056694Y-11436788D02*
X14056694Y-11389169D01*
X14056694Y-11389169D02*
X14066218Y-11351074D01*
X14066218Y-11351074D02*
X14075742Y-11332026D01*
X14075742Y-11332026D02*
X14085266Y-11322502D01*
X14085266Y-11322502D02*
X14104313Y-11312978D01*
X14256694Y-11493931D02*
X14266218Y-11503455D01*
X14266218Y-11503455D02*
X14256694Y-11512978D01*
X14256694Y-11512978D02*
X14247171Y-11503455D01*
X14247171Y-11503455D02*
X14256694Y-11493931D01*
X14256694Y-11493931D02*
X14256694Y-11512978D01*
X14380504Y-11398693D02*
X14361456Y-11389169D01*
X14361456Y-11389169D02*
X14351933Y-11379645D01*
X14351933Y-11379645D02*
X14342409Y-11360597D01*
X14342409Y-11360597D02*
X14342409Y-11351074D01*
X14342409Y-11351074D02*
X14351933Y-11332026D01*
X14351933Y-11332026D02*
X14361456Y-11322502D01*
X14361456Y-11322502D02*
X14380504Y-11312978D01*
X14380504Y-11312978D02*
X14418599Y-11312978D01*
X14418599Y-11312978D02*
X14437647Y-11322502D01*
X14437647Y-11322502D02*
X14447171Y-11332026D01*
X14447171Y-11332026D02*
X14456694Y-11351074D01*
X14456694Y-11351074D02*
X14456694Y-11360597D01*
X14456694Y-11360597D02*
X14447171Y-11379645D01*
X14447171Y-11379645D02*
X14437647Y-11389169D01*
X14437647Y-11389169D02*
X14418599Y-11398693D01*
X14418599Y-11398693D02*
X14380504Y-11398693D01*
X14380504Y-11398693D02*
X14361456Y-11408216D01*
X14361456Y-11408216D02*
X14351933Y-11417740D01*
X14351933Y-11417740D02*
X14342409Y-11436788D01*
X14342409Y-11436788D02*
X14342409Y-11474883D01*
X14342409Y-11474883D02*
X14351933Y-11493931D01*
X14351933Y-11493931D02*
X14361456Y-11503455D01*
X14361456Y-11503455D02*
X14380504Y-11512978D01*
X14380504Y-11512978D02*
X14418599Y-11512978D01*
X14418599Y-11512978D02*
X14437647Y-11503455D01*
X14437647Y-11503455D02*
X14447171Y-11493931D01*
X14447171Y-11493931D02*
X14456694Y-11474883D01*
X14456694Y-11474883D02*
X14456694Y-11436788D01*
X14456694Y-11436788D02*
X14447171Y-11417740D01*
X14447171Y-11417740D02*
X14437647Y-11408216D01*
X14437647Y-11408216D02*
X14418599Y-11398693D01*
X14580504Y-11312978D02*
X14599552Y-11312978D01*
X14599552Y-11312978D02*
X14618599Y-11322502D01*
X14618599Y-11322502D02*
X14628123Y-11332026D01*
X14628123Y-11332026D02*
X14637647Y-11351074D01*
X14637647Y-11351074D02*
X14647171Y-11389169D01*
X14647171Y-11389169D02*
X14647171Y-11436788D01*
X14647171Y-11436788D02*
X14637647Y-11474883D01*
X14637647Y-11474883D02*
X14628123Y-11493931D01*
X14628123Y-11493931D02*
X14618599Y-11503455D01*
X14618599Y-11503455D02*
X14599552Y-11512978D01*
X14599552Y-11512978D02*
X14580504Y-11512978D01*
X14580504Y-11512978D02*
X14561456Y-11503455D01*
X14561456Y-11503455D02*
X14551933Y-11493931D01*
X14551933Y-11493931D02*
X14542409Y-11474883D01*
X14542409Y-11474883D02*
X14532885Y-11436788D01*
X14532885Y-11436788D02*
X14532885Y-11389169D01*
X14532885Y-11389169D02*
X14542409Y-11351074D01*
X14542409Y-11351074D02*
X14551933Y-11332026D01*
X14551933Y-11332026D02*
X14561456Y-11322502D01*
X14561456Y-11322502D02*
X14580504Y-11312978D01*
X14770980Y-11312978D02*
X14790028Y-11312978D01*
X14790028Y-11312978D02*
X14809075Y-11322502D01*
X14809075Y-11322502D02*
X14818599Y-11332026D01*
X14818599Y-11332026D02*
X14828123Y-11351074D01*
X14828123Y-11351074D02*
X14837647Y-11389169D01*
X14837647Y-11389169D02*
X14837647Y-11436788D01*
X14837647Y-11436788D02*
X14828123Y-11474883D01*
X14828123Y-11474883D02*
X14818599Y-11493931D01*
X14818599Y-11493931D02*
X14809075Y-11503455D01*
X14809075Y-11503455D02*
X14790028Y-11512978D01*
X14790028Y-11512978D02*
X14770980Y-11512978D01*
X14770980Y-11512978D02*
X14751933Y-11503455D01*
X14751933Y-11503455D02*
X14742409Y-11493931D01*
X14742409Y-11493931D02*
X14732885Y-11474883D01*
X14732885Y-11474883D02*
X14723361Y-11436788D01*
X14723361Y-11436788D02*
X14723361Y-11389169D01*
X14723361Y-11389169D02*
X14732885Y-11351074D01*
X14732885Y-11351074D02*
X14742409Y-11332026D01*
X14742409Y-11332026D02*
X14751933Y-11322502D01*
X14751933Y-11322502D02*
X14770980Y-11312978D01*
X14923361Y-11512978D02*
X14923361Y-11379645D01*
X14923361Y-11398693D02*
X14932885Y-11389169D01*
X14932885Y-11389169D02*
X14951933Y-11379645D01*
X14951933Y-11379645D02*
X14980504Y-11379645D01*
X14980504Y-11379645D02*
X14999552Y-11389169D01*
X14999552Y-11389169D02*
X15009075Y-11408216D01*
X15009075Y-11408216D02*
X15009075Y-11512978D01*
X15009075Y-11408216D02*
X15018599Y-11389169D01*
X15018599Y-11389169D02*
X15037647Y-11379645D01*
X15037647Y-11379645D02*
X15066218Y-11379645D01*
X15066218Y-11379645D02*
X15085266Y-11389169D01*
X15085266Y-11389169D02*
X15094790Y-11408216D01*
X15094790Y-11408216D02*
X15094790Y-11512978D01*
X15190028Y-11512978D02*
X15190028Y-11379645D01*
X15190028Y-11398693D02*
X15199552Y-11389169D01*
X15199552Y-11389169D02*
X15218599Y-11379645D01*
X15218599Y-11379645D02*
X15247171Y-11379645D01*
X15247171Y-11379645D02*
X15266218Y-11389169D01*
X15266218Y-11389169D02*
X15275742Y-11408216D01*
X15275742Y-11408216D02*
X15275742Y-11512978D01*
X15275742Y-11408216D02*
X15285266Y-11389169D01*
X15285266Y-11389169D02*
X15304314Y-11379645D01*
X15304314Y-11379645D02*
X15332885Y-11379645D01*
X15332885Y-11379645D02*
X15351933Y-11389169D01*
X15351933Y-11389169D02*
X15361456Y-11408216D01*
X15361456Y-11408216D02*
X15361456Y-11512978D01*
X15751933Y-11303455D02*
X15580504Y-11560597D01*
X16009076Y-11312978D02*
X16028123Y-11312978D01*
X16028123Y-11312978D02*
X16047171Y-11322502D01*
X16047171Y-11322502D02*
X16056695Y-11332026D01*
X16056695Y-11332026D02*
X16066218Y-11351074D01*
X16066218Y-11351074D02*
X16075742Y-11389169D01*
X16075742Y-11389169D02*
X16075742Y-11436788D01*
X16075742Y-11436788D02*
X16066218Y-11474883D01*
X16066218Y-11474883D02*
X16056695Y-11493931D01*
X16056695Y-11493931D02*
X16047171Y-11503455D01*
X16047171Y-11503455D02*
X16028123Y-11512978D01*
X16028123Y-11512978D02*
X16009076Y-11512978D01*
X16009076Y-11512978D02*
X15990028Y-11503455D01*
X15990028Y-11503455D02*
X15980504Y-11493931D01*
X15980504Y-11493931D02*
X15970980Y-11474883D01*
X15970980Y-11474883D02*
X15961457Y-11436788D01*
X15961457Y-11436788D02*
X15961457Y-11389169D01*
X15961457Y-11389169D02*
X15970980Y-11351074D01*
X15970980Y-11351074D02*
X15980504Y-11332026D01*
X15980504Y-11332026D02*
X15990028Y-11322502D01*
X15990028Y-11322502D02*
X16009076Y-11312978D01*
X16161457Y-11493931D02*
X16170980Y-11503455D01*
X16170980Y-11503455D02*
X16161457Y-11512978D01*
X16161457Y-11512978D02*
X16151933Y-11503455D01*
X16151933Y-11503455D02*
X16161457Y-11493931D01*
X16161457Y-11493931D02*
X16161457Y-11512978D01*
X16294790Y-11312978D02*
X16313838Y-11312978D01*
X16313838Y-11312978D02*
X16332885Y-11322502D01*
X16332885Y-11322502D02*
X16342409Y-11332026D01*
X16342409Y-11332026D02*
X16351933Y-11351074D01*
X16351933Y-11351074D02*
X16361457Y-11389169D01*
X16361457Y-11389169D02*
X16361457Y-11436788D01*
X16361457Y-11436788D02*
X16351933Y-11474883D01*
X16351933Y-11474883D02*
X16342409Y-11493931D01*
X16342409Y-11493931D02*
X16332885Y-11503455D01*
X16332885Y-11503455D02*
X16313838Y-11512978D01*
X16313838Y-11512978D02*
X16294790Y-11512978D01*
X16294790Y-11512978D02*
X16275742Y-11503455D01*
X16275742Y-11503455D02*
X16266218Y-11493931D01*
X16266218Y-11493931D02*
X16256695Y-11474883D01*
X16256695Y-11474883D02*
X16247171Y-11436788D01*
X16247171Y-11436788D02*
X16247171Y-11389169D01*
X16247171Y-11389169D02*
X16256695Y-11351074D01*
X16256695Y-11351074D02*
X16266218Y-11332026D01*
X16266218Y-11332026D02*
X16275742Y-11322502D01*
X16275742Y-11322502D02*
X16294790Y-11312978D01*
X16428123Y-11312978D02*
X16551933Y-11312978D01*
X16551933Y-11312978D02*
X16485266Y-11389169D01*
X16485266Y-11389169D02*
X16513838Y-11389169D01*
X16513838Y-11389169D02*
X16532885Y-11398693D01*
X16532885Y-11398693D02*
X16542409Y-11408216D01*
X16542409Y-11408216D02*
X16551933Y-11427264D01*
X16551933Y-11427264D02*
X16551933Y-11474883D01*
X16551933Y-11474883D02*
X16542409Y-11493931D01*
X16542409Y-11493931D02*
X16532885Y-11503455D01*
X16532885Y-11503455D02*
X16513838Y-11512978D01*
X16513838Y-11512978D02*
X16456695Y-11512978D01*
X16456695Y-11512978D02*
X16437647Y-11503455D01*
X16437647Y-11503455D02*
X16428123Y-11493931D01*
X16742409Y-11512978D02*
X16628123Y-11512978D01*
X16685266Y-11512978D02*
X16685266Y-11312978D01*
X16685266Y-11312978D02*
X16666218Y-11341550D01*
X16666218Y-11341550D02*
X16647171Y-11360597D01*
X16647171Y-11360597D02*
X16628123Y-11370121D01*
X16923361Y-11312978D02*
X16828123Y-11312978D01*
X16828123Y-11312978D02*
X16818600Y-11408216D01*
X16818600Y-11408216D02*
X16828123Y-11398693D01*
X16828123Y-11398693D02*
X16847171Y-11389169D01*
X16847171Y-11389169D02*
X16894790Y-11389169D01*
X16894790Y-11389169D02*
X16913838Y-11398693D01*
X16913838Y-11398693D02*
X16923361Y-11408216D01*
X16923361Y-11408216D02*
X16932885Y-11427264D01*
X16932885Y-11427264D02*
X16932885Y-11474883D01*
X16932885Y-11474883D02*
X16923361Y-11493931D01*
X16923361Y-11493931D02*
X16913838Y-11503455D01*
X16913838Y-11503455D02*
X16894790Y-11512978D01*
X16894790Y-11512978D02*
X16847171Y-11512978D01*
X16847171Y-11512978D02*
X16828123Y-11503455D01*
X16828123Y-11503455D02*
X16818600Y-11493931D01*
X17009076Y-11312978D02*
X17009076Y-11351074D01*
X17085266Y-11312978D02*
X17085266Y-11351074D01*
X17380504Y-11589169D02*
X17370981Y-11579645D01*
X17370981Y-11579645D02*
X17351933Y-11551074D01*
X17351933Y-11551074D02*
X17342409Y-11532026D01*
X17342409Y-11532026D02*
X17332885Y-11503455D01*
X17332885Y-11503455D02*
X17323362Y-11455835D01*
X17323362Y-11455835D02*
X17323362Y-11417740D01*
X17323362Y-11417740D02*
X17332885Y-11370121D01*
X17332885Y-11370121D02*
X17342409Y-11341550D01*
X17342409Y-11341550D02*
X17351933Y-11322502D01*
X17351933Y-11322502D02*
X17370981Y-11293931D01*
X17370981Y-11293931D02*
X17380504Y-11284407D01*
X17542409Y-11379645D02*
X17542409Y-11512978D01*
X17494790Y-11303455D02*
X17447171Y-11446312D01*
X17447171Y-11446312D02*
X17570981Y-11446312D01*
X17799552Y-11512978D02*
X17799552Y-11312978D01*
X17885266Y-11512978D02*
X17885266Y-11408216D01*
X17885266Y-11408216D02*
X17875743Y-11389169D01*
X17875743Y-11389169D02*
X17856695Y-11379645D01*
X17856695Y-11379645D02*
X17828123Y-11379645D01*
X17828123Y-11379645D02*
X17809076Y-11389169D01*
X17809076Y-11389169D02*
X17799552Y-11398693D01*
X18009076Y-11512978D02*
X17990028Y-11503455D01*
X17990028Y-11503455D02*
X17980504Y-11493931D01*
X17980504Y-11493931D02*
X17970981Y-11474883D01*
X17970981Y-11474883D02*
X17970981Y-11417740D01*
X17970981Y-11417740D02*
X17980504Y-11398693D01*
X17980504Y-11398693D02*
X17990028Y-11389169D01*
X17990028Y-11389169D02*
X18009076Y-11379645D01*
X18009076Y-11379645D02*
X18037647Y-11379645D01*
X18037647Y-11379645D02*
X18056695Y-11389169D01*
X18056695Y-11389169D02*
X18066219Y-11398693D01*
X18066219Y-11398693D02*
X18075743Y-11417740D01*
X18075743Y-11417740D02*
X18075743Y-11474883D01*
X18075743Y-11474883D02*
X18066219Y-11493931D01*
X18066219Y-11493931D02*
X18056695Y-11503455D01*
X18056695Y-11503455D02*
X18037647Y-11512978D01*
X18037647Y-11512978D02*
X18009076Y-11512978D01*
X18190028Y-11512978D02*
X18170981Y-11503455D01*
X18170981Y-11503455D02*
X18161457Y-11484407D01*
X18161457Y-11484407D02*
X18161457Y-11312978D01*
X18342409Y-11503455D02*
X18323362Y-11512978D01*
X18323362Y-11512978D02*
X18285266Y-11512978D01*
X18285266Y-11512978D02*
X18266219Y-11503455D01*
X18266219Y-11503455D02*
X18256695Y-11484407D01*
X18256695Y-11484407D02*
X18256695Y-11408216D01*
X18256695Y-11408216D02*
X18266219Y-11389169D01*
X18266219Y-11389169D02*
X18285266Y-11379645D01*
X18285266Y-11379645D02*
X18323362Y-11379645D01*
X18323362Y-11379645D02*
X18342409Y-11389169D01*
X18342409Y-11389169D02*
X18351933Y-11408216D01*
X18351933Y-11408216D02*
X18351933Y-11427264D01*
X18351933Y-11427264D02*
X18256695Y-11446312D01*
X18428124Y-11503455D02*
X18447171Y-11512978D01*
X18447171Y-11512978D02*
X18485266Y-11512978D01*
X18485266Y-11512978D02*
X18504314Y-11503455D01*
X18504314Y-11503455D02*
X18513838Y-11484407D01*
X18513838Y-11484407D02*
X18513838Y-11474883D01*
X18513838Y-11474883D02*
X18504314Y-11455835D01*
X18504314Y-11455835D02*
X18485266Y-11446312D01*
X18485266Y-11446312D02*
X18456695Y-11446312D01*
X18456695Y-11446312D02*
X18437647Y-11436788D01*
X18437647Y-11436788D02*
X18428124Y-11417740D01*
X18428124Y-11417740D02*
X18428124Y-11408216D01*
X18428124Y-11408216D02*
X18437647Y-11389169D01*
X18437647Y-11389169D02*
X18456695Y-11379645D01*
X18456695Y-11379645D02*
X18485266Y-11379645D01*
X18485266Y-11379645D02*
X18504314Y-11389169D01*
X18580505Y-11589169D02*
X18590028Y-11579645D01*
X18590028Y-11579645D02*
X18609076Y-11551074D01*
X18609076Y-11551074D02*
X18618600Y-11532026D01*
X18618600Y-11532026D02*
X18628124Y-11503455D01*
X18628124Y-11503455D02*
X18637647Y-11455835D01*
X18637647Y-11455835D02*
X18637647Y-11417740D01*
X18637647Y-11417740D02*
X18628124Y-11370121D01*
X18628124Y-11370121D02*
X18618600Y-11341550D01*
X18618600Y-11341550D02*
X18609076Y-11322502D01*
X18609076Y-11322502D02*
X18590028Y-11293931D01*
X18590028Y-11293931D02*
X18580505Y-11284407D01*
D10*
X13755441Y-11635495D02*
X13755441Y-11735495D01*
X13705441Y-11685495D02*
X13805441Y-11685495D01*
D11*
X14170980Y-11776978D02*
X14056694Y-11776978D01*
X14113837Y-11776978D02*
X14113837Y-11576978D01*
X14113837Y-11576978D02*
X14094790Y-11605550D01*
X14094790Y-11605550D02*
X14075742Y-11624597D01*
X14075742Y-11624597D02*
X14056694Y-11634121D01*
X14256694Y-11757931D02*
X14266218Y-11767455D01*
X14266218Y-11767455D02*
X14256694Y-11776978D01*
X14256694Y-11776978D02*
X14247171Y-11767455D01*
X14247171Y-11767455D02*
X14256694Y-11757931D01*
X14256694Y-11757931D02*
X14256694Y-11776978D01*
X14390028Y-11576978D02*
X14409075Y-11576978D01*
X14409075Y-11576978D02*
X14428123Y-11586502D01*
X14428123Y-11586502D02*
X14437647Y-11596026D01*
X14437647Y-11596026D02*
X14447171Y-11615074D01*
X14447171Y-11615074D02*
X14456694Y-11653169D01*
X14456694Y-11653169D02*
X14456694Y-11700788D01*
X14456694Y-11700788D02*
X14447171Y-11738883D01*
X14447171Y-11738883D02*
X14437647Y-11757931D01*
X14437647Y-11757931D02*
X14428123Y-11767455D01*
X14428123Y-11767455D02*
X14409075Y-11776978D01*
X14409075Y-11776978D02*
X14390028Y-11776978D01*
X14390028Y-11776978D02*
X14370980Y-11767455D01*
X14370980Y-11767455D02*
X14361456Y-11757931D01*
X14361456Y-11757931D02*
X14351933Y-11738883D01*
X14351933Y-11738883D02*
X14342409Y-11700788D01*
X14342409Y-11700788D02*
X14342409Y-11653169D01*
X14342409Y-11653169D02*
X14351933Y-11615074D01*
X14351933Y-11615074D02*
X14361456Y-11596026D01*
X14361456Y-11596026D02*
X14370980Y-11586502D01*
X14370980Y-11586502D02*
X14390028Y-11576978D01*
X14580504Y-11576978D02*
X14599552Y-11576978D01*
X14599552Y-11576978D02*
X14618599Y-11586502D01*
X14618599Y-11586502D02*
X14628123Y-11596026D01*
X14628123Y-11596026D02*
X14637647Y-11615074D01*
X14637647Y-11615074D02*
X14647171Y-11653169D01*
X14647171Y-11653169D02*
X14647171Y-11700788D01*
X14647171Y-11700788D02*
X14637647Y-11738883D01*
X14637647Y-11738883D02*
X14628123Y-11757931D01*
X14628123Y-11757931D02*
X14618599Y-11767455D01*
X14618599Y-11767455D02*
X14599552Y-11776978D01*
X14599552Y-11776978D02*
X14580504Y-11776978D01*
X14580504Y-11776978D02*
X14561456Y-11767455D01*
X14561456Y-11767455D02*
X14551933Y-11757931D01*
X14551933Y-11757931D02*
X14542409Y-11738883D01*
X14542409Y-11738883D02*
X14532885Y-11700788D01*
X14532885Y-11700788D02*
X14532885Y-11653169D01*
X14532885Y-11653169D02*
X14542409Y-11615074D01*
X14542409Y-11615074D02*
X14551933Y-11596026D01*
X14551933Y-11596026D02*
X14561456Y-11586502D01*
X14561456Y-11586502D02*
X14580504Y-11576978D01*
X14770980Y-11576978D02*
X14790028Y-11576978D01*
X14790028Y-11576978D02*
X14809075Y-11586502D01*
X14809075Y-11586502D02*
X14818599Y-11596026D01*
X14818599Y-11596026D02*
X14828123Y-11615074D01*
X14828123Y-11615074D02*
X14837647Y-11653169D01*
X14837647Y-11653169D02*
X14837647Y-11700788D01*
X14837647Y-11700788D02*
X14828123Y-11738883D01*
X14828123Y-11738883D02*
X14818599Y-11757931D01*
X14818599Y-11757931D02*
X14809075Y-11767455D01*
X14809075Y-11767455D02*
X14790028Y-11776978D01*
X14790028Y-11776978D02*
X14770980Y-11776978D01*
X14770980Y-11776978D02*
X14751933Y-11767455D01*
X14751933Y-11767455D02*
X14742409Y-11757931D01*
X14742409Y-11757931D02*
X14732885Y-11738883D01*
X14732885Y-11738883D02*
X14723361Y-11700788D01*
X14723361Y-11700788D02*
X14723361Y-11653169D01*
X14723361Y-11653169D02*
X14732885Y-11615074D01*
X14732885Y-11615074D02*
X14742409Y-11596026D01*
X14742409Y-11596026D02*
X14751933Y-11586502D01*
X14751933Y-11586502D02*
X14770980Y-11576978D01*
X14923361Y-11776978D02*
X14923361Y-11643645D01*
X14923361Y-11662693D02*
X14932885Y-11653169D01*
X14932885Y-11653169D02*
X14951933Y-11643645D01*
X14951933Y-11643645D02*
X14980504Y-11643645D01*
X14980504Y-11643645D02*
X14999552Y-11653169D01*
X14999552Y-11653169D02*
X15009075Y-11672216D01*
X15009075Y-11672216D02*
X15009075Y-11776978D01*
X15009075Y-11672216D02*
X15018599Y-11653169D01*
X15018599Y-11653169D02*
X15037647Y-11643645D01*
X15037647Y-11643645D02*
X15066218Y-11643645D01*
X15066218Y-11643645D02*
X15085266Y-11653169D01*
X15085266Y-11653169D02*
X15094790Y-11672216D01*
X15094790Y-11672216D02*
X15094790Y-11776978D01*
X15190028Y-11776978D02*
X15190028Y-11643645D01*
X15190028Y-11662693D02*
X15199552Y-11653169D01*
X15199552Y-11653169D02*
X15218599Y-11643645D01*
X15218599Y-11643645D02*
X15247171Y-11643645D01*
X15247171Y-11643645D02*
X15266218Y-11653169D01*
X15266218Y-11653169D02*
X15275742Y-11672216D01*
X15275742Y-11672216D02*
X15275742Y-11776978D01*
X15275742Y-11672216D02*
X15285266Y-11653169D01*
X15285266Y-11653169D02*
X15304314Y-11643645D01*
X15304314Y-11643645D02*
X15332885Y-11643645D01*
X15332885Y-11643645D02*
X15351933Y-11653169D01*
X15351933Y-11653169D02*
X15361456Y-11672216D01*
X15361456Y-11672216D02*
X15361456Y-11776978D01*
X15751933Y-11567455D02*
X15580504Y-11824597D01*
X16009076Y-11576978D02*
X16028123Y-11576978D01*
X16028123Y-11576978D02*
X16047171Y-11586502D01*
X16047171Y-11586502D02*
X16056695Y-11596026D01*
X16056695Y-11596026D02*
X16066218Y-11615074D01*
X16066218Y-11615074D02*
X16075742Y-11653169D01*
X16075742Y-11653169D02*
X16075742Y-11700788D01*
X16075742Y-11700788D02*
X16066218Y-11738883D01*
X16066218Y-11738883D02*
X16056695Y-11757931D01*
X16056695Y-11757931D02*
X16047171Y-11767455D01*
X16047171Y-11767455D02*
X16028123Y-11776978D01*
X16028123Y-11776978D02*
X16009076Y-11776978D01*
X16009076Y-11776978D02*
X15990028Y-11767455D01*
X15990028Y-11767455D02*
X15980504Y-11757931D01*
X15980504Y-11757931D02*
X15970980Y-11738883D01*
X15970980Y-11738883D02*
X15961457Y-11700788D01*
X15961457Y-11700788D02*
X15961457Y-11653169D01*
X15961457Y-11653169D02*
X15970980Y-11615074D01*
X15970980Y-11615074D02*
X15980504Y-11596026D01*
X15980504Y-11596026D02*
X15990028Y-11586502D01*
X15990028Y-11586502D02*
X16009076Y-11576978D01*
X16161457Y-11757931D02*
X16170980Y-11767455D01*
X16170980Y-11767455D02*
X16161457Y-11776978D01*
X16161457Y-11776978D02*
X16151933Y-11767455D01*
X16151933Y-11767455D02*
X16161457Y-11757931D01*
X16161457Y-11757931D02*
X16161457Y-11776978D01*
X16294790Y-11576978D02*
X16313838Y-11576978D01*
X16313838Y-11576978D02*
X16332885Y-11586502D01*
X16332885Y-11586502D02*
X16342409Y-11596026D01*
X16342409Y-11596026D02*
X16351933Y-11615074D01*
X16351933Y-11615074D02*
X16361457Y-11653169D01*
X16361457Y-11653169D02*
X16361457Y-11700788D01*
X16361457Y-11700788D02*
X16351933Y-11738883D01*
X16351933Y-11738883D02*
X16342409Y-11757931D01*
X16342409Y-11757931D02*
X16332885Y-11767455D01*
X16332885Y-11767455D02*
X16313838Y-11776978D01*
X16313838Y-11776978D02*
X16294790Y-11776978D01*
X16294790Y-11776978D02*
X16275742Y-11767455D01*
X16275742Y-11767455D02*
X16266218Y-11757931D01*
X16266218Y-11757931D02*
X16256695Y-11738883D01*
X16256695Y-11738883D02*
X16247171Y-11700788D01*
X16247171Y-11700788D02*
X16247171Y-11653169D01*
X16247171Y-11653169D02*
X16256695Y-11615074D01*
X16256695Y-11615074D02*
X16266218Y-11596026D01*
X16266218Y-11596026D02*
X16275742Y-11586502D01*
X16275742Y-11586502D02*
X16294790Y-11576978D01*
X16428123Y-11576978D02*
X16551933Y-11576978D01*
X16551933Y-11576978D02*
X16485266Y-11653169D01*
X16485266Y-11653169D02*
X16513838Y-11653169D01*
X16513838Y-11653169D02*
X16532885Y-11662693D01*
X16532885Y-11662693D02*
X16542409Y-11672216D01*
X16542409Y-11672216D02*
X16551933Y-11691264D01*
X16551933Y-11691264D02*
X16551933Y-11738883D01*
X16551933Y-11738883D02*
X16542409Y-11757931D01*
X16542409Y-11757931D02*
X16532885Y-11767455D01*
X16532885Y-11767455D02*
X16513838Y-11776978D01*
X16513838Y-11776978D02*
X16456695Y-11776978D01*
X16456695Y-11776978D02*
X16437647Y-11767455D01*
X16437647Y-11767455D02*
X16428123Y-11757931D01*
X16647171Y-11776978D02*
X16685266Y-11776978D01*
X16685266Y-11776978D02*
X16704314Y-11767455D01*
X16704314Y-11767455D02*
X16713838Y-11757931D01*
X16713838Y-11757931D02*
X16732885Y-11729359D01*
X16732885Y-11729359D02*
X16742409Y-11691264D01*
X16742409Y-11691264D02*
X16742409Y-11615074D01*
X16742409Y-11615074D02*
X16732885Y-11596026D01*
X16732885Y-11596026D02*
X16723361Y-11586502D01*
X16723361Y-11586502D02*
X16704314Y-11576978D01*
X16704314Y-11576978D02*
X16666218Y-11576978D01*
X16666218Y-11576978D02*
X16647171Y-11586502D01*
X16647171Y-11586502D02*
X16637647Y-11596026D01*
X16637647Y-11596026D02*
X16628123Y-11615074D01*
X16628123Y-11615074D02*
X16628123Y-11662693D01*
X16628123Y-11662693D02*
X16637647Y-11681740D01*
X16637647Y-11681740D02*
X16647171Y-11691264D01*
X16647171Y-11691264D02*
X16666218Y-11700788D01*
X16666218Y-11700788D02*
X16704314Y-11700788D01*
X16704314Y-11700788D02*
X16723361Y-11691264D01*
X16723361Y-11691264D02*
X16732885Y-11681740D01*
X16732885Y-11681740D02*
X16742409Y-11662693D01*
X16913838Y-11643645D02*
X16913838Y-11776978D01*
X16866219Y-11567455D02*
X16818600Y-11710312D01*
X16818600Y-11710312D02*
X16942409Y-11710312D01*
X17009076Y-11576978D02*
X17009076Y-11615074D01*
X17085266Y-11576978D02*
X17085266Y-11615074D01*
X17380504Y-11853169D02*
X17370981Y-11843645D01*
X17370981Y-11843645D02*
X17351933Y-11815074D01*
X17351933Y-11815074D02*
X17342409Y-11796026D01*
X17342409Y-11796026D02*
X17332885Y-11767455D01*
X17332885Y-11767455D02*
X17323362Y-11719835D01*
X17323362Y-11719835D02*
X17323362Y-11681740D01*
X17323362Y-11681740D02*
X17332885Y-11634121D01*
X17332885Y-11634121D02*
X17342409Y-11605550D01*
X17342409Y-11605550D02*
X17351933Y-11586502D01*
X17351933Y-11586502D02*
X17370981Y-11557931D01*
X17370981Y-11557931D02*
X17380504Y-11548407D01*
X17447171Y-11596026D02*
X17456695Y-11586502D01*
X17456695Y-11586502D02*
X17475742Y-11576978D01*
X17475742Y-11576978D02*
X17523362Y-11576978D01*
X17523362Y-11576978D02*
X17542409Y-11586502D01*
X17542409Y-11586502D02*
X17551933Y-11596026D01*
X17551933Y-11596026D02*
X17561457Y-11615074D01*
X17561457Y-11615074D02*
X17561457Y-11634121D01*
X17561457Y-11634121D02*
X17551933Y-11662693D01*
X17551933Y-11662693D02*
X17437647Y-11776978D01*
X17437647Y-11776978D02*
X17561457Y-11776978D01*
X17799552Y-11776978D02*
X17799552Y-11576978D01*
X17885266Y-11776978D02*
X17885266Y-11672216D01*
X17885266Y-11672216D02*
X17875743Y-11653169D01*
X17875743Y-11653169D02*
X17856695Y-11643645D01*
X17856695Y-11643645D02*
X17828123Y-11643645D01*
X17828123Y-11643645D02*
X17809076Y-11653169D01*
X17809076Y-11653169D02*
X17799552Y-11662693D01*
X18009076Y-11776978D02*
X17990028Y-11767455D01*
X17990028Y-11767455D02*
X17980504Y-11757931D01*
X17980504Y-11757931D02*
X17970981Y-11738883D01*
X17970981Y-11738883D02*
X17970981Y-11681740D01*
X17970981Y-11681740D02*
X17980504Y-11662693D01*
X17980504Y-11662693D02*
X17990028Y-11653169D01*
X17990028Y-11653169D02*
X18009076Y-11643645D01*
X18009076Y-11643645D02*
X18037647Y-11643645D01*
X18037647Y-11643645D02*
X18056695Y-11653169D01*
X18056695Y-11653169D02*
X18066219Y-11662693D01*
X18066219Y-11662693D02*
X18075743Y-11681740D01*
X18075743Y-11681740D02*
X18075743Y-11738883D01*
X18075743Y-11738883D02*
X18066219Y-11757931D01*
X18066219Y-11757931D02*
X18056695Y-11767455D01*
X18056695Y-11767455D02*
X18037647Y-11776978D01*
X18037647Y-11776978D02*
X18009076Y-11776978D01*
X18190028Y-11776978D02*
X18170981Y-11767455D01*
X18170981Y-11767455D02*
X18161457Y-11748407D01*
X18161457Y-11748407D02*
X18161457Y-11576978D01*
X18342409Y-11767455D02*
X18323362Y-11776978D01*
X18323362Y-11776978D02*
X18285266Y-11776978D01*
X18285266Y-11776978D02*
X18266219Y-11767455D01*
X18266219Y-11767455D02*
X18256695Y-11748407D01*
X18256695Y-11748407D02*
X18256695Y-11672216D01*
X18256695Y-11672216D02*
X18266219Y-11653169D01*
X18266219Y-11653169D02*
X18285266Y-11643645D01*
X18285266Y-11643645D02*
X18323362Y-11643645D01*
X18323362Y-11643645D02*
X18342409Y-11653169D01*
X18342409Y-11653169D02*
X18351933Y-11672216D01*
X18351933Y-11672216D02*
X18351933Y-11691264D01*
X18351933Y-11691264D02*
X18256695Y-11710312D01*
X18428124Y-11767455D02*
X18447171Y-11776978D01*
X18447171Y-11776978D02*
X18485266Y-11776978D01*
X18485266Y-11776978D02*
X18504314Y-11767455D01*
X18504314Y-11767455D02*
X18513838Y-11748407D01*
X18513838Y-11748407D02*
X18513838Y-11738883D01*
X18513838Y-11738883D02*
X18504314Y-11719835D01*
X18504314Y-11719835D02*
X18485266Y-11710312D01*
X18485266Y-11710312D02*
X18456695Y-11710312D01*
X18456695Y-11710312D02*
X18437647Y-11700788D01*
X18437647Y-11700788D02*
X18428124Y-11681740D01*
X18428124Y-11681740D02*
X18428124Y-11672216D01*
X18428124Y-11672216D02*
X18437647Y-11653169D01*
X18437647Y-11653169D02*
X18456695Y-11643645D01*
X18456695Y-11643645D02*
X18485266Y-11643645D01*
X18485266Y-11643645D02*
X18504314Y-11653169D01*
X18580505Y-11853169D02*
X18590028Y-11843645D01*
X18590028Y-11843645D02*
X18609076Y-11815074D01*
X18609076Y-11815074D02*
X18618600Y-11796026D01*
X18618600Y-11796026D02*
X18628124Y-11767455D01*
X18628124Y-11767455D02*
X18637647Y-11719835D01*
X18637647Y-11719835D02*
X18637647Y-11681740D01*
X18637647Y-11681740D02*
X18628124Y-11634121D01*
X18628124Y-11634121D02*
X18618600Y-11605550D01*
X18618600Y-11605550D02*
X18609076Y-11586502D01*
X18609076Y-11586502D02*
X18590028Y-11557931D01*
X18590028Y-11557931D02*
X18580505Y-11548407D01*
M02*
