%TF.GenerationSoftware,KiCad,Pcbnew,7.0.7*%
%TF.CreationDate,2023-09-20T12:31:10+02:00*%
%TF.ProjectId,Window_EMP_monitor_59_4x23_5x1.6mm,57696e64-6f77-45f4-954d-505f6d6f6e69,rev?*%
%TF.SameCoordinates,Original*%
%TF.FileFunction,Paste,Top*%
%TF.FilePolarity,Positive*%
%FSLAX46Y46*%
G04 Gerber Fmt 4.6, Leading zero omitted, Abs format (unit mm)*
G04 Created by KiCad (PCBNEW 7.0.7) date 2023-09-20 12:31:10*
%MOMM*%
%LPD*%
G01*
G04 APERTURE LIST*
G04 Aperture macros list*
%AMRoundRect*
0 Rectangle with rounded corners*
0 $1 Rounding radius*
0 $2 $3 $4 $5 $6 $7 $8 $9 X,Y pos of 4 corners*
0 Add a 4 corners polygon primitive as box body*
4,1,4,$2,$3,$4,$5,$6,$7,$8,$9,$2,$3,0*
0 Add four circle primitives for the rounded corners*
1,1,$1+$1,$2,$3*
1,1,$1+$1,$4,$5*
1,1,$1+$1,$6,$7*
1,1,$1+$1,$8,$9*
0 Add four rect primitives between the rounded corners*
20,1,$1+$1,$2,$3,$4,$5,0*
20,1,$1+$1,$4,$5,$6,$7,0*
20,1,$1+$1,$6,$7,$8,$9,0*
20,1,$1+$1,$8,$9,$2,$3,0*%
G04 Aperture macros list end*
%ADD10C,0.010000*%
%ADD11RoundRect,0.250000X-0.787500X-1.025000X0.787500X-1.025000X0.787500X1.025000X-0.787500X1.025000X0*%
%ADD12RoundRect,0.200000X-0.275000X0.200000X-0.275000X-0.200000X0.275000X-0.200000X0.275000X0.200000X0*%
%ADD13RoundRect,0.200000X-0.200000X-0.275000X0.200000X-0.275000X0.200000X0.275000X-0.200000X0.275000X0*%
%ADD14RoundRect,0.200000X0.275000X-0.200000X0.275000X0.200000X-0.275000X0.200000X-0.275000X-0.200000X0*%
%ADD15RoundRect,0.225000X0.225000X0.250000X-0.225000X0.250000X-0.225000X-0.250000X0.225000X-0.250000X0*%
%ADD16RoundRect,0.250000X0.625000X-0.375000X0.625000X0.375000X-0.625000X0.375000X-0.625000X-0.375000X0*%
%ADD17RoundRect,0.150000X0.625000X-0.150000X0.625000X0.150000X-0.625000X0.150000X-0.625000X-0.150000X0*%
%ADD18RoundRect,0.250000X0.650000X-0.350000X0.650000X0.350000X-0.650000X0.350000X-0.650000X-0.350000X0*%
%ADD19R,1.400000X2.100000*%
%ADD20RoundRect,0.250000X-0.475000X0.250000X-0.475000X-0.250000X0.475000X-0.250000X0.475000X0.250000X0*%
%ADD21RoundRect,0.250000X1.025000X-0.787500X1.025000X0.787500X-1.025000X0.787500X-1.025000X-0.787500X0*%
%ADD22RoundRect,0.225000X0.250000X-0.225000X0.250000X0.225000X-0.250000X0.225000X-0.250000X-0.225000X0*%
%ADD23RoundRect,0.225000X-0.250000X0.225000X-0.250000X-0.225000X0.250000X-0.225000X0.250000X0.225000X0*%
%ADD24RoundRect,0.225000X-0.225000X-0.250000X0.225000X-0.250000X0.225000X0.250000X-0.225000X0.250000X0*%
%ADD25RoundRect,0.218750X-0.381250X0.218750X-0.381250X-0.218750X0.381250X-0.218750X0.381250X0.218750X0*%
%ADD26RoundRect,0.250000X0.250000X0.475000X-0.250000X0.475000X-0.250000X-0.475000X0.250000X-0.475000X0*%
%ADD27R,1.200000X1.400000*%
%ADD28R,0.350000X0.580000*%
%ADD29R,0.580000X0.350000*%
%ADD30RoundRect,0.041300X-0.948700X-0.253700X0.948700X-0.253700X0.948700X0.253700X-0.948700X0.253700X0*%
%ADD31RoundRect,0.098350X-0.604150X-1.437900X0.604150X-1.437900X0.604150X1.437900X-0.604150X1.437900X0*%
%ADD32RoundRect,0.250000X-0.375000X-0.625000X0.375000X-0.625000X0.375000X0.625000X-0.375000X0.625000X0*%
%ADD33RoundRect,0.250000X-0.337500X-0.475000X0.337500X-0.475000X0.337500X0.475000X-0.337500X0.475000X0*%
%ADD34RoundRect,0.250000X0.375000X1.075000X-0.375000X1.075000X-0.375000X-1.075000X0.375000X-1.075000X0*%
%ADD35RoundRect,0.250000X-0.315000X0.315000X-0.315000X-0.315000X0.315000X-0.315000X0.315000X0.315000X0*%
%ADD36RoundRect,0.050000X-0.050000X0.387500X-0.050000X-0.387500X0.050000X-0.387500X0.050000X0.387500X0*%
%ADD37RoundRect,0.050000X-0.387500X0.050000X-0.387500X-0.050000X0.387500X-0.050000X0.387500X0.050000X0*%
%ADD38RoundRect,0.250000X0.337500X0.475000X-0.337500X0.475000X-0.337500X-0.475000X0.337500X-0.475000X0*%
%ADD39RoundRect,0.250000X-0.450000X0.350000X-0.450000X-0.350000X0.450000X-0.350000X0.450000X0.350000X0*%
%ADD40RoundRect,0.200000X0.200000X0.275000X-0.200000X0.275000X-0.200000X-0.275000X0.200000X-0.275000X0*%
%ADD41RoundRect,0.250000X-0.450000X0.262500X-0.450000X-0.262500X0.450000X-0.262500X0.450000X0.262500X0*%
%ADD42R,0.420000X0.840000*%
%ADD43RoundRect,0.037100X-0.227900X0.317900X-0.227900X-0.317900X0.227900X-0.317900X0.227900X0.317900X0*%
%ADD44RoundRect,0.124800X-0.275200X0.475200X-0.275200X-0.475200X0.275200X-0.475200X0.275200X0.475200X0*%
%ADD45RoundRect,0.250001X-0.462499X-0.624999X0.462499X-0.624999X0.462499X0.624999X-0.462499X0.624999X0*%
%ADD46RoundRect,0.150000X0.587500X0.150000X-0.587500X0.150000X-0.587500X-0.150000X0.587500X-0.150000X0*%
G04 APERTURE END LIST*
%TO.C,U1*%
D10*
X171875000Y-99263650D02*
X171623360Y-99263650D01*
X171623360Y-98385000D01*
X171875000Y-98385000D01*
X171875000Y-99263650D01*
G36*
X171875000Y-99263650D02*
G01*
X171623360Y-99263650D01*
X171623360Y-98385000D01*
X171875000Y-98385000D01*
X171875000Y-99263650D01*
G37*
X171875000Y-95134420D02*
X171624600Y-95134420D01*
X171624600Y-94260000D01*
X171875000Y-94260000D01*
X171875000Y-95134420D01*
G36*
X171875000Y-95134420D02*
G01*
X171624600Y-95134420D01*
X171624600Y-94260000D01*
X171875000Y-94260000D01*
X171875000Y-95134420D01*
G37*
X172375000Y-99261600D02*
X172124601Y-99261600D01*
X172124601Y-98385000D01*
X172375000Y-98385000D01*
X172375000Y-99261600D01*
G36*
X172375000Y-99261600D02*
G01*
X172124601Y-99261600D01*
X172124601Y-98385000D01*
X172375000Y-98385000D01*
X172375000Y-99261600D01*
G37*
X172375000Y-95134550D02*
X172124827Y-95134550D01*
X172124827Y-94260000D01*
X172375000Y-94260000D01*
X172375000Y-95134550D01*
G36*
X172375000Y-95134550D02*
G01*
X172124827Y-95134550D01*
X172124827Y-94260000D01*
X172375000Y-94260000D01*
X172375000Y-95134550D01*
G37*
X172875000Y-95133810D02*
X172624908Y-95133810D01*
X172624908Y-94260000D01*
X172875000Y-94260000D01*
X172875000Y-95133810D01*
G36*
X172875000Y-95133810D02*
G01*
X172624908Y-95133810D01*
X172624908Y-94260000D01*
X172875000Y-94260000D01*
X172875000Y-95133810D01*
G37*
X172875000Y-99260320D02*
X172624984Y-99260320D01*
X172624984Y-98385000D01*
X172875000Y-98385000D01*
X172875000Y-99260320D01*
G36*
X172875000Y-99260320D02*
G01*
X172624984Y-99260320D01*
X172624984Y-98385000D01*
X172875000Y-98385000D01*
X172875000Y-99260320D01*
G37*
X173375000Y-95132750D02*
X173125520Y-95132750D01*
X173125520Y-94260000D01*
X173375000Y-94260000D01*
X173375000Y-95132750D01*
G36*
X173375000Y-95132750D02*
G01*
X173125520Y-95132750D01*
X173125520Y-94260000D01*
X173375000Y-94260000D01*
X173375000Y-95132750D01*
G37*
X173375000Y-99263750D02*
X173125563Y-99263750D01*
X173125563Y-98385000D01*
X173375000Y-98385000D01*
X173375000Y-99263750D01*
G36*
X173375000Y-99263750D02*
G01*
X173125563Y-99263750D01*
X173125563Y-98385000D01*
X173375000Y-98385000D01*
X173375000Y-99263750D01*
G37*
X173875000Y-99260530D02*
X173625185Y-99260530D01*
X173625185Y-98385000D01*
X173875000Y-98385000D01*
X173875000Y-99260530D01*
G36*
X173875000Y-99260530D02*
G01*
X173625185Y-99260530D01*
X173625185Y-98385000D01*
X173875000Y-98385000D01*
X173875000Y-99260530D01*
G37*
X173875000Y-95134460D02*
X173625290Y-95134460D01*
X173625290Y-94260000D01*
X173875000Y-94260000D01*
X173875000Y-95134460D01*
G36*
X173875000Y-95134460D02*
G01*
X173625290Y-95134460D01*
X173625290Y-94260000D01*
X173875000Y-94260000D01*
X173875000Y-95134460D01*
G37*
%TO.C,AUR1*%
X141270569Y-90500966D02*
X139689431Y-90500966D01*
X139689431Y-89489034D01*
X141270569Y-89489034D01*
X141270569Y-90500966D01*
G36*
X141270569Y-90500966D02*
G01*
X139689431Y-90500966D01*
X139689431Y-89489034D01*
X141270569Y-89489034D01*
X141270569Y-90500966D01*
G37*
%TD*%
D11*
%TO.C,probeC2*%
X188610000Y-102710000D03*
X194835000Y-102710000D03*
%TD*%
D12*
%TO.C,ER1*%
X154150000Y-89425000D03*
X154150000Y-91075000D03*
%TD*%
D13*
%TO.C,BAT_SENSE_R2*%
X148345000Y-102560000D03*
X149995000Y-102560000D03*
%TD*%
D14*
%TO.C,ER3*%
X163580000Y-98455000D03*
X163580000Y-96805000D03*
%TD*%
D15*
%TO.C,EC2*%
X163495000Y-90990000D03*
X161945000Y-90990000D03*
%TD*%
D16*
%TO.C,DMPprobeSS12_2*%
X189620000Y-85890000D03*
X189620000Y-83090000D03*
%TD*%
D17*
%TO.C,SHJ1*%
X192490000Y-95670000D03*
X192490000Y-94670000D03*
D18*
X196365000Y-96970000D03*
X196365000Y-93370000D03*
%TD*%
D19*
%TO.C,ANT1*%
X158599500Y-83340000D03*
X149099500Y-83340000D03*
%TD*%
D20*
%TO.C,EC7*%
X150830000Y-88910000D03*
X150830000Y-90810000D03*
%TD*%
D21*
%TO.C,probeC1*%
X193640000Y-89545000D03*
X193640000Y-83320000D03*
%TD*%
D22*
%TO.C,EC10*%
X158920000Y-91095000D03*
X158920000Y-89545000D03*
%TD*%
D23*
%TO.C,EC6*%
X155650000Y-89555000D03*
X155650000Y-91105000D03*
%TD*%
D24*
%TO.C,EC14*%
X148125000Y-96770000D03*
X149675000Y-96770000D03*
%TD*%
D25*
%TO.C,L1*%
X157280000Y-88987500D03*
X157280000Y-91112500D03*
%TD*%
D26*
%TO.C,EC3*%
X163770000Y-89060000D03*
X161870000Y-89060000D03*
%TD*%
D24*
%TO.C,EC13*%
X167115000Y-92520000D03*
X168665000Y-92520000D03*
%TD*%
D13*
%TO.C,BAT_SENSE_R1*%
X147895000Y-104390000D03*
X149545000Y-104390000D03*
%TD*%
%TO.C,I2C_SCL_R2*%
X177125000Y-83110000D03*
X178775000Y-83110000D03*
%TD*%
D27*
%TO.C,ECY1*%
X147670000Y-92670000D03*
X147670000Y-94870000D03*
X149370000Y-94870000D03*
X149370000Y-92670000D03*
%TD*%
D28*
%TO.C,IMU1*%
X169270000Y-96020000D03*
X168770000Y-96020000D03*
X168270000Y-96020000D03*
X167770000Y-96020000D03*
D29*
X167595000Y-96695000D03*
X167595000Y-97195000D03*
X167595000Y-97695000D03*
D28*
X167770000Y-98370000D03*
X168270000Y-98370000D03*
X168770000Y-98370000D03*
X169270000Y-98370000D03*
D29*
X169445000Y-97695000D03*
X169445000Y-97195000D03*
X169445000Y-96695000D03*
%TD*%
D30*
%TO.C,U5*%
X169920000Y-87040000D03*
X169920000Y-88310000D03*
X169920000Y-89580000D03*
X169920000Y-90850000D03*
X174860000Y-90850000D03*
X174860000Y-89580000D03*
X174860000Y-88310000D03*
X174860000Y-87040000D03*
D31*
X172460000Y-88895000D03*
%TD*%
D32*
%TO.C,probeSS12_4*%
X183200000Y-101960000D03*
X186000000Y-101960000D03*
%TD*%
D33*
%TO.C,AUR_C2*%
X139672500Y-93520000D03*
X141747500Y-93520000D03*
%TD*%
D24*
%TO.C,EC9*%
X161685000Y-86750000D03*
X163235000Y-86750000D03*
%TD*%
D32*
%TO.C,probeSS12_3*%
X186950000Y-99010000D03*
X189750000Y-99010000D03*
%TD*%
D22*
%TO.C,EC15*%
X165450000Y-90805000D03*
X165450000Y-89255000D03*
%TD*%
D34*
%TO.C,AUR_l1*%
X143520000Y-85600000D03*
X140720000Y-85600000D03*
%TD*%
D35*
%TO.C,ESP32S1*%
X158770000Y-96880000D03*
X157370000Y-96880000D03*
X155970000Y-96880000D03*
X154570000Y-96880000D03*
X158770000Y-98280000D03*
X157370000Y-98280000D03*
X155970000Y-98280000D03*
X154570000Y-98280000D03*
X158770000Y-99680000D03*
X157370000Y-99680000D03*
X155970000Y-99680000D03*
X154570000Y-99680000D03*
X158770000Y-101080000D03*
X157370000Y-101080000D03*
X155970000Y-101080000D03*
X154570000Y-101080000D03*
D36*
X159270000Y-95542500D03*
X158870000Y-95542500D03*
X158470000Y-95542500D03*
X158070000Y-95542500D03*
X157670000Y-95542500D03*
X157270000Y-95542500D03*
X156870000Y-95542500D03*
X156470000Y-95542500D03*
X156070000Y-95542500D03*
X155670000Y-95542500D03*
X155270000Y-95542500D03*
X154870000Y-95542500D03*
X154470000Y-95542500D03*
X154070000Y-95542500D03*
D37*
X153232500Y-96380000D03*
X153232500Y-96780000D03*
X153232500Y-97180000D03*
X153232500Y-97580000D03*
X153232500Y-97980000D03*
X153232500Y-98380000D03*
X153232500Y-98780000D03*
X153232500Y-99180000D03*
X153232500Y-99580000D03*
X153232500Y-99980000D03*
X153232500Y-100380000D03*
X153232500Y-100780000D03*
X153232500Y-101180000D03*
X153232500Y-101580000D03*
D36*
X154070000Y-102417500D03*
X154470000Y-102417500D03*
X154870000Y-102417500D03*
X155270000Y-102417500D03*
X155670000Y-102417500D03*
X156070000Y-102417500D03*
X156470000Y-102417500D03*
X156870000Y-102417500D03*
X157270000Y-102417500D03*
X157670000Y-102417500D03*
X158070000Y-102417500D03*
X158470000Y-102417500D03*
X158870000Y-102417500D03*
X159270000Y-102417500D03*
D37*
X160107500Y-101580000D03*
X160107500Y-101180000D03*
X160107500Y-100780000D03*
X160107500Y-100380000D03*
X160107500Y-99980000D03*
X160107500Y-99580000D03*
X160107500Y-99180000D03*
X160107500Y-98780000D03*
X160107500Y-98380000D03*
X160107500Y-97980000D03*
X160107500Y-97580000D03*
X160107500Y-97180000D03*
X160107500Y-96780000D03*
X160107500Y-96380000D03*
%TD*%
D38*
%TO.C,AUR_C1*%
X143177500Y-82810000D03*
X141102500Y-82810000D03*
%TD*%
D39*
%TO.C,AUR_R1*%
X143710000Y-91900000D03*
X143710000Y-93900000D03*
%TD*%
D22*
%TO.C,EC1*%
X152610000Y-91805000D03*
X152610000Y-90255000D03*
%TD*%
D40*
%TO.C,I2C_SDA_R2*%
X173635000Y-92630000D03*
X171985000Y-92630000D03*
%TD*%
D13*
%TO.C,LR1*%
X165555000Y-82510000D03*
X167205000Y-82510000D03*
%TD*%
D40*
%TO.C,ER2*%
X164995000Y-102870000D03*
X163345000Y-102870000D03*
%TD*%
D41*
%TO.C,MTRR1*%
X173060000Y-83137500D03*
X173060000Y-84962500D03*
%TD*%
D39*
%TO.C,AUR_R2*%
X143710000Y-88110000D03*
X143710000Y-90110000D03*
%TD*%
D16*
%TO.C,probeSS12_1*%
X189610000Y-93980000D03*
X189610000Y-91180000D03*
%TD*%
D24*
%TO.C,EC11*%
X163855000Y-99960000D03*
X165405000Y-99960000D03*
%TD*%
D23*
%TO.C,EC17*%
X165220000Y-96845000D03*
X165220000Y-98395000D03*
%TD*%
D22*
%TO.C,EC8*%
X151060000Y-94075000D03*
X151060000Y-92525000D03*
%TD*%
D42*
%TO.C,AUR1*%
X141430000Y-88560000D03*
X140480000Y-88560000D03*
X139530000Y-88560000D03*
X139530000Y-91430000D03*
X140480000Y-91430000D03*
X141430000Y-91430000D03*
%TD*%
D22*
%TO.C,EC12*%
X146880000Y-90865000D03*
X146880000Y-89315000D03*
%TD*%
D43*
%TO.C,U3*%
X180745000Y-86785487D03*
X179745000Y-86785487D03*
X178745000Y-86785487D03*
X178745000Y-88755487D03*
X179745000Y-88755487D03*
X180745000Y-88755487D03*
%TD*%
D24*
%TO.C,LSC1*%
X167535000Y-94150000D03*
X169085000Y-94150000D03*
%TD*%
D20*
%TO.C,EC4*%
X148740000Y-88910000D03*
X148740000Y-90810000D03*
%TD*%
D24*
%TO.C,EC5*%
X161725000Y-85180000D03*
X163275000Y-85180000D03*
%TD*%
D25*
%TO.C,EL1*%
X159960000Y-85467500D03*
X159960000Y-87592500D03*
%TD*%
D44*
%TO.C,LED1*%
X166050000Y-84380000D03*
X166040000Y-87560000D03*
X167190000Y-84380000D03*
X167160000Y-87570000D03*
%TD*%
D22*
%TO.C,ATC1*%
X175030000Y-84935000D03*
X175030000Y-83385000D03*
%TD*%
D45*
%TO.C,BAT_FUSE1*%
X139312500Y-95930000D03*
X142287500Y-95930000D03*
%TD*%
D46*
%TO.C,MTRT1*%
X170945000Y-85020000D03*
X170945000Y-83120000D03*
X169070000Y-84070000D03*
%TD*%
D27*
%TO.C,ECY2*%
X163460000Y-92880000D03*
X163460000Y-95080000D03*
X165160000Y-95080000D03*
X165160000Y-92880000D03*
%TD*%
M02*
