M48
; DRILL file {KiCad 7.0.7} date Wed Sep 20 12:31:02 2023
; FORMAT={-:-/ absolute / inch / decimal}
; #@! TF.CreationDate,2023-09-20T12:31:02+02:00
; #@! TF.GenerationSoftware,Kicad,Pcbnew,7.0.7
; #@! TF.FileFunction,Plated,1,2,PTH
FMAT,2
INCH
; #@! TA.AperFunction,Plated,PTH,ViaDrill
T1C0.0157
; #@! TA.AperFunction,Plated,PTH,ComponentDrill
T2C0.0315
; #@! TA.AperFunction,Plated,PTH,ComponentDrill
T3C0.0394
%
G90
G05
T1
X5.4622Y-3.3476
X5.4622Y-3.6354
X5.4638Y-3.4283
X5.465Y-3.5409
X5.4976Y-3.2697
X5.6185Y-3.6839
X5.6969Y-3.4307
X5.7618Y-3.424
X5.763Y-3.3614
X5.7638Y-3.2984
X5.765Y-3.2409
X5.815Y-3.4307
X5.8681Y-4.0736
X5.8709Y-3.4319
X5.8969Y-3.6016
X5.9228Y-3.4319
X5.9276Y-3.7417
X5.939Y-4.1087
X5.9654Y-3.7965
X5.976Y-3.4319
X5.998Y-3.7685
X5.999Y-3.507
X6.0025Y-3.6614
X6.0134Y-3.7315
X6.0268Y-3.4327
X6.0417Y-3.7075
X6.0497Y-3.6752
X6.0547Y-3.6382
X6.076Y-3.4319
X6.0916Y-3.6375
X6.1184Y-3.5
X6.1236Y-3.6634
X6.1287Y-3.4291
X6.1689Y-3.9071
X6.1831Y-3.4307
X6.1919Y-3.6772
X6.2172Y-3.7028
X6.2256Y-3.6252
X6.2311Y-3.4291
X6.2476Y-3.8138
X6.2803Y-3.5323
X6.2996Y-3.7406
X6.3602Y-3.2449
X6.3614Y-3.2953
X6.3618Y-3.9244
X6.3634Y-3.8878
X6.3646Y-3.9728
X6.3702Y-3.5496
X6.389Y-3.9929
X6.3953Y-3.8646
X6.3997Y-3.8123
X6.4193Y-3.9724
X6.4327Y-3.3051
X6.4539Y-3.9795
X6.4917Y-3.2937
X6.4992Y-3.3441
X6.5043Y-3.9039
X6.5445Y-3.6535
X6.5484Y-3.702
X6.5579Y-3.5969
X6.563Y-3.7425
X6.5669Y-3.8752
X6.5705Y-3.5
X6.6024Y-4.0366
X6.6705Y-3.2638
X6.6787Y-3.9571
X6.6858Y-3.6736
X6.6862Y-3.6169
X6.7138Y-3.848
X6.7209Y-3.8067
X6.7236Y-3.8872
X6.7295Y-3.9413
X6.7717Y-3.3476
X6.8929Y-3.6917
X6.8945Y-3.6409
X6.9846Y-3.6504
X7.0161Y-3.6925
X7.061Y-3.728
X7.1051Y-3.6189
T2
X7.0083Y-4.013
X7.1067Y-4.013
X7.2463Y-3.3358
X7.3447Y-3.3358
T3
X5.7135Y-3.9295
X5.7135Y-4.028
T0
M30
